<svg width="750" height="920" viewBox="0 0 750 920" fill="none" xmlns="http://www.w3.org/2000/svg">
<path opacity="0.1" fill-rule="evenodd" clip-rule="evenodd" d="M414.147 852.302C198.373 852.302 21.7514 676.981 21.7514 461.736C21.7514 246.491 198.373 71.1698 414.147 71.1698C629.921 71.1698 806.542 246.491 806.542 461.736C806.542 676.981 629.921 852.302 414.147 852.302ZM428.068 49.4717C200.113 49.4717 13.9209 234.34 13.9209 461.736C13.9209 689.132 200.113 874 428.068 874C656.023 874 842.215 689.132 842.215 461.736C842.215 234.34 656.023 49.4717 428.068 49.4717ZM448.079 900.038C206.203 900.038 8.70057 703.887 8.70057 462.604C8.70057 222.189 206.203 25.1698 448.079 25.1698C689.955 25.1698 887.458 221.321 887.458 462.604C887.458 703.887 689.955 900.038 448.079 900.038ZM462 0C207.073 0 0 206.566 0 460C0 713.434 207.073 920 462 920C716.057 920 924 713.434 924 460C924 206.566 716.057 0 462 0ZM433.288 422.679C411.537 422.679 394.136 440.038 394.136 461.736C394.136 483.434 411.537 500.792 433.288 500.792C455.04 500.792 472.441 483.434 472.441 461.736C472.441 440.038 455.04 422.679 433.288 422.679ZM381.955 806.302C191.412 806.302 36.5424 651.811 36.5424 461.736C36.5424 271.66 192.283 117.17 382.825 117.17C573.367 117.17 729.107 271.66 729.107 461.736C728.237 651.811 572.497 806.302 381.955 806.302ZM395.006 95.4717C192.283 95.4717 26.9718 260.377 26.9718 461.736C26.9718 663.962 192.283 828 395.006 828C597.729 828 763.04 663.094 763.04 461.736C763.04 260.377 597.729 95.4717 395.006 95.4717ZM485.492 571.962C424.588 571.962 374.994 522.491 374.994 461.736C374.994 400.981 424.588 351.509 485.492 351.509C546.396 351.509 595.989 400.981 595.989 461.736C595.989 522.491 546.396 571.962 485.492 571.962ZM499.412 328.075C426.328 328.075 365.424 387.962 365.424 461.736C365.424 535.509 425.458 595.396 499.412 595.396C573.367 595.396 633.401 535.509 633.401 461.736C633.401 387.962 573.367 328.075 499.412 328.075ZM482.011 618.83C395.006 618.83 324.531 548.528 324.531 461.736C324.531 374.943 395.006 304.641 482.011 304.641C569.017 304.641 639.492 374.943 639.492 461.736C639.492 548.528 568.147 618.83 482.011 618.83ZM464.61 282.075C365.424 282.075 284.508 362.792 284.508 461.736C284.508 560.679 365.424 641.396 464.61 641.396C563.797 641.396 644.712 560.679 644.712 461.736C644.712 362.792 563.797 282.075 464.61 282.075ZM444.599 666.566C331.492 666.566 239.266 574.566 239.266 461.736C239.266 348.906 331.492 256.906 444.599 256.906C557.706 256.906 649.932 348.906 649.932 461.736C649.932 574.566 557.706 666.566 444.599 666.566ZM428.938 234.34C303.65 234.34 200.983 336.755 200.983 461.736C200.983 586.717 303.65 689.132 428.938 689.132C554.226 689.132 656.893 586.717 656.893 461.736C656.893 336.755 555.096 234.34 428.938 234.34ZM450.689 525.094C415.887 525.094 387.175 496.453 387.175 461.736C387.175 427.019 415.887 398.377 450.689 398.377C485.492 398.377 514.203 427.019 514.203 461.736C514.203 496.453 485.492 525.094 450.689 525.094ZM467.22 374.943C419.367 374.943 380.215 414 380.215 461.736C380.215 509.472 419.367 548.528 467.22 548.528C515.073 548.528 554.226 509.472 554.226 461.736C554.226 414 515.073 374.943 467.22 374.943ZM410.667 712.566C272.328 712.566 159.22 599.736 159.22 461.736C159.22 323.736 272.328 210.906 410.667 210.906C549.006 210.906 662.113 323.736 662.113 461.736C662.983 599.736 549.876 712.566 410.667 712.566ZM395.876 188.34C244.486 188.34 121.808 310.717 121.808 461.736C121.808 611.887 245.356 735.132 395.876 735.132C546.396 735.132 669.944 611.887 669.944 461.736C669.944 311.585 546.396 188.34 395.876 188.34ZM376.734 759.434C212.294 759.434 78.3051 625.774 78.3051 461.736C78.3051 297.698 212.294 164.038 376.734 164.038C541.175 164.038 675.164 297.698 675.164 461.736C675.164 625.774 541.175 759.434 376.734 759.434ZM364.554 138.868C187.062 138.868 41.7627 283.811 41.7627 460.868C41.7627 637.924 187.062 782.868 364.554 782.868C542.915 782.868 687.345 637.924 687.345 460.868C688.215 283.811 542.915 138.868 364.554 138.868Z" fill="white"/>
</svg>
