<svg xmlns="http://www.w3.org/2000/svg" xmlns:xlink="http://www.w3.org/1999/xlink" width="924px" height="916px" viewBox="0 0 923 916" version="1.1">
<path opacity="0.1" fill-rule="evenodd" clip-rule="evenodd" d="M 411.878906 848.597656 C 197.285156 848.597656 21.632812 674.039062 21.632812 459.726562 C 21.632812 245.417969 197.285156 70.859375 411.878906 70.859375 C 626.472656 70.859375 802.125 245.417969 802.125 459.726562 C 802.125 674.039062 626.472656 848.597656 411.878906 848.597656 Z M 425.722656 49.257812 C 199.015625 49.257812 13.84375 233.320312 13.84375 459.726562 C 13.84375 686.136719 199.015625 870.199219 425.722656 870.199219 C 652.429688 870.199219 837.605469 686.136719 837.605469 459.726562 C 837.605469 233.320312 652.429688 49.257812 425.722656 49.257812 Z M 445.625 896.125 C 205.074219 896.125 8.652344 700.824219 8.652344 460.59375 C 8.652344 221.222656 205.074219 25.058594 445.625 25.058594 C 686.175781 25.058594 882.59375 220.359375 882.59375 460.59375 C 882.59375 700.824219 686.175781 896.125 445.625 896.125 Z M 459.46875 0 C 205.941406 0 0 205.667969 0 458 C 0 710.332031 205.941406 916 459.46875 916 C 712.136719 916 918.941406 710.332031 918.941406 458 C 918.941406 205.667969 712.136719 0 459.46875 0 Z M 430.917969 420.839844 C 409.285156 420.839844 391.976562 438.125 391.976562 459.726562 C 391.976562 481.332031 409.285156 498.617188 430.917969 498.617188 C 452.546875 498.617188 469.855469 481.332031 469.855469 459.726562 C 469.855469 438.125 452.546875 420.839844 430.917969 420.839844 Z M 379.863281 802.796875 C 190.363281 802.796875 36.34375 648.976562 36.34375 459.726562 C 36.34375 270.480469 191.230469 116.660156 380.730469 116.660156 C 570.226562 116.660156 725.113281 270.480469 725.113281 459.726562 C 724.25 648.976562 569.363281 802.796875 379.863281 802.796875 Z M 392.84375 95.058594 C 191.230469 95.058594 26.824219 259.246094 26.824219 459.726562 C 26.824219 661.074219 191.230469 824.398438 392.84375 824.398438 C 594.457031 824.398438 758.863281 660.210938 758.863281 459.726562 C 758.863281 259.246094 594.457031 95.058594 392.84375 95.058594 Z M 482.832031 569.476562 C 422.261719 569.476562 372.941406 520.21875 372.941406 459.726562 C 372.941406 399.238281 422.261719 349.980469 482.832031 349.980469 C 543.402344 349.980469 592.726562 399.238281 592.726562 459.726562 C 592.726562 520.21875 543.402344 569.476562 482.832031 569.476562 Z M 496.679688 326.648438 C 423.992188 326.648438 363.421875 386.277344 363.421875 459.726562 C 363.421875 533.179688 423.128906 592.808594 496.679688 592.808594 C 570.226562 592.808594 629.933594 533.179688 629.933594 459.726562 C 629.933594 386.277344 570.226562 326.648438 496.679688 326.648438 Z M 479.371094 616.140625 C 392.84375 616.140625 322.753906 546.144531 322.753906 459.726562 C 322.753906 373.3125 392.84375 303.316406 479.371094 303.316406 C 565.902344 303.316406 635.988281 373.3125 635.988281 459.726562 C 635.988281 546.144531 565.035156 616.140625 479.371094 616.140625 Z M 462.066406 280.847656 C 363.421875 280.847656 282.949219 361.214844 282.949219 459.726562 C 282.949219 558.242188 363.421875 638.605469 462.066406 638.605469 C 560.710938 638.605469 641.183594 558.242188 641.183594 459.726562 C 641.183594 361.214844 560.710938 280.847656 462.066406 280.847656 Z M 442.164062 663.667969 C 329.675781 663.667969 237.957031 572.066406 237.957031 459.726562 C 237.957031 347.386719 329.675781 255.789062 442.164062 255.789062 C 554.652344 255.789062 646.375 347.386719 646.375 459.726562 C 646.375 572.066406 554.652344 663.667969 442.164062 663.667969 Z M 426.589844 233.320312 C 301.988281 233.320312 199.882812 335.289062 199.882812 459.726562 C 199.882812 584.164062 301.988281 686.136719 426.589844 686.136719 C 551.191406 686.136719 653.296875 584.164062 653.296875 459.726562 C 653.296875 335.289062 552.058594 233.320312 426.589844 233.320312 Z M 448.222656 522.8125 C 413.609375 522.8125 385.054688 494.292969 385.054688 459.726562 C 385.054688 425.164062 413.609375 396.644531 448.222656 396.644531 C 482.832031 396.644531 511.386719 425.164062 511.386719 459.726562 C 511.386719 494.292969 482.832031 522.8125 448.222656 522.8125 Z M 464.660156 373.3125 C 417.070312 373.3125 378.132812 412.199219 378.132812 459.726562 C 378.132812 507.257812 417.070312 546.144531 464.660156 546.144531 C 512.253906 546.144531 551.191406 507.257812 551.191406 459.726562 C 551.191406 412.199219 512.253906 373.3125 464.660156 373.3125 Z M 408.417969 709.46875 C 270.835938 709.46875 158.347656 597.128906 158.347656 459.726562 C 158.347656 322.328125 270.835938 209.988281 408.417969 209.988281 C 546 209.988281 658.488281 322.328125 658.488281 459.726562 C 659.351562 597.128906 546.863281 709.46875 408.417969 709.46875 Z M 393.707031 187.519531 C 243.148438 187.519531 121.140625 309.367188 121.140625 459.726562 C 121.140625 609.226562 244.011719 731.9375 393.707031 731.9375 C 543.402344 731.9375 666.277344 609.226562 666.277344 459.726562 C 666.277344 310.230469 543.402344 187.519531 393.707031 187.519531 Z M 374.671875 756.132812 C 211.132812 756.132812 77.875 623.054688 77.875 459.726562 C 77.875 296.402344 211.132812 163.324219 374.671875 163.324219 C 538.210938 163.324219 671.46875 296.402344 671.46875 459.726562 C 671.46875 623.054688 538.210938 756.132812 374.671875 756.132812 Z M 362.558594 138.265625 C 186.039062 138.265625 41.535156 282.578125 41.535156 458.863281 C 41.535156 635.152344 186.039062 779.464844 362.558594 779.464844 C 539.941406 779.464844 683.582031 635.152344 683.582031 458.863281 C 684.445312 282.578125 539.941406 138.265625 362.558594 138.265625 Z M 362.558594 138.265625" fill="white" />
</svg>
