<svg width="499" height="220" viewBox="0 0 499 220" fill="none" xmlns="http://www.w3.org/2000/svg">
<path d="M157.353 133.65V171.736H3.83691L0.907227 141.561L86.6006 3.71875H125.565L83.2314 73.0059L48.0752 133.65H157.353ZM135.819 3.71875V217H86.4541V3.71875H135.819Z" fill="#90A4AF"/>
<path d="M324.267 90.877V129.842C324.267 145.174 322.461 158.504 318.847 169.832C315.332 181.16 310.254 190.535 303.613 197.957C297.07 205.379 289.258 210.896 280.176 214.51C271.094 218.123 261.084 219.93 250.146 219.93C241.357 219.93 233.154 218.807 225.537 216.561C217.92 214.217 211.035 210.701 204.883 206.014C198.828 201.229 193.603 195.271 189.209 188.143C184.814 181.014 181.445 172.615 179.101 162.947C176.758 153.182 175.586 142.146 175.586 129.842V90.877C175.586 75.4473 177.344 62.1172 180.859 50.8867C184.472 39.5586 189.599 30.1836 196.24 22.7617C202.881 15.3398 210.742 9.82227 219.824 6.20898C228.906 2.5957 238.916 0.789062 249.853 0.789062C258.642 0.789062 266.797 1.96094 274.316 4.30469C281.933 6.55078 288.818 10.0664 294.971 14.8516C301.123 19.5391 306.347 25.4473 310.644 32.5762C315.039 39.7051 318.408 48.1523 320.752 57.918C323.096 67.5859 324.267 78.5723 324.267 90.877ZM274.902 135.848V84.5781C274.902 77.7422 274.512 71.7852 273.73 66.707C273.047 61.6289 271.972 57.332 270.508 53.8164C269.14 50.3008 267.431 47.4688 265.381 45.3203C263.33 43.0742 260.986 41.4629 258.349 40.4863C255.81 39.4121 252.978 38.875 249.853 38.875C245.947 38.875 242.431 39.7051 239.306 41.3652C236.279 42.9277 233.691 45.4668 231.543 48.9824C229.394 52.498 227.734 57.1855 226.562 63.0449C225.488 68.9043 224.951 76.082 224.951 84.5781V135.848C224.951 142.781 225.293 148.836 225.976 154.012C226.758 159.09 227.832 163.436 229.199 167.049C230.664 170.564 232.422 173.445 234.472 175.691C236.523 177.84 238.867 179.402 241.504 180.379C244.14 181.355 247.021 181.844 250.146 181.844C253.955 181.844 257.373 181.062 260.4 179.5C263.428 177.938 266.015 175.398 268.164 171.883C270.41 168.27 272.07 163.533 273.144 157.674C274.316 151.717 274.902 144.441 274.902 135.848Z" fill="#90A4AF"/>
<path d="M498.799 133.65V171.736H345.284L342.354 141.561L428.047 3.71875H467.012L424.678 73.0059L389.522 133.65H498.799ZM477.266 3.71875V217H427.901V3.71875H477.266Z" fill="#90A4AF"/>
</svg>
