<svg width="81" height="48" viewBox="0 0 81 48" fill="none" xmlns="http://www.w3.org/2000/svg">
<path d="M44.4715 0.0744972C44.3518 0.129398 43.4487 0.414886 42.4586 0.733318C41.4685 1.04077 40.5872 1.33724 40.5002 1.38116C40.3588 1.45803 40.337 1.87528 40.3044 3.96156L40.2826 6.44312H38.8682C37.2361 6.44312 37.3667 6.33332 37.3232 7.76077L37.2905 8.5843L33.0255 8.61724L28.7496 8.6392V10.6047C28.7496 11.6917 28.7169 12.647 28.6843 12.7459C28.6299 12.8996 28.2382 12.9216 25.4746 12.9216C23.0375 12.9216 22.3303 12.8886 22.3194 12.7788C22.3194 12.7129 22.3085 12.3506 22.3085 11.9882C22.3085 11.6259 22.2867 11.2196 22.265 11.0769L22.2215 10.8353H18.0979C15.8239 10.8353 13.8981 10.8023 13.8002 10.7694C13.6588 10.7145 13.6261 10.5059 13.6261 9.67136V8.6392H8.3057C4.14946 8.6392 2.9744 8.67214 2.93088 8.77097C2.90912 8.84783 2.90912 17.0172 2.94176 26.9325C2.9744 36.8368 2.96352 45.0831 2.92 45.2369C2.85472 45.5333 2.84384 45.5333 1.8755 45.5333C1.04861 45.5333 0.907164 45.5553 0.863643 45.72C0.820122 45.8957 0.831002 46.851 0.874523 47.4329C0.896283 47.6086 2.84384 47.6196 40.5872 47.5976L80.2673 47.5647V46.5765V45.5882L79.2337 45.5333L78.2001 45.4784L78.1457 27.0863L78.0913 8.6941H72.8144H67.5375L67.5048 9.46273C67.494 9.87999 67.4613 10.3412 67.4287 10.4729L67.3743 10.7255H63.0222H58.6701V11.8235V12.9216L55.6019 12.8996L52.5228 12.8667L52.4684 10.7804L52.414 8.6941L48.0946 8.66116L43.7751 8.6392L43.7425 7.56313L43.7099 6.49802L42.241 6.44312L40.7722 6.38822V5.34509V4.30195L42.785 3.62116L44.7979 2.95136L44.8305 1.54587C44.8414 0.777241 44.8196 0.107437 44.7761 0.0635147C44.7326 0.0195923 44.5911 0.0305748 44.4715 0.0744972ZM7.18504 26.9984L7.2068 38.9451H6.11878H5.03076V26.9765V14.9968L6.09702 15.0298L7.1524 15.0627L7.18504 26.9984ZM11.5371 26.9984L11.5589 38.9451H10.4165H9.27403V27.0533C9.27403 20.509 9.30667 15.1176 9.35019 15.0737C9.39372 15.0298 9.89421 15.0188 10.4709 15.0298L11.5045 15.0627L11.5371 26.9984ZM71.5958 15.0957C71.7046 15.1725 71.7264 17.6431 71.7046 27.0972L71.672 39H70.6383H69.6047L69.5503 27.1961C69.5177 20.7067 69.5177 15.3372 69.5286 15.2604C69.5503 15.1945 69.7026 15.1067 69.855 15.0847C70.399 15.0078 71.4544 15.0078 71.5958 15.0957ZM75.85 15.1176C75.9696 15.1835 76.0349 38.7584 75.9152 38.9561C75.8391 39.0659 74.2397 39.0988 73.9677 38.989C73.8154 38.9231 73.7936 37.7702 73.7936 27.0314C73.7936 17.6212 73.8262 15.1286 73.935 15.0847C74.1309 14.9968 75.7194 15.0298 75.85 15.1176ZM15.8566 17.4455C15.8892 17.5882 15.9001 23.4518 15.8892 30.4902L15.8566 43.2823H14.7685H13.6805L13.6479 30.3804C13.637 23.287 13.6479 17.4125 13.6805 17.3357C13.7132 17.2478 14.0396 17.2039 14.7577 17.2039C15.7478 17.2039 15.8022 17.2149 15.8566 17.4455ZM20.0237 17.3357C20.1216 17.4345 20.1542 20.4541 20.1542 30.2267C20.1542 37.2431 20.1216 43.0627 20.0889 43.1616C20.0345 43.3043 19.8278 43.3372 19.0009 43.3372H17.9782V30.2706V17.2039H18.9356C19.5341 17.2039 19.9366 17.2478 20.0237 17.3357ZM37.3232 25.9553L37.3449 34.6627H36.2678C35.2451 34.6627 35.1907 34.6518 35.1254 34.4102C35.0383 34.0918 35.0383 17.5992 35.1254 17.3686C35.1798 17.2259 35.3647 17.2039 36.246 17.2259L37.2905 17.2588L37.3232 25.9553ZM41.61 17.3906C41.6317 17.5004 41.6535 21.4204 41.6535 26.098L41.6426 34.6078H40.5546H39.4666L39.4339 26.0431C39.4231 21.3325 39.4339 17.4125 39.4666 17.3357C39.4992 17.2478 39.8256 17.2039 40.5437 17.2039C41.4359 17.2039 41.5773 17.2259 41.61 17.3906ZM45.8859 17.4455C45.9185 17.5882 45.9294 21.4972 45.9185 26.1529L45.8859 34.6078L44.8305 34.6408C43.8731 34.6627 43.7643 34.6518 43.7643 34.4761C43.7316 30.4023 43.786 17.3686 43.8295 17.3027C43.8622 17.2478 44.3191 17.2039 44.8523 17.2039C45.7771 17.2039 45.8315 17.2149 45.8859 17.4455ZM67.4178 22.3318C67.494 27.7012 67.4831 42.8102 67.396 43.1506C67.3525 43.3263 67.2328 43.3372 66.2971 43.3153L65.2526 43.2823L65.22 30.4902C65.2091 23.4518 65.22 17.5882 65.2526 17.4455C65.307 17.2149 65.3614 17.2039 66.3298 17.2039H67.3416L67.4178 22.3318ZM24.3975 25.9882V34.6627H23.3095H22.2215V25.9882V17.3137H23.3095H24.3975V25.9882ZM28.6952 25.9882V34.6078H27.6072H26.5191L26.4865 25.9553L26.4647 17.3027L27.5745 17.3357L28.6952 17.3686V25.9882ZM33.0255 18.818C33.1125 20.8274 33.1234 42.931 33.0364 43.1616C32.9385 43.4251 30.8712 43.4251 30.7733 43.1616C30.6863 42.92 30.6863 17.4784 30.7842 17.3906C30.8168 17.3467 31.3282 17.3137 31.9048 17.3137H32.9602L33.0255 18.818ZM50.2706 30.1059C50.2815 37.1114 50.2706 42.9529 50.238 43.0847C50.1836 43.3263 50.1292 43.3372 49.1064 43.3372H48.0293L47.9858 42.4918C47.964 42.0196 47.964 36.1561 47.9858 29.469L48.0184 17.3027L49.1282 17.3357L50.238 17.3686L50.2706 30.1059ZM54.5356 25.9882V34.6627H53.4585C52.501 34.6627 52.3705 34.6408 52.3052 34.4651C52.229 34.2125 52.2508 18.4337 52.327 17.7749L52.3814 17.3137H53.4585H54.5356V25.9882ZM58.8007 25.3514C58.8224 29.7765 58.8116 33.6855 58.8007 34.0368L58.7572 34.6737L57.7127 34.6408L56.6573 34.6078L56.6246 25.9553L56.6029 17.3137H57.6909H58.7789L58.8007 25.3514ZM63.131 30.3255V43.3372H62.043H60.955V30.3255V17.3137H62.043H63.131V30.3255ZM24.3975 40.0431V43.3372H23.3095H22.2215V40.0431V36.749H23.3095H24.3975V40.0431ZM28.6843 36.9247C28.7822 37.1882 28.7605 43.0408 28.6625 43.2055C28.5973 43.3043 28.2926 43.3372 27.5419 43.3153L26.5191 43.2823L26.4865 40.1529C26.4756 38.429 26.4865 36.9686 26.5191 36.8918C26.5518 36.7929 26.8673 36.749 27.5963 36.749C28.4232 36.749 28.6299 36.7819 28.6843 36.9247ZM37.2905 36.8588C37.3341 36.9357 37.3776 41.1302 37.3449 43.1396C37.3449 43.3153 37.2253 43.3372 36.2678 43.3372C35.3865 43.3372 35.1798 43.3043 35.1254 43.1616C35.0057 42.8541 35.0492 37.1882 35.1689 36.9576C35.2668 36.771 35.4083 36.749 36.2569 36.749C36.79 36.749 37.2579 36.7929 37.2905 36.8588ZM45.875 36.9906C45.9621 37.32 45.9621 42.9419 45.875 43.1616C45.8206 43.3043 45.6139 43.3372 44.787 43.3372H43.7751L43.7425 40.2847C43.7207 38.6157 43.7425 37.1333 43.786 36.9906C43.8622 36.76 43.9275 36.749 44.8414 36.749C45.7553 36.749 45.8097 36.76 45.875 36.9906ZM54.2419 36.8478L54.5356 36.8588V40.098V43.3372H53.4585C52.6751 43.3372 52.3705 43.2933 52.327 43.1945C52.2182 42.92 52.2399 37.1882 52.3487 36.9906C52.4575 36.7819 52.6207 36.771 54.2419 36.8478ZM58.7572 40.087L58.7789 43.3482L57.7235 43.3153L56.6573 43.2823L56.6246 40.109C56.6138 38.2533 56.6464 36.9027 56.7008 36.8698C56.7552 36.8368 57.2339 36.8149 57.7671 36.8149L58.7245 36.8259L58.7572 40.087ZM11.5806 41.8219C11.5915 42.2063 11.5915 42.7004 11.5698 42.92L11.5371 43.3372H8.28394H5.03076L5.01988 42.92C5.01988 42.7004 5.009 42.2612 4.98724 41.9647C4.97636 41.6572 4.97636 41.3498 5.009 41.2729C5.04164 41.1741 5.80325 41.1412 8.29482 41.1412H11.5371L11.5806 41.8219ZM75.9914 41.6572C76.0132 41.9537 76.0023 42.4478 75.9914 42.7553L75.9479 43.3372H72.76H69.5721L69.5068 43.0298C69.4633 42.7882 69.4742 41.8659 69.5394 41.2729C69.5503 41.1741 70.2684 41.1412 72.7491 41.1412H75.9588L75.9914 41.6572Z" fill="#5979C4"/>
</svg>
