<svg width="176" height="45" viewBox="0 0 176 45" fill="none" xmlns="http://www.w3.org/2000/svg">
<g clip-path="url(#clip0_3728_11255)">
<mask id="mask0_3728_11255" style="mask-type:luminance" maskUnits="userSpaceOnUse" x="-22" y="-22" width="220" height="89">
<path d="M-21.5493 -21.5859H197.268V66.386H-21.5493V-21.5859Z" fill="white"/>
</mask>
<g mask="url(#mask0_3728_11255)">
<path d="M22.2579 0.408203C10.1757 0.408203 0.379883 10.2554 0.379883 22.3992C0.379883 34.5446 10.1757 44.3918 22.2579 44.3918C34.3463 44.3918 44.1421 34.5446 44.1421 22.3992C44.1421 10.2554 34.3463 0.408203 22.2579 0.408203ZM22.2579 42.6927C11.1066 42.6927 2.07041 33.6073 2.07041 22.3992C2.07041 11.1911 11.1066 2.10734 22.2579 2.10734C33.4123 2.10734 42.4501 11.1911 42.4501 22.3992C42.4501 33.6073 33.4123 42.6927 22.2579 42.6927Z" fill="#5979C4"/>
</g>
<mask id="mask1_3728_11255" style="mask-type:luminance" maskUnits="userSpaceOnUse" x="-22" y="-22" width="220" height="89">
<path d="M-21.5493 -21.5859H197.268V66.386H-21.5493V-21.5859Z" fill="white"/>
</mask>
<g mask="url(#mask1_3728_11255)">
<path fill-rule="evenodd" clip-rule="evenodd" d="M22.2577 38.8941C23.0142 38.8941 23.4728 38.382 23.5006 37.6822C23.6657 37.9972 23.8803 38.2113 24.203 38.2765C24.5195 38.3401 24.8622 38.2951 25.1525 38.1663C25.4475 38.0462 25.6874 37.8199 25.8256 37.5317C25.9692 37.2369 25.9213 36.9312 25.8194 36.5774C26.1745 37.0925 26.7782 37.226 27.3077 36.9777C28.0349 36.6363 28.3004 36.0156 28.0024 35.3065C27.1039 33.162 26.2116 31.0563 25.31 28.9119C25.2281 28.7179 25.1587 28.5193 25.0676 28.3253C24.9888 28.1546 24.9348 28.0289 24.8607 27.9234C24.8031 27.8458 24.7313 27.78 24.6492 27.7294C26.0433 27.8846 26.7133 28.437 27.0838 28.6822C27.1811 28.7474 27.1765 28.7567 27.5532 28.6388C27.636 28.614 27.7228 28.6061 27.8087 28.6154C27.8946 28.6247 27.9778 28.6511 28.0534 28.6931C28.2217 28.7877 28.3946 28.8901 28.5413 29.0065C29.043 29.3991 29.5525 29.7777 30.0249 30.2013C30.2457 30.3984 30.5637 30.7382 30.5189 31.0408C30.4834 31.3263 29.798 31.9796 29.5942 32.1736C29.1078 32.6375 29.8427 33.5065 30.8246 33.4258C30.5622 33.1496 30.5004 32.9153 30.5328 32.7074C30.6316 32.7058 30.8184 32.7244 30.9944 32.5662C31.206 32.3737 31.1102 31.8089 31.3078 31.6165C31.6521 31.2782 32.7807 31.2472 33.4569 31.2177C33.7394 31.2069 34.0374 31.1293 34.0158 30.6855C34.445 30.715 34.5345 31.0362 34.5345 31.3248C34.902 31.1137 35.22 30.1082 33.8568 29.877C34.0868 29.6691 34.4681 29.59 34.7043 29.8584C34.9251 29.4891 34.3662 28.7644 33.3566 29.1741C33.3581 29.1694 32.9042 28.5705 31.5394 30.1067C31.3681 29.9763 31.1967 29.8491 31.0408 29.7032C30.5143 29.2191 29.1835 27.9125 29.1835 27.9125C29.1835 27.177 29.0739 25.7525 28.1074 24.8991C27.6952 24.536 27.3031 24.3436 26.4308 24.1837C26.4308 24.1837 26.8523 23.5196 26.9187 23.2589C27.6782 24.0224 29.2051 24.2505 29.2051 22.961C30.4495 24.2148 31.6058 23.5398 31.6058 22.7531C31.6444 23.1363 31.7417 23.5584 31.8714 23.92C32.0273 24.3405 32.597 25.9558 34.0683 25.9558C34.1022 26.516 34.1053 28.3641 35.8638 28.7753C35.9379 28.7955 36.0352 28.8203 36.083 28.8793C36.7916 29.7653 39.7435 30.6994 40.1048 30.4481C39.8747 30.2836 39.5135 30.0648 39.4563 29.022C39.4193 28.3346 39.3436 24.7656 39.3436 19.7365C39.3436 17.9582 39.1537 12.1936 33.4831 11.3898C32.6232 11.2672 31.7772 11.3324 31.0439 11.8801C30.0465 12.6281 29.5556 13.8912 30.1422 15.3187C30.1608 15.37 30.1762 15.4212 30.2024 15.4662C30.4016 15.806 30.3213 16.1008 30.062 16.36C29.588 16.8317 29.0368 17.1513 28.373 17.2289C27.953 17.277 27.6072 17.0924 27.3293 16.8037C26.6933 16.1458 26.2455 15.3731 26.105 14.4622C25.8364 12.7274 26.2687 11.8677 26.2934 11.8134C26.755 10.8839 27.7354 10.2012 28.8701 10.1034C29.3904 9.12582 30.8833 9.5122 30.8833 9.5122C31.2569 9.59444 31.3881 9.70306 31.4823 9.88772C31.4823 9.88772 32.1369 8.88375 31.5194 8.48185C30.9034 8.07996 29.5216 7.91392 29.5216 7.91392C29.5216 7.26064 28.4471 6.75168 26.5049 7.10082C24.1567 7.52133 23.6534 6.59961 23.6534 6.59961C23.5561 7.72926 24.413 8.31116 24.6893 8.46944C23.7985 9.44082 22.5542 11.382 22.2577 14.1363C21.9613 11.382 20.717 9.44082 19.8262 8.46944C20.101 8.31116 20.9594 7.72926 20.8621 6.59961C20.8621 6.59961 20.3573 7.52133 18.009 7.10082C16.0684 6.75168 14.9939 7.26064 14.9939 7.91392C14.9939 7.91392 13.6121 8.07996 12.9946 8.48185C12.3786 8.88375 13.0316 9.88772 13.0316 9.88772C13.1274 9.70306 13.2586 9.59444 13.6322 9.5122C13.6322 9.5122 15.1251 9.12582 15.6454 10.1034C16.7801 10.2012 17.7605 10.8839 18.2221 11.8134C18.2468 11.8677 18.7053 12.7351 18.4104 14.4622C18.2545 15.3715 17.8222 16.1458 17.1862 16.8037C16.9083 17.0924 16.5624 17.277 16.1425 17.2289C15.4787 17.1513 14.9275 16.8317 14.4535 16.36C14.1942 16.1008 14.1139 15.806 14.313 15.4662C14.3393 15.4212 14.3547 15.37 14.3733 15.3187C14.9599 13.8912 14.469 12.6281 13.4716 11.8801C12.7383 11.3324 11.8923 11.2672 11.0323 11.3898C5.36174 12.1936 5.1703 17.9582 5.1703 19.7365C5.1703 24.7656 5.09465 28.3346 5.0576 29.022C5.00048 30.0648 4.63921 30.282 4.40918 30.4481C4.77199 30.6994 7.7223 29.7669 8.43248 28.8793C8.48034 28.8203 8.5776 28.7939 8.65171 28.7753C10.4102 28.3625 10.4133 26.516 10.4472 25.9558C11.9185 25.9558 12.4882 24.3405 12.6441 23.92C12.7738 23.5584 12.8711 23.1363 12.9097 22.7531C12.9097 23.5398 14.066 24.2132 15.3104 22.961C15.3104 24.2505 16.8373 24.0239 17.5968 23.2589C17.6632 23.5196 18.0847 24.1837 18.0847 24.1837C17.2124 24.3436 16.8203 24.536 16.4065 24.8991C15.4416 25.7541 15.332 27.1786 15.332 27.9125C15.332 27.9125 14.0012 29.2206 13.4747 29.7032C13.3188 29.8491 13.1474 29.9763 12.9761 30.1067C11.6113 28.572 11.1558 29.1694 11.1589 29.1741C10.1493 28.7644 9.59037 29.4891 9.81115 29.8584C10.0458 29.59 10.4287 29.6691 10.6587 29.877C9.2955 30.1067 9.61199 31.1137 9.98097 31.3248C9.98097 31.0346 10.069 30.7134 10.4997 30.6855C10.4781 31.1293 10.7761 31.2069 11.0586 31.2177C11.7333 31.2472 12.8618 31.2782 13.2076 31.6165C13.4037 31.8089 13.308 32.3737 13.521 32.5662C13.697 32.7244 13.8838 32.7058 13.9811 32.7074C14.0135 32.9153 13.9533 33.1496 13.6909 33.4258C14.6728 33.5081 15.4076 32.6375 14.9213 32.1736C14.7175 31.9796 14.0305 31.3248 13.9965 31.0408C13.9518 30.7382 14.2698 30.3984 14.4906 30.2013C14.963 29.7793 15.4725 29.3991 15.9742 29.0065C16.1209 28.8901 16.2938 28.7862 16.4621 28.6931C16.5377 28.6511 16.6209 28.6247 16.7068 28.6154C16.7926 28.6061 16.8795 28.614 16.9623 28.6388C17.339 28.7567 17.3344 28.7474 17.4316 28.6822C17.8006 28.437 18.4722 27.8831 19.8663 27.7294C19.7834 27.7796 19.7111 27.8454 19.6533 27.9234C19.5791 28.0274 19.5267 28.1531 19.4479 28.3253C19.3568 28.5193 19.2874 28.7179 19.2055 28.9119C18.3039 31.0563 17.4116 33.162 16.513 35.3065C16.2151 36.0156 16.4806 36.6363 17.2078 36.9777C17.7373 37.226 18.341 37.0925 18.6961 36.5774C18.5942 36.9327 18.5463 37.2369 18.6899 37.5317C18.828 37.8199 19.068 38.0462 19.363 38.1663C19.6533 38.2951 19.996 38.3401 20.3125 38.2765C20.6351 38.2113 20.8497 37.9972 21.0149 37.6822C21.0427 38.382 21.5013 38.8941 22.2577 38.8941Z" fill="#5979C4"/>
</g>
<mask id="mask2_3728_11255" style="mask-type:luminance" maskUnits="userSpaceOnUse" x="-22" y="-22" width="220" height="89">
<path d="M-21.5493 -21.5859H197.268V66.386H-21.5493V-21.5859Z" fill="white"/>
</mask>
<g mask="url(#mask2_3728_11255)">
<path d="M59.2116 14.7199C60.4174 14.7199 62.8783 14.6113 64.2847 14.526C64.2484 14.7852 64.2267 15.0463 64.2199 15.308C64.2199 15.4586 64.2647 15.8077 64.2847 16.0451C62.9662 15.8802 61.6406 15.7792 60.3124 15.7425C59.86 15.7425 58.1062 15.7844 57.1567 15.8713V21.3256H58.2575C60.5085 21.3256 65.2419 21.7586 65.2419 25.6891C65.2419 28.881 62.5819 30.3365 59.0835 30.3148C58.6913 30.3148 57.2247 30.2511 56.2891 30.2511C55.8831 30.2511 55.3859 30.2729 55.0386 30.3148C55.1713 27.9236 55.2115 24.623 55.2115 21.8858C55.2115 19.4325 55.1945 15.7177 55.0386 14.5244C56.4219 14.5911 58.7099 14.7199 59.2116 14.7199ZM57.1567 29.0563C57.7187 29.078 58.3857 29.0998 58.9924 29.0998C61.5444 29.0998 63.0296 27.9034 63.0296 25.6658C63.0296 23.256 61.2619 22.4723 57.1567 22.4723V29.0563Z" fill="#5979C4"/>
</g>
<mask id="mask3_3728_11255" style="mask-type:luminance" maskUnits="userSpaceOnUse" x="-22" y="-22" width="220" height="89">
<path d="M-21.5493 -21.5859H197.268V66.386H-21.5493V-21.5859Z" fill="white"/>
</mask>
<g mask="url(#mask3_3728_11255)">
<path d="M67.6904 20.6056C68.5348 19.566 70.088 19.1113 71.3894 19.1113C73.6589 19.1113 75.2337 20.2363 75.2337 22.9518V28.3394C75.2337 29.4489 75.4699 29.7081 75.9222 29.7081C76.0781 29.7081 76.3144 29.6631 76.4425 29.6196L76.5706 30.1425C76.0678 30.3989 75.5147 30.5403 74.9511 30.5568C74.2394 30.5568 73.7871 30.231 73.6126 29.5994L73.4845 29.1246C72.3173 30.0572 71.0421 30.5568 69.983 30.5568C68.0146 30.5568 66.7378 29.5125 66.7378 27.6877C66.7378 25.7325 68.189 24.8186 70.176 24.4524L72.3775 24.0381C73.1155 23.9077 73.5076 23.6905 73.5076 23.1489C73.5076 20.7825 72.5118 20.1743 70.8692 20.1743C69.5955 20.1743 68.6414 20.5436 67.9513 21.9572H67.6904V20.6056ZM73.5076 24.7115L72.078 24.9272C70.5218 25.1677 68.7911 25.7093 68.7911 27.3634C68.7911 28.6218 69.4859 29.2953 70.8877 29.2953C71.7538 29.2953 72.6184 28.9896 73.5076 28.057V24.7115Z" fill="#5979C4"/>
</g>
<mask id="mask4_3728_11255" style="mask-type:luminance" maskUnits="userSpaceOnUse" x="-22" y="-22" width="220" height="89">
<path d="M-21.5493 -21.5859H197.268V66.386H-21.5493V-21.5859Z" fill="white"/>
</mask>
<g mask="url(#mask4_3728_11255)">
<path fill-rule="evenodd" clip-rule="evenodd" d="M79.5332 19.3918C79.771 19.3918 80.2218 19.3484 80.546 19.3267C80.3746 20.9761 80.3499 23.7118 80.3499 23.8205C81.2592 23.8655 82.5746 23.9105 83.2724 23.9105C84.1804 23.9048 85.0879 23.8748 85.9943 23.8205C85.9943 23.6917 85.9711 20.956 85.8013 19.3267C86.1625 19.3484 86.6411 19.3918 86.899 19.3918C87.1398 19.3918 87.5922 19.3484 87.9164 19.3267C87.7419 20.956 87.7203 23.6901 87.7203 24.8198C87.7203 25.7322 87.7419 28.6649 87.9164 30.316C87.5861 30.2738 87.2535 30.2526 86.9206 30.2524C86.5547 30.2524 86.1209 30.2741 85.7997 30.316C85.9696 28.6649 85.9927 25.7322 85.9927 25.0401C85.0417 24.9718 83.7449 24.8865 83.2477 24.8865C82.6595 24.8865 81.2176 24.9253 80.3484 24.992C80.3484 25.7322 80.3731 28.6634 80.5444 30.316C80.2152 30.274 79.8836 30.2527 79.5517 30.2524C79.1843 30.2524 78.752 30.2741 78.4263 30.316C78.5976 28.6649 78.6193 25.7322 78.6193 24.8198C78.6193 23.7118 78.5976 20.956 78.4263 19.3267C78.7937 19.3468 79.2723 19.3918 79.5332 19.3918Z" fill="#5979C4"/>
</g>
<mask id="mask5_3728_11255" style="mask-type:luminance" maskUnits="userSpaceOnUse" x="-22" y="-22" width="220" height="89">
<path d="M-21.5493 -21.5859H197.268V66.386H-21.5493V-21.5859Z" fill="white"/>
</mask>
<g mask="url(#mask5_3728_11255)">
<path fill-rule="evenodd" clip-rule="evenodd" d="M91.9566 19.3918C92.1882 19.3918 92.6436 19.3484 92.9632 19.3267C92.7965 20.956 92.7764 23.7118 92.7764 24.106H93.1253C93.8371 24.106 97.4883 19.9334 97.8357 19.3267C98.1367 19.3484 98.6307 19.3918 98.8901 19.3918C99.1109 19.3918 99.6296 19.3484 99.9523 19.3267L94.7881 23.9741C95.4396 24.7546 98.87 28.6448 100.425 30.316C99.9943 30.2803 99.5628 30.2591 99.1309 30.2524C98.7404 30.2524 98.1568 30.2741 97.7044 30.316C96.9047 29.056 94.4623 26.1682 93.1253 24.6894H92.7764C92.7764 25.4948 92.7965 28.6649 92.9632 30.316C92.635 30.2736 92.3045 30.2524 91.9736 30.2524C91.6108 30.2524 91.1785 30.2741 90.8481 30.316C91.0257 28.6649 91.0504 25.7322 91.0504 24.8198C91.0504 23.7118 91.0257 20.956 90.8481 19.3267C91.2202 19.3468 91.6973 19.3918 91.9566 19.3918Z" fill="#5979C4"/>
</g>
<mask id="mask6_3728_11255" style="mask-type:luminance" maskUnits="userSpaceOnUse" x="-22" y="-22" width="220" height="89">
<path d="M-21.5493 -21.5859H197.268V66.386H-21.5493V-21.5859Z" fill="white"/>
</mask>
<g mask="url(#mask6_3728_11255)">
<path d="M109.974 14.5911C110.726 14.5911 111.703 14.526 112.26 14.526C116.259 14.526 117.818 15.7425 117.818 18.4767C117.818 22.0208 114.854 23.1473 111.338 23.1473C111.142 23.1473 110.318 23.1054 109.906 23.0604V26.8156C109.906 27.9018 109.949 29.2285 110.082 30.3148C109.319 30.2325 108.55 30.2325 107.788 30.3148C107.92 27.9251 107.964 24.6215 107.964 21.8858C107.964 19.4325 107.942 15.7177 107.788 14.5244C108.504 14.5446 109.477 14.5911 109.974 14.5911ZM110.815 21.9975C113.841 21.9975 115.613 20.781 115.613 18.4767C115.613 16.3275 113.928 15.7425 111.831 15.7425C111.467 15.7425 110.21 15.7627 109.906 15.8077V21.9075C110.17 21.9556 110.599 21.9975 110.815 21.9975Z" fill="#5979C4"/>
</g>
<mask id="mask7_3728_11255" style="mask-type:luminance" maskUnits="userSpaceOnUse" x="-22" y="-22" width="220" height="89">
<path d="M-21.5493 -21.5859H197.268V66.386H-21.5493V-21.5859Z" fill="white"/>
</mask>
<g mask="url(#mask7_3728_11255)">
<path d="M129.073 24.755C129.073 28.0803 126.927 30.5553 123.539 30.5553C120.212 30.5553 118.134 28.102 118.134 25.0606C118.134 21.456 120.424 19.1113 123.732 19.1113C127.018 19.1113 129.073 21.4994 129.073 24.755ZM120.189 24.9939C120.189 27.4487 121.205 29.7065 123.495 29.7065C125.699 29.7065 127.019 27.5775 127.019 24.6681C127.019 22.3218 126.11 19.9555 123.667 19.9555C121.333 19.9555 120.189 22.4103 120.189 24.9939Z" fill="#5979C4"/>
</g>
<mask id="mask8_3728_11255" style="mask-type:luminance" maskUnits="userSpaceOnUse" x="-22" y="-22" width="220" height="89">
<path d="M-21.5493 -21.5859H197.268V66.386H-21.5493V-21.5859Z" fill="white"/>
</mask>
<g mask="url(#mask8_3728_11255)">
<path fill-rule="evenodd" clip-rule="evenodd" d="M139.664 21.6914H139.403C138.646 20.4547 137.589 19.955 136.4 19.955C133.87 19.955 132.661 22.4099 132.661 24.798C132.661 27.5554 134.171 29.7061 136.852 29.7061C137.742 29.7061 138.54 29.5773 139.792 28.2071L139.988 28.4461L139.727 29.5106C138.685 30.2073 137.524 30.5549 136.184 30.5549C132.811 30.5549 130.607 28.1869 130.607 24.8414C130.607 21.3454 132.985 19.1109 136.463 19.1109C137.77 19.1058 139.057 19.4341 140.203 20.0652L139.664 21.6914Z" fill="#5979C4"/>
</g>
<mask id="mask9_3728_11255" style="mask-type:luminance" maskUnits="userSpaceOnUse" x="-22" y="-22" width="220" height="89">
<path d="M-21.5493 -21.5859H197.268V66.386H-21.5493V-21.5859Z" fill="white"/>
</mask>
<g mask="url(#mask9_3728_11255)">
<path fill-rule="evenodd" clip-rule="evenodd" d="M150.57 21.6918H150.313C149.56 20.4551 148.501 19.9555 147.314 19.9555C144.782 19.9555 143.571 22.4103 143.571 24.7984C143.571 27.5558 145.089 29.7065 147.766 29.7065C148.647 29.7065 149.45 29.5777 150.702 28.2075L150.894 28.4465L150.637 29.511C149.602 30.2077 148.431 30.5553 147.094 30.5553C143.724 30.5553 141.521 28.1874 141.521 24.8418C141.521 21.3458 143.9 19.1113 147.378 19.1113C148.502 19.1113 149.733 19.327 151.116 20.0656L150.57 21.6918Z" fill="#5979C4"/>
</g>
<mask id="mask10_3728_11255" style="mask-type:luminance" maskUnits="userSpaceOnUse" x="-22" y="-22" width="220" height="89">
<path d="M-21.5493 -21.5859H197.268V66.386H-21.5493V-21.5859Z" fill="white"/>
</mask>
<g mask="url(#mask10_3728_11255)">
<path fill-rule="evenodd" clip-rule="evenodd" d="M153.774 30.2524C153.643 30.2524 153.254 30.2911 153.081 30.316C153.254 28.6649 153.277 25.7322 153.277 24.8198C153.277 23.7118 153.254 20.956 153.081 19.3267C153.45 19.3484 153.922 19.3918 154.182 19.3918C154.42 19.3918 154.872 19.3484 155.199 19.3267C155.026 20.956 155.008 23.6901 155.008 24.8198C155.008 25.7322 155.026 27.0124 155.046 27.6222C156.237 26.1682 160.473 20.7605 161.49 19.3267C161.72 19.3686 161.873 19.3918 162.134 19.3918C162.262 19.3918 162.715 19.3484 162.957 19.3267C162.783 20.956 162.758 23.6901 162.758 24.8198C162.758 25.7322 162.783 28.6649 162.957 30.316C162.627 30.2741 162.295 30.2529 161.963 30.2524C161.594 30.2524 161.165 30.2741 160.836 30.316C161.009 28.6649 161.033 25.7322 161.033 24.8198C161.033 23.6886 161.009 22.3029 160.993 21.8436C159.519 23.3441 155.627 28.471 154.4 30.316C154.194 30.2716 153.984 30.2503 153.774 30.2524Z" fill="#5979C4"/>
</g>
<mask id="mask11_3728_11255" style="mask-type:luminance" maskUnits="userSpaceOnUse" x="-22" y="-22" width="220" height="89">
<path d="M-21.5493 -21.5859H197.268V66.386H-21.5493V-21.5859Z" fill="white"/>
</mask>
<g mask="url(#mask11_3728_11255)">
<path fill-rule="evenodd" clip-rule="evenodd" d="M166.011 30.2524C165.88 30.2524 165.491 30.2911 165.323 30.316C165.491 28.6649 165.514 25.7322 165.514 24.8198C165.514 23.7118 165.491 20.956 165.323 19.3267C165.687 19.3484 166.16 19.3918 166.419 19.3918C166.657 19.3918 167.112 19.3484 167.436 19.3267C167.263 20.956 167.245 23.6901 167.245 24.8198C167.245 25.7322 167.263 27.0124 167.283 27.6222C168.474 26.1682 172.705 20.7605 173.721 19.3267C173.959 19.3686 174.112 19.3918 174.371 19.3918C174.499 19.3918 174.956 19.3484 175.191 19.3267C175.024 20.956 175 23.6901 175 24.8198C175 25.7322 175.024 28.6649 175.191 30.316C174.861 30.2739 174.529 30.2527 174.197 30.2524C173.831 30.2524 173.396 30.2741 173.076 30.316C173.249 28.6649 173.267 25.7322 173.267 24.8198C173.267 23.6886 173.249 22.3029 173.229 21.8436C171.759 23.3441 167.862 28.471 166.632 30.316C166.428 30.2712 166.22 30.2498 166.011 30.2524Z" fill="#5979C4"/>
</g>
</g>
<defs>
<clipPath id="clip0_3728_11255">
<rect width="176" height="45" fill="white"/>
</clipPath>
</defs>
</svg>
