<svg width="46" height="46" viewBox="0 0 46 46" fill="none" xmlns="http://www.w3.org/2000/svg">
<g clip-path="url(#clip0_547_13785)">
<path d="M24.2578 0.789551V8.98447H32.4527L24.2578 0.789551Z" fill="#5979C4"/>
<path d="M12.1289 37.7344C14.3618 37.7344 16.1719 35.9243 16.1719 33.6914C16.1719 31.4585 14.3618 29.6484 12.1289 29.6484C9.89604 29.6484 8.08594 31.4585 8.08594 33.6914C8.08594 35.9243 9.89604 37.7344 12.1289 37.7344Z" fill="#5979C4"/>
<path d="M26.2344 46V43.3047C26.2344 41.8161 27.4411 40.6094 28.9297 40.6094H43.3047C44.7933 40.6094 46 41.8161 46 43.3047V44.6523C46 45.3966 45.3966 46 44.6523 46H26.2344Z" fill="#5979C4"/>
<path d="M23.5391 43.3047C23.5391 40.3323 25.9573 37.9141 28.9297 37.9141H30.7266V34.7077C30.7266 33.1187 30.2601 31.5768 29.3774 30.2487C28.4968 28.9237 28.0312 27.3802 28.0312 25.7852C28.0312 22.3388 30.1989 19.3895 33.2422 18.2279V11.6797H22.9102C22.1659 11.6797 21.5625 11.0763 21.5625 10.332V0H1.34766C0.603391 0 0 0.603391 0 1.34766V44.6523C0 45.3966 0.603391 46 1.34766 46H23.5391V43.3047ZM6.73828 5.39062H17.5195C18.2638 5.39062 18.8672 5.99402 18.8672 6.73828C18.8672 7.48255 18.2638 8.08594 17.5195 8.08594H6.73828C5.99402 8.08594 5.39062 7.48255 5.39062 6.73828C5.39062 5.99402 5.99402 5.39062 6.73828 5.39062ZM6.73828 10.7812H17.5195C18.2638 10.7812 18.8672 11.3846 18.8672 12.1289C18.8672 12.8732 18.2638 13.4766 17.5195 13.4766H6.73828C5.99402 13.4766 5.39062 12.8732 5.39062 12.1289C5.39062 11.3846 5.99402 10.7812 6.73828 10.7812ZM6.73828 16.1719H26.5039C27.2482 16.1719 27.8516 16.7753 27.8516 17.5195C27.8516 18.2638 27.2482 18.8672 26.5039 18.8672H6.73828C5.99402 18.8672 5.39062 18.2638 5.39062 17.5195C5.39062 16.7753 5.99402 16.1719 6.73828 16.1719ZM6.73828 21.5625H23.8086C24.5529 21.5625 25.1562 22.1659 25.1562 22.9102C25.1562 23.6544 24.5529 24.2578 23.8086 24.2578H6.73828C5.99402 24.2578 5.39062 23.6544 5.39062 22.9102C5.39062 22.1659 5.99402 21.5625 6.73828 21.5625ZM12.1289 40.4297C8.41342 40.4297 5.39062 37.4069 5.39062 33.6914C5.39062 29.9759 8.41342 26.9531 12.1289 26.9531C15.8444 26.9531 18.8672 29.9759 18.8672 33.6914C18.8672 37.4069 15.8444 40.4297 12.1289 40.4297Z" fill="#5979C4"/>
<path d="M33.4219 34.7076V37.9141H38.8125V34.7076C38.8125 32.5896 39.4398 30.5209 40.6122 28.7568C41.1779 27.9056 41.5078 26.8844 41.5078 25.7852C41.5078 22.808 39.0943 20.3945 36.1172 20.3945C33.14 20.3945 30.7266 22.808 30.7266 25.7852C30.7266 26.8844 31.0565 27.9056 31.6222 28.7569C32.7946 30.5209 33.4219 32.5896 33.4219 34.7076Z" fill="#5979C4"/>
</g>
<defs>
<clipPath id="clip0_547_13785">
<rect width="46" height="46" fill="white"/>
</clipPath>
</defs>
</svg>
