<svg width="200" height="116" viewBox="0 0 200 116" fill="none" xmlns="http://www.w3.org/2000/svg">
<g clip-path="url(#clip0_4058_12276)">
<path d="M64.4727 70.7048V65.189H65.6976C67.1694 63.5279 67.9097 60.7473 67.9097 56.8203V53.146H78.029V65.189H79.647V70.7048H77.3343V67.4549H66.7854V70.7139L64.4727 70.7048ZM68.6045 65.189H75.4512V55.3668H70.4052V57.0912C70.4052 60.7744 69.805 63.4737 68.6045 65.189Z" fill="#3C3C3B"/>
<path d="M80.9999 60.2336C80.956 59.2305 81.1271 58.2293 81.502 57.2959C81.8769 56.3625 82.4472 55.5178 83.1755 54.8171C83.9235 54.1316 84.801 53.5986 85.7578 53.2485C86.7147 52.8985 87.732 52.7382 88.7516 52.7768C90.8248 52.6976 92.8456 53.431 94.3734 54.8171C95.106 55.5155 95.6803 56.3593 96.0585 57.2931C96.4366 58.2267 96.6101 59.229 96.5673 60.2336C96.5986 61.2378 96.4191 62.2375 96.04 63.1698C95.6608 64.1019 95.0903 64.9465 94.3643 65.6502C92.8282 67.0105 90.8376 67.7627 88.7745 67.7627C86.7113 67.7627 84.7208 67.0105 83.1846 65.6502C82.4593 64.947 81.8904 64.102 81.5142 63.1694C81.138 62.2367 80.9629 61.237 80.9999 60.2336ZM83.7971 60.2336C83.7446 61.625 84.243 62.9818 85.1866 64.0162C85.6553 64.4874 86.2144 64.8616 86.8312 65.1169C87.448 65.3725 88.1102 65.504 88.779 65.504C89.4478 65.504 90.11 65.3725 90.7268 65.1169C91.3436 64.8616 91.9027 64.4874 92.3716 64.0162C93.2666 62.9627 93.7571 61.6315 93.7571 60.2562C93.7571 58.881 93.2666 57.5498 92.3716 56.4961C91.9023 56.0223 91.3422 55.6458 90.7236 55.3888C90.1052 55.1316 89.4409 54.9992 88.7699 54.9992C88.0988 54.9992 87.4346 55.1316 86.8162 55.3888C86.1976 55.6458 85.6373 56.0223 85.1683 56.4961C84.2424 57.522 83.7515 58.8602 83.7971 60.2336Z" fill="#3C3C3B"/>
<path d="M111.477 54.9704L109.512 56.5052C109.148 56.008 108.646 55.6256 108.067 55.4038C107.146 55.0171 106.128 54.9171 105.148 55.1171C104.168 55.3172 103.273 55.8078 102.583 56.5233C101.638 57.54 101.133 58.8812 101.175 60.2608C101.109 61.6541 101.591 63.0187 102.519 64.0704C102.97 64.5575 103.524 64.9409 104.141 65.1934C104.759 65.4462 105.425 65.5621 106.093 65.5328C106.779 65.5694 107.463 65.4337 108.082 65.1386C108.7 64.8433 109.233 64.3981 109.631 63.8446L111.696 65.2801C111.03 66.1062 110.174 66.7643 109.2 67.2006C108.226 67.6368 107.161 67.8387 106.093 67.7898C105.07 67.8266 104.05 67.6583 103.095 67.2953C102.14 66.9323 101.269 66.3819 100.535 65.6774C99.8164 64.9697 99.2523 64.1237 98.8781 63.1919C98.5039 62.2601 98.3274 61.2626 98.3595 60.2608C98.3178 59.2537 98.4946 58.2495 98.8776 57.3154C99.2608 56.3813 99.8413 55.5386 100.581 54.844C102.117 53.4588 104.142 52.7231 106.221 52.7948C107.237 52.7955 108.244 52.9823 109.192 53.3455C110.092 53.6663 110.883 54.2291 111.477 54.9704Z" fill="#3C3C3B"/>
<path d="M116.632 67.4549V55.3668H112.189V53.146H123.643V55.3668H119.228V67.4549H116.632Z" fill="#3C3C3B"/>
<path d="M124.009 60.2336C123.967 59.2298 124.14 58.2285 124.516 57.2951C124.893 56.3616 125.464 55.5173 126.194 54.8171C126.942 54.1317 127.819 53.5986 128.776 53.2485C129.733 52.8985 130.75 52.7382 131.77 52.7768C133.843 52.6976 135.864 53.431 137.392 54.8171C138.121 55.5173 138.693 56.3616 139.069 57.2951C139.446 58.2285 139.619 59.2298 139.577 60.2336C139.61 61.2373 139.432 62.2367 139.054 63.1689C138.677 64.1012 138.107 64.946 137.383 65.6502C136.637 66.3548 135.757 66.9046 134.793 67.2673C133.829 67.6302 132.801 67.7986 131.77 67.7629C130.746 67.7988 129.725 67.6302 128.768 67.2672C127.812 66.9041 126.939 66.3543 126.203 65.6502C125.478 64.946 124.909 64.1012 124.532 63.1689C124.154 62.2367 123.976 61.2373 124.009 60.2336ZM126.815 60.2336C126.763 61.625 127.261 62.9818 128.205 64.0162C128.674 64.4874 129.233 64.8616 129.85 65.1171C130.466 65.3725 131.129 65.504 131.797 65.504C132.466 65.504 133.128 65.3725 133.745 65.1171C134.362 64.8616 134.921 64.4874 135.39 64.0162C136.285 62.9627 136.776 61.6315 136.776 60.2563C136.776 58.881 136.285 57.5498 135.39 56.4961C134.921 56.0223 134.361 55.6458 133.742 55.3888C133.124 55.1316 132.459 54.9992 131.788 54.9992C131.117 54.9992 130.453 55.1316 129.834 55.3888C129.216 55.6458 128.656 56.0223 128.187 56.4961C127.257 57.5196 126.765 58.8595 126.815 60.2336Z" fill="#3C3C3B"/>
<path d="M142.081 67.4572V53.1483H144.659V63.6113H144.723L151.515 53.1483H154.257V67.4572H151.679V57.0753L144.897 67.4572H142.081ZM148.096 52.0287C147.285 52.0527 146.493 51.7866 145.866 51.2795C145.255 50.7553 144.875 50.0171 144.805 49.2211L146.176 48.9595C146.201 49.1731 146.269 49.38 146.376 49.5675C146.482 49.7551 146.626 49.9197 146.798 50.0517C147.18 50.3106 147.633 50.4492 148.096 50.4492C148.559 50.4492 149.012 50.3106 149.394 50.0517C149.566 49.9197 149.71 49.7551 149.816 49.5675C149.923 49.38 149.991 49.1731 150.016 48.9595L151.414 49.2211C151.33 50.017 150.945 50.752 150.336 51.2795C149.703 51.7897 148.903 52.0532 148.087 52.0198L148.096 52.0287Z" fill="#3C3C3B"/>
<path d="M157.475 67.4549V53.146H160.052V58.9238H166.827V53.146H169.404V67.4549H166.827V61.1355H160.052V67.4549H157.475Z" fill="#3C3C3B"/>
<path d="M171.899 60.2336C171.856 59.2305 172.026 58.2293 172.401 57.2959C172.776 56.3625 173.346 55.5178 174.075 54.8171C174.823 54.1316 175.701 53.5986 176.657 53.2485C177.614 52.8985 178.632 52.7382 179.651 52.7768C181.725 52.6976 183.745 53.431 185.274 54.8171C186.004 55.516 186.577 56.3601 186.954 57.2937C187.331 58.2275 187.503 59.2295 187.458 60.2336C187.491 61.2371 187.313 62.2367 186.936 63.1689C186.557 64.1012 185.989 64.946 185.264 65.6502C183.727 67.0105 181.738 67.7627 179.674 67.7627C177.611 67.7627 175.62 67.0105 174.085 65.6502C173.36 64.947 172.79 64.102 172.415 63.1694C172.038 62.2367 171.863 61.237 171.899 60.2336ZM174.696 60.2336C174.643 61.625 175.142 62.9818 176.086 64.0162C176.555 64.4874 177.113 64.8616 177.731 65.1169C178.348 65.3725 179.01 65.504 179.679 65.504C180.347 65.504 181.009 65.3725 181.626 65.1169C182.244 64.8616 182.802 64.4874 183.271 64.0162C184.167 62.9627 184.657 61.6315 184.657 60.2562C184.657 58.881 184.167 57.5498 183.271 56.4961C182.802 56.0223 182.242 55.6458 181.624 55.3888C181.004 55.1316 180.34 54.9992 179.669 54.9992C178.999 54.9992 178.334 55.1316 177.717 55.3888C177.097 55.6458 176.537 56.0223 176.068 56.4961C175.142 57.522 174.652 58.8602 174.696 60.2336Z" fill="#3C3C3B"/>
<path d="M189.952 67.4549V53.146H199.551V55.3668H192.531V58.978H199.185V61.1355H192.531V65.1799H199.917V67.4549H189.952Z" fill="#3C3C3B"/>
<path d="M79.7292 91.0818C79.7292 95.0179 77.1881 97.2026 72.9466 97.2026H64.4453V77.6577H78.2667V81.4583H68.4856V85.0695H73.1476C77.4715 85.0876 79.7292 87.1187 79.7292 91.0818ZM75.6615 91.0277C75.6615 89.4659 74.9028 88.7438 73.0105 88.7438H68.44V93.402H72.7637C74.7017 93.402 75.6615 92.5895 75.6615 91.0277Z" fill="#3C3C3B"/>
<path d="M88.724 97.2472H84.1533L87.7184 90.4855L80.9082 77.7021H85.4789L90.0494 86.1612L94.492 77.7021H99.0078L88.724 97.2472Z" fill="#3C3C3B"/>
<path d="M118.68 93.4014V101.075H114.657V97.2472H101.247V101.12H97.207V93.4466H100.032C100.587 92.6902 100.905 91.7891 100.946 90.8556L103.066 77.7021H115.864V93.4466L118.68 93.4014ZM104.383 93.4014H111.815V81.4577H106.504L104.922 91.1986C104.805 91.9464 104.624 92.6833 104.383 93.4014Z" fill="#3C3C3B"/>
<path d="M127.217 97.2478H122.702L126.258 90.4861L119.447 77.7029H124.018L128.588 86.1618L132.94 77.6577H137.51L127.217 97.2478Z" fill="#3C3C3B"/>
<path d="M167.611 93.402V101.075H163.571V97.2478H140.115V77.6577H144.156V93.402H150.308V77.6577H154.348V93.402H160.537V77.6577H164.577V93.402H167.611Z" fill="#3C3C3B"/>
<path d="M174.313 81.4583V85.3945H182.787V89.1861H174.313V93.402H183.554V97.2478H170.271V77.6577H183.554V81.4583H174.313Z" fill="#3C3C3B"/>
<path d="M190.674 81.4583V85.3945H199.158V89.1861H190.674V93.402H199.917V97.2478H186.635V77.6577H199.917V81.4583H190.674Z" fill="#3C3C3B"/>
<path d="M70.7794 114.401H69.8653V108.081H65.6511V114.401H64.792V107.224H70.7794V114.401Z" fill="#3C3C3B"/>
<path d="M74.9115 108.079V110.354H78.4125V111.166H74.9115V113.64H78.6594V114.452H74.0889V107.275H78.6594V108.079H74.9115Z" fill="#3C3C3B"/>
<path d="M87.4348 107.251V114.401H86.5757V111.096H82.3616V114.401H81.4932V107.224H82.3616V110.284H86.5757V107.224L87.4348 107.251Z" fill="#3C3C3B"/>
<path d="M90.4426 110.834C90.43 110.345 90.5181 109.859 90.7015 109.405C90.8847 108.951 91.1595 108.538 91.5091 108.192C91.8587 107.846 92.2759 107.574 92.7352 107.391C93.1945 107.209 93.6864 107.121 94.1812 107.132C94.9399 107.117 95.6837 107.342 96.3038 107.774C96.9239 108.206 97.3876 108.823 97.6274 109.534H96.7134C96.4931 109.054 96.1364 108.649 95.6869 108.367C95.2371 108.085 94.7139 107.938 94.1812 107.945C93.4055 107.945 92.6615 108.249 92.1128 108.791C91.5643 109.333 91.2561 110.067 91.2561 110.834C91.2561 111.6 91.5643 112.335 92.1128 112.876C92.6615 113.418 93.4055 113.722 94.1812 113.722C94.7139 113.729 95.2371 113.582 95.6869 113.3C96.1364 113.018 96.4931 112.613 96.7134 112.134H97.6274C97.389 112.845 96.9253 113.463 96.3051 113.895C95.6847 114.327 94.9402 114.552 94.1812 114.535C93.6864 114.546 93.1945 114.458 92.7352 114.276C92.2759 114.094 91.8587 113.821 91.5091 113.475C91.1595 113.129 90.8847 112.716 90.7015 112.262C90.5181 111.808 90.43 111.322 90.4426 110.834Z" fill="#3C3C3B"/>
<path d="M106.357 107.251V114.401H105.516V111.421L105.589 108.388L101.467 114.401H100.406V107.224H101.32V110.221L101.247 113.263L105.343 107.224L106.357 107.251Z" fill="#3C3C3B"/>
<path d="M116.778 110.834C116.778 111.566 116.558 112.282 116.146 112.891C115.733 113.5 115.148 113.974 114.462 114.254C113.777 114.534 113.023 114.607 112.296 114.463C111.568 114.32 110.901 113.966 110.377 113.448C109.853 112.929 109.497 112.269 109.353 111.55C109.21 110.832 109.285 110.087 109.57 109.411C109.855 108.735 110.337 108.157 110.955 107.752C111.572 107.346 112.298 107.13 113.039 107.132C113.534 107.121 114.026 107.209 114.485 107.391C114.945 107.574 115.362 107.846 115.711 108.192C116.061 108.538 116.336 108.951 116.519 109.405C116.702 109.859 116.791 110.345 116.778 110.834ZM110.151 110.834C110.16 111.394 110.336 111.939 110.658 112.401C110.98 112.863 111.433 113.22 111.959 113.428C112.486 113.637 113.064 113.687 113.619 113.572C114.175 113.457 114.684 113.183 115.082 112.783C115.48 112.384 115.75 111.877 115.857 111.327C115.965 110.777 115.905 110.207 115.686 109.69C115.466 109.173 115.098 108.732 114.625 108.421C114.152 108.111 113.598 107.945 113.03 107.945C112.647 107.941 112.267 108.014 111.913 108.158C111.559 108.302 111.238 108.516 110.969 108.785C110.701 109.055 110.49 109.375 110.349 109.727C110.208 110.079 110.141 110.455 110.151 110.834Z" fill="#3C3C3B"/>
<path d="M125.7 107.251V114.401H124.786V111.096H120.572V114.401H119.713V107.224H120.572V110.284H124.786V107.224L125.7 107.251Z" fill="#3C3C3B"/>
<path d="M134.933 107.251V114.401H134.065V111.096H129.851V114.401H128.991V107.224H129.851V110.284H134.065V107.224L134.933 107.251Z" fill="#3C3C3B"/>
<path d="M143.608 112.261C143.608 113.552 142.767 114.428 141.158 114.428H138.224V107.251H139.083V110.103H141.167C142.812 110.103 143.608 110.97 143.608 112.261ZM142.739 112.261C142.739 111.467 142.273 110.916 141.158 110.916H139.083V113.624H141.167C142.237 113.615 142.739 113.037 142.739 112.252V112.261ZM145.482 107.26V114.401H144.568V107.224L145.482 107.26Z" fill="#3C3C3B"/>
<path d="M154.549 107.248V114.398H153.681V111.419L153.754 108.386L149.65 114.398H148.599V107.221H149.458V110.219L149.385 113.261L153.489 107.221L154.549 107.248ZM149.906 104.856V104.667H150.61V104.82C150.61 105.071 150.711 105.312 150.891 105.49C151.071 105.668 151.315 105.768 151.569 105.768C151.824 105.768 152.068 105.668 152.248 105.49C152.428 105.312 152.529 105.071 152.529 104.82V104.667H153.233V104.856C153.233 105.292 153.058 105.71 152.746 106.018C152.434 106.326 152.011 106.499 151.569 106.499C151.128 106.499 150.705 106.326 150.393 106.018C150.081 105.71 149.906 105.292 149.906 104.856Z" fill="#3C3C3B"/>
<path d="M170.318 110.787C170.319 111.159 170.241 111.526 170.093 111.867C169.944 112.208 169.726 112.515 169.452 112.769C169.177 113.023 168.852 113.218 168.498 113.344C168.145 113.469 167.768 113.52 167.393 113.495H166.679V114.398H165.848V113.495H165.116C164.389 113.495 163.691 113.21 163.177 112.702C162.663 112.194 162.374 111.505 162.374 110.787C162.374 110.069 162.663 109.38 163.177 108.872C163.691 108.364 164.389 108.079 165.116 108.079H165.848V107.275H166.707V108.079H167.42C167.793 108.058 168.166 108.113 168.517 108.239C168.869 108.366 169.189 108.562 169.46 108.816C169.731 109.069 169.947 109.375 170.094 109.714C170.243 110.053 170.319 110.418 170.318 110.787ZM165.82 112.683V108.891H165.089C164.58 108.891 164.091 109.091 163.732 109.447C163.372 109.802 163.169 110.284 163.169 110.787C163.169 111.29 163.372 111.772 163.732 112.128C164.091 112.483 164.58 112.683 165.089 112.683H165.82ZM169.477 110.787C169.493 110.522 169.448 110.257 169.349 110.011C169.249 109.765 169.095 109.543 168.898 109.362C168.703 109.181 168.469 109.045 168.213 108.964C167.956 108.883 167.687 108.858 167.42 108.891H166.707V112.683H167.42C167.684 112.712 167.952 112.684 168.204 112.601C168.457 112.518 168.687 112.381 168.88 112.2C169.073 112.02 169.225 111.8 169.323 111.556C169.42 111.312 169.465 111.049 169.45 110.787H169.477Z" fill="#3C3C3B"/>
<path d="M180.474 110.834C180.476 111.569 180.256 112.288 179.844 112.899C179.431 113.511 178.845 113.988 178.156 114.27C177.469 114.551 176.712 114.625 175.983 114.481C175.253 114.338 174.582 113.983 174.057 113.463C173.531 112.943 173.175 112.28 173.031 111.559C172.887 110.838 172.963 110.09 173.251 109.412C173.536 108.734 174.022 108.155 174.642 107.749C175.263 107.343 175.992 107.129 176.735 107.132C177.231 107.121 177.721 107.209 178.181 107.391C178.64 107.574 179.058 107.846 179.407 108.192C179.757 108.538 180.031 108.951 180.215 109.405C180.398 109.859 180.486 110.345 180.474 110.834ZM173.847 110.834C173.855 111.394 174.032 111.939 174.354 112.401C174.676 112.863 175.129 113.22 175.656 113.428C176.182 113.637 176.76 113.687 177.315 113.572C177.87 113.457 178.379 113.183 178.777 112.783C179.175 112.384 179.446 111.877 179.554 111.327C179.661 110.777 179.602 110.207 179.382 109.69C179.162 109.173 178.794 108.732 178.321 108.421C177.849 108.111 177.293 107.945 176.727 107.945C176.343 107.941 175.963 108.014 175.61 108.158C175.256 108.303 174.936 108.516 174.668 108.786C174.4 109.056 174.191 109.376 174.05 109.728C173.911 110.08 173.845 110.456 173.855 110.834H173.847Z" fill="#3C3C3B"/>
<path d="M189.404 107.251V114.401H188.537V111.096H184.322V114.401H183.463V107.224H184.322V110.284H188.537V107.224L189.404 107.251Z" fill="#3C3C3B"/>
<path d="M199.917 113.615V115.935H199.048V114.401H192.997V115.908H192.082V113.588H193.125C193.381 113.398 193.528 112.983 193.673 112.153L194.496 107.224H198.838V113.543L199.917 113.615ZM194.149 113.615H198.015V108.081H195.272L194.579 112.261C194.534 112.733 194.4 113.192 194.185 113.615H194.149Z" fill="#3C3C3B"/>
<path d="M12.9602 25.4951L11.3027 27.1394L43.643 58.9335L45.3005 57.2892L12.9602 25.4951Z" fill="#2F9638"/>
<path d="M48.8864 0H46.5371V56.7661H48.8864V0Z" fill="#2F9638"/>
<path d="M105.709 2.35156L50.1143 57.2564L51.7754 58.897L107.37 3.99214L105.709 2.35156Z" fill="#2F9638"/>
<path d="M43.6152 63.6724L11.7295 95.1624L13.3907 96.8029L45.2765 65.313L43.6152 63.6724Z" fill="#2F9638"/>
<path d="M51.8087 63.6938L50.1514 65.3381L59.3053 74.3375L60.9627 72.6933L51.8087 63.6938Z" fill="#2F9638"/>
<path d="M48.8864 65.8472H46.5371V97.2094H48.8864V65.8472Z" fill="#2F9638"/>
<path d="M43.1097 60.106H0V62.4351H43.1097V60.106Z" fill="#2F9638"/>
</g>
<defs>
<clipPath id="clip0_4058_12276">
<rect width="199.917" height="115.934" fill="white"/>
</clipPath>
</defs>
</svg>
