<svg width="204" height="68" viewBox="0 0 204 68" fill="none" xmlns="http://www.w3.org/2000/svg">
<g clip-path="url(#clip0_4058_4929)">
<path d="M69.8462 40.4051C69.8462 45.0789 65.9364 48.6295 61.0003 48.6295C56.0658 48.6295 52.1543 45.0805 52.1543 40.4051C52.1543 35.7313 55.9733 32.1807 61.0003 32.1807C66.0289 32.1807 69.8462 35.8171 69.8462 40.4051ZM55.5998 40.4051C55.5998 43.3489 57.9282 45.5126 60.9077 45.5126C63.9798 45.5126 66.2157 43.3489 66.2157 40.4051C66.2157 37.4629 63.8872 35.2976 60.9077 35.2976C57.9282 35.2976 55.5998 37.4613 55.5998 40.4051ZM87.2589 48.369H83.8168V35.6439H76.2729V48.3706H72.8274V32.527H87.3548V48.369H87.2589ZM110.54 40.3177C110.54 44.0415 107.466 46.3784 103.554 46.3784H102.343V48.3706H98.8993V46.3784H97.688C93.7782 46.3784 90.7061 44.04 90.7061 40.3177C90.7061 36.594 93.7782 34.2586 97.688 34.2586H98.8993V32.527H102.345V34.2586H103.556C107.466 34.2586 110.54 36.5955 110.54 40.3177ZM98.9919 43.2615V37.2882H97.7805C95.8273 37.2882 94.3367 38.2398 94.3367 40.2304C94.3367 42.2225 95.8273 43.1757 97.7822 43.1757H98.9935L98.9919 43.2615ZM107.094 40.3193C107.094 38.3272 105.604 37.374 103.649 37.374H102.437V43.3489H103.649C105.604 43.2615 107.094 42.3099 107.094 40.3177V40.3193Z" fill="black"/>
<path d="M29.7698 36.1127L8.5381 16.0872L7.46137 17.1063L28.6931 37.1302L29.7698 36.1127ZM32.1386 0H30.6312V35.7725H32.1386V0ZM34.075 37.1302L70.6601 2.51162L69.5127 1.49257L32.9983 36.1112L34.075 37.1302ZM28.6947 40.1184L7.74906 60.0045L8.8241 61.0235L29.7698 41.1329L28.6947 40.1154V40.1184ZM32.9983 41.2034L39.0246 46.838L40.1013 45.819L34.075 40.1184L32.9983 41.2034ZM30.6312 61.2963H32.1386V41.4746H30.6312V61.2963ZM0 39.3706H28.3364V37.8781H0V39.3706Z" fill="#0065C4"/>
<path d="M58.6399 65.9856H57.3781V60.2238H53.4161V65.9871H52.1543V59.1036H58.6399V65.9856ZM62.9636 60.2222V61.9845H66.5673V63.1032H62.9636V65.0263H66.7473V66.145H61.7035V59.102H66.7473V60.2222H62.9636ZM75.9365 59.102V65.9856H74.6747V62.9438H70.711V65.9856H69.4492V59.102H70.711V61.983H74.6747V59.102H75.9365ZM78.8184 62.6235C78.8184 60.5425 80.4385 59.102 82.7821 59.102C84.5823 59.102 86.0241 60.0629 86.3841 61.5033H85.1223C84.764 60.7019 83.8622 60.2222 82.7821 60.2222C81.1603 60.2222 80.0785 61.3424 80.0785 62.7844C80.0785 64.2249 81.1603 65.3466 82.7821 65.3466C83.8622 65.3466 84.764 64.8654 85.124 64.0655H86.3858C85.844 65.506 84.4022 66.4668 82.7821 66.4668C80.4385 66.145 78.8184 64.7045 78.8184 62.6235ZM95.5733 59.102V65.9856H94.3115V63.1047L94.4932 60.7019L90.7078 65.9856H89.2677V59.102H90.5295V61.983L90.3495 64.3858L94.1315 59.102H95.5733ZM106.383 62.6235C106.383 64.7061 104.582 66.1465 102.419 66.1465C100.077 66.1465 98.4552 64.5451 98.4552 62.6235C98.4552 60.5425 100.257 59.102 102.419 59.102C104.581 59.102 106.383 60.5425 106.383 62.6235ZM99.717 62.6235C99.717 64.064 100.979 65.1857 102.419 65.1857C104.041 65.1857 105.121 64.0655 105.121 62.6235C105.121 61.183 103.859 60.0613 102.419 60.0613C100.797 60.0613 99.717 61.183 99.717 62.6235ZM115.752 59.102V65.9856H114.49V62.9438H110.526V65.9856H109.265V59.102H110.526V61.983H114.49V59.102H115.752ZM125.299 59.102V65.9856H124.038V62.9438H120.076V65.9856H118.814V59.102H120.076V61.983H124.039V59.102H125.299ZM134.307 63.9046C134.307 65.1857 133.407 65.9856 131.605 65.9856H128.361V59.102H129.623V61.8236H131.605C133.405 61.8236 134.307 62.6235 134.307 63.9046ZM133.045 63.9046C133.045 63.2641 132.685 62.7844 131.605 62.7844H129.623V64.8654H131.605C132.505 65.0263 133.045 64.5451 133.045 63.9046ZM136.469 59.102V65.9856H135.207V59.102H136.469ZM145.838 59.1005V65.9856H144.576V63.1047L144.758 60.7019L140.972 65.9856H139.532V59.1005H140.794V61.983L140.614 64.3842L144.398 59.1005H145.838ZM140.794 56.8601V56.6992H141.874V56.8601C141.874 57.3398 142.236 57.4991 142.776 57.4991C143.316 57.4991 143.496 57.1789 143.496 56.8601V56.6992H144.578V56.8601C144.578 57.8194 143.676 58.46 142.776 58.46C141.694 58.46 140.794 57.8194 140.794 56.8601ZM160.791 62.4626C160.791 64.064 159.351 65.0248 157.729 65.0248H157.007V65.9856H155.745V65.1842H155.025C153.225 65.1842 151.963 64.2249 151.963 62.6235C151.963 61.0221 153.405 60.0613 155.025 60.0613H155.747V59.1005H157.009V59.902H157.729C159.529 59.902 160.791 60.8628 160.791 62.4626ZM155.927 64.064V61.0221H155.207C154.125 61.0221 153.405 61.5018 153.405 62.6235C153.405 63.5843 154.305 64.2249 155.205 64.2249H155.927V64.064ZM159.531 62.4626C159.531 61.5018 158.629 60.8628 157.729 60.8628H157.007V63.9046H157.729C158.809 64.064 159.529 63.5828 159.529 62.4641L159.531 62.4626ZM171.42 62.6235C171.42 64.7045 169.618 66.145 167.456 66.145C165.115 66.145 163.493 64.5451 163.493 62.6235C163.493 60.5425 165.295 59.1005 167.456 59.1005C169.618 59.1005 171.42 60.541 171.42 62.6235ZM164.575 62.6235C164.575 64.064 165.836 65.1857 167.276 65.1857C168.898 65.1857 169.98 64.064 169.98 62.6235C169.98 61.183 168.898 60.0613 167.456 60.0613C165.836 60.0613 164.575 61.1815 164.575 62.6235ZM180.609 59.1005V65.9856H179.348V62.9438H175.384V65.9856H174.124V59.1005H175.384V61.9814H179.348V59.1005H180.609ZM191.599 65.0248V67.4261H190.337V65.9856H184.571V67.4261H183.311V65.0248H184.391C184.571 64.8639 184.751 64.5436 184.933 63.9031L185.833 59.2599H190.697V65.0248H191.599ZM185.653 65.0248H189.077V60.2207H186.553L185.833 63.9031C186.013 64.3842 185.833 64.7045 185.653 65.0248Z" fill="black"/>
</g>
<defs>
<clipPath id="clip0_4058_4929">
<rect width="203.568" height="67.4259" fill="white"/>
</clipPath>
</defs>
</svg>
