<svg width="210" height="63" viewBox="0 0 210 63" fill="none" xmlns="http://www.w3.org/2000/svg">
<path d="M48.0011 60.7371H48.4003V59.3191H50.5009V60.7371H50.9001V57.6506H50.5009V58.9551H48.4193V57.6695H48.0201V60.756L48.0011 60.7371ZM56.3131 43.9528C56.4337 43.9354 56.5566 43.9437 56.6738 43.9771C56.791 44.0105 56.8997 44.0683 56.9927 44.1466C57.0705 44.2425 57.128 44.3531 57.1615 44.4717C57.195 44.5904 57.2038 44.7146 57.1875 44.8367V54.2285H61.5645V42.6625C61.5765 42.4106 61.5363 42.1589 61.4464 41.9231C61.3565 41.6872 61.2187 41.4724 61.0417 41.2918C60.4809 40.734 59.8393 40.7151 59.0457 40.7151H50.5579C49.9163 40.7151 49.1322 40.6773 48.5239 41.2918C48.3469 41.4724 48.2091 41.6872 48.1192 41.9231C48.0293 42.1589 47.9891 42.4106 48.0011 42.6625V54.2285H52.4018V44.8367C52.3841 44.7145 52.3922 44.59 52.4258 44.4711C52.4593 44.3523 52.5176 44.2417 52.5967 44.1466C52.6885 44.0664 52.7971 44.0074 52.9146 43.9739C53.0321 43.9403 53.1556 43.9332 53.2763 43.9528H56.3131ZM137.893 45.7773H139.285L142.583 40.7151H147.778L143.068 46.2831L142.222 47.2851L143.249 48.4998L148.495 54.2285H143.225L139.371 48.982C139.323 48.9205 139.271 48.8543 139.209 48.7834H137.917V54.2285H133.54V40.7151H137.917V45.7773H137.893ZM75.5413 54.2285V50.9199H68.9117C68.623 50.961 68.3289 50.9009 68.08 50.7497C68.0106 50.6861 67.9568 50.6073 67.923 50.5195C67.8892 50.4318 67.8763 50.3375 67.8852 50.244V48.7929H75.2894V45.8624H67.8852V44.8367C67.8705 44.719 67.8821 44.5996 67.9191 44.4869C67.956 44.3742 68.0175 44.2709 68.099 44.1844C68.2972 44.0458 68.5366 43.9775 68.7786 43.9906H75.4843V40.7151H65.7323C65.1356 40.6827 64.5485 40.8751 64.088 41.2539C63.8828 41.4523 63.724 41.6932 63.623 41.9596C63.5219 42.2259 63.4811 42.511 63.5034 42.7948V52.0495C63.5034 52.6829 63.5034 53.2265 64.126 53.7464C64.5989 54.0995 65.1858 54.2677 65.7751 54.2191L75.5413 54.2285ZM81.6671 54.2285V50.3338H87.37C88.2212 50.3536 89.0556 50.0964 89.7462 49.6011C90.8868 48.618 90.9628 46.2925 90.9628 45.3472C90.9628 43.3998 90.5969 42.3363 89.9553 41.6652C89.1997 40.8522 88.1922 40.7198 87.1039 40.7198H79.6331C79.3003 40.7025 78.9675 40.7549 78.6563 40.8738C78.3452 40.9927 78.0627 41.1754 77.8272 41.4099C77.4344 41.9456 77.2427 42.6011 77.2854 43.2627V54.2285H81.6671ZM81.6671 46.9779V44.8793C81.6496 44.7748 81.6566 44.6676 81.6877 44.5663C81.7188 44.465 81.7731 44.3722 81.8463 44.2953C81.9196 44.2183 82.0097 44.1593 82.1097 44.1228C82.2097 44.0864 82.3169 44.0735 82.4228 44.0852H84.8465C85.3271 44.0227 85.8143 44.1334 86.2199 44.3971C86.3618 44.5324 86.4707 44.6981 86.5382 44.8816C86.6058 45.0651 86.6302 45.2616 86.6096 45.4559C86.6428 45.878 86.5175 46.2973 86.258 46.6328C85.892 47.0157 85.3502 46.9779 84.8037 46.9779H81.6671ZM103.647 54.2285V50.8726H99.8878C95.8911 50.8726 95.9386 50.8726 95.9529 47.564C95.9529 44.0663 95.9053 44.071 99.8071 44.071H103.433V40.7198H97.697C91.8943 40.7198 91.8515 41.7171 91.8848 47.6396C91.9181 52.9996 91.9798 54.2143 97.6352 54.2143L103.647 54.2285ZM113.318 43.9717C113.439 43.9543 113.562 43.9626 113.679 43.996C113.796 44.0294 113.905 44.0872 113.998 44.1655C114.15 44.3619 114.218 44.6097 114.188 44.8556V54.2285H118.57V42.6625C118.582 42.4106 118.541 42.1589 118.451 41.9231C118.362 41.6872 118.224 41.4724 118.047 41.2918C117.486 40.734 116.844 40.7151 116.051 40.7151H107.563C106.921 40.7151 106.137 40.6773 105.524 41.2918C105.348 41.473 105.211 41.688 105.121 41.9236C105.031 42.1593 104.991 42.4107 105.001 42.6625V54.2285H109.383V44.8367C109.365 44.7145 109.374 44.59 109.407 44.4711C109.441 44.3523 109.499 44.2417 109.578 44.1466C109.669 44.0668 109.777 44.008 109.894 43.9745C110.01 43.9409 110.133 43.9336 110.253 43.9528L113.318 43.9717ZM132.157 54.2285V50.9199H125.527C125.238 50.961 124.944 50.9009 124.695 50.7497C124.626 50.6861 124.572 50.6073 124.538 50.5195C124.505 50.4318 124.492 50.3375 124.501 50.244V48.7929H131.905V45.8624H124.501V44.8367C124.486 44.719 124.497 44.5996 124.534 44.4869C124.571 44.3742 124.633 44.2709 124.714 44.1844C124.913 44.0458 125.152 43.9775 125.394 43.9906H132.1V40.7151H122.348C121.751 40.6827 121.164 40.8751 120.703 41.2539C120.498 41.4523 120.339 41.6932 120.238 41.9596C120.137 42.2259 120.096 42.511 120.119 42.7948V52.0495C120.119 52.6829 120.119 53.2265 120.741 53.7464C121.214 54.0995 121.801 54.2677 122.39 54.2191L132.157 54.2285ZM157.344 54.2285V44.0663H162.182V40.7151H148.106V44.0663H152.953V54.2285H157.344ZM178.45 54.186V40.7293H175.156C174.872 40.707 174.587 40.76 174.33 40.8829C174.073 41.0057 173.853 41.1941 173.693 41.4288L168.517 48.5897C168.308 48.878 168.246 49.0623 168.128 49.0623C167.895 49.0623 167.895 48.774 167.895 48.5897V48.377L168.09 40.6489H163.608V54.1482H166.383C166.75 54.1679 167.116 54.1065 167.455 53.9683C167.795 53.8302 168.099 53.6188 168.346 53.3494L173.431 46.3729C173.735 45.9522 173.816 45.7206 173.935 45.7206C174.13 45.7206 174.135 45.9664 174.13 46.1933L173.935 54.1198L178.45 54.186ZM180.061 52.0874C180.057 52.6301 180.234 53.1588 180.565 53.5904C181.163 54.2663 181.99 54.2285 182.58 54.2285H189.675C190.839 54.2285 191.847 54.2285 192.717 53.2832C193.586 52.3379 193.529 51.3169 193.529 50.4472C193.529 49.5775 193.529 48.7504 192.793 48.0555C192.35 47.6533 191.784 47.4103 191.186 47.3655V47.2851C191.446 47.2714 191.701 47.2048 191.934 47.0893C192.167 46.9739 192.373 46.8121 192.541 46.6139C192.792 46.3279 192.982 45.9937 193.099 45.632C193.216 45.2704 193.257 44.8887 193.22 44.5106C193.22 43.622 193.125 42.3883 192.37 41.6179C191.614 40.8475 190.393 40.734 189.423 40.734H182.047C181.76 40.7379 181.476 40.7993 181.214 40.9147C180.951 41.03 180.714 41.1968 180.517 41.4052C180.186 41.8368 180.018 42.3705 180.042 42.913V52.0874H180.061ZM184.443 46.2452V44.8273C184.424 44.7245 184.429 44.6188 184.459 44.5187C184.489 44.4185 184.542 44.3267 184.614 44.2506C184.692 44.1877 184.783 44.1414 184.88 44.1146C184.978 44.0878 185.079 44.081 185.179 44.0946H187.679C187.853 44.0726 188.031 44.085 188.2 44.1313C188.37 44.1775 188.529 44.2566 188.667 44.3641C188.82 44.568 188.905 44.8142 188.91 45.0683C188.916 45.3174 188.871 45.5652 188.777 45.7962C188.651 45.9582 188.486 46.0862 188.298 46.1687C188.109 46.2513 187.903 46.2857 187.698 46.2689L184.443 46.2452ZM184.443 48.4762H187.845C188.036 48.456 188.228 48.4763 188.41 48.5358C188.592 48.5953 188.759 48.6926 188.9 48.8213C189.157 49.0529 189.138 49.8942 189.114 50.1305C189.098 50.3352 189.012 50.5284 188.872 50.6788C188.791 50.7733 188.563 50.8726 187.731 50.8726H185.407C185.193 50.8726 184.761 50.8726 184.59 50.6788C184.453 50.4327 184.4 50.1492 184.438 49.8706V48.4762H184.443ZM193.715 54.2285H198.329L199.394 51.4493H204.279L205.344 54.2285H209.958L204.954 42.1993C204.341 40.7293 203.053 40.734 202.35 40.7246H201.432C200.434 40.7246 199.356 40.7624 198.747 42.2087L193.715 54.2285ZM201.661 44.9549C201.803 44.6051 201.87 44.6051 202.012 44.9549L203.234 48.3675H200.439L201.661 44.9549ZM55.9329 59.7539H55.4576C55.3816 59.9722 55.2349 60.1593 55.0406 60.2859C54.8462 60.4125 54.6152 60.4714 54.3836 60.4535C54.2242 60.4681 54.0636 60.4483 53.9127 60.3953C53.7618 60.3423 53.6243 60.2574 53.5095 60.1464C53.3948 60.0354 53.3056 59.9011 53.2481 59.7525C53.1906 59.604 53.1662 59.4448 53.1765 59.286H56.0279V59.1915C56.0251 58.8666 55.9256 58.5498 55.742 58.281C55.5583 58.0123 55.2988 57.8037 54.9961 57.6815C54.6933 57.5593 54.361 57.5291 54.041 57.5945C53.721 57.6599 53.4277 57.8182 53.198 58.0492C52.9683 58.2803 52.8126 58.5738 52.7505 58.8928C52.6884 59.2118 52.7226 59.542 52.8489 59.8416C52.9752 60.1413 53.1879 60.397 53.4602 60.5765C53.7325 60.7561 54.0521 60.8514 54.3788 60.8505C54.7228 60.8755 55.0646 60.7793 55.3444 60.5789C55.6242 60.3784 55.8241 60.0863 55.9091 59.7539H55.9329ZM53.1955 58.9504C53.203 58.803 53.2408 58.6586 53.3064 58.5263C53.3721 58.3939 53.4643 58.2763 53.5774 58.1807C53.6904 58.085 53.822 58.0134 53.9639 57.9702C54.1058 57.927 54.2551 57.9131 54.4026 57.9294C54.549 57.9138 54.6971 57.9282 54.8376 57.9719C54.9782 58.0156 55.1082 58.0875 55.2196 58.1832C55.3311 58.279 55.4215 58.3965 55.4853 58.5285C55.5492 58.6604 55.585 58.8041 55.5907 58.9504H53.1955ZM57.9004 60.7371H58.3043V58.0098H60.557V57.6459H57.9004V60.7276V60.7371ZM62.0825 59.1962C62.0825 59.5224 62.1798 59.8414 62.362 60.1127C62.5443 60.3839 62.8033 60.5954 63.1064 60.7202C63.4094 60.8451 63.7429 60.8777 64.0646 60.8141C64.3864 60.7504 64.6819 60.5933 64.9139 60.3626C65.1458 60.1319 65.3038 59.838 65.3678 59.518C65.4318 59.198 65.3989 58.8663 65.2734 58.5649C65.1479 58.2635 64.9353 58.0059 64.6625 57.8246C64.3898 57.6434 64.0691 57.5466 63.7411 57.5466C63.52 57.5343 63.2988 57.5685 63.092 57.647C62.8851 57.7256 62.6973 57.8467 62.5408 58.0024C62.3842 58.1581 62.2624 58.3449 62.1835 58.5506C62.1045 58.7563 62.0701 58.9763 62.0825 59.1962ZM62.4959 59.1962C62.4997 58.9521 62.5759 58.7146 62.715 58.5134C62.854 58.3123 63.0498 58.1565 63.2776 58.0656C63.5054 57.9748 63.7552 57.953 63.9954 58.0029C64.2357 58.0528 64.4558 58.1722 64.628 58.3461C64.8002 58.52 64.917 58.7407 64.9635 58.9804C65.01 59.2201 64.9843 59.4681 64.8895 59.6933C64.7947 59.9184 64.6351 60.1108 64.4308 60.246C64.2265 60.3813 63.9865 60.4534 63.7411 60.4535C63.5729 60.465 63.4043 60.4402 63.2467 60.3808C63.0891 60.3214 62.9463 60.2288 62.828 60.1094C62.7098 59.99 62.6189 59.8465 62.5615 59.6889C62.5042 59.5313 62.4818 59.3632 62.4959 59.1962ZM69.8432 59.6169C69.7901 59.8652 69.6491 60.0863 69.4458 60.2398C69.2426 60.3934 68.9906 60.4692 68.7358 60.4535C68.5681 60.4643 68.4 60.4389 68.243 60.3792C68.086 60.3195 67.9437 60.2268 67.826 60.1075C67.7083 59.9882 67.6178 59.845 67.5608 59.6877C67.5037 59.5304 67.4814 59.3628 67.4955 59.1962C67.4825 59.0302 67.5052 58.8634 67.5619 58.7067C67.6186 58.55 67.708 58.4071 67.8244 58.2874C67.9407 58.1677 68.0812 58.0739 68.2367 58.0122C68.3922 57.9505 68.5591 57.9223 68.7263 57.9294C68.9659 57.9104 69.2046 57.9743 69.4022 58.1105C69.5997 58.2466 69.7437 58.4465 69.8099 58.6763H70.2281C70.1588 58.3403 69.9694 58.0408 69.695 57.8331C69.4206 57.6254 69.0799 57.5236 68.7358 57.5466C68.2947 57.5466 67.8716 57.7209 67.5597 58.0311C67.2477 58.3414 67.0725 58.7622 67.0725 59.2009C67.0725 59.6397 67.2477 60.0604 67.5597 60.3707C67.8716 60.6809 68.2947 60.8552 68.7358 60.8552C69.0999 60.8824 69.4607 60.7696 69.7436 60.5401C70.0266 60.3105 70.2102 59.9818 70.2566 59.6216L69.8432 59.6169ZM73.1936 61.1105L74.7904 57.6506H74.3152L73.1461 60.3211L71.9865 57.6506H71.5113L72.937 60.7276C72.7136 61.2381 72.5615 61.4602 72.2003 61.4602C72.0672 61.4551 71.935 61.4361 71.8059 61.4035V61.7911C71.9204 61.8242 72.0385 61.8433 72.1576 61.8478C72.7849 61.8478 72.9465 61.5926 73.1698 61.1057L73.1936 61.1105ZM76.8102 60.3731C77.0684 59.9471 77.1848 59.4508 77.1428 58.9551V58.0098H78.7539V60.3731H76.8102ZM76.3349 60.3731H76.0498V61.6682H76.4537V60.7229H79.0866V61.6682H79.4905V60.3731H79.1389V57.6553H76.7199V58.7472C76.7199 59.6216 76.6533 59.9808 76.3349 60.3731ZM83.6014 59.0638V59.4798C83.6014 60.0564 83.0691 60.4251 82.3087 60.4251C81.7954 60.4251 81.5056 60.1982 81.5056 59.8815C81.5056 59.4609 81.8477 59.4089 82.5273 59.2907C82.8947 59.2566 83.2559 59.174 83.6014 59.0449V59.0638ZM84.3522 60.3448C84.2956 60.3639 84.2362 60.3735 84.1764 60.3731C84.0148 60.3731 84.0101 60.2691 84.0101 60.0659V58.6999C84.0424 58.433 83.9784 58.1633 83.8295 57.9389C83.6782 57.7967 83.4968 57.6902 83.2985 57.6272C83.1002 57.5642 82.8903 57.5463 82.6841 57.5749C81.7622 57.5749 81.2584 57.9342 81.2299 58.6574H81.6339C81.6624 58.1847 82.0283 57.9389 82.7412 57.9389C83.302 57.9389 83.6014 58.1185 83.6014 58.4541C83.6014 58.8653 83.2734 58.8322 82.5226 58.9268C82.1384 58.9421 81.7621 59.0405 81.42 59.2151C81.3165 59.2913 81.233 59.3913 81.1767 59.5065C81.1205 59.6217 81.0931 59.7488 81.0968 59.8768C81.0968 60.4582 81.5103 60.7985 82.2707 60.7985C82.5196 60.8159 82.7692 60.7759 83 60.6816C83.2308 60.5873 83.4366 60.4413 83.6014 60.2549C83.6299 60.6 83.7344 60.7276 84.0101 60.7276C84.1267 60.726 84.2424 60.7052 84.3522 60.6662V60.3211V60.3448ZM86.1914 61.8384H86.6191V60.2077C86.756 60.4043 86.9406 60.5633 87.1558 60.6699C87.371 60.7765 87.6098 60.8272 87.85 60.8174C88.0712 60.8293 88.2924 60.7963 88.5003 60.7203C88.7082 60.6443 88.8983 60.527 89.0591 60.3755C89.2199 60.224 89.3479 60.0415 89.4354 59.8391C89.5229 59.6368 89.5681 59.4188 89.5681 59.1986C89.5681 58.9783 89.5229 58.7603 89.4354 58.558C89.3479 58.3556 89.2199 58.1731 89.0591 58.0216C88.8983 57.8701 88.7082 57.7528 88.5003 57.6768C88.2924 57.6008 88.0712 57.5678 87.85 57.5797C87.6094 57.5704 87.3703 57.6218 87.155 57.7293C86.9398 57.8367 86.7554 57.9967 86.6191 58.1942V57.6506H86.2104V61.8384H86.1914ZM86.6001 59.1962C86.6029 58.9556 86.6772 58.7213 86.8137 58.5226C86.9501 58.3239 87.1425 58.1698 87.3668 58.0797C87.5911 57.9896 87.8372 57.9674 88.0741 58.0161C88.311 58.0647 88.5281 58.182 88.6982 58.3531C88.8682 58.5242 88.9836 58.7415 89.0297 58.9776C89.0759 59.2138 89.0508 59.4582 88.9576 59.6802C88.8644 59.9023 88.7072 60.0919 88.5059 60.2253C88.3046 60.3586 88.0681 60.4298 87.8262 60.4298C87.6612 60.4405 87.4958 60.4157 87.3413 60.3573C87.1867 60.2989 87.0466 60.2081 86.9303 60.0911C86.8141 59.9742 86.7244 59.8337 86.6675 59.6793C86.6105 59.5249 86.5875 59.3602 86.6001 59.1962ZM93.9188 59.6169C93.8658 59.8652 93.7248 60.0863 93.5215 60.2398C93.3182 60.3934 93.0663 60.4692 92.8115 60.4535C92.6438 60.4643 92.4757 60.4389 92.3186 60.3792C92.1616 60.3195 92.0194 60.2268 91.9017 60.1075C91.784 59.9882 91.6935 59.845 91.6364 59.6877C91.5794 59.5304 91.5571 59.3628 91.5711 59.1962C91.5575 59.0304 91.5795 58.8637 91.6356 58.707C91.6917 58.5504 91.7808 58.4074 91.8967 58.2876C92.0127 58.1678 92.153 58.0739 92.3082 58.0121C92.4635 57.9504 92.6302 57.9222 92.7973 57.9294C93.0368 57.9104 93.2756 57.9743 93.4731 58.1105C93.6706 58.2466 93.8146 58.4465 93.8808 58.6763H94.3038C94.2344 58.3403 94.045 58.0408 93.7707 57.8331C93.4963 57.6254 93.1555 57.5236 92.8115 57.5466C92.3704 57.5466 91.9473 57.7209 91.6354 58.0311C91.3234 58.3414 91.1482 58.7622 91.1482 59.2009C91.1482 59.6397 91.3234 60.0604 91.6354 60.3707C91.9473 60.6809 92.3704 60.8552 92.8115 60.8552C93.1756 60.8824 93.5363 60.7696 93.8193 60.5401C94.1022 60.3105 94.2858 59.9818 94.3323 59.6216L93.9188 59.6169ZM97.4118 60.7371V58.0098H98.6712V57.6459H95.7533V58.0098H97.0126V60.7276L97.4118 60.7371ZM100.762 58.9929V58.0098H101.879C102.416 58.0098 102.597 58.1327 102.597 58.5297C102.597 58.8275 102.297 59.0024 101.998 59.0024L100.762 58.9929ZM100.358 57.6553V60.7371H101.974C102.749 60.7371 103.11 60.4393 103.11 59.839C103.128 59.6769 103.086 59.5137 102.991 59.3804C102.897 59.2472 102.756 59.153 102.597 59.1158C102.723 59.0689 102.831 58.9831 102.906 58.871C102.98 58.7588 103.017 58.6261 103.01 58.4919C103.01 57.9673 102.692 57.6553 102.012 57.6553H100.358ZM100.762 59.3096H101.988C102.544 59.3096 102.697 59.494 102.697 59.8485C102.697 60.203 102.53 60.3731 101.96 60.3731H100.781V59.3096H100.762ZM107.981 59.7539H107.506C107.428 59.9722 107.281 60.1589 107.086 60.2854C106.891 60.4118 106.659 60.4709 106.427 60.4535C106.268 60.4681 106.107 60.4483 105.956 60.3953C105.805 60.3423 105.668 60.2574 105.553 60.1464C105.438 60.0354 105.349 59.9011 105.292 59.7525C105.234 59.604 105.21 59.4448 105.22 59.286H108.071V59.1915C108.086 58.9721 108.054 58.7521 107.976 58.5463C107.898 58.3404 107.777 58.1534 107.621 57.9978C107.465 57.8421 107.278 57.7213 107.071 57.6435C106.864 57.5657 106.643 57.5327 106.422 57.5466C105.981 57.5466 105.558 57.7209 105.246 58.0311C104.934 58.3414 104.759 58.7622 104.759 59.2009C104.759 59.6397 104.934 60.0604 105.246 60.3707C105.558 60.6809 105.981 60.8552 106.422 60.8552C106.767 60.8804 107.109 60.7845 107.39 60.584C107.671 60.3836 107.871 60.0914 107.957 59.7587L107.981 59.7539ZM105.239 58.9504C105.247 58.803 105.284 58.6586 105.35 58.5263C105.416 58.3939 105.508 58.2763 105.621 58.1807C105.734 58.085 105.866 58.0134 106.007 57.9702C106.149 57.927 106.299 57.9131 106.446 57.9294C106.593 57.9138 106.741 57.9282 106.881 57.9719C107.022 58.0156 107.152 58.0875 107.263 58.1832C107.375 58.279 107.465 58.3965 107.529 58.5285C107.593 58.6604 107.629 58.8041 107.634 58.9504H105.239ZM109.953 60.7371H110.381V59.3191H112.458V60.7371H112.862V57.6506H112.458V58.9551H110.381V57.6695H109.977V60.756L109.953 60.7371ZM114.886 60.7371H115.29V59.3191H117.367V60.7371H117.771V57.6506H117.367V58.9551H115.29V57.6695H114.886V60.756V60.7371ZM120.242 58.9551V57.66H119.834V60.7418H121.454C122.224 60.7418 122.59 60.444 122.59 59.8437C122.59 59.3191 122.281 58.9551 121.492 58.9551H120.242ZM120.242 59.3191H121.45C122.001 59.3191 122.172 59.4987 122.172 59.8532C122.172 60.2077 122.006 60.3778 121.44 60.3778H120.242V59.3191ZM123.331 60.7371H123.735V57.6553H123.331V60.7371ZM125.803 60.7371H126.302L128.288 58.1138V60.7371H128.687V57.6506H128.212L126.23 60.2644V57.6506H125.826V60.7371H125.803ZM126.43 56.5304C126.457 56.7329 126.556 56.9189 126.711 57.0537C126.865 57.1884 127.063 57.2627 127.269 57.2627C127.474 57.2627 127.673 57.1884 127.827 57.0537C127.981 56.9189 128.081 56.7329 128.108 56.5304H127.78C127.78 56.5958 127.766 56.6605 127.74 56.7204C127.714 56.7804 127.676 56.8343 127.627 56.8787C127.579 56.9231 127.522 56.9571 127.46 56.9785C127.398 56.9999 127.332 57.0083 127.266 57.003C127.201 57.0083 127.135 56.9999 127.073 56.9785C127.011 56.9571 126.954 56.9231 126.906 56.8787C126.857 56.8343 126.819 56.7804 126.793 56.7204C126.766 56.6605 126.753 56.5958 126.753 56.5304H126.43ZM134.509 60.7371H134.913V58.0098H136.995V60.7276H137.394V57.6459H134.523V60.7276L134.509 60.7371ZM142.446 59.7539H141.97C141.894 59.9718 141.747 60.1584 141.553 60.2849C141.358 60.4113 141.128 60.4706 140.896 60.4535C140.737 60.4681 140.576 60.4483 140.425 60.3953C140.275 60.3423 140.137 60.2574 140.022 60.1464C139.908 60.0354 139.818 59.9011 139.761 59.7525C139.703 59.604 139.679 59.4448 139.689 59.286H142.541V59.1915C142.556 58.9723 142.524 58.7525 142.447 58.5466C142.37 58.3408 142.249 58.1537 142.094 57.9979C141.938 57.8421 141.751 57.7213 141.544 57.6435C141.338 57.5656 141.117 57.5326 140.896 57.5466C140.455 57.5466 140.032 57.7209 139.72 58.0311C139.408 58.3414 139.233 58.7622 139.233 59.2009C139.233 59.6397 139.408 60.0604 139.72 60.3707C140.032 60.6809 140.455 60.8552 140.896 60.8552C141.24 60.8802 141.582 60.7841 141.862 60.5836C142.142 60.3831 142.342 60.0911 142.427 59.7587L142.446 59.7539ZM139.708 58.9504C139.716 58.803 139.754 58.6586 139.819 58.5263C139.885 58.3939 139.977 58.2763 140.09 58.1807C140.203 58.085 140.335 58.0134 140.477 57.9702C140.619 57.927 140.768 57.9131 140.915 57.9294C141.062 57.9138 141.21 57.9282 141.35 57.9719C141.491 58.0156 141.621 58.0875 141.732 58.1832C141.844 58.279 141.934 58.3965 141.998 58.5285C142.062 58.6604 142.098 58.8041 142.103 58.9504H139.708ZM144.418 60.7371H144.822V59.3191H146.903V60.7371H147.303V57.6506H146.903V58.9551H144.836V57.6695H144.432V60.756L144.418 60.7371ZM151.927 59.6169C151.874 59.8652 151.733 60.0863 151.529 60.2398C151.326 60.3934 151.074 60.4692 150.819 60.4535C150.652 60.4643 150.483 60.4389 150.326 60.3792C150.169 60.3195 150.027 60.2268 149.91 60.1075C149.792 59.9882 149.701 59.845 149.644 59.6877C149.587 59.5304 149.565 59.3628 149.579 59.1962C149.566 59.0302 149.589 58.8634 149.645 58.7067C149.702 58.55 149.792 58.4071 149.908 58.2874C150.024 58.1677 150.165 58.0739 150.32 58.0122C150.476 57.9505 150.643 57.9223 150.81 57.9294C151.049 57.9104 151.288 57.9743 151.486 58.1105C151.683 58.2466 151.827 58.4465 151.893 58.6763H152.312C152.242 58.3403 152.053 58.0408 151.778 57.8331C151.504 57.6254 151.163 57.5236 150.819 57.5466C150.378 57.5466 149.955 57.7209 149.643 58.0311C149.331 58.3414 149.156 58.7622 149.156 59.2009C149.156 59.6397 149.331 60.0604 149.643 60.3707C149.955 60.6809 150.378 60.8552 150.819 60.8552C151.183 60.8779 151.542 60.7636 151.825 60.535C152.107 60.3064 152.293 59.9803 152.345 59.6216L151.927 59.6169ZM154.132 60.7371H154.607L156.594 58.1138V60.7371H156.997V57.6506H156.527L154.545 60.2644V57.6506H154.146V60.7371H154.132ZM158.884 59.1962C158.884 59.5226 158.982 59.8418 159.164 60.1131C159.346 60.3845 159.606 60.5959 159.909 60.7207C160.213 60.8454 160.546 60.8778 160.868 60.8137C161.19 60.7497 161.485 60.5921 161.717 60.3609C161.949 60.1298 162.107 59.8354 162.17 59.5151C162.234 59.1948 162.2 58.863 162.074 58.5616C161.947 58.2603 161.734 58.003 161.461 57.8223C161.187 57.6416 160.866 57.5457 160.538 57.5466C160.317 57.5342 160.096 57.5684 159.89 57.647C159.683 57.7256 159.495 57.8468 159.339 58.0026C159.183 58.1583 159.062 58.3452 158.983 58.551C158.905 58.7567 158.871 58.9766 158.884 59.1962ZM159.298 59.1962C159.302 58.9533 159.379 58.7171 159.518 58.5174C159.657 58.3176 159.853 58.1632 160.08 58.0734C160.307 57.9837 160.555 57.9626 160.794 58.0128C161.033 58.0631 161.252 58.1824 161.423 58.3558C161.594 58.5293 161.71 58.7491 161.756 58.9877C161.802 59.2264 161.776 59.4732 161.682 59.6972C161.587 59.9213 161.428 60.1125 161.225 60.2471C161.021 60.3816 160.782 60.4534 160.538 60.4535C160.37 60.4643 160.202 60.4389 160.045 60.3792C159.888 60.3195 159.746 60.2268 159.628 60.1075C159.51 59.9882 159.42 59.845 159.363 59.6877C159.306 59.5304 159.284 59.3628 159.298 59.1962ZM164.05 60.7371H164.454V59.3191H166.536V60.7371H166.935V57.6506H166.536V58.9551H164.454V57.6695H164.083V60.756L164.05 60.7371ZM168.988 60.7371H169.387V59.3191H171.469V60.7371H171.873V57.6506H171.469V58.9551H169.387V57.6695H168.988V60.756V60.7371ZM174.349 58.9551V57.66H173.94V60.7418H175.556C176.326 60.7418 176.696 60.444 176.696 59.8437C176.696 59.3191 176.387 58.9551 175.598 58.9551H174.349ZM174.349 59.3191H175.551C176.107 59.3191 176.273 59.4987 176.273 59.8532C176.273 60.2077 176.112 60.3778 175.546 60.3778H174.349V59.3191ZM177.433 60.7371H177.865V57.6553H177.457V60.7371H177.433ZM179.909 60.7371H180.384L182.371 58.1138V60.7371H182.775V57.6506H182.271L180.294 60.2644V57.6506H179.89V60.7371H179.909ZM180.531 56.5304C180.558 56.7329 180.658 56.9189 180.812 57.0537C180.966 57.1884 181.165 57.2627 181.37 57.2627C181.576 57.2627 181.774 57.1884 181.928 57.0537C182.083 56.9189 182.182 56.7329 182.209 56.5304H181.886C181.869 56.6538 181.808 56.767 181.713 56.8489C181.619 56.9308 181.498 56.9759 181.373 56.9759C181.247 56.9759 181.126 56.9308 181.032 56.8489C180.938 56.767 180.876 56.6538 180.859 56.5304H180.531ZM191.205 59.3663C191.203 59.5054 191.173 59.6425 191.116 59.7698C191.06 59.8972 190.979 60.0121 190.878 60.108C190.777 60.2038 190.657 60.2787 190.527 60.3283C190.396 60.3779 190.257 60.4011 190.117 60.3967C189.959 60.397 189.804 60.3635 189.66 60.2986C189.517 60.2336 189.389 60.1387 189.286 60.0203C189.183 59.902 189.106 59.7629 189.062 59.6125C189.017 59.4621 189.006 59.304 189.029 59.1489C189.029 58.3974 189.456 57.9105 190.131 57.92C190.272 57.9181 190.412 57.9441 190.542 57.9966C190.673 58.049 190.792 58.1268 190.892 58.2253C190.992 58.3239 191.071 58.4413 191.125 58.5706C191.179 58.7 191.206 58.8387 191.205 58.9788C191.205 59.2671 191.205 59.3238 191.205 59.3427V59.3663ZM191.6 61.8195V60.1746C191.713 60.363 191.874 60.5185 192.067 60.6255C192.259 60.7325 192.477 60.7873 192.698 60.7843C193.581 60.7843 194.166 60.099 194.161 59.1395C194.182 58.9358 194.158 58.7301 194.092 58.5361C194.026 58.3422 193.92 58.1644 193.78 58.0146C193.639 57.8648 193.469 57.7464 193.279 57.6674C193.089 57.5883 192.884 57.5504 192.679 57.5561C192.457 57.5499 192.238 57.6044 192.045 57.7135C191.852 57.8227 191.693 57.9824 191.585 58.1752V56.5067H191.177V58.1658C191.069 57.9755 190.912 57.8181 190.721 57.7106C190.53 57.6031 190.313 57.5497 190.093 57.5561C189.887 57.5504 189.683 57.5883 189.493 57.6674C189.303 57.7464 189.132 57.8648 188.992 58.0146C188.852 58.1644 188.745 58.3422 188.679 58.5361C188.614 58.7301 188.59 58.9358 188.61 59.1395C188.588 59.3447 188.609 59.5523 188.671 59.7491C188.734 59.9458 188.838 60.1274 188.975 60.2822C189.112 60.437 189.28 60.5616 189.469 60.6481C189.657 60.7345 189.862 60.7809 190.069 60.7843C190.288 60.7909 190.504 60.7392 190.695 60.6344C190.887 60.5297 191.046 60.3758 191.158 60.1888C191.16 60.1794 191.16 60.1697 191.158 60.1604V61.8053L191.6 61.8195ZM191.6 58.9835C191.598 58.8437 191.625 58.7051 191.679 58.5757C191.732 58.4464 191.811 58.3289 191.91 58.2303C192.01 58.1317 192.128 58.0538 192.259 58.0014C192.389 57.9489 192.528 57.9228 192.669 57.9247C193.349 57.9247 193.772 58.3974 193.776 59.1537C193.798 59.3086 193.786 59.4664 193.741 59.6164C193.697 59.7665 193.62 59.9053 193.517 60.0235C193.414 60.1417 193.287 60.2365 193.144 60.3017C193.001 60.3669 192.845 60.4009 192.688 60.4015C192.547 60.4066 192.406 60.3833 192.274 60.3331C192.143 60.2829 192.022 60.2067 191.921 60.1092C191.819 60.0117 191.738 59.8948 191.683 59.7656C191.628 59.6363 191.6 59.4973 191.6 59.3569V58.9835ZM196.048 59.1678C196.048 59.4943 196.145 59.8134 196.328 60.0848C196.51 60.3562 196.77 60.5676 197.073 60.6923C197.376 60.817 197.71 60.8494 198.032 60.7854C198.354 60.7213 198.649 60.5638 198.881 60.3326C199.113 60.1014 199.27 59.807 199.334 59.4867C199.397 59.1664 199.364 58.8346 199.238 58.5333C199.111 58.2319 198.898 57.9746 198.625 57.7939C198.351 57.6133 198.03 57.5173 197.702 57.5182C197.481 57.5066 197.26 57.5413 197.054 57.6202C196.848 57.699 196.661 57.8202 196.505 57.9759C196.349 58.1315 196.227 58.3181 196.149 58.5235C196.07 58.7288 196.036 58.9484 196.048 59.1678ZM196.461 59.1678C196.466 58.9249 196.543 58.6887 196.682 58.489C196.821 58.2893 197.016 58.1348 197.243 58.0451C197.47 57.9553 197.719 57.9342 197.958 57.9845C198.197 58.0347 198.416 58.154 198.587 58.3275C198.758 58.5009 198.874 58.7207 198.92 58.9593C198.966 59.198 198.94 59.4448 198.845 59.6689C198.751 59.8929 198.592 60.0842 198.388 60.2187C198.185 60.3533 197.946 60.4251 197.702 60.4251C197.534 60.4359 197.366 60.4106 197.209 60.3508C197.052 60.2911 196.91 60.1985 196.792 60.0791C196.674 59.9598 196.584 59.8166 196.527 59.6593C196.47 59.5021 196.447 59.3344 196.461 59.1678ZM201.214 60.7087H201.618V59.2907H203.695V60.7087H204.099V57.6222H203.695V58.9551H201.618V57.6695H201.214V60.756V60.7087ZM206.56 60.3448C206.818 59.9187 206.935 59.4225 206.893 58.9268V57.9814H208.509V60.3448H206.56ZM206.109 60.3448H205.824V61.6398H206.223V60.6945H208.856V61.6398H209.26V60.3731H208.908V57.6553H206.494V58.7472C206.494 59.6216 206.422 59.9808 206.109 60.3731V60.3448Z" fill="#524F4A"/>
<path d="M28.714 36.5509L8.21215 16.2737L7.16187 17.3231L27.659 37.6144L28.714 36.5509ZM0 39.8596H27.3263V38.3707H0V39.8596ZM29.4982 62.0747H30.9857V42.0385H29.4982V62.0747ZM31.7936 41.7219L37.5963 47.4647L38.6465 46.4201L32.8439 40.6726L31.7936 41.7219ZM27.6447 40.6631L7.43276 60.7512L8.48779 61.7958L28.6998 41.6982L27.6447 40.6489V40.6631ZM32.8201 37.6097L68.0592 2.56182L67.0089 1.49833L31.7698 36.5509L32.8201 37.6003V37.6097ZM30.9857 0.0141793H29.4982V36.2532H30.9857V0V0.0141793Z" fill="url(#paint0_linear_4058_2490)"/>
<defs>
<linearGradient id="paint0_linear_4058_2490" x1="-7.71182e-07" y1="23.3968" x2="46.504" y2="42.0044" gradientUnits="userSpaceOnUse">
<stop stop-color="#FB8D40"/>
<stop offset="1" stop-color="#6E17BA"/>
</linearGradient>
</defs>
</svg>
