<svg width="178" height="93" viewBox="0 0 178 93" fill="none" xmlns="http://www.w3.org/2000/svg">
<path d="M88.8348 26.9017L78.2988 20.5195V28.1925L88.8348 34.5748L114.066 16.63C113.168 14.7383 112.069 12.9704 110.75 11.3262L88.8348 26.9017Z" fill="#21A038"/>
<path d="M116.45 27.1234C116.45 42.1034 104.307 54.2469 89.3266 54.2469C74.3467 54.2469 62.2031 42.1034 62.2031 27.1234C62.2031 12.1436 74.3467 0 89.3266 0C95.9145 0 101.954 2.34883 106.653 6.25479L101.154 10.3354C97.8105 7.97538 93.7305 6.58904 89.3266 6.58904C77.9857 6.58904 68.7922 15.7826 68.7922 27.1234C68.7922 38.4643 77.9857 47.658 89.3266 47.658C100.533 47.658 109.642 38.6813 109.857 27.5264L116.077 22.6167C116.323 24.0825 116.45 25.5879 116.45 27.1234Z" fill="url(#paint0_radial_4058_13048)"/>
<path d="M116.45 27.1234C116.45 42.1034 104.307 54.2469 89.3266 54.2469C74.3467 54.2469 62.2031 42.1034 62.2031 27.1234C62.2031 12.1436 74.3467 0 89.3266 0C95.9145 0 101.954 2.34883 106.653 6.25479L101.154 10.3354C97.8105 7.97538 93.7305 6.58904 89.3266 6.58904C77.9857 6.58904 68.7922 15.7826 68.7922 27.1234C68.7922 38.4643 77.9857 47.658 89.3266 47.658C100.533 47.658 109.642 38.6813 109.857 27.5264L116.077 22.6167C116.323 24.0825 116.45 25.5879 116.45 27.1234Z" fill="url(#paint1_linear_4058_13048)"/>
<path d="M116.45 27.1234C116.45 42.1034 104.307 54.2469 89.3266 54.2469C74.3467 54.2469 62.2031 42.1034 62.2031 27.1234C62.2031 12.1436 74.3467 0 89.3266 0C95.9145 0 101.954 2.34883 106.653 6.25479L101.154 10.3354C97.8105 7.97538 93.7305 6.58904 89.3266 6.58904C77.9857 6.58904 68.7922 15.7826 68.7922 27.1234C68.7922 38.4643 77.9857 47.658 89.3266 47.658C100.533 47.658 109.642 38.6813 109.857 27.5264L116.077 22.6167C116.323 24.0825 116.45 25.5879 116.45 27.1234Z" fill="url(#paint2_radial_4058_13048)"/>
<path fill-rule="evenodd" clip-rule="evenodd" d="M167.066 70.2642H166.224V68.5537H162.176V70.2642H161.622C154.661 70.2642 150.544 73.6803 150.544 80.2848C150.544 86.5015 154.402 90.2422 161.335 90.2422H162.176V92.3985H166.224V90.2422H166.774C173.74 90.2422 177.85 86.8262 177.85 80.2218C177.85 74.0001 173.998 70.2642 167.066 70.2642ZM162.176 86.7389H161.495C157.739 86.7389 154.821 84.8928 154.841 80.1538C154.841 75.8365 157.042 73.7772 161.578 73.7772H162.176V86.7389ZM166.224 86.7389V73.7869H166.902C170.652 73.7869 173.575 75.6233 173.575 80.3574C173.575 84.6747 171.373 86.7389 166.837 86.7389H166.224ZM116.857 81.9902H104.45V91.7538H100.403V69.1981H104.45V78.2882H116.857V69.1981H120.91V91.7538H116.857V81.9902ZM142.61 72.9049H130.529V91.7538H126.477V69.1981H146.657V91.7538H142.61V72.9049ZM61.1473 72.9872L66.2389 69.2287H49.205V91.8539H66.2389V88.0831H54.0612V82.2962H64.4425V78.5252H54.0612V72.9872H61.1473ZM30.4227 78.052H36.3443C41.7207 78.052 44.6691 80.429 44.6691 84.7476C44.6691 89.265 41.4111 91.8537 35.7124 91.8537H25.5665V69.216H44.9541L39.8625 72.9868H30.4227V78.052ZM30.435 88.0828H35.5018C38.4999 88.0828 40.0235 87.0872 40.0235 84.9466C40.0235 82.8559 38.5866 81.8104 35.5018 81.8104H30.435V88.0828ZM80.0388 69.2287H70.76V91.8539H75.6162V85.4448H80.0265C85.9479 85.4448 89.6149 82.3211 89.6149 77.3181C89.6149 72.3151 85.9479 69.2287 80.0388 69.2287ZM79.9273 81.6739H75.6162V72.9872H79.9273C83.0367 72.9872 84.7587 74.5304 84.7587 77.3305C84.7587 80.1307 83.0492 81.6739 79.9273 81.6739ZM13.0175 88.0081C14.4795 88.0207 15.9288 87.6473 17.2172 86.9503L18.2827 86.3655L21.4291 88.6928C19.3605 90.9204 16.3005 92.1524 12.7946 92.1524C9.44979 92.1524 6.38999 90.9576 4.19713 88.8047C2.00448 86.6516 0.802734 83.6648 0.802734 80.4166C0.802734 77.1685 2.02928 74.2314 4.20964 72.1531C6.38999 70.0748 9.46229 68.9298 12.8319 68.9298C15.9413 68.9298 18.6667 69.8881 20.6983 71.6802L20.9337 71.8793L17.4401 74.4679C16.1519 73.5345 14.6033 73.0492 13.0175 73.074C8.64452 73.074 5.46076 76.2226 5.46076 80.5412C5.46076 84.8596 8.63223 88.0081 13.0175 88.0081Z" fill="#21A038"/>
<defs>
<radialGradient id="paint0_radial_4058_13048" cx="0" cy="0" r="1" gradientUnits="userSpaceOnUse" gradientTransform="translate(63.71 34.6577) rotate(-26.565) scale(53.9108)">
<stop stop-color="#F4E500"/>
<stop offset="0.30016" stop-color="#C4DA30"/>
<stop offset="0.640959" stop-color="#57C09D"/>
<stop offset="1" stop-color="#0098DE"/>
</radialGradient>
<linearGradient id="paint1_linear_4058_13048" x1="110.423" y1="45.2057" x2="72.7511" y2="6.02743" gradientUnits="userSpaceOnUse">
<stop stop-color="#209F37"/>
<stop offset="0.512673" stop-color="#209F37" stop-opacity="0"/>
</linearGradient>
<radialGradient id="paint2_radial_4058_13048" cx="0" cy="0" r="1" gradientUnits="userSpaceOnUse" gradientTransform="translate(95.354) rotate(92.7263) scale(31.6799)">
<stop offset="0.160335" stop-color="#00A2E7"/>
<stop offset="1" stop-color="#2AA657" stop-opacity="0"/>
</radialGradient>
</defs>
</svg>
