<svg width="220" height="59" viewBox="0 0 220 59" fill="none" xmlns="http://www.w3.org/2000/svg">
<g clip-path="url(#clip0_4058_12542)">
<path d="M53.4937 57.1327H52.7406V51.8694H49.4021V57.1327H48.5703V51.039H53.5724V57.1327H53.4937ZM155.075 56.3022H158.064V51.8694H155.94L155.333 55.2361C155.299 55.5054 155.254 55.7411 155.198 55.9319C155.164 56.0778 155.119 56.2012 155.075 56.3022ZM159.751 56.3808V58.4232H158.863V57.1327H154.052V58.4232H153.22V56.3022H154.13C154.198 56.2461 154.265 56.1451 154.321 55.9768C154.389 55.7972 154.445 55.5391 154.512 55.2024L155.198 51.039H158.896V56.3022H159.751V56.3808ZM151.107 51.1175V57.1327H150.275V54.372H146.936V57.1327H146.105V51.039H146.936V53.5528H150.275V51.039H151.107V51.1175ZM138.349 54.1139C138.349 54.7648 138.596 55.3371 139.001 55.7523C139.405 56.1788 139.967 56.4257 140.597 56.4257C141.249 56.4257 141.833 56.1788 142.249 55.7635C142.665 55.3483 142.912 54.7648 142.912 54.1139C142.912 53.4405 142.665 52.8458 142.249 52.4193C141.833 51.9929 141.26 51.746 140.597 51.746C139.967 51.746 139.405 52.0041 138.989 52.4305C138.596 52.8458 138.349 53.4405 138.349 54.1139ZM143.8 54.1139C143.8 55.0004 143.452 55.786 142.879 56.3471C142.305 56.9082 141.507 57.2561 140.597 57.2561C139.72 57.2561 138.933 56.9082 138.371 56.3471C137.798 55.7748 137.449 55.0004 137.449 54.1139C137.449 53.2161 137.798 52.4193 138.36 51.847C138.922 51.2634 139.72 50.9155 140.597 50.9155C141.507 50.9155 142.305 51.2634 142.879 51.8357C143.463 52.4081 143.8 53.2049 143.8 54.1139ZM134.572 54.0578C134.572 53.5752 134.403 53.2049 134.133 52.958C133.841 52.6774 133.414 52.5428 132.931 52.5428H132.459V55.5054H132.931C133.414 55.5054 133.841 55.3708 134.133 55.1127C134.403 54.8658 134.572 54.5067 134.572 54.0578ZM131.571 55.5054V52.5428H131.031C130.57 52.5428 130.154 52.6774 129.873 52.958C129.615 53.2049 129.446 53.5752 129.446 54.0578C129.446 54.5067 129.615 54.8545 129.873 55.1014C130.165 55.3708 130.57 55.5054 131.031 55.5054H131.571ZM135.404 54.0578C135.404 54.7648 135.145 55.3147 134.729 55.7074C134.279 56.1227 133.65 56.3359 132.931 56.3359H132.459V57.1327H131.571V56.3359H131.031C130.312 56.3359 129.682 56.1227 129.232 55.7074C128.817 55.3147 128.558 54.7648 128.558 54.0578C128.558 53.3508 128.828 52.7784 129.255 52.3856C129.705 51.948 130.345 51.7123 131.031 51.7123H131.571V51.039H132.459V51.7123H132.931C133.639 51.7123 134.268 51.948 134.718 52.3632C135.145 52.7672 135.404 53.3508 135.404 54.0578ZM118.498 49.019V48.8955H119.206V49.0975C119.206 49.3107 119.273 49.4791 119.386 49.5801C119.509 49.6923 119.689 49.7484 119.925 49.7484C120.161 49.7484 120.341 49.6923 120.465 49.5801C120.577 49.4791 120.645 49.3107 120.645 49.0975V48.8955H121.409V49.0975C121.409 49.5015 121.24 49.8494 120.982 50.0963C120.712 50.3656 120.319 50.5227 119.925 50.5227C119.532 50.5227 119.161 50.3656 118.902 50.1075C118.655 49.8606 118.498 49.5015 118.498 49.0975V49.019ZM122.454 51.1175V57.1327H121.566V54.5403L121.623 52.2959L118.374 57.1327H117.396V51.039H118.284V53.6313L118.228 55.8758L121.477 51.039H122.454V51.1175ZM114.901 57.1327H114.148V51.039H114.968V57.1327H114.901ZM112.608 55.281C112.608 54.9555 112.518 54.6862 112.315 54.5179C112.124 54.3495 111.821 54.2598 111.394 54.2598H109.764V56.3022H111.338C111.753 56.3022 112.068 56.2012 112.27 56.0329C112.378 55.947 112.464 55.8375 112.523 55.713C112.581 55.5884 112.61 55.4522 112.608 55.3147V55.281ZM113.496 55.281C113.496 55.8309 113.305 56.3022 112.922 56.6389C112.563 56.9531 112.046 57.1327 111.394 57.1327H108.865V51.039H109.764V53.4293H111.394C112.079 53.4293 112.596 53.5976 112.945 53.9006C113.316 54.2261 113.496 54.6974 113.496 55.281ZM106.324 51.1175V57.1327H105.492V54.372H102.154V57.1327H101.322V51.039H102.154V53.5528H105.492V51.039H106.324V51.1175ZM98.7144 51.1175V57.1327H97.8826V54.372H94.5442V57.1327H93.7124V51.039H94.5442V53.5528H97.8826V51.039H98.7144V51.1175ZM85.9564 54.1139C85.9564 54.7648 86.2149 55.3483 86.6308 55.7635C87.0355 56.1788 87.62 56.4257 88.2719 56.4257C88.9014 56.4257 89.4634 56.1788 89.8681 55.7523C90.2727 55.3371 90.5313 54.7648 90.5313 54.1139C90.5313 53.4405 90.284 52.8458 89.8793 52.4305C89.4747 52.0041 88.9014 51.746 88.2719 51.746C87.62 51.746 87.0355 51.9929 86.6196 52.4193C86.2037 52.8458 85.9564 53.4405 85.9564 54.1139ZM91.4193 54.1139C91.4193 55.0004 91.0708 55.7748 90.5088 56.3471C89.9355 56.9082 89.1487 57.2561 88.2719 57.2561C87.3614 57.2561 86.5634 56.9082 85.9901 56.3471C85.4168 55.786 85.0684 55.0004 85.0684 54.1139C85.0684 53.2049 85.4168 52.4081 85.9901 51.8357C86.5634 51.2634 87.3614 50.9155 88.2719 50.9155C89.1599 50.9155 89.9468 51.2634 90.5088 51.847C91.0708 52.4193 91.4193 53.2161 91.4193 54.1139ZM82.8315 51.1175V57.1327H81.9997V54.5403L82.0559 52.2959L78.8074 57.1327H77.8295V51.039H78.6613V53.6313L78.6051 55.8758L81.8536 51.039H82.8315V51.1175ZM69.6126 54.1139C69.6126 53.2049 69.9386 52.3969 70.5006 51.8245C71.0627 51.2634 71.8495 50.9155 72.7487 50.9155C73.4456 50.9155 74.0751 51.1175 74.5697 51.4766C75.0755 51.847 75.4577 52.3632 75.6488 52.9916L75.6825 53.0926H74.7945L74.772 53.0478C74.5922 52.655 74.2999 52.3295 73.9402 52.0939C73.603 51.8694 73.1871 51.746 72.7487 51.746C72.0968 51.746 71.5348 51.9929 71.1413 52.4193C70.7367 52.8345 70.5006 53.4293 70.5006 54.1139C70.5006 54.776 70.7367 55.3595 71.1413 55.7748C71.3527 55.9841 71.6037 56.1495 71.8796 56.2612C72.1556 56.373 72.451 56.4289 72.7487 56.4257C73.1871 56.4257 73.603 56.3022 73.9402 56.0778C74.2999 55.8421 74.5922 55.5167 74.772 55.1239L74.7945 55.079H75.6825L75.6488 55.18C75.4577 55.8084 75.0755 56.3247 74.5697 56.695C74.0751 57.0541 73.4456 57.2561 72.7487 57.2561C71.8495 57.2561 71.0739 56.9194 70.5119 56.3583C69.9498 55.7972 69.6126 55.0004 69.6126 54.1139ZM67.3083 51.1175V57.1327H66.4203V54.372H63.1381V57.1327H62.2501V51.039H63.1381V53.5528H66.4203V51.039H67.3083V51.1175ZM57.0007 51.8694V53.6089H59.8895V54.4393H57.0007V56.3022H60.0694V57.1327H56.1127V51.039H60.0694V51.8694H57.0007Z" fill="black"/>
<path d="M29.0231 0H26.6738V32.4549H29.0231V0ZM29.484 39.3005L34.4523 44.2607L36.1384 42.5774L31.1251 37.6171L29.484 39.3005ZM61.0699 1.12223L29.439 32.713L31.1251 34.3402L62.3513 3.16469L62.711 2.80557L61.0699 1.12223ZM24.5156 37.6171L6.49704 55.6064L8.19436 57.2898L26.213 39.2556L24.5156 37.6171ZM26.6738 57.2898H29.0231V39.5586H26.6738V57.2898ZM26.1568 32.713L7.93583 14.5665L6.24974 16.205L24.5156 34.3402L26.1568 32.713ZM24.3133 34.8003H0V37.157H24.3133V34.8003Z" fill="#3FAB3C"/>
<path d="M59.2713 28.9534V31.7478H55.1235V43.2843H52.1898V31.7478H48.042V28.9534H59.2713ZM71.0177 31.7478H64.3295V34.6319H70.4894V37.415H64.3295V40.5012H71.0177V43.2843H61.3845V28.9534H71.0177V31.7478ZM76.7953 28.9534H86.0912V43.2843H83.1575V31.7478H79.302L78.1442 38.9076C77.6721 41.9937 76.3232 43.5312 74.1538 43.5312C73.6704 43.5312 73.2321 43.4751 72.7038 43.3853V40.7817C72.996 40.7817 73.2321 40.8378 73.5243 40.8378C74.0526 40.8378 74.4348 40.692 74.6821 40.3553C74.9181 40.0186 75.1092 39.4351 75.2554 38.6271L76.7953 28.9534ZM98.8605 31.7478H92.1611V34.6319H98.3322V37.415H92.1611V40.5012H98.8605V43.2843H89.2274V28.9534H98.8605V31.7478ZM113.215 43.2843H109.55L104.155 36.607V43.2843H101.221V28.9534H104.155V35.3053L109.269 28.9534H112.877L107.246 35.9337L113.215 43.2843ZM115.53 30.8276C116.924 29.436 118.711 28.7178 120.825 28.7178C122.949 28.7178 124.725 29.436 126.175 30.8276C127.614 32.2752 128.344 34.0484 128.344 36.1245C128.344 38.2343 127.614 40.0186 126.175 41.4102C124.725 42.8579 122.949 43.5312 120.825 43.5312C118.711 43.5312 116.924 42.8579 115.53 41.4102C114.08 40.0186 113.361 38.2343 113.361 36.1245C113.361 34.0484 114.08 32.2752 115.53 30.8276ZM124.051 32.8027C123.23 31.9386 122.128 31.5009 120.825 31.5009C119.521 31.5009 118.464 31.9386 117.598 32.8027C116.778 33.6668 116.351 34.7778 116.351 36.1245C116.351 37.4712 116.778 38.5709 117.598 39.4351C118.464 40.3104 119.521 40.7817 120.825 40.7817C122.128 40.7817 123.23 40.3104 124.051 39.4351C124.916 38.5709 125.354 37.4712 125.354 36.1245C125.354 34.7778 124.916 33.6668 124.051 32.8027ZM141.44 28.9534H144.812V43.2843H141.878V33.0384L137.876 39.0535H137.64L133.639 33.0384V43.2843H130.705V28.9534H134.066L137.775 34.486L141.44 28.9534ZM160.998 43.5312C158.829 43.5312 157.053 42.8579 155.648 41.4102C154.254 40.0186 153.535 38.2343 153.535 36.1245C153.535 34.0035 154.254 32.2752 155.648 30.8276C157.053 29.436 158.829 28.7178 160.998 28.7178C162.684 28.7178 164.123 29.2003 165.382 30.1542C166.63 31.0745 167.495 32.3201 167.889 33.8576H164.753C164.415 33.1394 163.932 32.567 163.258 32.1293C162.583 31.7029 161.819 31.5009 160.953 31.5009C159.649 31.5009 158.593 31.9386 157.727 32.8027C156.907 33.6668 156.513 34.7778 156.513 36.1245C156.513 37.4712 156.907 38.5709 157.727 39.4351C158.593 40.3553 159.649 40.7817 160.953 40.7817C161.819 40.7817 162.583 40.5461 163.258 40.1645C163.932 39.7268 164.415 39.1545 164.753 38.3802H167.889C167.495 39.9176 166.63 41.1745 165.382 42.1284C164.123 43.0935 162.684 43.5312 160.998 43.5312ZM171.789 30.8276C173.183 29.436 174.97 28.7178 177.083 28.7178C179.208 28.7178 180.984 29.436 182.434 30.8276C183.873 32.2752 184.603 34.0484 184.603 36.1245C184.603 38.2343 183.873 40.0186 182.434 41.4102C180.984 42.8579 179.208 43.5312 177.083 43.5312C174.97 43.5312 173.183 42.8579 171.789 41.4102C170.339 40.0186 169.62 38.2343 169.62 36.1245C169.62 34.0484 170.339 32.2752 171.789 30.8276ZM180.31 32.8027C179.489 31.9386 178.387 31.5009 177.083 31.5009C175.78 31.5009 174.723 31.9386 173.857 32.8027C172.992 33.6668 172.61 34.7778 172.61 36.1245C172.61 37.4712 172.992 38.5709 173.857 39.4351C174.723 40.3104 175.78 40.7817 177.083 40.7817C178.387 40.7817 179.489 40.3104 180.31 39.4351C181.175 38.5709 181.613 37.4712 181.613 36.1245C181.613 34.7778 181.175 33.6668 180.31 32.8027ZM199.385 28.7178C201.509 28.7178 203.285 29.436 204.735 30.8276C206.174 32.2752 206.848 34.0484 206.848 36.1245C206.848 38.2343 206.174 40.0186 204.735 41.4102C203.285 42.8579 201.509 43.5312 199.385 43.5312C197.553 43.5312 195.923 42.9925 194.574 41.8927C193.169 40.7368 192.359 39.3004 192.022 37.5609H189.999V43.2843H187.054V28.9534H189.999V34.7778H192.022C192.359 32.9935 193.169 31.557 194.574 30.4011C195.923 29.2901 197.508 28.7178 199.385 28.7178ZM196.159 39.4351C197.024 40.3104 198.092 40.7817 199.385 40.7817C200.689 40.7817 201.801 40.3104 202.611 39.4351C203.476 38.5709 203.915 37.4712 203.915 36.1245C203.915 34.7778 203.488 33.6668 202.611 32.8027C201.801 31.9386 200.689 31.5009 199.385 31.5009C198.092 31.5009 197.024 31.9386 196.159 32.8027C195.338 33.6668 194.911 34.7778 194.911 36.1245C194.911 37.4712 195.338 38.5709 196.159 39.4351ZM217.785 35.7878C218.505 36.0684 219.044 36.506 219.427 37.0784C219.809 37.6619 220 38.3802 220 39.1545C220 40.5461 219.517 41.601 218.505 42.3753C217.549 43.1384 216.201 43.5312 214.514 43.5312C212.828 43.5312 211.48 43.1384 210.423 42.3304C209.31 41.5561 208.737 40.3553 208.591 38.8178H211.569C211.772 40.1084 212.727 40.7817 214.458 40.7817C216.144 40.7817 217.021 40.1084 217.021 38.8627C217.021 38.3802 216.875 37.9537 216.482 37.7068C216.144 37.415 215.526 37.2804 214.661 37.2804H212.581V34.7217H214.323C215.807 34.7217 216.583 34.2504 216.583 33.2852C216.583 32.0845 215.762 31.5009 214.177 31.5009C213.447 31.5009 212.918 31.6468 212.491 31.8937C212.109 32.1742 211.817 32.6119 211.671 33.2852H208.737C208.872 31.7927 209.456 30.6929 210.468 29.8737C211.48 29.0993 212.727 28.7178 214.323 28.7178C215.863 28.7178 217.111 29.0993 218.078 29.8737C219.089 30.6929 219.573 31.6468 219.573 32.9037C219.573 33.5209 219.382 34.1045 219.089 34.587C218.752 35.1145 218.37 35.496 217.785 35.7878Z" fill="#434242"/>
</g>
<defs>
<clipPath id="clip0_4058_12542">
<rect width="220" height="58.4232" fill="white"/>
</clipPath>
</defs>
</svg>
