<svg width="36" height="36" viewBox="0 0 36 36" fill="none" xmlns="http://www.w3.org/2000/svg">
<path fill-rule="evenodd" clip-rule="evenodd" d="M17.0484 4.01573C16.6623 3.62084 16.0292 3.61373 15.6343 3.99984C15.2394 4.38595 15.2323 5.01907 15.6184 5.41396L27.9251 18.0004L22.1136 23.944L15.6184 30.5868C15.2323 30.9817 15.2394 31.6148 15.6343 32.0009C16.0292 32.387 16.6623 32.3799 17.0484 31.985L23.5436 25.3422L30.0387 18.6995C30.4187 18.3109 30.4187 17.6899 30.0387 17.3012L17.0484 4.01573ZM8.19143 4.01573C7.80532 3.62084 7.1722 3.61373 6.77731 3.99984C6.38242 4.38595 6.37531 5.01907 6.76142 5.41396L19.0681 18.0004L13.2566 23.944L6.76142 30.5868C6.37531 30.9817 6.38242 31.6148 6.77731 32.0009C7.1722 32.387 7.80532 32.3799 8.19143 31.985L14.6866 25.3422L21.1817 18.6995C21.5617 18.3109 21.5617 17.6899 21.1817 17.3012L8.19143 4.01573Z" fill="#5979C4"/>
</svg>
