<svg width="36" height="36" viewBox="0 0 36 36" fill="none" xmlns="http://www.w3.org/2000/svg">
<path fill-rule="evenodd" clip-rule="evenodd" d="M18.9516 4.01573C19.3377 3.62084 19.9708 3.61373 20.3657 3.99984C20.7606 4.38595 20.7677 5.01907 20.3816 5.41396L8.07486 18.0004L13.8864 23.944L20.3816 30.5868C20.7677 30.9817 20.7606 31.6148 20.3657 32.0009C19.9708 32.387 19.3377 32.3799 18.9516 31.985L12.4564 25.3422L5.96126 18.6995C5.58127 18.3109 5.58127 17.6899 5.96126 17.3012L18.9516 4.01573ZM27.8086 4.01573C28.1947 3.62084 28.8278 3.61373 29.2227 3.99984C29.6176 4.38595 29.6247 5.01907 29.2386 5.41396L16.9319 18.0004L22.7434 23.944L29.2386 30.5868C29.6247 30.9817 29.6176 31.6148 29.2227 32.0009C28.8278 32.387 28.1947 32.3799 27.8086 31.985L21.3134 25.3422L14.8183 18.6995C14.4383 18.3109 14.4383 17.6899 14.8183 17.3012L27.8086 4.01573Z" fill="#FF720B"/>
</svg>
