<svg width="27" height="28" viewBox="0 0 27 28" fill="none" xmlns="http://www.w3.org/2000/svg">
<path fill-rule="evenodd" clip-rule="evenodd" d="M5.33331 4.25C4.78103 4.25 4.33331 4.69772 4.33331 5.25V22.75C4.33331 23.3023 4.78103 23.75 5.33331 23.75H6.58331C7.1356 23.75 7.58331 23.3023 7.58331 22.75V5.25C7.58331 4.69772 7.1356 4.25 6.58331 4.25H5.33331ZM10.7498 4.25C10.1975 4.25 9.74982 4.69772 9.74982 5.25V22.75C9.74982 23.3023 10.1975 23.75 10.7498 23.75H11.9998C12.5521 23.75 12.9998 23.3023 12.9998 22.75V5.25C12.9998 4.69772 12.5521 4.25 11.9998 4.25H10.7498Z" fill="#5979C4"/>
<rect x="14.6002" y="5.25122" width="3.25" height="19.5" rx="1" transform="rotate(-19 14.6002 5.25122)" fill="#879FD6"/>
</svg>
