<svg width="36" height="36" viewBox="0 0 36 36" fill="none" xmlns="http://www.w3.org/2000/svg">
<path d="M19.5 25.5H6C6.81741 25.0371 7.51471 24.3888 8.03578 23.6072C8.55685 22.8256 8.88712 21.9326 9 21V16.5C9.08934 14.5966 9.69495 12.7534 10.7519 11.1679C11.8089 9.58249 13.2774 8.31454 15 7.5C15 6.70435 15.3161 5.94129 15.8787 5.37868C16.4413 4.81607 17.2044 4.5 18 4.5C18.7956 4.5 19.5587 4.81607 20.1213 5.37868C20.6839 5.94129 21 6.70435 21 7.5C22.7226 8.31454 24.1911 9.58249 25.2481 11.1679C26.305 12.7534 26.9107 14.5966 27 16.5V19.5M13.5 25.5V27C13.4998 27.7465 13.6853 28.4813 14.0398 29.1382C14.3942 29.7951 14.9066 30.3536 15.5306 30.7632C16.1547 31.1728 16.8708 31.4208 17.6145 31.4847C18.3582 31.5487 19.1062 31.4266 19.791 31.1295M33 33L25.5 25.5M25.5 33L33 25.5" stroke="#FF8409" stroke-width="2" stroke-linecap="round" stroke-linejoin="round"/>
</svg>
