<svg width="36" height="36" viewBox="0 0 36 36" fill="none" xmlns="http://www.w3.org/2000/svg">
<path fill-rule="evenodd" clip-rule="evenodd" d="M32.3393 7.85992C32.7606 8.2818 32.9973 8.85367 32.9973 9.44992C32.9973 10.0462 32.7606 10.618 32.3393 11.0399L14.0483 29.3309C13.8371 29.5419 13.5861 29.7087 13.3098 29.8217C13.0336 29.9347 12.7376 29.9916 12.4391 29.9891C12.1407 29.9866 11.8457 29.9247 11.5713 29.8071C11.297 29.6894 11.0489 29.5184 10.8413 29.3039L3.63228 21.8519C3.22116 21.4223 2.9968 20.8475 3.00823 20.253C3.01966 19.6585 3.26596 19.0927 3.69329 18.6792C4.12062 18.2658 4.69424 18.0383 5.2888 18.0465C5.88335 18.0547 6.45049 18.2979 6.86628 18.7229L12.4853 24.5309L29.1593 7.85992C29.5812 7.43857 30.153 7.2019 30.7493 7.2019C31.3455 7.2019 31.9174 7.43857 32.3393 7.85992Z" fill="white"/>
</svg>
