<svg width="24" height="24" viewBox="0 0 24 24" fill="none" xmlns="http://www.w3.org/2000/svg">
<path fill-rule="evenodd" clip-rule="evenodd" d="M12.0004 14.2389L20.9573 23.1958C21.2559 23.4842 21.6559 23.6438 22.071 23.6402C22.4862 23.6366 22.8833 23.4701 23.1769 23.1765C23.4704 22.883 23.637 22.4859 23.6406 22.0707C23.6442 21.6556 23.4846 21.2556 23.1962 20.957L14.2392 12.0001L23.1962 3.04316C23.4846 2.74454 23.6442 2.34458 23.6406 1.92944C23.637 1.51429 23.4704 1.11717 23.1769 0.823611C22.8833 0.530049 22.4862 0.363531 22.071 0.359923C21.6559 0.356316 21.2559 0.515907 20.9573 0.804324L12.0004 9.76124L3.0435 0.804324C2.74353 0.523036 2.3459 0.369486 1.93473 0.376162C1.52357 0.382839 1.13113 0.549219 0.84046 0.840097C0.549788 1.13098 0.383685 1.52353 0.377299 1.9347C0.370913 2.34587 0.524745 2.74339 0.806245 3.04316L9.76158 12.0001L0.804662 20.957C0.653437 21.103 0.532816 21.2778 0.449835 21.4709C0.366854 21.6641 0.323176 21.8719 0.321349 22.0821C0.319522 22.2923 0.359583 22.5008 0.439194 22.6954C0.518805 22.89 0.636373 23.0668 0.785036 23.2154C0.9337 23.3641 1.11048 23.4817 1.30507 23.5613C1.49965 23.6409 1.70815 23.681 1.91838 23.6791C2.12861 23.6773 2.33638 23.6336 2.52955 23.5506C2.72273 23.4677 2.89744 23.347 3.0435 23.1958L12.0004 14.2389Z" fill="#FF720B"/>
</svg>
