<svg width="36" height="36" viewBox="0 0 36 36" fill="none" xmlns="http://www.w3.org/2000/svg">
<path fill-rule="evenodd" clip-rule="evenodd" d="M14.1927 26.2345C14.1927 27.0169 14.827 27.6511 15.6094 27.6511H17.4689C18.2513 27.6511 18.8856 27.0169 18.8856 26.2345C18.8856 25.4521 18.2513 24.8178 17.4689 24.8178H15.6094C14.827 24.8178 14.1927 25.4521 14.1927 26.2345Z" fill="white"/>
<path fill-rule="evenodd" clip-rule="evenodd" d="M14.1927 17.8009C14.1927 18.5833 14.827 19.2175 15.6094 19.2175H27.0321C27.8145 19.2175 28.4487 18.5833 28.4487 17.8009C28.4487 17.0185 27.8145 16.3842 27.0321 16.3842H15.6094C14.827 16.3842 14.1927 17.0185 14.1927 17.8009Z" fill="white"/>
<path fill-rule="evenodd" clip-rule="evenodd" d="M14.1927 9.83211C14.1927 10.6145 14.827 11.2488 15.6094 11.2488H27.0321C27.8145 11.2488 28.4487 10.6145 28.4487 9.83211C28.4487 9.04971 27.8145 8.41545 27.0321 8.41545H15.6094C14.827 8.41545 14.1927 9.04971 14.1927 9.83211Z" fill="white"/>
<path fill-rule="evenodd" clip-rule="evenodd" d="M7.55212 26.2345C7.55212 27.0169 8.18639 27.6511 8.96879 27.6511H10.297C11.0794 27.6511 11.7137 27.0169 11.7137 26.2345C11.7137 25.4521 11.0794 24.8178 10.297 24.8178H8.96879C8.18639 24.8178 7.55212 25.4521 7.55212 26.2345Z" fill="white"/>
<path fill-rule="evenodd" clip-rule="evenodd" d="M7.55212 17.8009C7.55212 18.5833 8.18639 19.2175 8.96879 19.2175H10.297C11.0794 19.2175 11.7137 18.5833 11.7137 17.8009C11.7137 17.0185 11.0794 16.3842 10.297 16.3842H8.96879C8.18639 16.3842 7.55212 17.0185 7.55212 17.8009Z" fill="white"/>
<path fill-rule="evenodd" clip-rule="evenodd" d="M7.55212 9.83211C7.55212 10.6145 8.18639 11.2488 8.96879 11.2488H10.297C11.0794 11.2488 11.7137 10.6145 11.7137 9.83211C11.7137 9.04971 11.0794 8.41545 10.297 8.41545H8.96879C8.18639 8.41545 7.55212 9.04971 7.55212 9.83211Z" fill="white"/>
<mask id="mask0_2021_32381" style="mask-type:luminance" maskUnits="userSpaceOnUse" x="1" y="1" width="34" height="34">
<path d="M1 1H35V35H1V1Z" fill="white"/>
</mask>
<g mask="url(#mask0_2021_32381)">
<path fill-rule="evenodd" clip-rule="evenodd" d="M6.3123 3.74447C4.8942 3.74447 3.74459 4.89407 3.74459 6.31217V29.6872C3.74459 31.1053 4.8942 32.2549 6.3123 32.2549H19.992C20.7744 32.2549 21.4087 32.8891 21.4087 33.6715C21.4087 34.454 20.7744 35.0882 19.992 35.0882H6.3123C3.32939 35.0882 0.911255 32.6701 0.911255 29.6872V6.31217C0.911255 3.32927 3.32939 0.911133 6.3123 0.911133H29.6873C32.6702 0.911133 35.0883 3.32927 35.0883 6.31217V19.4606C35.0883 20.243 34.4541 20.8773 33.6717 20.8773C32.8893 20.8773 32.255 20.243 32.255 19.4606V6.31217C32.255 4.89407 31.1054 3.74447 29.6873 3.74447H6.3123ZM21.3644 27.2298C21.3644 23.88 24.08 21.1644 27.4298 21.1644C30.7796 21.1644 33.4952 23.88 33.4952 27.2298C33.4952 28.4432 33.1389 29.5734 32.5252 30.5214L34.6736 32.6698C35.2268 33.2231 35.2268 34.12 34.6736 34.6733C34.1204 35.2265 33.2234 35.2265 32.6701 34.6733L30.474 32.4771C29.5793 32.9973 28.5393 33.2952 27.4298 33.2952C24.08 33.2952 21.3644 30.5797 21.3644 27.2298ZM27.4298 23.9978C25.6448 23.9978 24.1977 25.4448 24.1977 27.2298C24.1977 29.0149 25.6448 30.4619 27.4298 30.4619C29.2148 30.4619 30.6619 29.0149 30.6619 27.2298C30.6619 25.4448 29.2148 23.9978 27.4298 23.9978Z" fill="white"/>
</g>
</svg>
