<svg width="27" height="28" viewBox="0 0 27 28" fill="none" xmlns="http://www.w3.org/2000/svg">
<rect opacity="0.3" x="3.23114" y="3.20209" width="10.798" height="21.5959" fill="#879FD6"/>
<path fill-rule="evenodd" clip-rule="evenodd" d="M5.5071 9.92877V5.89276H9.52841C9.52841 5.89276 10.8688 5.89276 10.8688 4.54742C10.8688 3.20209 9.52841 3.20209 9.52841 3.20209H2.82623V9.92877C2.82623 9.92877 3.05622 11.2741 4.16667 11.2741C5.27712 11.2741 5.5071 9.92877 5.5071 9.92877ZM21.5905 5.89278H17.5692C17.5692 5.89278 16.2288 5.66196 16.2288 4.54745C16.2288 3.43293 17.5692 3.20211 17.5692 3.20211H24.2714V9.9288C24.2714 9.9288 24.2714 11.2741 22.931 11.2741C21.5905 11.2741 21.5905 9.9288 21.5905 9.9288V5.89278ZM9.52948 22.0369H5.50818V18.0009C5.50818 18.0009 5.50818 16.6555 4.16774 16.6555C2.82731 16.6555 2.82731 18.0009 2.82731 18.0009V24.7276H9.52948C9.52948 24.7276 10.8699 24.4967 10.8699 23.3822C10.8699 22.2677 9.52948 22.0369 9.52948 22.0369ZM21.5937 18.0009V22.0369H17.5724C17.5724 22.0369 16.232 22.0369 16.232 23.3823C16.232 24.7276 17.5724 24.7276 17.5724 24.7276H24.2746V18.0009C24.2746 18.0009 24.0446 16.6556 22.9341 16.6556C21.8237 16.6556 21.5937 18.0009 21.5937 18.0009Z" fill="#5979C4"/>
</svg>
