<svg width="36" height="36" viewBox="0 0 36 36" fill="none" xmlns="http://www.w3.org/2000/svg">
<path d="M17.5014 14.4837C19.1923 14.4837 20.814 15.143 22.0097 16.3167C23.2054 17.4903 23.8771 19.0821 23.8771 20.7419C23.8771 22.4016 23.2054 23.9934 22.0097 25.167C20.814 26.3407 19.1923 27 17.5014 27C15.8104 27 14.1888 26.3407 12.9931 25.167C11.7974 23.9934 11.1257 22.4016 11.1257 20.7419C11.1257 19.0821 11.7974 17.4903 12.9931 16.3167C14.1888 15.143 15.8104 14.4837 17.5014 14.4837ZM17.5014 16.8305C16.4445 16.8305 15.431 17.2426 14.6837 17.9761C13.9364 18.7096 13.5166 19.7045 13.5166 20.7419C13.5166 21.7792 13.9364 22.7741 14.6837 23.5076C15.431 24.2411 16.4445 24.6532 17.5014 24.6532C18.5582 24.6532 19.5718 24.2411 20.3191 23.5076C21.0664 22.7741 21.4862 21.7792 21.4862 20.7419C21.4862 19.7045 21.0664 18.7096 20.3191 17.9761C19.5718 17.2426 18.5582 16.8305 17.5014 16.8305ZM17.5014 9C24.8542 9 31.2028 13.9283 32.9641 20.8342C33.0412 21.136 32.993 21.4556 32.8301 21.7226C32.6672 21.9896 32.4029 22.1822 32.0954 22.2579C31.7878 22.3336 31.4622 22.2863 31.1902 22.1264C30.9182 21.9665 30.7221 21.7071 30.6449 21.4052C29.9069 18.5319 28.2128 15.9826 25.8313 14.1616C23.4497 12.3406 20.517 11.3521 17.4981 11.3528C14.4792 11.3535 11.547 12.3434 9.16631 14.1656C6.78565 15.9877 5.09283 18.5378 4.35628 21.4115C4.31828 21.561 4.25065 21.7018 4.15724 21.8257C4.06382 21.9496 3.94646 22.0543 3.81184 22.1337C3.67723 22.2131 3.528 22.2657 3.37268 22.2885C3.21736 22.3112 3.05898 22.3038 2.9066 22.2665C2.75422 22.2292 2.61081 22.1628 2.48456 22.0711C2.35832 21.9794 2.25171 21.8642 2.17082 21.7321C2.08993 21.6 2.03635 21.4535 2.01314 21.301C1.98992 21.1486 1.99753 20.9931 2.03552 20.8435C2.89993 17.4599 4.89128 14.4567 7.69332 12.311C10.4954 10.1652 13.9475 8.99986 17.5014 9Z" fill="#5979C4"/>
</svg>
