<svg width="27" height="28" viewBox="0 0 27 28" fill="none" xmlns="http://www.w3.org/2000/svg">
<rect x="3" y="4" width="9" height="9" rx="1.5" fill="#5979C4"/>
<path fill-rule="evenodd" clip-rule="evenodd" d="M14.2502 5.5C14.2502 4.67157 14.9218 4 15.7502 4H21.5003C22.3288 4 23.0003 4.67157 23.0003 5.5V11.2501C23.0003 12.0786 22.3288 12.7501 21.5003 12.7501H15.7502C14.9218 12.7501 14.2502 12.0786 14.2502 11.2501V5.5ZM3 16.7502C3 15.9218 3.67157 15.2502 4.5 15.2502H10.2501C11.0786 15.2502 11.7501 15.9218 11.7501 16.7502V22.5003C11.7501 23.3288 11.0786 24.0003 10.2501 24.0003H4.5C3.67157 24.0003 3 23.3288 3 22.5003V16.7502ZM15.7502 15.2502C14.9218 15.2502 14.2502 15.9218 14.2502 16.7502V22.5003C14.2502 23.3288 14.9218 24.0003 15.7502 24.0003H21.5003C22.3288 24.0003 23.0003 23.3288 23.0003 22.5003V16.7502C23.0003 15.9218 22.3288 15.2502 21.5003 15.2502H15.7502Z" fill="#879FD6"/>
</svg>
