<svg width="23" height="23" viewBox="0 0 23 23" fill="none" xmlns="http://www.w3.org/2000/svg">
<path fill-rule="evenodd" clip-rule="evenodd" d="M5.42249 19.678C5.30886 20.0169 5.48599 20.399 5.81811 20.5314C6.15023 20.6638 6.51158 20.4963 6.62521 20.1573L8.26057 15.2784L12.3886 15.3114L10.925 19.678C10.8114 20.0169 10.9885 20.399 11.3206 20.5314C11.6527 20.6638 12.0141 20.4963 12.1277 20.1573L13.7483 15.3223L18.3705 15.3594C18.7561 15.3625 19.0707 15.0524 19.0733 14.6668C19.0759 14.2813 18.7655 13.9662 18.3799 13.9631L14.2151 13.9297L15.6323 9.70188L20.2971 9.73927C20.6827 9.74236 20.9974 9.4323 21 9.04673C21.0026 8.66116 20.6921 8.34609 20.3066 8.343L16.099 8.30928L17.5774 3.89877C17.691 3.55978 17.5139 3.17767 17.1818 3.04531C16.8497 2.91294 16.4883 3.08045 16.3747 3.41944L14.7393 8.29838L10.6113 8.2653L12.0749 3.89877C12.1885 3.55978 12.0114 3.17767 11.6793 3.04531C11.3471 2.91294 10.9858 3.08045 10.8722 3.41944L9.25154 8.2544L4.62949 8.21735C4.24393 8.21426 3.92925 8.52432 3.92666 8.90989C3.92406 9.29546 4.23451 9.61053 4.62008 9.61362L8.78476 9.647L7.36762 13.8749L2.70285 13.8375C2.31729 13.8344 2.00262 14.1444 2.00002 14.53C1.99742 14.9156 2.30787 15.2307 2.69344 15.2337L6.90084 15.2675L5.42249 19.678ZM10.1445 9.6579L8.72736 13.8858L12.8554 13.9188L14.2725 9.69099L10.1445 9.6579Z" fill="#5979C4"/>
</svg>
