<svg width="24" height="24" viewBox="0 0 24 24" fill="none" xmlns="http://www.w3.org/2000/svg">
<path fill-rule="evenodd" clip-rule="evenodd" d="M7.47061 6.2353C7.47061 6.91754 6.91754 7.47061 6.2353 7.47061C5.55306 7.47061 5 6.91754 5 6.2353C5 5.55306 5.55306 5 6.2353 5C6.91754 5 7.47061 5.55306 7.47061 6.2353ZM7.4708 12C7.4708 12.6822 6.91773 13.2353 6.23549 13.2353C5.55325 13.2353 5.00019 12.6822 5.00019 12C5.00019 11.3178 5.55325 10.7647 6.23549 10.7647C6.91773 10.7647 7.4708 11.3178 7.4708 12ZM6.23549 19.0001C6.91773 19.0001 7.4708 18.447 7.4708 17.7648C7.4708 17.0825 6.91773 16.5295 6.23549 16.5295C5.55325 16.5295 5.00019 17.0825 5.00019 17.7648C5.00019 18.447 5.55325 19.0001 6.23549 19.0001ZM11.1767 5H17.765C18.4472 5 19.0003 5.55306 19.0003 6.2353C19.0003 6.91754 18.4472 7.47061 17.765 7.47061H11.1767C10.4945 7.47061 9.9414 6.91754 9.9414 6.2353C9.9414 5.55306 10.4945 5 11.1767 5ZM17.765 10.7647H11.1767C10.4945 10.7647 9.9414 11.3178 9.9414 12C9.9414 12.6822 10.4945 13.2353 11.1767 13.2353H17.765C18.4472 13.2353 19.0003 12.6822 19.0003 12C19.0003 11.3178 18.4472 10.7647 17.765 10.7647ZM11.1767 16.5295H17.765C18.4472 16.5295 19.0003 17.0825 19.0003 17.7648C19.0003 18.447 18.4472 19.0001 17.765 19.0001H11.1767C10.4945 19.0001 9.9414 18.447 9.9414 17.7648C9.9414 17.0825 10.4945 16.5295 11.1767 16.5295Z" fill="#879FD6"/>
</svg>
