<svg width="36" height="36" viewBox="0 0 36 36" fill="none" xmlns="http://www.w3.org/2000/svg">
<path fill-rule="evenodd" clip-rule="evenodd" d="M18 31.5L19.062 32.559C18.9226 32.6989 18.757 32.8099 18.5746 32.8857C18.3923 32.9614 18.1967 33.0004 17.9993 33.0004C17.8018 33.0004 17.6062 32.9614 17.4239 32.8857C17.2415 32.8099 17.0759 32.6989 16.9365 32.559L16.9275 32.5485L16.902 32.523L16.809 32.4285C16.2802 31.8838 15.7602 31.3307 15.249 30.7695C13.9656 29.3632 12.7367 27.9081 11.565 26.4075C10.227 24.6825 8.859 22.7325 7.8195 20.8065C6.8025 18.918 6 16.872 6 15C6 8.1915 11.388 3 18 3C24.612 3 30 8.1915 30 15C30 16.872 29.1975 18.918 28.1805 20.805C27.141 22.734 25.7745 24.6825 24.435 26.4075C22.7961 28.5069 21.0455 30.5168 19.191 32.4285L19.098 32.523L19.0725 32.5485L19.0635 32.5575L18 31.5ZM18 19.5C19.1935 19.5 20.3381 19.0259 21.182 18.182C22.0259 17.3381 22.5 16.1935 22.5 15C22.5 13.8065 22.0259 12.6619 21.182 11.818C20.3381 10.9741 19.1935 10.5 18 10.5C16.8065 10.5 15.6619 10.9741 14.818 11.818C13.9741 12.6619 13.5 13.8065 13.5 15C13.5 16.1935 13.9741 17.3381 14.818 18.182C15.6619 19.0259 16.8065 19.5 18 19.5Z" fill="#FF720B"/>
</svg>
