<svg width="20" height="20" viewBox="0 0 20 20" fill="none" xmlns="http://www.w3.org/2000/svg">
<path fill-rule="evenodd" clip-rule="evenodd" d="M2.21748 3.22781C2.35671 3.08194 2.54555 3 2.74245 3H16.1061C16.303 3 16.4918 3.08194 16.6311 3.22781C16.7703 3.37367 16.8485 3.5715 16.8485 3.77778V4.94444L9.42427 11.9444L3.48487 6.34444V15.4444H12.8485V16.2277C12.8485 16.4324 12.7709 16.6287 12.6328 16.7735C12.4947 16.9183 12.3074 16.9998 12.112 17H2.73651C2.54153 16.9984 2.355 16.9165 2.21719 16.7719C2.07939 16.6274 2.00138 16.4319 2.00002 16.2277V3.77778C2.00002 3.5715 2.07825 3.37367 2.21748 3.22781ZM15.0415 4.55556H3.80709L9.42427 9.85222L15.0415 4.55556ZM19.1305 12.8366L18.0305 11.7366L16.4806 13.2866L14.9307 11.7366L13.8307 12.8366L15.3807 14.3865L13.8308 15.9364L14.9307 17.0364L16.4806 15.4865L18.0305 17.0364L19.1304 15.9364L17.5805 14.3865L19.1305 12.8366Z" fill="#FF720B"/>
</svg>
