<svg width="36" height="36" viewBox="0 0 36 36" fill="none" xmlns="http://www.w3.org/2000/svg">
<path d="M30.7273 6C31.0648 6 31.3885 6.14048 31.6272 6.39052C31.8659 6.64057 32 6.97971 32 7.33333V28.676C31.9977 29.0262 31.8639 29.3613 31.6277 29.609C31.3915 29.8568 31.0717 29.9972 30.7375 30H7.808C7.47304 29.9996 7.15191 29.86 6.91517 29.6117C6.67843 29.3635 6.54545 29.0269 6.54545 28.676V27.3333H29.4545V11.7333L19.2727 21.3333L6.54545 9.33333V7.33333C6.54545 6.97971 6.67954 6.64057 6.91823 6.39052C7.15691 6.14048 7.48063 6 7.81818 6H30.7273ZM14.1818 22V24.6667H4V22H14.1818ZM10.3636 15.3333V18H4V15.3333H10.3636ZM28.9022 8.66667H9.64327L19.2727 17.7467L28.9022 8.66667Z" fill="#879FD6"/>
</svg>
