<svg width="36" height="36" viewBox="0 0 36 36" fill="none" xmlns="http://www.w3.org/2000/svg">
<path d="M5.9999 15.6V14.4H4.7999V15.6H5.9999ZM15.5999 15.6V14.4H14.3999V15.6H15.5999ZM15.5999 25.2H14.3999V26.4H15.5999V25.2ZM32.3999 8.4H33.5999V7.9032L33.2495 7.5504L32.3999 8.4ZM25.1999 1.2L26.0495 0.3504L25.6967 0H25.1999V1.2ZM5.9999 16.8H8.3999V14.4H5.9999V16.8ZM7.1999 26.4V20.4H4.7999V26.4H7.1999ZM7.1999 20.4V15.6H4.7999V20.4H7.1999ZM8.3999 19.2H5.9999V21.6H8.3999V19.2ZM9.5999 18C9.5999 18.3183 9.47347 18.6235 9.24843 18.8485C9.02339 19.0736 8.71816 19.2 8.3999 19.2V21.6C9.35468 21.6 10.2704 21.2207 10.9455 20.5456C11.6206 19.8705 11.9999 18.9548 11.9999 18H9.5999ZM8.3999 16.8C8.71816 16.8 9.02339 16.9264 9.24843 17.1515C9.47347 17.3765 9.5999 17.6817 9.5999 18H11.9999C11.9999 17.0452 11.6206 16.1295 10.9455 15.4544C10.2704 14.7793 9.35468 14.4 8.3999 14.4V16.8ZM14.3999 15.6V25.2H16.7999V15.6H14.3999ZM15.5999 26.4H17.9999V24H15.5999V26.4ZM21.5999 22.8V18H19.1999V22.8H21.5999ZM17.9999 14.4H15.5999V16.8H17.9999V14.4ZM21.5999 18C21.5999 17.0452 21.2206 16.1295 20.5455 15.4544C19.8704 14.7793 18.9547 14.4 17.9999 14.4V16.8C18.3182 16.8 18.6234 16.9264 18.8484 17.1515C19.0735 17.3765 19.1999 17.6817 19.1999 18H21.5999ZM17.9999 26.4C18.9547 26.4 19.8704 26.0207 20.5455 25.3456C21.2206 24.6705 21.5999 23.7548 21.5999 22.8H19.1999C19.1999 23.1183 19.0735 23.4235 18.8484 23.6485C18.6234 23.8736 18.3182 24 17.9999 24V26.4ZM23.9999 14.4V26.4H26.3999V14.4H23.9999ZM25.1999 16.8H31.1999V14.4H25.1999V16.8ZM25.1999 21.6H28.7999V19.2H25.1999V21.6ZM4.7999 12V3.6H2.3999V12H4.7999ZM31.1999 8.4V12H33.5999V8.4H31.1999ZM5.9999 2.4H25.1999V0H5.9999V2.4ZM24.3503 2.0496L31.5503 9.2496L33.2495 7.5504L26.0495 0.3504L24.3503 2.0496ZM4.7999 3.6C4.7999 3.28174 4.92633 2.97652 5.15137 2.75147C5.37642 2.52643 5.68164 2.4 5.9999 2.4V0C5.04512 0 4.12945 0.379285 3.45432 1.05442C2.77919 1.72955 2.3999 2.64522 2.3999 3.6H4.7999ZM2.3999 28.8V32.4H4.7999V28.8H2.3999ZM5.9999 36H29.9999V33.6H5.9999V36ZM33.5999 32.4V28.8H31.1999V32.4H33.5999ZM29.9999 36C30.9547 36 31.8704 35.6207 32.5455 34.9456C33.2206 34.2705 33.5999 33.3548 33.5999 32.4H31.1999C31.1999 32.7183 31.0735 33.0235 30.8484 33.2485C30.6234 33.4736 30.3182 33.6 29.9999 33.6V36ZM2.3999 32.4C2.3999 33.3548 2.77919 34.2705 3.45432 34.9456C4.12945 35.6207 5.04512 36 5.9999 36V33.6C5.68164 33.6 5.37642 33.4736 5.15137 33.2485C4.92633 33.0235 4.7999 32.7183 4.7999 32.4H2.3999Z" fill="#FF720B"/>
</svg>
