<svg width="36" height="36" viewBox="0 0 36 36" fill="none" xmlns="http://www.w3.org/2000/svg">
<path d="M16.7879 23.6353C16.7879 22.3153 16.4429 21.2083 15.7529 20.3098C15.2639 19.6918 14.6009 19.2853 13.7624 19.0918C12.9374 18.8998 12.1574 18.8863 11.4524 19.0498C11.2124 17.6248 11.6024 16.1158 12.5924 14.5168C13.5824 12.9193 14.8649 11.7163 16.4294 10.9123L14.0579 7.49976C12.8579 8.09376 11.7179 8.84676 10.6679 9.75726C9.60293 10.6678 8.65793 11.7148 7.81793 12.8983C6.97793 14.0818 6.34793 15.4183 5.94293 16.9333C5.53793 18.4483 5.42543 19.9933 5.61893 21.5833C5.87093 23.6833 6.54894 25.3633 7.65294 26.6083C8.75544 27.8698 10.1309 28.4998 11.7749 28.4998C13.2224 28.4998 14.4239 28.0648 15.3749 27.1828C16.3169 26.3188 16.7849 25.1353 16.7849 23.6308L16.7879 23.6353ZM30.4739 23.6353C30.4739 22.3153 30.1289 21.2083 29.4389 20.3098C28.9499 19.6798 28.2839 19.2718 27.4484 19.0843C26.6084 18.8983 25.8389 18.8893 25.1384 19.0513C24.8984 17.6413 25.2734 16.1263 26.2664 14.5213C27.2564 12.9313 28.5359 11.7313 30.1004 10.9213L27.7349 7.49976C26.5349 8.09376 25.4024 8.84676 24.3449 9.75726C23.2702 10.6812 22.3158 11.7365 21.5039 12.8983C20.6699 14.0833 20.0489 15.4183 19.6439 16.9333C19.2341 18.4474 19.1236 20.0268 19.3184 21.5833C19.5674 23.6833 20.2424 25.3633 21.3434 26.6083C22.4429 27.8593 23.8139 28.4863 25.4579 28.4863C26.9084 28.4863 28.1099 28.0513 29.0609 27.1708C30.0014 26.3068 30.4739 25.1233 30.4739 23.6188V23.6353Z" fill="#879FD6"/>
</svg>
