<svg width="27" height="28" viewBox="0 0 27 28" fill="none" xmlns="http://www.w3.org/2000/svg">
<path fill-rule="evenodd" clip-rule="evenodd" d="M8 3.25C5.79086 3.25 4 5.04086 4 7.25V7.91667C4 10.1258 5.79086 11.9167 8 11.9167H18C20.2091 11.9167 22 10.1258 22 7.91667V7.25C22 5.04086 20.2091 3.25 18 3.25H8ZM10 7.58333C10 8.77995 9.10457 9.75 8 9.75C6.89543 9.75 6 8.77995 6 7.58333C6 6.38672 6.89543 5.41667 8 5.41667C9.10457 5.41667 10 6.38672 10 7.58333Z" fill="#5979C4"/>
<path fill-rule="evenodd" clip-rule="evenodd" d="M8 14.0833C5.79086 14.0833 4 15.8742 4 18.0833V18.75C4 20.9591 5.79086 22.75 8 22.75H18C20.2091 22.75 22 20.9592 22 18.75V18.0833C22 15.8742 20.2091 14.0833 18 14.0833H8ZM20 18.4167C20 19.6133 19.1046 20.5833 18 20.5833C16.8954 20.5833 16 19.6133 16 18.4167C16 17.2201 16.8954 16.25 18 16.25C19.1046 16.25 20 17.2201 20 18.4167Z" fill="#879FD6"/>
</svg>
