<svg width="36" height="36" viewBox="0 0 36 36" fill="none" xmlns="http://www.w3.org/2000/svg">
<path d="M31.2575 18.9073V25.7763C31.2575 29.8545 27.8763 33.1724 23.7203 33.1724H19.6304C16.8653 33.1724 14.4854 31.8246 13.1009 29.4745L8.4516 21.5717C8.01173 20.8256 8.27258 19.8661 9.03324 19.433C10.7655 18.4529 12.8856 18.9839 13.8612 20.6411L15.0916 22.7319V9.09496C15.0916 7.804 16.163 6.75373 17.4799 6.75373C18.7968 6.75373 19.8663 7.804 19.8663 9.09496V15.3828C20.278 15.0517 20.8041 14.8529 21.3768 14.8529C22.3513 14.8529 23.1913 15.429 23.5615 16.2521C23.9958 15.8129 24.6038 15.5396 25.2756 15.5396C26.3647 15.5396 27.2857 16.2591 27.5709 17.2389C27.9614 16.9113 28.4681 16.7131 29.0209 16.7131C30.2542 16.7131 31.2576 17.6974 31.2576 18.9074L31.2575 18.9073ZM12.3479 11.9464C12.449 11.9464 12.5521 11.9302 12.6531 11.8962C13.1433 11.7308 13.404 11.2069 13.2355 10.726C13.0739 10.2651 12.992 9.77924 12.992 9.28188C12.992 6.83354 15.0224 4.8416 17.5182 4.8416C20.0139 4.8416 22.0443 6.83348 22.0443 9.28188C22.0448 9.77325 21.9619 10.2613 21.7992 10.7259C21.6306 11.2068 21.8913 11.7308 22.3814 11.8962C22.8715 12.0616 23.4056 11.8058 23.5742 11.325C23.8046 10.6675 23.9219 9.97709 23.9214 9.28188C23.9214 5.81808 21.0489 3 17.5182 3C13.9874 3 11.1149 5.81802 11.1149 9.28188C11.1149 9.98347 11.2311 10.6708 11.4604 11.3248C11.5941 11.7066 11.9582 11.9465 12.3479 11.9465V11.9464ZM5.17527 10.3123H9.00634C9.52466 10.3123 9.94488 9.89999 9.94488 9.39146C9.94488 8.88293 9.52466 8.47066 9.00634 8.47066H5.23446L5.82737 7.89964C6.19728 7.54341 6.20279 6.96042 5.83964 6.59751C5.47655 6.23459 4.88232 6.22919 4.51241 6.58541L2.28113 8.73438C2.19315 8.81908 2.12305 8.91996 2.07482 9.03125C2.02659 9.14253 2.00118 9.26206 2.00004 9.38298C1.9989 9.50391 2.02206 9.62387 2.06818 9.73601C2.11431 9.84816 2.1825 9.95029 2.26886 10.0366L4.4576 12.2238C4.54489 12.3113 4.64911 12.3807 4.76413 12.428C4.87916 12.4754 5.00267 12.4997 5.12741 12.4995C5.36467 12.4995 5.60218 12.4118 5.78489 12.2358C6.15474 11.8795 6.16024 11.2965 5.79709 10.9337L5.17527 10.3123V10.3123ZM32.7537 8.73462L30.5241 6.58566C30.1544 6.22925 29.5601 6.23446 29.1969 6.5972C28.8336 6.95999 28.8389 7.54298 29.2087 7.89933L29.8014 8.4706H26.0282C25.5099 8.4706 25.0897 8.88287 25.0897 9.3914C25.0897 9.89992 25.5099 10.3122 26.0282 10.3122H29.8593L29.2375 10.9336C28.8743 11.2965 28.8798 11.8795 29.2497 12.2357C29.425 12.405 29.6612 12.4997 29.9071 12.4994C30.1502 12.4994 30.3932 12.4073 30.577 12.2237L32.7657 10.0364C33.1287 9.67365 33.1233 9.09079 32.7537 8.7345V8.73462Z" fill="#90A4AF"/>
</svg>
