<svg width="60" height="60" viewBox="0 0 60 60" fill="none" xmlns="http://www.w3.org/2000/svg">
<rect width="60" height="60" rx="12" fill="#879FD6" fill-opacity="0.8"/>
<path d="M47.6363 31.0738V40.0603C47.6363 45.3958 43.2964 49.7365 37.962 49.7365H32.7125C29.1633 49.7365 26.1085 47.9732 24.3316 44.8986L18.3639 34.5595C17.7993 33.5835 18.1341 32.3281 19.1105 31.7616C21.3339 30.4794 24.0551 31.174 25.3074 33.342L26.8867 36.0775V18.2366C26.8867 16.5476 28.2618 15.1736 29.9521 15.1736C31.6424 15.1736 33.0152 16.5476 33.0152 18.2366V26.4628C33.5437 26.0297 34.2189 25.7695 34.954 25.7695C36.2048 25.7695 37.2829 26.5232 37.7581 27.6001C38.3156 27.0255 39.0959 26.668 39.9582 26.668C41.3561 26.668 42.5383 27.6092 42.9043 28.8911C43.4056 28.4624 44.056 28.2032 44.7655 28.2032C46.3485 28.2032 47.6364 29.491 47.6364 31.074L47.6363 31.0738ZM23.3649 21.9671C23.4948 21.9671 23.6271 21.9459 23.7568 21.9013C24.3859 21.6849 24.7206 20.9996 24.5042 20.3704C24.2969 19.7674 24.1917 19.1318 24.1917 18.4811C24.1917 15.278 26.7978 12.672 30.0012 12.672C33.2047 12.672 35.8108 15.2779 35.8108 18.4811C35.8114 19.124 35.705 19.7624 35.4961 20.3703C35.2797 20.9995 35.6143 21.6849 36.2435 21.9013C36.8725 22.1177 37.5581 21.7831 37.7744 21.154C38.0702 20.2939 38.2208 19.3906 38.2201 18.4811C38.2201 13.9495 34.5332 10.2627 30.0012 10.2627C25.4693 10.2627 21.7824 13.9494 21.7824 18.4811C21.7824 19.399 21.9316 20.2982 22.2258 21.1539C22.3975 21.6533 22.8648 21.9672 23.3649 21.9672V21.9671ZM14.1586 19.8291H19.0759C19.7412 19.8291 20.2806 19.2898 20.2806 18.6245C20.2806 17.9592 19.7412 17.4198 19.0759 17.4198H14.2346L14.9956 16.6728C15.4704 16.2067 15.4775 15.444 15.0114 14.9692C14.5453 14.4944 13.7826 14.4874 13.3078 14.9534L10.4438 17.7648C10.3309 17.8756 10.2409 18.0076 10.179 18.1532C10.1171 18.2988 10.0845 18.4552 10.0831 18.6134C10.0816 18.7716 10.1113 18.9285 10.1705 19.0752C10.2297 19.222 10.3173 19.3556 10.4281 19.4685L13.2374 22.33C13.3495 22.4444 13.4833 22.5352 13.6309 22.5972C13.7785 22.6591 13.9371 22.6909 14.0972 22.6907C14.4017 22.6907 14.7066 22.5759 14.9411 22.3457C15.4158 21.8795 15.4229 21.1168 14.9567 20.6421L14.1586 19.8292V19.8291ZM49.5567 17.7652L46.695 14.9537C46.2205 14.4874 45.4577 14.4943 44.9915 14.9688C44.5252 15.4435 44.5319 16.2062 45.0066 16.6724L45.7673 17.4197H40.9243C40.259 17.4197 39.7196 17.9591 39.7196 18.6244C39.7196 19.2897 40.259 19.8291 40.9243 19.8291H45.8416L45.0435 20.642C44.5774 21.1168 44.5844 21.8795 45.0592 22.3455C45.2842 22.567 45.5873 22.6909 45.9031 22.6905C46.2151 22.6905 46.527 22.5701 46.7628 22.3298L49.5721 19.4683C50.0381 18.9937 50.0312 18.2311 49.5567 17.765V17.7652Z" fill="white"/>
</svg>
