<svg width="36" height="36" viewBox="0 0 36 36" fill="none" xmlns="http://www.w3.org/2000/svg">
<path d="M17.25 25.5H6C6.81741 25.0371 7.51471 24.3888 8.03578 23.6072C8.55685 22.8256 8.88712 21.9326 9 21V16.5C9.08934 14.5966 9.69495 12.7534 10.7519 11.1679C11.8089 9.58249 13.2774 8.31454 15 7.5C15 6.70435 15.3161 5.94129 15.8787 5.37868C16.4413 4.81607 17.2044 4.5 18 4.5C18.7956 4.5 19.5587 4.81607 20.1213 5.37868C20.6839 5.94129 21 6.70435 21 7.5C22.7226 8.31454 24.1911 9.58249 25.2481 11.1679C26.305 12.7534 26.9107 14.5966 27 16.5V21C27.024 21.1935 27.0555 21.384 27.0975 21.573M13.5 25.5V27C13.4998 28.0641 13.8767 29.0939 14.5637 29.9065C15.2508 30.7191 16.2036 31.2619 17.253 31.4385M22.5 28.5L25.5 31.5L31.5 25.5" stroke="#5979C4" stroke-width="2" stroke-linecap="round" stroke-linejoin="round"/>
</svg>
