<svg width="9" height="10" viewBox="0 0 9 10" fill="none" xmlns="http://www.w3.org/2000/svg">
<path d="M2 0.500301L2 9.50056C2.00023 9.59168 2.02037 9.681 2.05826 9.7589C2.09614 9.8368 2.15033 9.90034 2.215 9.94267C2.27968 9.98499 2.35237 10.0045 2.42527 9.99912C2.49817 9.99373 2.56851 9.96363 2.62872 9.91207L7.83801 5.41194C8.054 5.22544 8.054 4.77642 7.83801 4.58942L2.62872 0.0892894C2.56864 0.0372003 2.49826 0.00665413 2.42524 0.00096949C2.35222 -0.00471515 2.27935 0.0146792 2.21454 0.0570455C2.14973 0.0994117 2.09547 0.163129 2.05765 0.241276C2.01982 0.319422 1.99989 0.409008 2 0.500301Z" fill="#879FD6"/>
</svg>
