<svg width="36" height="36" viewBox="0 0 36 36" fill="none" xmlns="http://www.w3.org/2000/svg">
<path d="M18 4C25.7322 4 32 10.2678 32 18C32 25.7322 25.7322 32 18 32C10.2678 32 4 25.7322 4 18C4 10.2678 10.2678 4 18 4ZM18 9.6C17.6287 9.6 17.2726 9.7475 17.0101 10.0101C16.7475 10.2726 16.6 10.6287 16.6 11V18C16.6001 18.3713 16.7476 18.7273 17.0102 18.9898L21.2102 23.1898C21.4742 23.4448 21.8279 23.5859 22.195 23.5827C22.562 23.5796 22.9132 23.4323 23.1727 23.1727C23.4323 22.9132 23.5796 22.562 23.5827 22.195C23.5859 21.8279 23.4448 21.4742 23.1898 21.2102L19.4 17.4204V11C19.4 10.6287 19.2525 10.2726 18.9899 10.0101C18.7274 9.7475 18.3713 9.6 18 9.6Z" fill="#90A4AF"/>
</svg>
