<svg width="30" height="30" viewBox="0 0 30 30" fill="none" xmlns="http://www.w3.org/2000/svg">
<path d="M7.5 8V24C7.5 24.8284 8.17157 25.5 9 25.5H21C21.8284 25.5 22.5 24.8284 22.5 24V8H7.5Z" fill="#7A94D0"/>
<path fill-rule="evenodd" clip-rule="evenodd" d="M17.5 4.625V3.75C17.5 3.19772 17.0523 2.75 16.5 2.75H13.5C12.9477 2.75 12.5 3.19772 12.5 3.75V4.625H6.75C6.47386 4.625 6.25 4.84886 6.25 5.125V6C6.25 6.27614 6.47386 6.5 6.75 6.5H23.25C23.5261 6.5 23.75 6.27614 23.75 6V5.125C23.75 4.84886 23.5261 4.625 23.25 4.625H17.5Z" fill="#ACBCE2"/>
</svg>
