<svg width="25" height="25" viewBox="0 0 25 25" fill="none" xmlns="http://www.w3.org/2000/svg">
<path d="M7.03848 9.80752C7.03848 9.45246 7.27519 9.21576 7.63024 9.21576H15.8557C16.2107 9.21576 16.4474 9.45246 16.4474 9.80752C16.4474 10.1626 16.2107 10.3993 15.8557 10.3993H7.63024C7.33436 10.3993 7.03848 10.1626 7.03848 9.80752ZM7.63024 14.2457H15.8557C16.2107 14.2457 16.4474 14.009 16.4474 13.6539C16.4474 13.2989 16.2107 13.0622 15.8557 13.0622H7.63024C7.27519 13.0622 7.03848 13.2989 7.03848 13.6539C7.03848 14.009 7.33436 14.2457 7.63024 14.2457ZM7.63024 18.0329H12.4827C12.8377 18.0329 13.0744 17.7962 13.0744 17.4412C13.0744 17.0861 12.8377 16.8494 12.4827 16.8494H7.63024C7.27519 16.8494 7.03848 17.0861 7.03848 17.4412C7.03848 17.7962 7.33436 18.0329 7.63024 18.0329ZM23.1343 20.3408L19.347 24.128C19.2287 24.2464 19.0512 24.3056 18.9328 24.3056C18.8145 24.3056 18.6369 24.2464 18.5186 24.128C18.2819 23.8913 18.2819 23.5363 18.5186 23.2996L22.3058 19.5123C23.6077 18.2105 23.6077 17.0861 22.4242 15.9026C21.2998 14.7783 20.0571 14.8375 18.8145 16.0801L17.4534 17.4412L14.3171 20.5775C13.9029 20.9917 13.607 21.9385 14.3171 22.6486C15.0864 23.4179 16.0332 23.0629 16.3882 22.6486L17.3942 21.6427L20.353 18.6839C20.5305 18.5063 20.8856 18.1513 20.8856 17.9146C20.8856 17.8554 20.8856 17.7962 20.7081 17.6187C20.5897 17.5004 20.4122 17.382 20.2938 17.382C20.0571 17.382 19.7021 17.6779 19.5246 17.9146L16.8617 20.5775C16.6249 20.8142 16.2699 20.8142 16.0332 20.5775C15.7965 20.3408 15.7965 19.9857 16.0332 19.749L18.6369 17.0861C18.9328 16.7903 19.4654 16.1985 20.2347 16.1985C20.6489 16.1985 21.0631 16.376 21.4774 16.7903C21.8916 17.2045 22.0099 17.6187 22.0099 17.9146C22.0099 18.6839 21.4182 19.2165 21.1223 19.5123L19.1695 21.4651L17.1575 23.4771C16.6841 23.9505 15.974 24.2464 15.2639 24.2464C14.613 24.2464 13.962 24.0097 13.4295 23.4771C12.2459 22.2936 12.4826 20.6367 13.4295 19.6899L14.7905 18.3288L17.9268 15.1925C18.4594 14.6599 18.992 14.3049 19.5246 14.1273V5.72439H16.0332C15.6781 5.72439 15.4414 5.48769 15.4414 5.13264V1.87797H4.84898C4.37558 1.87797 3.96135 2.2922 3.96135 2.76561V21.0509C3.96135 21.5243 4.37558 21.9385 4.84898 21.9385H10.8257C11.1808 21.9385 11.4175 22.1752 11.4175 22.5303C11.4175 22.8854 11.1808 23.1221 10.8257 23.1221H4.84898C3.72464 23.1221 2.77783 22.1752 2.77783 21.0509V2.76561C2.77783 1.64127 3.72464 0.694458 4.84898 0.694458H16.4474C16.5066 0.694458 16.5658 0.753634 16.625 0.81281L20.7081 4.65923C20.7673 4.71841 20.8264 4.77758 20.8264 4.83676V4.89593C20.8264 4.95511 20.8856 5.01429 20.8856 5.07346V13.8315C21.7732 13.8315 22.6017 14.2457 23.371 15.015C24.9095 16.6719 24.8504 18.5655 23.1343 20.3408ZM16.6841 4.54088H18.6961L18.5186 4.36335L16.6841 2.58808V4.54088Z" fill="white"/>
</svg>
