<svg width="19" height="36" viewBox="0 0 19 36" fill="none" xmlns="http://www.w3.org/2000/svg">
<path fill-rule="evenodd" clip-rule="evenodd" d="M8 11.5C8 11.1 8.1 10.7 8.4 10.5C8.7 10.1 9.1 10 9.5 10C9.9 10 10.3 10.1 10.5 10.4C10.9 10.7 11 11.1 11 11.5C11 11.9 10.9 12.3 10.6 12.5C10.3 12.9 9.9 13 9.5 13C9.1 13 8.7 12.9 8.5 12.6C8.1 12.3 8 11.9 8 11.5ZM8 17.5C8 17.1 8.1 16.7 8.4 16.5C8.7 16.1 9.1 16 9.5 16C9.9 16 10.3 16.1 10.5 16.4C10.9 16.7 11 17.1 11 17.5C11 17.9 10.9 18.3 10.6 18.5C10.3 18.9 9.9 19 9.5 19C9.1 19 8.7 18.9 8.5 18.6C8.1 18.3 8 17.9 8 17.5ZM8 23.5C8 23.1 8.1 22.7 8.4 22.5C8.7 22.1 9.1 22 9.5 22C9.9 22 10.3 22.1 10.5 22.4C10.9 22.7 11 23.1 11 23.5C11 23.9 10.9 24.3 10.6 24.5C10.3 24.9 9.9 25 9.5 25C9.1 25 8.7 24.9 8.5 24.6C8.1 24.3 8 23.9 8 23.5Z" fill="#879FD6"/>
</svg>
