<svg width="32" height="32" viewBox="0 0 32 32" fill="none" xmlns="http://www.w3.org/2000/svg">
<path fill-rule="evenodd" clip-rule="evenodd" d="M2.24 2.24C0 4.50133 0 8.11733 0 15.36V16.64C0 23.872 0 27.488 2.24 29.76C4.50133 32 8.11733 32 15.36 32H16.64C23.872 32 27.488 32 29.76 29.76C32 27.4987 32 23.8827 32 16.64V15.36C32 8.128 32 4.512 29.76 2.24C27.4987 0 23.8827 0 16.64 0H15.36C8.128 0 4.512 0 2.24 2.24ZM5 10.0104C5.17582 18.1289 9.46154 23 16.978 23H16.989H17.4176V18.3579C20.1758 18.6181 22.2637 20.5332 23.0989 23H27C26.5999 21.5983 25.8906 20.2928 24.9189 19.1697C23.9471 18.0466 22.7351 17.1314 21.3626 16.4844C22.5925 15.775 23.6547 14.8331 24.4828 13.7174C25.311 12.6017 25.8873 11.3362 26.1758 10H22.6374C21.8681 12.5813 19.5824 14.9231 17.4176 15.1417V10.0104H13.8681V19.0032C11.6703 18.4828 8.9011 15.964 8.78022 10.0104H5Z" fill="#5979C4"/>
</svg>
