<svg width="30" height="30" viewBox="0 0 30 30" fill="none" xmlns="http://www.w3.org/2000/svg">
<path opacity="0.8" d="M27.4184 6.5089C27.9958 7.0863 28.0053 8.01951 27.4397 8.6085L16.016 20.505C15.7407 20.7917 15.3629 20.9574 14.9655 20.9657L10.1563 21.0666L10.2575 16.2422C10.2657 15.8538 10.4241 15.4838 10.6996 15.2099L22.3853 3.59101C22.9715 3.00808 23.9189 3.00944 24.5035 3.59404L27.4184 6.5089Z" fill="#5979C4"/>
<path opacity="0.5" d="M16.125 2.49994C16.8154 2.49994 17.375 3.05958 17.375 3.74994C17.375 4.4403 16.8154 4.99994 16.125 4.99994H7.5C6.11929 4.99994 5 6.11923 5 7.49994V22.4999C5 23.8807 6.11929 24.9999 7.5 24.9999H22.5C23.8807 24.9999 25 23.8807 25 22.4999V16.2499C25 15.5596 25.5596 14.9999 26.25 14.9999C26.9404 14.9999 27.5 15.5596 27.5 16.2499V22.4999C27.5 25.2614 25.2614 27.4999 22.5 27.4999H7.5C4.73858 27.4999 2.5 25.2614 2.5 22.4999V7.49994C2.5 4.73852 4.73858 2.49994 7.5 2.49994H16.125Z" fill="#5979C4"/>
</svg>
