<svg width="36" height="36" viewBox="0 0 36 36" fill="none" xmlns="http://www.w3.org/2000/svg">
<path fill-rule="evenodd" clip-rule="evenodd" d="M4.40918 1.37883C5.31146 0.495982 6.53522 0 7.81124 0H23.0942C23.4695 0 23.8294 0.145871 24.0948 0.405524L32.5854 8.71325C32.8507 8.9729 32.9998 9.32507 32.9998 9.69227V11.3304C32.9999 11.3382 33 11.346 33 11.3538C33 11.3616 32.9999 11.3695 32.9998 11.3773V31.2924C32.9998 32.5409 32.4929 33.7383 31.5906 34.6212C30.6883 35.504 29.4646 36 28.1886 36H24.7923C24.0109 36 23.3773 35.3801 23.3773 34.6155C23.3773 33.8508 24.0109 33.2309 24.7923 33.2309H28.1886C28.714 33.2309 29.2179 33.0267 29.5895 32.6631C29.961 32.2996 30.1698 31.8065 30.1698 31.2924V12.7384H24.7925C23.5165 12.7384 22.2928 12.2424 21.3905 11.3595C20.4882 10.4767 19.9813 9.27927 19.9813 8.03073V2.76909H7.81124C7.28579 2.76909 6.78186 2.97333 6.41031 3.33688C6.03877 3.70043 5.83003 4.1935 5.83003 4.70764V34.6155C5.83003 35.3801 5.19651 36 4.41502 36C3.63352 36 3 35.3801 3 34.6155V4.70764C3 3.45909 3.5069 2.26169 4.40918 1.37883ZM22.8113 3.06579V8.03073C22.8113 8.54486 23.0201 9.03794 23.3916 9.40149C23.7632 9.76503 24.2671 9.96927 24.7925 9.96927H29.8667L22.8113 3.06579ZM14.6043 6.64579C15.3858 6.64579 16.0193 7.26568 16.0193 8.03034V9.69189C16.0193 10.4566 15.3858 11.0764 14.6043 11.0764C13.8228 11.0764 13.1893 10.4566 13.1893 9.69189V8.03034C13.1893 7.26568 13.8228 6.64579 14.6043 6.64579ZM14.6043 14.9535C15.3858 14.9535 16.0193 15.5734 16.0193 16.3381V17.9996C16.0193 18.7643 15.3858 19.3842 14.6043 19.3842C13.8228 19.3842 13.1893 18.7643 13.1893 17.9996V16.3381C13.1893 15.5734 13.8228 14.9535 14.6043 14.9535ZM14.6042 23.2612C15.3857 23.2612 16.0192 23.8811 16.0193 24.6457L16.0194 26.7912C17.986 27.3824 19.4157 29.1738 19.4157 31.292C19.4157 33.8919 17.2616 35.9996 14.6045 35.9996C11.9473 35.9996 9.79323 33.8919 9.79323 31.292C9.79323 29.1739 11.2228 27.3825 13.1894 26.7913L13.1893 24.6459C13.1892 23.8812 13.8227 23.2613 14.6042 23.2612ZM14.6045 29.3534C13.5103 29.3534 12.6233 30.2213 12.6233 31.292C12.6233 32.3626 13.5103 33.2305 14.6045 33.2305C15.6987 33.2305 16.5857 32.3626 16.5857 31.292C16.5857 30.2213 15.6987 29.3534 14.6045 29.3534Z" fill="#90A4AF"/>
</svg>
