<svg width="36" height="36" viewBox="0 0 36 36" fill="none" xmlns="http://www.w3.org/2000/svg">
<path d="M18.3675 3.55078C26.1448 3.55078 32.4492 9.85513 32.4492 17.6324C32.4492 25.4097 26.1448 31.714 18.3675 31.714C10.5902 31.714 4.28589 25.4097 4.28589 17.6324C4.28589 9.85513 10.5902 3.55078 18.3675 3.55078ZM18.3675 6.36711C15.3798 6.36711 12.5144 7.55399 10.4017 9.66664C8.28909 11.7793 7.10222 14.6447 7.10222 17.6324C7.10222 20.6202 8.28909 23.4855 10.4017 25.5982C12.5144 27.7108 15.3798 28.8977 18.3675 28.8977C21.3553 28.8977 24.2206 27.7108 26.3333 25.5982C28.446 23.4855 29.6328 20.6202 29.6328 17.6324C29.6328 14.6447 28.446 11.7793 26.3333 9.66664C24.2206 7.55399 21.3553 6.36711 18.3675 6.36711ZM18.3675 21.8569C18.741 21.8569 19.0992 22.0053 19.3632 22.2693C19.6273 22.5334 19.7757 22.8916 19.7757 23.2651C19.7757 23.6385 19.6273 23.9967 19.3632 24.2608C19.0992 24.5249 18.741 24.6732 18.3675 24.6732C17.9941 24.6732 17.6359 24.5249 17.3718 24.2608C17.1077 23.9967 16.9594 23.6385 16.9594 23.2651C16.9594 22.8916 17.1077 22.5334 17.3718 22.2693C17.6359 22.0053 17.9941 21.8569 18.3675 21.8569ZM18.3675 9.18343C18.741 9.18343 19.0992 9.33179 19.3632 9.59588C19.6273 9.85996 19.7757 10.2181 19.7757 10.5916V19.0406C19.7757 19.414 19.6273 19.7722 19.3632 20.0363C19.0992 20.3004 18.741 20.4487 18.3675 20.4487C17.9941 20.4487 17.6359 20.3004 17.3718 20.0363C17.1077 19.7722 16.9594 19.414 16.9594 19.0406V10.5916C16.9594 10.2181 17.1077 9.85996 17.3718 9.59588C17.6359 9.33179 17.9941 9.18343 18.3675 9.18343Z" fill="#FF8409"/>
</svg>
