<svg width="27" height="28" viewBox="0 0 27 28" fill="none" xmlns="http://www.w3.org/2000/svg">
<path d="M24 16.6339C24 20.6956 20.6416 24 16.5139 24H15.0375V19.7936H16.5139C18.2848 19.7936 19.7256 18.3764 19.7256 16.6338C19.7256 14.8912 18.2849 13.4741 16.5139 13.4741H10.185L12.5173 15.7689L9.4947 18.7429L2 11.3683L9.48829 4L12.5112 6.97416L10.1803 9.26769H16.5139C20.6416 9.26769 24 12.5723 24 16.6339Z" fill="#879FD6"/>
<path d="M24 16.5C24 20.6355 20.6238 24 16.4743 24H14.9901V19.7172H16.4743C18.2546 19.7172 19.703 18.2742 19.703 16.5C19.703 14.7257 18.2546 13.2828 16.4743 13.2828H13V9H16.4743C20.6238 9 24 12.3647 24 16.5Z" fill="#5979C4"/>
</svg>
