<svg width="35" height="29" viewBox="0 0 35 29" fill="none" xmlns="http://www.w3.org/2000/svg">
<path d="M15.8502 22.1707C15.8502 20.374 15.3806 18.8673 14.4415 17.6443C13.7759 16.8032 12.8735 16.2499 11.7322 15.9865C10.6093 15.7252 9.54758 15.7068 8.588 15.9293C8.26133 13.9897 8.79217 11.9358 10.1397 9.75941C11.4872 7.58504 13.2328 5.94762 15.3623 4.85329L12.1344 0.208496C10.501 1.017 8.94937 2.04191 7.52021 3.2812C6.07062 4.5205 4.78437 5.94558 3.64104 7.55645C2.49771 9.16733 1.64021 10.9865 1.08896 13.0485C0.537707 15.1106 0.384582 17.2135 0.647957 19.3777C0.990957 22.236 1.91379 24.5227 3.41646 26.2173C4.91708 27.9343 6.78929 28.7918 9.02696 28.7918C10.9972 28.7918 12.6325 28.1997 13.927 26.9992C15.2091 25.8232 15.8461 24.2124 15.8461 22.1646L15.8502 22.1707ZM34.4784 22.1707C34.4784 20.374 34.0088 18.8673 33.0696 17.6443C32.404 16.7868 31.4975 16.2315 30.3603 15.9763C29.217 15.7231 28.1696 15.7109 27.2162 15.9314C26.8895 14.0122 27.3999 11.9501 28.7515 9.76554C30.099 7.60137 31.8405 5.96804 33.97 4.86554L30.7503 0.208496C29.117 1.017 27.5755 2.04191 26.1361 3.2812C24.6733 4.53886 23.3742 5.97517 22.2692 7.55645C21.134 9.16937 20.2888 10.9865 19.7375 13.0485C19.1798 15.1094 19.0293 17.2592 19.2945 19.3777C19.6334 22.236 20.5522 24.5227 22.0508 26.2173C23.5473 27.92 25.4134 28.7735 27.651 28.7735C29.6253 28.7735 31.2607 28.1814 32.5551 26.9829C33.8353 25.8069 34.4784 24.196 34.4784 22.1482V22.1707Z" fill="#879FD6"/>
</svg>
