<svg width="22" height="22" viewBox="0 0 22 22" fill="none" xmlns="http://www.w3.org/2000/svg">
<g clip-path="url(#clip0_2090_13285)">
<path d="M14.6523 11.2148C15.127 11.2148 15.5117 11.5995 15.5117 12.0742V14.6717C15.5117 14.9253 15.3996 15.1659 15.2054 15.3294L13.8285 16.4874C13.6739 16.6178 13.4781 16.6892 13.2758 16.689C13.0309 16.689 12.7877 16.5849 12.6177 16.3828C12.3122 16.0194 12.359 15.4775 12.7223 15.172L13.793 14.2716V12.0742C13.793 11.5995 14.1777 11.2148 14.6523 11.2148ZM21.1406 7.82031C20.6659 7.82031 20.2812 8.20501 20.2812 8.67969V10.002C18.9039 8.33564 16.8443 7.34327 14.633 7.34327C10.5921 7.34327 7.30469 10.6307 7.30469 14.6716C7.30469 18.7125 10.6008 22 14.6523 22C15.7595 22 16.8538 21.7506 17.8448 21.2758C17.8616 21.2682 17.8784 21.2608 17.8948 21.2524C17.8993 21.2499 17.9038 21.2467 17.9084 21.2442C18.0241 21.1873 18.1389 21.1282 18.2515 21.0651C18.6657 20.8335 18.8138 20.3098 18.582 19.8955C18.3504 19.4813 17.8268 19.3333 17.4126 19.5649C16.5745 20.0335 15.6201 20.2812 14.6523 20.2812C11.5485 20.2812 9.02344 17.7647 9.02344 14.6717C9.02344 11.5786 11.5398 9.06202 14.633 9.06202C16.3954 9.06202 18.0321 9.88565 19.0845 11.2578H17.7461C17.2714 11.2578 16.8867 11.6425 16.8867 12.1172C16.8867 12.5919 17.2714 12.9766 17.7461 12.9766H19.4219C20.8435 12.9766 22 11.8201 22 10.3984V8.67969C22 8.20501 21.6153 7.82031 21.1406 7.82031ZM20.5266 17.5709C20.1334 17.3051 19.5993 17.4087 19.3338 17.8023C19.0682 18.1959 19.1721 18.73 19.5654 18.9956C19.7071 19.0915 19.8743 19.1427 20.0454 19.1426C20.3217 19.1426 20.5923 19.0098 20.7586 18.7636C21.0236 18.3705 20.9202 17.8364 20.5266 17.5709H20.5266ZM21.9703 14.914C21.9647 14.8865 21.9578 14.8595 21.9498 14.8324C21.9334 14.7787 21.9118 14.7267 21.8854 14.6772C21.8721 14.6525 21.8578 14.6284 21.8424 14.605C21.8268 14.5815 21.81 14.5589 21.792 14.5372C21.7744 14.5152 21.7551 14.4942 21.7353 14.4745C21.7157 14.4546 21.6945 14.4354 21.6727 14.4177C21.6512 14.3997 21.6279 14.3829 21.6047 14.3675C21.5815 14.352 21.557 14.3374 21.5325 14.3245C21.4831 14.298 21.4311 14.2764 21.3774 14.2601C21.3505 14.252 21.3232 14.2451 21.2957 14.2395C21.2682 14.2339 21.2398 14.2296 21.212 14.227C21.1558 14.2213 21.0992 14.2213 21.0431 14.227C21.0152 14.2296 20.9872 14.2339 20.9597 14.2395C20.9321 14.245 20.9048 14.2519 20.8781 14.2601C20.8513 14.2682 20.8249 14.2777 20.799 14.2884C20.7732 14.2992 20.7475 14.3111 20.723 14.3245C20.698 14.3374 20.674 14.352 20.6508 14.3675C20.6272 14.383 20.6044 14.3997 20.5829 14.4177C20.5611 14.4353 20.5399 14.4546 20.5201 14.4744C20.4999 14.4942 20.481 14.5152 20.463 14.5372C20.4454 14.5587 20.4286 14.5815 20.4132 14.605C20.3977 14.6283 20.3831 14.6523 20.3702 14.6772C20.3305 14.7516 20.3018 14.8314 20.2851 14.914C20.2795 14.9415 20.2752 14.9699 20.2727 14.9974C20.2696 15.0258 20.2684 15.0541 20.2684 15.082C20.2684 15.1099 20.2696 15.1383 20.2727 15.1666C20.2752 15.1941 20.2795 15.2225 20.2851 15.25C20.2908 15.2771 20.2977 15.3046 20.3057 15.3316C20.3303 15.4123 20.3665 15.4889 20.4132 15.5591C20.4286 15.5825 20.4454 15.6054 20.463 15.6269C20.481 15.6488 20.5 15.6698 20.5201 15.6896C20.5399 15.7095 20.5611 15.7287 20.5828 15.7463C20.6043 15.764 20.6272 15.7811 20.6509 15.7966C20.674 15.812 20.698 15.8266 20.7231 15.8395C20.7475 15.8529 20.7732 15.8649 20.7991 15.8756C20.8249 15.8864 20.8514 15.8959 20.8781 15.904C20.9048 15.9122 20.9323 15.9191 20.9597 15.9246C20.9872 15.9302 21.0152 15.9345 21.0431 15.9371C21.071 15.9401 21.0998 15.9414 21.1277 15.9414C21.1558 15.9414 21.1841 15.9401 21.212 15.937C21.2398 15.9345 21.2684 15.9301 21.2957 15.9246C21.3785 15.9081 21.4583 15.8794 21.5326 15.8395C21.5571 15.8266 21.5816 15.812 21.6047 15.7966C21.6279 15.7811 21.6512 15.764 21.6727 15.7464C21.6945 15.7288 21.7157 15.7094 21.7353 15.6897C21.7551 15.6698 21.7744 15.6488 21.792 15.6269C21.8096 15.6054 21.827 15.5825 21.8424 15.5591C21.8577 15.5356 21.872 15.5115 21.8854 15.4869C21.9118 15.4373 21.9334 15.3853 21.9498 15.3316C21.9579 15.3046 21.9648 15.2771 21.9703 15.25C21.976 15.2225 21.9802 15.1942 21.9829 15.1666C21.9859 15.1383 21.9871 15.1099 21.9871 15.082C21.9871 15.0541 21.9859 15.0258 21.9829 14.9974C21.9802 14.9699 21.9758 14.9416 21.9703 14.914ZM7.04688 20.2812H3.4375C2.48982 20.2812 1.71875 19.5102 1.71875 18.5625V5.15625C1.71875 4.20857 2.48982 3.4375 3.4375 3.4375H4.51172V4.29688C4.51172 4.77155 4.89642 5.15625 5.37109 5.15625C5.84577 5.15625 6.23047 4.77155 6.23047 4.29688V3.4375H10.0977V4.29688C10.0977 4.77155 10.4824 5.15625 10.957 5.15625C11.4317 5.15625 11.8164 4.77155 11.8164 4.29688V3.4375H15.7266V4.29688C15.7266 4.77155 16.1113 5.15625 16.5859 5.15625C17.0606 5.15625 17.4453 4.77155 17.4453 4.29688V3.4375H18.5625C19.5102 3.4375 20.2812 4.20857 20.2812 5.15625C20.2812 5.63093 20.6659 6.01562 21.1406 6.01562C21.6153 6.01562 22 5.63093 22 5.15625C22 3.26077 20.458 1.71875 18.5625 1.71875H17.4453V0.859375C17.4453 0.384699 17.0606 0 16.5859 0C16.1113 0 15.7266 0.384699 15.7266 0.859375V1.71875H11.8164V0.859375C11.8164 0.384699 11.4317 0 10.957 0C10.4824 0 10.0977 0.384699 10.0977 0.859375V1.71875H6.23047V0.859375C6.23047 0.384699 5.84577 0 5.37109 0C4.89642 0 4.51172 0.384699 4.51172 0.859375V1.71875H3.4375C1.54202 1.71875 0 3.26077 0 5.15625V18.5625C0 20.458 1.54202 22 3.4375 22H7.04688C7.52155 22 7.90625 21.6153 7.90625 21.1406C7.90625 20.6659 7.52155 20.2812 7.04688 20.2812Z" fill="#879FD6"/>
</g>
<defs>
<clipPath id="clip0_2090_13285">
<rect width="22" height="22" fill="white"/>
</clipPath>
</defs>
</svg>
