<svg width="40" height="40" viewBox="0 0 40 40" fill="none" xmlns="http://www.w3.org/2000/svg">
<path d="M19.9999 0.833496C30.5857 0.833496 39.1666 9.41441 39.1666 20.0002C39.1666 30.5859 30.5857 39.1668 19.9999 39.1668C9.41417 39.1668 0.833252 30.5859 0.833252 20.0002C0.833252 9.41441 9.41417 0.833496 19.9999 0.833496ZM19.9999 4.66683C15.9333 4.66683 12.0332 6.2823 9.15761 9.15786C6.28206 12.0334 4.66659 15.9335 4.66659 20.0002C4.66659 24.0668 6.28206 27.9669 9.15761 30.8425C12.0332 33.718 15.9333 35.3335 19.9999 35.3335C24.0666 35.3335 27.9667 33.718 30.8422 30.8425C33.7178 27.9669 35.3333 24.0668 35.3333 20.0002C35.3333 15.9335 33.7178 12.0334 30.8422 9.15786C27.9667 6.2823 24.0666 4.66683 19.9999 4.66683ZM19.9999 25.7502C20.5082 25.7502 20.9958 25.9521 21.3552 26.3115C21.7147 26.671 21.9166 27.1585 21.9166 27.6668C21.9166 28.1752 21.7147 28.6627 21.3552 29.0221C20.9958 29.3816 20.5082 29.5835 19.9999 29.5835C19.4916 29.5835 19.0041 29.3816 18.6446 29.0221C18.2852 28.6627 18.0833 28.1752 18.0833 27.6668C18.0833 27.1585 18.2852 26.671 18.6446 26.3115C19.0041 25.9521 19.4916 25.7502 19.9999 25.7502ZM19.9999 8.50016C20.5082 8.50016 20.9958 8.7021 21.3552 9.06154C21.7147 9.42099 21.9166 9.9085 21.9166 10.4168V21.9168C21.9166 22.4252 21.7147 22.9127 21.3552 23.2721C20.9958 23.6316 20.5082 23.8335 19.9999 23.8335C19.4916 23.8335 19.0041 23.6316 18.6446 23.2721C18.2852 22.9127 18.0833 22.4252 18.0833 21.9168V10.4168C18.0833 9.9085 18.2852 9.42099 18.6446 9.06154C19.0041 8.7021 19.4916 8.50016 19.9999 8.50016Z" fill="#FF8409"/>
</svg>
