<svg width="32" height="38" viewBox="0 0 32 38" fill="none" xmlns="http://www.w3.org/2000/svg">
<path d="M29.125 13.75H18.625V3.25H2.875V34.75H29.125V13.75ZM28.0383 11.125L21.25 4.33675V11.125H28.0383ZM1.5625 0.625H21.25L31.75 11.125V36.0625C31.75 36.4106 31.6117 36.7444 31.3656 36.9906C31.1194 37.2367 30.7856 37.375 30.4375 37.375H1.5625C1.2144 37.375 0.880564 37.2367 0.634423 36.9906C0.388281 36.7444 0.25 36.4106 0.25 36.0625V1.9375C0.25 1.5894 0.388281 1.25556 0.634423 1.00942C0.880564 0.763281 1.2144 0.625 1.5625 0.625ZM8.125 19H23.875V21.625H8.125V19ZM8.125 11.125H14.6875V13.75H8.125V11.125ZM8.125 26.875H23.875V29.5H8.125V26.875Z" fill="#90A4AF"/>
</svg>
