<svg width="40" height="40" viewBox="0 0 40 40" fill="none" xmlns="http://www.w3.org/2000/svg">
<path opacity="0.5" fill-rule="evenodd" clip-rule="evenodd" d="M20 40C31.0457 40 40 31.0457 40 20C40 8.9543 31.0457 0 20 0C8.9543 0 0 8.9543 0 20C0 31.0457 8.9543 40 20 40ZM17.03 9.28242C16.6337 8.89777 16.0006 8.90722 15.6159 9.30352C15.2313 9.69983 15.2407 10.3329 15.637 10.7176L25.2007 20L15.637 29.2824C15.2407 29.6671 15.2313 30.3002 15.6159 30.6965C16.0006 31.0928 16.6337 31.1022 17.03 30.7176L27.333 20.7176C27.527 20.5293 27.6365 20.2704 27.6365 20C27.6365 19.7296 27.527 19.4707 27.333 19.2824L17.03 9.28242Z" fill="#2D424D"/>
</svg>
