<svg width="40" height="40" viewBox="0 0 40 40" fill="none" xmlns="http://www.w3.org/2000/svg">
<path opacity="0.5" fill-rule="evenodd" clip-rule="evenodd" d="M20 40C8.95431 40 0 31.0457 0 20C0 8.9543 8.95431 0 20 0C31.0457 0 40 8.9543 40 20C40 31.0457 31.0457 40 20 40ZM22.9703 9.28242C23.3666 8.89777 23.9997 8.90722 24.3843 9.30352C24.769 9.69983 24.7595 10.3329 24.3632 10.7176L14.7995 20L24.3632 29.2824C24.7595 29.6671 24.769 30.3002 24.3843 30.6965C23.9997 31.0928 23.3666 31.1022 22.9703 30.7176L12.6672 20.7176C12.4732 20.5293 12.3637 20.2704 12.3637 20C12.3637 19.7296 12.4732 19.4707 12.6672 19.2824L22.9703 9.28242Z" fill="#2D424D"/>
</svg>
