<svg width="27" height="29" viewBox="0 0 27 29" fill="none" xmlns="http://www.w3.org/2000/svg">
<path d="M12.4614 20.7219C13.0098 21.1612 13.7895 21.1609 14.3376 20.7213L24.3578 12.6847L25.3329 11.9068C26.0846 11.3071 26.0858 10.1649 25.3354 9.56362L14.3377 0.751543C13.7895 0.312317 13.01 0.312317 12.4618 0.751543L1.45964 9.5672C0.71064 10.1673 0.710153 11.3068 1.45864 11.9076L2.42684 12.6847L12.4614 20.7219Z" fill="#5979C4"/>
<path fill-rule="evenodd" clip-rule="evenodd" d="M14.3223 24.618C13.7742 25.0572 12.9948 25.0573 12.4467 24.6182L3.49077 17.4449C2.89831 16.9704 2.03166 17.075 1.56905 17.6768C1.1133 18.2697 1.22396 19.1197 1.81633 19.5762L12.4817 27.7946C13.0211 28.2103 13.773 28.2104 14.3126 27.7948L24.9731 19.5832C25.5705 19.123 25.6818 18.2657 25.2217 17.6682C24.7553 17.0626 23.8826 16.9577 23.286 17.4358L14.3223 24.618Z" fill="#879FD6"/>
</svg>
