<svg width="27" height="28" viewBox="0 0 27 28" fill="none" xmlns="http://www.w3.org/2000/svg">
<path fill-rule="evenodd" clip-rule="evenodd" d="M13.7423 18.4118L17.2743 13.6078H14.6253V8.80392L9.32727 16.0098H11.9763V18.4118H5.75108C5.09273 18.4118 4.55902 17.8741 4.55902 17.2108V5.20098C4.55902 4.5377 5.09273 4 5.75108 4H20.0558C20.7142 4 21.2479 4.5377 21.2479 5.20098V17.2108C21.2479 17.8741 20.7142 18.4118 20.0558 18.4118H13.7423Z" fill="#5979C4"/>
<path fill-rule="evenodd" clip-rule="evenodd" d="M10.2862 14.7058L9.32748 16.0099H11.9765V20.8138L17.2746 13.6079H17.03L22.6872 9.49158C22.9541 9.29741 23.3267 9.35795 23.5194 9.62681C23.5927 9.72914 23.6322 9.85216 23.6322 9.97839V22.0148C23.6322 23.3413 22.5648 24.4167 21.2481 24.4167H4.55923C3.24252 24.4167 2.17511 23.3413 2.17511 22.0148V9.97839C2.17511 9.64675 2.44196 9.3779 2.77114 9.3779C2.89643 9.3779 3.01854 9.41768 3.12011 9.49158L10.2862 14.7058Z" fill="#879FD6"/>
</svg>
