<svg width="36" height="36" viewBox="0 0 36 36" fill="none" xmlns="http://www.w3.org/2000/svg">
<path d="M32.3999 8.4H33.5999V7.9032L33.2495 7.5504L32.3999 8.4ZM25.1999 1.2L26.0495 0.3504L25.6967 0H25.1999V1.2ZM15.5999 25.2H14.3999V26.4H15.5999V25.2ZM10.7999 22.8H11.9999V22.3032L11.6495 21.9504L10.7999 22.8ZM5.9999 18H4.7999V18.4968L5.1503 18.8496L5.9999 18ZM25.1999 15.6V14.4H23.9999V15.6H25.1999ZM25.1999 20.4H23.9999V21.6H25.1999V20.4ZM29.9999 20.4H31.1999V19.2H29.9999V20.4ZM29.9999 25.2V26.4H31.1999V25.2H29.9999ZM5.9999 22.8L5.1503 21.9504L4.7999 22.3032V22.8H5.9999ZM10.7999 18L11.6495 18.8496L11.9999 18.4968V18H10.7999ZM4.7999 12V3.6H2.3999V12H4.7999ZM31.1999 8.4V12H33.5999V8.4H31.1999ZM5.9999 2.4H25.1999V0H5.9999V2.4ZM24.3503 2.0496L31.5503 9.2496L33.2495 7.5504L26.0495 0.3504L24.3503 2.0496ZM4.7999 3.6C4.7999 3.28174 4.92633 2.97652 5.15137 2.75147C5.37642 2.52643 5.68164 2.4 5.9999 2.4V0C5.04512 0 4.12945 0.379285 3.45432 1.05442C2.77919 1.72955 2.3999 2.64522 2.3999 3.6H4.7999ZM2.3999 28.8V32.4H4.7999V28.8H2.3999ZM5.9999 36H29.9999V33.6H5.9999V36ZM33.5999 32.4V28.8H31.1999V32.4H33.5999ZM29.9999 36C30.9547 36 31.8704 35.6207 32.5455 34.9456C33.2206 34.2705 33.5999 33.3548 33.5999 32.4H31.1999C31.1999 32.7183 31.0735 33.0235 30.8484 33.2485C30.6234 33.4736 30.3182 33.6 29.9999 33.6V36ZM2.3999 32.4C2.3999 33.3548 2.77919 34.2705 3.45432 34.9456C4.12945 35.6207 5.04512 36 5.9999 36V33.6C5.68164 33.6 5.37642 33.4736 5.15137 33.2485C4.92633 33.0235 4.7999 32.7183 4.7999 32.4H2.3999ZM14.3999 14.4V25.2H16.7999V14.4H14.3999ZM15.5999 26.4H21.5999V24H15.5999V26.4ZM9.5999 22.8V26.4H11.9999V22.8H9.5999ZM11.6495 21.9504L6.8495 17.1504L5.1503 18.8496L9.9503 23.6496L11.6495 21.9504ZM7.1999 18V14.4H4.7999V18H7.1999ZM31.1999 14.4H25.1999V16.8H31.1999V14.4ZM23.9999 15.6V20.4H26.3999V15.6H23.9999ZM25.1999 21.6H29.9999V19.2H25.1999V21.6ZM28.7999 20.4V25.2H31.1999V20.4H28.7999ZM29.9999 24H23.9999V26.4H29.9999V24ZM7.1999 26.4V22.8H4.7999V26.4H7.1999ZM6.8495 23.6496L11.6495 18.8496L9.9503 17.1504L5.1503 21.9504L6.8495 23.6496ZM11.9999 18V14.4H9.5999V18H11.9999Z" fill="#879FD6"/>
</svg>
