<svg width="44" height="44" viewBox="0 0 44 44" fill="none" xmlns="http://www.w3.org/2000/svg">
<g clip-path="url(#clip0_1_37)">
<path d="M21.878 0C9.79601 0 0 9.847 0 21.991C0 34.137 9.79601 43.984 21.878 43.984C33.967 43.984 43.763 34.137 43.763 21.991C43.763 9.847 33.967 0 21.878 0ZM21.878 42.285C10.727 42.285 1.69099 33.199 1.69099 21.991C1.69099 10.783 10.727 1.69901 21.878 1.69901C33.033 1.69901 42.071 10.783 42.071 21.991C42.071 33.199 33.033 42.285 21.878 42.285Z" fill="#5979C4"/>
<g clip-path="url(#clip1_1_37)">
<path fill-rule="evenodd" clip-rule="evenodd" d="M21.8485 38.2945C22.605 38.2945 23.0636 37.7824 23.0914 37.0826C23.2565 37.3976 23.4711 37.6117 23.7938 37.6769C24.1103 37.7405 24.453 37.6955 24.7433 37.5667C25.0383 37.4466 25.2782 37.2203 25.4164 36.9321C25.56 36.6373 25.5121 36.3316 25.4102 35.9778C25.7653 36.4929 26.369 36.6264 26.8985 36.3781C27.6257 36.0367 27.8912 35.416 27.5932 34.7069C26.6947 32.5624 25.8024 30.4567 24.9008 28.3123C24.8189 28.1183 24.7495 27.9197 24.6584 27.7257C24.5796 27.555 24.5256 27.4293 24.4515 27.3238C24.3939 27.2462 24.3221 27.1804 24.24 27.1298C25.6341 27.285 26.3041 27.8374 26.6746 28.0826C26.7719 28.1478 26.7673 28.1571 27.144 28.0392C27.2268 28.0144 27.3136 28.0065 27.3995 28.0158C27.4854 28.0251 27.5686 28.0515 27.6442 28.0935C27.8125 28.1881 27.9854 28.2905 28.1321 28.4069C28.6338 28.7995 29.1433 29.1781 29.6157 29.6017C29.8365 29.7988 30.1545 30.1386 30.1097 30.4412C30.0742 30.7267 29.3888 31.38 29.185 31.574C28.6986 32.0379 29.4335 32.9069 30.4154 32.8262C30.153 32.55 30.0912 32.3157 30.1236 32.1078C30.2224 32.1062 30.4092 32.1248 30.5852 31.9666C30.7968 31.7741 30.701 31.2093 30.8986 31.0169C31.2429 30.6786 32.3715 30.6476 33.0477 30.6181C33.3302 30.6073 33.6282 30.5297 33.6066 30.0859C34.0358 30.1154 34.1253 30.4366 34.1253 30.7252C34.4928 30.5141 34.8108 29.5086 33.4476 29.2774C33.6776 29.0695 34.0589 28.9904 34.2951 29.2588C34.5159 28.8895 33.957 28.1648 32.9474 28.5745C32.9489 28.5698 32.495 27.9709 31.1302 29.5071C30.9589 29.3767 30.7875 29.2495 30.6316 29.1036C30.1051 28.6195 28.7743 27.3129 28.7743 27.3129C28.7743 26.5774 28.6647 25.1529 27.6982 24.2995C27.286 23.9364 26.8939 23.744 26.0216 23.5841C26.0216 23.5841 26.4431 22.92 26.5095 22.6593C27.269 23.4228 28.7959 23.6509 28.7959 22.3614C30.0403 23.6152 31.1966 22.9402 31.1966 22.1535C31.2352 22.5367 31.3325 22.9588 31.4622 23.3204C31.6181 23.7409 32.1878 25.3562 33.6591 25.3562C33.693 25.9164 33.6961 27.7645 35.4546 28.1757C35.5287 28.1959 35.626 28.2207 35.6738 28.2797C36.3824 29.1657 39.3343 30.0998 39.6956 29.8485C39.4655 29.684 39.1043 29.4652 39.0471 28.4224C39.0101 27.735 38.9344 24.166 38.9344 19.1369C38.9344 17.3586 38.7445 11.594 33.0739 10.7902C32.214 10.6676 31.368 10.7328 30.6347 11.2805C29.6373 12.0285 29.1464 13.2916 29.733 14.7191C29.7516 14.7704 29.767 14.8216 29.7932 14.8666C29.9924 15.2064 29.9121 15.5012 29.6528 15.7604C29.1788 16.2321 28.6276 16.5517 27.9638 16.6293C27.5438 16.6774 27.198 16.4928 26.9201 16.2041C26.2841 15.5462 25.8363 14.7735 25.6958 13.8626C25.4272 12.1278 25.8595 11.2681 25.8842 11.2138C26.3458 10.2843 27.3262 9.60161 28.4609 9.50381C28.9812 8.52623 30.4741 8.91261 30.4741 8.91261C30.8477 8.99485 30.9789 9.10347 31.0731 9.28813C31.0731 9.28813 31.7277 8.28416 31.1102 7.88226C30.4942 7.48037 29.1124 7.31433 29.1124 7.31433C29.1124 6.66105 28.0379 6.15209 26.0957 6.50123C23.7475 6.92174 23.2442 6.00002 23.2442 6.00002C23.1469 7.12967 24.0038 7.71157 24.2801 7.86985C23.3893 8.84123 22.145 10.7824 21.8485 13.5367C21.5521 10.7824 20.3078 8.84123 19.417 7.86985C19.6918 7.71157 20.5502 7.12967 20.4529 6.00002C20.4529 6.00002 19.9481 6.92174 17.5998 6.50123C15.6592 6.15209 14.5847 6.66105 14.5847 7.31433C14.5847 7.31433 13.2029 7.48037 12.5854 7.88226C11.9694 8.28416 12.6224 9.28813 12.6224 9.28813C12.7182 9.10347 12.8494 8.99485 13.223 8.91261C13.223 8.91261 14.7159 8.52623 15.2362 9.50381C16.3709 9.60161 17.3513 10.2843 17.8129 11.2138C17.8376 11.2681 18.2961 12.1355 18.0012 13.8626C17.8453 14.7719 17.413 15.5462 16.777 16.2041C16.4991 16.4928 16.1532 16.6774 15.7333 16.6293C15.0695 16.5517 14.5183 16.2321 14.0443 15.7604C13.785 15.5012 13.7047 15.2064 13.9038 14.8666C13.9301 14.8216 13.9455 14.7704 13.9641 14.7191C14.5507 13.2916 14.0598 12.0285 13.0624 11.2805C12.3291 10.7328 11.4831 10.6676 10.6231 10.7902C4.95256 11.594 4.76112 17.3586 4.76112 19.1369C4.76112 24.166 4.68547 27.735 4.64842 28.4224C4.5913 29.4652 4.23003 29.6824 4 29.8485C4.36281 30.0998 7.31312 29.1673 8.0233 28.2797C8.07116 28.2207 8.16842 28.1943 8.24253 28.1757C10.001 27.7629 10.0041 25.9164 10.038 25.3562C11.5093 25.3562 12.079 23.7409 12.2349 23.3204C12.3646 22.9588 12.4619 22.5367 12.5005 22.1535C12.5005 22.9402 13.6568 23.6136 14.9012 22.3614C14.9012 23.6509 16.4281 23.4243 17.1876 22.6593C17.254 22.92 17.6755 23.5841 17.6755 23.5841C16.8032 23.744 16.4111 23.9364 15.9973 24.2995C15.0324 25.1545 14.9228 26.579 14.9228 27.3129C14.9228 27.3129 13.592 28.621 13.0655 29.1036C12.9096 29.2495 12.7382 29.3767 12.5669 29.5071C11.2021 27.9724 10.7466 28.5698 10.7497 28.5745C9.74012 28.1648 9.18119 28.8895 9.40197 29.2588C9.63662 28.9904 10.0195 29.0695 10.2495 29.2774C8.88632 29.5071 9.20281 30.5141 9.57179 30.7252C9.57179 30.435 9.65982 30.1138 10.0905 30.0859C10.0689 30.5297 10.3669 30.6073 10.6494 30.6181C11.3241 30.6476 12.4526 30.6786 12.7984 31.0169C12.9945 31.2093 12.8988 31.7741 13.1118 31.9666C13.2878 32.1248 13.4746 32.1062 13.5719 32.1078C13.6043 32.3157 13.5441 32.55 13.2817 32.8262C14.2636 32.9085 14.9984 32.0379 14.5121 31.574C14.3083 31.38 13.6213 30.7252 13.5873 30.4412C13.5426 30.1386 13.8606 29.7988 14.0814 29.6017C14.5538 29.1797 15.0633 28.7995 15.565 28.4069C15.7117 28.2905 15.8846 28.1866 16.0529 28.0935C16.1285 28.0515 16.2117 28.0251 16.2976 28.0158C16.3834 28.0065 16.4703 28.0144 16.5531 28.0392C16.9298 28.1571 16.9252 28.1478 17.0224 28.0826C17.3914 27.8374 18.063 27.2835 19.4571 27.1298C19.3742 27.18 19.3019 27.2458 19.2441 27.3238C19.1699 27.4278 19.1175 27.5535 19.0387 27.7257C18.9476 27.9197 18.8782 28.1183 18.7963 28.3123C17.8947 30.4567 17.0024 32.5624 16.1038 34.7069C15.8059 35.416 16.0714 36.0367 16.7986 36.3781C17.3281 36.6264 17.9318 36.4929 18.2869 35.9778C18.185 36.3331 18.1371 36.6373 18.2807 36.9321C18.4188 37.2203 18.6588 37.4466 18.9538 37.5667C19.2441 37.6955 19.5868 37.7405 19.9033 37.6769C20.2259 37.6117 20.4405 37.3976 20.6057 37.0826C20.6335 37.7824 21.0921 38.2945 21.8485 38.2945Z" fill="#5979C4"/>
</g>
</g>
<defs>
<clipPath id="clip0_1_37">
<rect width="43.763" height="43.984" fill="white"/>
</clipPath>
<clipPath id="clip1_1_37">
<rect width="35.6956" height="32.2945" fill="white" transform="translate(4 6)"/>
</clipPath>
</defs>
</svg>
