<svg width="547" height="115" viewBox="0 0 547 115" fill="none" xmlns="http://www.w3.org/2000/svg">
<path fill-rule="evenodd" clip-rule="evenodd" d="M51.7638 106.538C24.7944 106.538 2.71869 84.6226 2.71869 57.717C2.71869 30.8113 24.7944 8.89623 51.7638 8.89623C78.7332 8.89623 100.809 30.8113 100.809 57.717C100.809 84.6226 78.7332 106.538 51.7638 106.538ZM53.5038 6.18396C25.0119 6.18396 1.73996 29.2925 1.73996 57.717C1.73996 86.1415 25.0119 109.25 53.5038 109.25C81.9956 109.25 105.268 86.1415 105.268 57.717C105.268 29.2925 81.9956 6.18396 53.5038 6.18396ZM56.005 112.505C25.7732 112.505 1.08748 87.9858 1.08748 57.8255C1.08748 27.7736 25.7732 3.14623 56.005 3.14623C86.2368 3.14623 110.922 27.6651 110.922 57.8255C110.922 87.9858 86.2368 112.505 56.005 112.505ZM57.7449 0C25.8819 0 0 25.8208 0 57.5C0 89.1792 25.8819 115 57.7449 115C89.4992 115 115.49 89.1792 115.49 57.5C115.49 25.8208 89.4992 0 57.7449 0ZM54.1563 52.8349C51.4376 52.8349 49.2626 55.0047 49.2626 57.717C49.2626 60.4292 51.4376 62.5991 54.1563 62.5991C56.875 62.5991 59.0499 60.4292 59.0499 57.717C59.0499 55.0047 56.875 52.8349 54.1563 52.8349ZM47.7402 100.788C23.9245 100.788 4.5674 81.4764 4.5674 57.717C4.5674 33.9575 24.0332 14.6462 47.8489 14.6462C71.6646 14.6462 91.1304 33.9575 91.1304 57.717C91.0217 81.4764 71.5559 100.788 47.7402 100.788ZM49.3714 11.934C24.0332 11.934 3.37117 32.5472 3.37117 57.717C3.37117 82.9953 24.0332 103.5 49.3714 103.5C74.7095 103.5 95.3716 82.8868 95.3716 57.717C95.3716 32.5472 74.7095 11.934 49.3714 11.934ZM60.6811 71.4953C53.0688 71.4953 46.8702 65.3113 46.8702 57.717C46.8702 50.1226 53.0688 43.9387 60.6811 43.9387C68.2934 43.9387 74.4921 50.1226 74.4921 57.717C74.4921 65.3113 68.2934 71.4953 60.6811 71.4953ZM62.4211 41.0094C53.2863 41.0094 45.674 48.4953 45.674 57.717C45.674 66.9387 53.1775 74.4245 62.4211 74.4245C71.6646 74.4245 79.1682 66.9387 79.1682 57.717C79.1682 48.4953 71.6646 41.0094 62.4211 41.0094ZM60.2461 77.3538C49.3714 77.3538 40.5628 68.566 40.5628 57.717C40.5628 46.8679 49.3714 38.0802 60.2461 38.0802C71.1209 38.0802 79.9294 46.8679 79.9294 57.717C79.9294 68.566 71.0121 77.3538 60.2461 77.3538ZM58.0712 35.2594C45.674 35.2594 35.5604 45.3491 35.5604 57.717C35.5604 70.0849 45.674 80.1745 58.0712 80.1745C70.4684 80.1745 80.5819 70.0849 80.5819 57.717C80.5819 45.3491 70.4684 35.2594 58.0712 35.2594ZM55.57 83.3208C41.4328 83.3208 29.9056 71.8208 29.9056 57.717C29.9056 43.6132 41.4328 32.1132 55.57 32.1132C69.7072 32.1132 81.2344 43.6132 81.2344 57.717C81.2344 71.8208 69.7072 83.3208 55.57 83.3208ZM53.6125 29.2925C37.9529 29.2925 25.1207 42.0943 25.1207 57.717C25.1207 73.3396 37.9529 86.1415 53.6125 86.1415C69.2722 86.1415 82.1044 73.3396 82.1044 57.717C82.1044 42.0943 69.3809 29.2925 53.6125 29.2925ZM56.3312 65.6368C51.9813 65.6368 48.3926 62.0566 48.3926 57.717C48.3926 53.3774 51.9813 49.7972 56.3312 49.7972C60.6811 49.7972 64.2698 53.3774 64.2698 57.717C64.2698 62.0566 60.6811 65.6368 56.3312 65.6368ZM58.3974 46.8679C52.4163 46.8679 47.5227 51.75 47.5227 57.717C47.5227 63.684 52.4163 68.566 58.3974 68.566C64.3785 68.566 69.2722 63.684 69.2722 57.717C69.2722 51.75 64.3785 46.8679 58.3974 46.8679ZM51.3288 89.0707C34.038 89.0707 19.9008 74.967 19.9008 57.717C19.9008 40.467 34.038 26.3632 51.3288 26.3632C68.6197 26.3632 82.7569 40.467 82.7569 57.717C82.8656 74.967 68.7284 89.0707 51.3288 89.0707ZM49.4801 23.5425C30.5581 23.5425 15.2247 38.8396 15.2247 57.717C15.2247 76.4858 30.6668 91.8915 49.4801 91.8915C68.2934 91.8915 83.7356 76.4858 83.7356 57.717C83.7356 38.9481 68.2934 23.5425 49.4801 23.5425ZM47.0877 94.9292C26.5344 94.9292 9.78728 78.2217 9.78728 57.717C9.78728 37.2123 26.5344 20.5047 47.0877 20.5047C67.641 20.5047 84.3881 37.2123 84.3881 57.717C84.3881 78.2217 67.641 94.9292 47.0877 94.9292ZM45.5652 17.3585C23.3807 17.3585 5.21988 35.4764 5.21988 57.6085C5.21988 79.7406 23.3807 97.8585 45.5652 97.8585C67.8585 97.8585 85.9105 79.7406 85.9105 57.6085C86.0193 35.4764 67.8585 17.3585 45.5652 17.3585Z" fill="#5979C4"/>
<path d="M154.639 29.9434V29.618H151.594V29.9434C151.594 31.2453 151.05 31.3538 149.745 31.3538H146.157C144.743 31.3538 144.634 30.7029 144.634 29.0755V27.3397C144.634 25.8208 144.96 25.2783 146.157 25.2783H149.854C150.833 25.2783 151.594 25.3868 151.594 26.3632V26.7972H154.639V26.3632C154.639 23.1085 153.008 22.7831 150.398 22.7831H146.374C143.547 22.7831 141.48 23.3255 141.48 26.9057V29.7264C141.48 33.7406 143.873 33.8491 146.374 33.8491H149.963C151.376 33.8491 152.464 33.8491 153.443 33.0897C154.639 32.2217 154.639 31.1368 154.639 29.9434ZM171.06 33.8491L165.405 22.7831H161.164L155.509 33.8491H158.771L159.75 32.0047H166.819L167.797 33.8491H171.06ZM165.622 29.618H160.946L163.339 25.0614L165.622 29.618ZM189.547 33.8491V22.7831H185.306L180.738 30.9198L176.388 22.7831H172.039V33.7406H174.975V25.6038L179.433 33.7406H182.261L186.719 25.6038V33.7406H189.547V33.8491ZM204.228 29.8349V26.6887C204.228 23.3255 201.835 22.6746 199.443 22.6746H195.745C193.244 22.6746 190.961 23.3255 190.961 26.6887V29.8349C190.961 33.1981 193.136 33.8491 195.745 33.8491H199.443C202.053 33.9576 204.228 33.3066 204.228 29.8349ZM201.292 29.5095C201.292 31.1368 200.639 31.3538 199.552 31.3538H195.854C194.767 31.3538 194.114 31.1368 194.114 29.5095V27.0142C194.114 25.3868 194.767 25.1698 195.854 25.1698H199.552C200.53 25.1698 201.292 25.2783 201.292 27.0142V29.5095ZM217.821 26.7972C217.821 23.868 216.734 22.7831 214.015 22.7831H205.859V33.7406H208.795V30.9198H214.015C217.169 31.0283 217.821 29.9434 217.821 26.7972ZM214.776 26.7972C214.776 28.2076 214.559 28.4246 213.471 28.4246H208.795V25.3868H213.471C214.668 25.3868 214.776 25.7123 214.776 26.7972ZM230.762 33.8491V31.4623H222.171V29.2925H230.436V27.2312H222.171V25.1698H230.653V22.7831H219.126V33.7406H230.762V33.8491ZM243.812 25.1698V22.7831H232.285V33.7406H235.221V25.1698H243.812ZM258.928 22.7831H255.557L251.75 29.0755L247.836 22.7831H244.464L250.119 31.5708V31.6793C250.01 31.8963 249.902 31.8963 249.684 31.8963H247.944V33.7406H251.207C251.968 33.7406 252.512 33.5236 252.729 32.9812L258.928 22.7831ZM272.847 33.8491V22.7831H260.559V30.5944C260.559 31.4623 260.124 31.7878 259.472 31.7878H258.819V33.8491H261.211C262.734 33.8491 263.386 32.5472 263.386 31.1368V25.4953H269.803V33.9576H272.847V33.8491ZM287.746 33.8491V22.7831H284.81L277.524 30.1604L277.632 22.7831H274.696V33.7406H277.632L284.918 26.3632L284.81 33.7406H287.746V33.8491ZM301.448 26.7972C301.448 23.868 300.361 22.7831 297.642 22.7831H289.486V33.7406H292.422V30.9198H297.642C300.687 31.0283 301.448 29.9434 301.448 26.7972ZM298.403 26.7972C298.403 28.2076 298.186 28.4246 297.098 28.4246H292.422V25.3868H297.098C298.186 25.3868 298.403 25.7123 298.403 26.7972ZM316.346 22.7831H312.975L309.169 29.0755L305.254 22.7831H301.883L307.538 31.5708V31.6793C307.429 31.8963 307.32 31.8963 307.103 31.8963H305.472V33.7406H308.734C309.495 33.7406 310.039 33.5236 310.257 32.9812L316.346 22.7831ZM328.635 33.8491V31.4623H320.044V29.2925H328.309V27.2312H320.044V25.1698H328.526V22.7831H316.999V33.7406H328.635V33.8491ZM347.992 33.8491V22.7831H343.751L339.183 30.9198L334.834 22.7831H330.484V33.7406H333.42V25.6038L337.878 33.7406H340.706L345.165 25.6038V33.7406H347.992V33.8491ZM364.522 33.8491L358.867 22.7831H354.626L348.971 33.7406H352.233L353.212 31.8963H360.28L361.259 33.7406H364.522V33.8491ZM359.084 29.618H354.408L356.801 25.0614L359.084 29.618ZM377.789 33.8491V22.7831H368.98C366.805 22.7831 365.5 23.217 365.5 25.8208C365.5 27.4481 365.935 28.3161 367.349 28.4246C366.153 28.4246 365.5 29.184 365.5 30.3774V31.1368C365.5 31.8963 365.174 31.7878 364.848 31.7878V33.6321H366.805C368.002 33.6321 368.545 33.0897 368.545 32.0047V30.9198C368.545 30.0519 368.872 29.5095 369.742 29.5095H374.961V33.6321H377.789V33.8491ZM374.853 27.5566H369.742C368.763 27.5566 368.437 27.5566 368.437 26.4717C368.437 25.4953 368.545 25.2783 369.307 25.2783H374.853V27.5566ZM400.952 29.8349V26.6887C400.952 23.3255 398.56 22.6746 396.167 22.6746H392.47C389.969 22.6746 387.685 23.3255 387.685 26.6887V29.8349C387.685 33.1981 389.86 33.8491 392.47 33.8491H396.167C398.668 33.9576 400.952 33.3066 400.952 29.8349ZM397.907 29.5095C397.907 31.1368 397.255 31.3538 396.167 31.3538H392.47C391.382 31.3538 390.73 31.1368 390.73 29.5095V27.0142C390.73 25.3868 391.382 25.1698 392.47 25.1698H396.167C397.146 25.1698 397.907 25.2783 397.907 27.0142V29.5095ZM414.546 26.7972C414.546 23.868 413.458 22.7831 410.739 22.7831H402.583V33.7406H405.519V30.9198H410.739C413.784 31.0283 414.546 29.9434 414.546 26.7972ZM411.501 26.7972C411.501 28.2076 411.283 28.4246 410.196 28.4246H405.519V25.3868H410.196C411.283 25.3868 411.501 25.7123 411.501 26.7972ZM427.269 25.1698V22.7831H415.742V33.7406H418.678V25.1698H427.269ZM443.581 33.8491L437.817 22.7831H433.576L427.921 33.7406H431.184L432.163 31.8963H439.231L440.21 33.7406H443.581V33.8491ZM438.144 29.618H433.468L435.86 25.0614L438.144 29.618ZM457.501 33.8491V22.7831H454.565V26.9057H447.387V22.7831H444.451V33.7406H447.387V29.401H454.565V33.7406H457.501V33.8491ZM472.399 33.8491V22.7831H469.463L462.177 30.1604L462.286 22.7831H459.349V33.7406H462.286L469.572 26.3632L469.463 33.7406H472.399V33.8491ZM486.645 30.5944C486.645 29.2925 486.21 28.3161 484.796 28.2076C486.101 27.9906 486.536 26.9057 486.536 25.7123C486.536 22.8915 484.144 22.7831 482.295 22.7831H478.598C475.77 22.7831 474.139 23 474.139 26.1463V26.5802H476.967V26.3632C476.967 25.0614 477.51 25.0614 478.489 25.0614H482.186C483.709 25.0614 483.709 25.3868 483.709 26.2548C483.709 27.0142 483.6 27.1227 482.186 27.1227H479.25V29.2925H482.186C483.709 29.2925 483.926 29.618 483.926 30.3774C483.926 31.6793 483.383 31.6793 482.186 31.6793H478.489C477.51 31.6793 476.858 31.6793 476.858 30.3774V30.0519H474.03V30.5944C474.03 33.7406 476.097 33.9576 478.598 33.9576H482.295C484.796 33.9576 486.645 33.5236 486.645 30.5944ZM503.283 33.8491L497.52 22.7831H493.279L487.624 33.7406H490.886L491.865 31.8963H498.934L499.912 33.7406H503.283V33.8491ZM497.846 29.618H493.17L495.562 25.0614L497.846 29.618ZM518.291 36.6698V31.2453H517.203V22.7831H514.267V31.2453H507.09V22.7831H504.153V33.7406H515.354V36.6698H518.291ZM532.102 33.8491V22.7831H529.165L521.879 30.1604L521.988 22.7831H519.052V33.7406H521.988L529.274 26.3632L529.165 33.7406H532.102V33.8491ZM546.239 33.8491V22.7831H537.43C535.255 22.7831 533.95 23.217 533.95 25.8208C533.95 27.4481 534.385 28.3161 535.799 28.4246C534.603 28.4246 533.95 29.184 533.95 30.3774V31.1368C533.95 31.8963 533.624 31.7878 533.298 31.7878V33.6321H535.255C536.451 33.6321 536.995 33.0897 536.995 32.0047V30.9198C536.995 30.0519 537.321 29.5095 538.191 29.5095H543.411V33.6321H546.239V33.8491ZM543.303 27.5566H538.191C537.213 27.5566 536.886 27.5566 536.886 26.4717C536.886 25.4953 536.995 25.2783 537.756 25.2783H543.303V27.5566ZM154.856 52.5095V41.5519H151.92V45.6746H144.743V41.5519H141.807V52.5095H144.743V48.1698H151.92V52.5095H154.856ZM173.996 52.5095L168.341 41.5519H164.1L158.445 52.5095H161.707L162.686 50.6651H169.755L170.734 52.5095H173.996ZM168.559 48.3868H163.882L166.275 43.8302L168.559 48.3868ZM191.613 55.4387V50.0142H190.526V41.5519H187.589V50.0142H180.412V41.5519H177.476V52.5095H188.677V55.4387H191.613ZM208.034 52.5095V41.5519H205.098L197.812 48.9293L197.92 41.5519H194.984V52.5095H197.92L205.207 45.1321L205.098 52.5095H208.034ZM225.325 48.6038V45.4576C225.325 42.0944 222.932 41.4434 220.54 41.4434H216.842C214.341 41.4434 212.058 42.0944 212.058 45.4576V48.6038C212.058 51.967 214.233 52.618 216.842 52.618H220.54C223.15 52.618 225.325 51.967 225.325 48.6038ZM222.28 48.2783C222.28 49.9057 221.627 50.1227 220.54 50.1227H216.842C215.755 50.1227 215.103 49.9057 215.103 48.2783V45.7831C215.103 44.1557 215.755 43.9387 216.842 43.9387H220.54C221.519 43.9387 222.28 44.0472 222.28 45.7831V48.2783ZM242.724 52.5095V41.5519H239.788V45.6746H232.611V41.5519H229.675V52.5095H232.611V48.1698H239.788V52.5095H242.724ZM261.755 52.5095L256.1 41.5519H251.859L246.204 52.5095H249.467L250.445 50.6651H257.514L258.493 52.5095H261.755ZM256.427 48.3868H251.75L254.143 43.8302L256.427 48.3868ZM278.394 52.5095V41.5519H266.105V49.3632C266.105 50.2312 265.67 50.5566 265.018 50.5566H264.365V52.618H266.758C268.28 52.618 268.933 51.3161 268.933 49.9057V44.2642H275.349V52.7264H278.394V52.5095ZM294.597 49.1463C294.597 45.8915 293.075 45.5661 291.117 45.5661H285.68V41.5519H282.743V52.5095H291.008C293.292 52.5095 294.597 52.2925 294.597 49.1463ZM291.661 49.0378C291.661 50.0142 291.226 50.1227 290.356 50.1227H285.68V47.9529H290.356C291.226 47.9529 291.661 48.0614 291.661 49.0378ZM311.67 52.5095V41.5519H308.734V45.6746H301.557V41.5519H298.621V52.5095H301.557V48.1698H308.734V52.5095H311.67ZM330.81 52.5095L325.155 41.5519H320.914L315.259 52.5095H318.521L319.5 50.6651H326.569L327.547 52.5095H330.81ZM325.373 48.3868H320.696L323.089 43.8302L325.373 48.3868ZM346.687 52.5095V41.5519H337.878C335.704 41.5519 334.399 41.9859 334.399 44.5897C334.399 46.217 334.834 47.0849 336.247 47.1934C335.051 47.1934 334.399 47.9529 334.399 49.1463V49.9057C334.399 50.6651 334.072 50.5566 333.746 50.5566V52.401H335.704C336.9 52.401 337.443 51.8585 337.443 50.7736V49.6887C337.443 48.8208 337.77 48.2783 338.64 48.2783H343.86V52.401H346.687V52.5095ZM343.751 46.217H338.64C337.661 46.217 337.335 46.217 337.335 45.1321C337.335 44.1557 337.443 43.9387 338.205 43.9387H343.751V46.217ZM391.056 52.5095L385.401 41.5519H381.16L375.505 52.5095H378.768L379.746 50.6651H386.815L387.794 52.5095H391.056ZM385.619 48.3868H380.942L383.335 43.8302L385.619 48.3868ZM407.259 48.7123V48.3868H404.214V48.7123C404.214 50.0142 403.671 50.1227 402.366 50.1227H398.777C397.363 50.1227 397.255 49.4717 397.255 47.8444V46.1085C397.255 44.5897 397.581 44.0472 398.777 44.0472H402.475C403.453 44.0472 404.214 44.1557 404.214 45.1321V45.5661H407.259V45.1321C407.259 41.8774 405.628 41.5519 403.018 41.5519H399.103C396.276 41.5519 394.21 42.0944 394.21 45.6746V48.4953C394.21 52.5095 396.602 52.618 399.103 52.618H402.692C404.106 52.618 405.193 52.618 406.172 51.8585C407.259 50.9906 407.259 49.9057 407.259 48.7123ZM424.333 48.7123V48.3868H421.288V48.7123C421.288 50.0142 420.744 50.1227 419.439 50.1227H415.85C414.437 50.1227 414.328 49.4717 414.328 47.8444V46.1085C414.328 44.5897 414.654 44.0472 415.85 44.0472H419.548C420.527 44.0472 421.288 44.1557 421.288 45.1321V45.5661H424.333V45.1321C424.333 41.8774 422.702 41.5519 420.092 41.5519H416.068C413.241 41.5519 411.174 42.0944 411.174 45.6746V48.4953C411.174 52.5095 413.567 52.618 416.068 52.618H419.657C421.07 52.618 422.158 52.618 423.137 51.8585C424.333 50.9906 424.333 49.9057 424.333 48.7123ZM441.624 48.6038V45.4576C441.624 42.0944 439.231 41.4434 436.839 41.4434H433.141C430.64 41.4434 428.356 42.0944 428.356 45.4576V48.6038C428.356 51.967 430.531 52.618 433.141 52.618H436.839C439.34 52.618 441.624 51.967 441.624 48.6038ZM438.579 48.2783C438.579 49.9057 437.926 50.1227 436.839 50.1227H433.141C432.054 50.1227 431.401 49.9057 431.401 48.2783V45.7831C431.401 44.1557 432.054 43.9387 433.141 43.9387H436.839C437.817 43.9387 438.579 44.0472 438.579 45.7831V48.2783ZM459.893 55.4387V50.0142H458.806V41.5519H455.87V50.0142H448.692V41.5519H445.756V52.5095H456.957V55.4387H459.893ZM476.314 52.5095V41.5519H473.378L466.092 48.9293L466.201 41.5519H463.264V52.5095H466.201L473.487 45.1321L473.378 52.5095H476.314ZM495.454 52.5095L489.799 41.5519H485.558L479.903 52.5095H483.165L484.144 50.6651H491.212L492.191 52.5095H495.454ZM490.016 48.3868H485.34L487.733 43.8302L490.016 48.3868ZM513.071 55.4387V50.0142H511.983V41.5519H509.047V50.0142H501.87V41.5519H498.934V52.5095H510.135V55.4387H513.071ZM529.492 52.5095V41.5519H526.555L519.269 48.9293L519.378 41.5519H516.442V52.5095H519.378L526.664 45.1321L526.555 52.5095H529.492ZM546.239 52.5095V41.5519H537.43C535.255 41.5519 533.95 41.9859 533.95 44.5897C533.95 46.217 534.385 47.0849 535.799 47.1934C534.603 47.1934 533.95 47.9529 533.95 49.1463V49.9057C533.95 50.6651 533.624 50.5566 533.298 50.5566V52.401H535.255C536.451 52.401 536.995 51.8585 536.995 50.7736V49.6887C536.995 48.8208 537.321 48.2783 538.191 48.2783H543.411V52.401H546.239V52.5095ZM543.303 46.217H538.191C537.213 46.217 536.886 46.217 536.886 45.1321C536.886 44.1557 536.995 43.9387 537.756 43.9387H543.303V46.217ZM154.856 71.2783V60.2123H151.92V64.3349H144.743V60.2123H141.807V71.1698H144.743V66.8302H151.92V71.1698H154.856V71.2783ZM178.237 71.2783V68.8915H169.646V66.7217H177.911V64.6604H169.646V62.5991H178.128V60.2123H166.601V71.1698H178.237V71.2783ZM201.4 62.7076V60.3208H189.873V71.2783H192.809V62.7076H201.4ZM225.869 67.3727V64.2264C225.869 60.8632 223.476 60.2123 221.084 60.2123H217.495C214.994 60.2123 212.71 60.8632 212.71 64.2264V67.3727C212.71 70.7359 214.885 71.3868 217.495 71.3868H221.192C223.694 71.3868 225.869 70.7359 225.869 67.3727ZM222.932 67.0472C222.932 68.6746 222.28 68.8915 221.192 68.8915H217.495C216.408 68.8915 215.755 68.6746 215.755 67.0472V64.5519C215.755 62.9246 216.408 62.7076 217.495 62.7076H221.192C222.171 62.7076 222.932 62.8161 222.932 64.5519V67.0472ZM250.445 67.4812V67.1557H247.401V67.4812C247.401 68.7831 246.857 68.8915 245.552 68.8915H241.963C240.549 68.8915 240.441 68.2406 240.441 66.6132V64.8774C240.441 63.3585 240.767 62.8161 241.963 62.8161H245.661C246.639 62.8161 247.401 62.9246 247.401 63.901V64.3349H250.445V63.901C250.445 60.6463 248.814 60.3208 246.204 60.3208H242.181C239.353 60.3208 237.287 60.8632 237.287 64.4434V67.2642C237.287 71.2783 239.679 71.3868 242.181 71.3868H245.769C247.183 71.3868 248.271 71.3868 249.249 70.6274C250.337 69.7595 250.445 68.6746 250.445 67.4812ZM275.675 60.2123H272.304L268.498 66.5047L264.583 60.2123H261.211L266.866 69V69.1085C266.758 69.3255 266.649 69.3255 266.431 69.3255H264.8V71.1698H268.063C268.824 71.1698 269.368 70.9529 269.585 70.4104L275.675 60.2123ZM300.252 74.2076V68.7831H299.164V60.3208H287.746V64.0095C287.746 67.3727 286.985 68.0236 286.223 68.6746H285.462V74.0991H288.398V71.1698H297.207V74.0991H300.252V74.2076ZM296.228 68.6746H289.486C290.03 68.1321 290.682 67.1557 290.682 64.0095V62.8161H296.119V68.6746H296.228ZM326.134 71.2783L320.479 60.3208H316.238L310.583 71.2783H313.845L314.824 69.434H321.893L322.871 71.2783H326.134ZM320.696 67.0472H316.02L318.413 62.4906L320.696 67.0472ZM348.971 64.3349C348.971 61.4057 347.883 60.3208 345.165 60.3208H337.008V71.2783H339.945V68.4576H345.165C348.209 68.4576 348.971 67.3727 348.971 64.3349ZM345.926 64.3349C345.926 65.7453 345.708 65.9623 344.621 65.9623H339.945V62.9246H344.621C345.708 62.8161 345.926 63.1415 345.926 64.3349ZM373.113 67.4812V67.1557H370.068V67.4812C370.068 68.7831 369.524 68.8915 368.219 68.8915H364.63C363.217 68.8915 363.108 68.2406 363.108 66.6132V64.8774C363.108 63.3585 363.434 62.8161 364.63 62.8161H368.328C369.307 62.8161 370.068 62.9246 370.068 63.901V64.3349H373.113V63.901C373.113 60.6463 371.481 60.3208 368.872 60.3208H364.848C362.02 60.3208 359.954 60.8632 359.954 64.4434V67.2642C359.954 71.2783 362.347 71.3868 364.848 71.3868H368.437C369.85 71.3868 370.938 71.3868 371.916 70.6274C373.113 69.7595 373.113 68.6746 373.113 67.4812ZM396.493 62.8161V60.2123H384.205V62.8161H388.772V71.2783H391.709V62.8161H396.493ZM419.983 68.2406C419.983 66.8302 419.765 65.8538 418.025 65.7453V65.6368C419.439 65.4198 419.765 64.4434 419.765 63.1415C419.765 60.7548 418.46 60.3208 416.285 60.3208H407.586V71.2783H416.285C418.787 71.2783 419.983 70.9529 419.983 68.2406ZM416.938 63.5755C416.938 64.4434 416.72 64.6604 415.633 64.6604H410.631V62.7076H415.959C416.829 62.7076 416.938 62.9246 416.938 63.5755ZM417.047 67.6981C417.047 68.5661 416.612 68.7831 415.742 68.7831H410.631V66.6132H415.742C416.72 66.7217 417.047 66.8302 417.047 67.6981ZM443.364 71.2783V68.8915H434.772V66.7217H443.037V64.6604H434.772V62.5991H443.255V60.2123H431.728V71.1698H443.364V71.2783ZM468.158 71.2783V60.2123H465.222V64.3349H458.044V60.2123H455.108V71.1698H458.044V66.8302H465.222V71.1698H468.158V71.2783ZM493.061 71.2783V60.2123H490.125V64.3349H482.839V60.2123H479.903V71.1698H482.839V66.8302H490.016V71.1698H493.061V71.2783ZM520.683 71.2783V60.2123H517.747V71.1698H520.683V71.2783ZM516.659 67.8066C516.659 64.5519 515.137 64.2264 513.179 64.2264H507.742V60.2123H504.806V71.1698H513.071C515.354 71.2783 516.659 71.0613 516.659 67.8066ZM513.723 67.6981C513.723 68.6746 513.288 68.7831 512.418 68.7831H507.742V66.6132H512.418C513.397 66.7217 513.723 66.8302 513.723 67.6981ZM547 71.2783L541.345 65.4198L546.239 60.2123H542.759L539.279 63.7925L535.799 60.2123H532.319L537.213 65.4198L531.558 71.2783H535.255L539.388 67.1557L543.52 71.2783H547ZM154.856 90.0472V78.9812H141.807V90.0472H144.743V81.5849H151.92V90.0472H154.856ZM177.585 90.0472V87.6604H168.994V85.4906H177.258V83.4293H168.994V81.368H177.476V78.9812H165.949V90.0472H177.585ZM201.835 90.0472V78.9812H198.899V83.1038H191.722V78.9812H188.786V90.0472H191.722V85.7076H198.899V90.0472H201.835ZM225.76 86.1415V85.8161H222.715V86.1415C222.715 87.4434 222.171 87.5519 220.866 87.5519H217.277C215.864 87.5519 215.755 86.901 215.755 85.2736V83.5378C215.755 82.0189 216.081 81.4764 217.277 81.4764H220.975C221.954 81.4764 222.715 81.5849 222.715 82.5613V82.9953H225.76V82.5613C225.76 79.3066 224.129 78.9812 221.519 78.9812H217.495C214.668 78.9812 212.601 79.5236 212.601 83.1038V85.9246C212.601 89.9387 214.994 90.0472 217.495 90.0472H221.084C222.497 90.0472 223.585 90.0472 224.564 89.2878C225.76 88.4198 225.76 87.3349 225.76 86.1415ZM249.902 90.0472V78.9812H246.966L239.679 86.3585L239.788 78.9812H236.852V90.0472H239.788L247.074 82.6698L246.966 90.0472H249.902ZM273.935 86.0331V82.8868C273.935 79.5236 271.542 78.8727 269.15 78.8727H265.453C262.951 78.8727 260.668 79.5236 260.668 82.8868V86.0331C260.668 89.3963 262.843 90.0472 265.453 90.0472H269.15C271.76 90.0472 273.935 89.3963 273.935 86.0331ZM270.999 85.7076C270.999 87.3349 270.346 87.5519 269.259 87.5519H265.561C264.474 87.5519 263.821 87.3349 263.821 85.7076V83.2123C263.821 81.5849 264.474 81.368 265.561 81.368H269.259C270.238 81.368 270.999 81.4764 270.999 83.2123V85.7076ZM298.077 90.0472V78.9812H295.141V83.1038H287.963V78.9812H285.027V90.0472H287.963V85.7076H295.141V90.0472H298.077ZM322.328 90.0472V78.9812H319.391V83.1038H312.214V78.9812H309.278V90.0472H312.214V85.7076H319.391V90.0472H322.328ZM349.297 90.0472V78.9812H346.361V90.0472H349.297ZM345.273 86.5755C345.273 83.3208 343.751 82.9953 341.793 82.9953H336.356V78.9812H333.42V90.0472H341.685C344.077 90.0472 345.273 89.7217 345.273 86.5755ZM342.337 86.467C342.337 87.4434 341.902 87.5519 341.032 87.5519H336.356V85.3821H341.032C342.011 85.3821 342.337 85.5991 342.337 86.467ZM374.961 90.0472L369.307 84.1887L374.2 78.9812H370.72L367.24 82.5613L363.76 78.9812H360.28L365.174 84.1887L359.519 90.0472H363.217L367.349 85.9246L371.481 90.0472H374.961ZM426.725 85.0566V83.8632C426.725 81.0425 425.638 79.9576 422.919 79.9576H419.874V78.9812H416.938V79.9576H413.893C411.174 79.9576 410.087 81.0425 410.087 83.8632V85.0566C410.087 88.0944 410.848 89.0708 413.893 89.0708H416.938V90.0472H419.874V89.0708H422.919C425.964 89.0708 426.725 88.0944 426.725 85.0566ZM423.68 85.0566C423.68 86.3585 423.463 86.5755 422.375 86.5755H419.983V82.4529H422.375C423.463 82.4529 423.68 82.7783 423.68 83.8632V85.0566ZM417.047 86.467H414.654C413.567 86.467 413.349 86.25 413.349 84.9481V83.7547C413.349 82.6698 413.567 82.3444 414.654 82.3444H417.047V86.467ZM450.432 86.0331V82.8868C450.432 79.5236 448.04 78.8727 445.647 78.8727H441.95C439.449 78.8727 437.165 79.5236 437.165 82.8868V86.0331C437.165 89.3963 439.34 90.0472 441.95 90.0472H445.647C448.257 90.0472 450.432 89.3963 450.432 86.0331ZM447.387 85.7076C447.387 87.3349 446.735 87.5519 445.647 87.5519H441.95C440.862 87.5519 440.21 87.3349 440.21 85.7076V83.2123C440.21 81.5849 440.862 81.368 441.95 81.368H445.647C446.626 81.368 447.387 81.4764 447.387 83.2123V85.7076ZM474.574 90.0472V78.9812H471.638V83.1038H464.461V78.9812H461.524V90.0472H464.461V85.7076H471.638V90.0472H474.574ZM499.586 92.868V87.4434H498.499V78.9812H487.08V82.7783C487.08 86.1415 486.319 86.7925 485.558 87.4434H484.796V92.868H487.733V90.0472H496.541V92.9764H499.586V92.868ZM495.562 87.4434H488.82C489.364 86.901 490.016 85.9246 490.016 82.7783V81.5849H495.454V87.4434H495.562ZM522.858 86.0331V82.8868C522.858 79.5236 520.466 78.8727 518.073 78.8727H514.376C511.875 78.8727 509.591 79.5236 509.591 82.8868V86.0331C509.591 89.3963 511.766 90.0472 514.376 90.0472H518.073C520.683 90.0472 522.858 89.3963 522.858 86.0331ZM519.922 85.7076C519.922 87.3349 519.269 87.5519 518.182 87.5519H514.484C513.397 87.5519 512.744 87.3349 512.744 85.7076V83.2123C512.744 81.5849 513.397 81.368 514.484 81.368H518.182C519.161 81.368 519.922 81.4764 519.922 83.2123V85.7076ZM546.347 86.901C546.347 85.4906 546.13 84.5142 544.39 84.4057V84.2972C545.804 84.0802 546.13 83.1038 546.13 81.8019C546.13 79.4151 544.825 78.9812 542.65 78.9812H533.95V90.0472H542.65C545.043 90.0472 546.347 89.6132 546.347 86.901ZM543.194 82.3444C543.194 83.2123 542.976 83.4293 541.889 83.4293H536.886V81.368H542.215C543.085 81.368 543.194 81.6934 543.194 82.3444ZM543.411 86.467C543.411 87.3349 542.976 87.5519 542.106 87.5519H536.995V85.3821H542.106C543.085 85.3821 543.411 85.5991 543.411 86.467Z" fill="#5979C4"/>
</svg>
