<svg width="189" height="155" viewBox="0 0 189 155" fill="none" xmlns="http://www.w3.org/2000/svg">
<path d="M141.248 62.3065C150.413 62.3065 157.843 58.0159 157.843 52.7231C157.843 47.4303 150.413 43.1396 141.248 43.1396C132.083 43.1396 124.653 47.4303 124.653 52.7231C124.653 58.0159 132.083 62.3065 141.248 62.3065Z" fill="#E0E0E0"/>
<path d="M168.26 75.1411C179.666 75.1411 188.912 69.8011 188.912 63.2138C188.912 56.6266 179.666 51.2866 168.26 51.2866C156.855 51.2866 147.608 56.6266 147.608 63.2138C147.608 69.8011 156.855 75.1411 168.26 75.1411Z" fill="#E0E0E0"/>
<path d="M185.107 99.9499L92.9246 153.193C89.15 155.372 84.5033 155.372 80.7331 153.193L0 106.578L103.107 47.0239L185.107 94.3726C187.255 95.6139 187.255 98.7129 185.107 99.9499Z" fill="#E0E0E0"/>
<path d="M141.794 28.9687C150.713 28.9687 157.943 24.7927 157.943 19.6413C157.943 14.49 150.713 10.314 141.794 10.314C132.876 10.314 125.646 14.49 125.646 19.6413C125.646 24.7927 132.876 28.9687 141.794 28.9687Z" fill="#5979C4"/>
<path d="M153.44 2.9569C147.006 -0.75842 136.58 -0.75842 130.146 2.9569C126.705 4.94477 125.104 7.59237 125.347 10.1966L128.849 51.191C128.996 52.9835 130.259 54.7544 132.632 56.1216C137.695 59.047 145.904 59.047 150.962 56.1216C153.336 54.75 154.594 52.9835 154.746 51.191L158.247 10.1922C158.49 7.58803 156.889 4.94043 153.448 2.95256L153.44 2.9569Z" fill="#5979C4"/>
<path opacity="0.8" d="M153.44 2.9569C147.006 -0.75842 136.58 -0.75842 130.146 2.9569C126.705 4.94477 125.104 7.59237 125.347 10.1966L128.849 51.191C128.996 52.9835 130.259 54.7544 132.632 56.1216C137.695 59.047 145.904 59.047 150.962 56.1216C153.336 54.75 154.594 52.9835 154.746 51.191L158.247 10.1922C158.49 7.58803 156.889 4.94043 153.448 2.95256L153.44 2.9569Z" fill="white"/>
<path opacity="0.2" d="M125.347 10.1963L128.848 51.1907C128.922 52.0935 129.277 52.9832 129.907 53.8209C130.536 54.6586 131.447 55.4442 132.631 56.13C134.553 57.2411 136.926 57.9269 139.412 58.1916C137.287 57.2194 135.673 55.6439 135.59 53.0917C135.534 51.3947 135.43 48.2913 135.304 44.6411C140.818 46.1993 147.665 45.6568 152.25 43.0092C153.851 42.0847 155.005 40.9953 155.721 39.8407L157.071 24.0246C156.298 25.3267 155.019 26.5463 153.222 27.5836C148.233 30.4656 140.797 31.0646 134.779 29.3849C134.692 26.8545 134.497 21.62 134.371 18.1782C132.852 17.7354 131.425 17.1452 130.158 16.4116C127.169 14.6798 125.568 12.4576 125.36 10.1963H125.347Z" fill="#5979C4"/>
<path d="M141.795 19.1984C150.893 19.1984 158.268 14.9388 158.268 9.68441C158.268 4.42997 150.893 0.17041 141.795 0.17041C132.696 0.17041 125.321 4.42997 125.321 9.68441C125.321 14.9388 132.696 19.1984 141.795 19.1984Z" fill="#5979C4"/>
<path opacity="0.6" d="M141.795 19.1984C150.893 19.1984 158.268 14.9388 158.268 9.68441C158.268 4.42997 150.893 0.17041 141.795 0.17041C132.696 0.17041 125.321 4.42997 125.321 9.68441C125.321 14.9388 132.696 19.1984 141.795 19.1984Z" fill="white"/>
<path d="M141.795 18.3433C150.43 18.3433 157.431 14.4666 157.431 9.68435C157.431 4.90214 150.43 1.02539 141.795 1.02539C133.159 1.02539 126.158 4.90214 126.158 9.68435C126.158 14.4666 133.159 18.3433 141.795 18.3433Z" fill="#E0E0E0"/>
<path d="M157.921 20.1274L156.555 36.0347C156.39 38.0833 154.949 40.1016 152.242 41.6641C146.472 44.9975 137.118 44.9975 131.347 41.6641C128.453 39.9931 127.013 37.8012 127.017 35.6093L125.677 20.1882C125.898 22.3887 127.464 24.5545 130.375 26.2342C136.684 29.8758 146.906 29.8758 153.21 26.2342C156.151 24.5372 157.717 22.3453 157.917 20.123L157.921 20.1274Z" fill="#DD7113"/>
<path opacity="0.2" d="M157.921 20.1274L156.555 36.0347C156.39 38.0833 154.949 40.1016 152.242 41.6641C146.472 44.9975 137.118 44.9975 131.347 41.6641C128.453 39.9931 127.013 37.8012 127.017 35.6093L125.677 20.1882C125.898 22.3887 127.464 24.5545 130.375 26.2342C136.684 29.8758 146.906 29.8758 153.21 26.2342C156.151 24.5372 157.717 22.3453 157.917 20.123L157.921 20.1274Z" fill="white"/>
<path opacity="0.8" d="M135.525 28.2393C133.655 27.7836 131.898 27.1195 130.375 26.2385C127.464 24.5588 125.898 22.3929 125.677 20.1924L127.017 35.6136C127.009 37.8054 128.453 39.993 131.347 41.6683C132.744 42.4756 134.354 43.0833 136.068 43.4999L135.525 28.2393Z" fill="#DD7113"/>
<path d="M136.35 33.7777C136.931 33.2438 137.63 32.7707 138.38 32.4626C138.688 32.3367 138.71 31.894 138.415 31.7464C136.94 31.0172 134.866 31.499 133.4 33.0312C131.855 34.6501 131.53 36.8767 132.532 38.296C132.658 38.4739 132.927 38.5 133.096 38.3698C133.886 37.7534 134.393 37.0199 134.909 35.848C135.252 35.0755 135.725 34.3506 136.35 33.7777ZM139.691 33.0051C139.595 32.8272 139.361 32.7577 139.174 32.8358C137.786 33.4261 136.71 34.3897 135.977 35.7829C135.608 36.4817 135.365 37.2717 134.905 37.9227C134.558 38.4088 134.155 38.7864 133.695 39.0686C133.63 39.1076 133.656 39.2682 133.738 39.3029C135.2 39.941 137.2 39.4375 138.619 37.9531C140.055 36.4513 140.437 34.4244 139.686 33.0051H139.691Z" fill="white"/>
<path opacity="0.8" d="M133.096 38.3654C133.885 37.7491 134.393 37.0156 134.909 35.8437C135.131 35.3446 135.408 34.8671 135.742 34.4374L135.643 31.6162C134.844 31.8636 134.059 32.341 133.395 33.0355C131.851 34.6544 131.525 36.881 132.528 38.3003C132.653 38.4783 132.922 38.5043 133.092 38.3741L133.096 38.3654Z" fill="#E6E6E6"/>
<path opacity="0.8" d="M135.807 36.1343C135.525 36.7376 135.295 37.3756 134.909 37.9182C134.562 38.4043 134.159 38.7819 133.699 39.064C133.634 39.1031 133.66 39.2637 133.742 39.2984C134.397 39.5848 135.157 39.6369 135.924 39.485L135.807 36.1343Z" fill="#E6E6E6"/>
<path d="M130.527 3.72507C133.521 1.9846 137.521 1.02539 141.79 1.02539C146.059 1.02539 150.064 1.9846 153.058 3.72507C155.873 5.36138 157.427 7.47946 157.427 9.68434C157.427 10.3094 157.301 10.9257 157.058 11.529C156.446 10.0055 155.075 8.58624 153.058 7.41435C150.064 5.67388 146.064 4.71901 141.79 4.71901C137.517 4.71901 133.516 5.67822 130.527 7.41435C128.505 8.58624 127.139 10.0099 126.523 11.529C126.28 10.93 126.154 10.3094 126.154 9.68434C126.154 7.47946 127.707 5.36138 130.523 3.72507H130.527Z" fill="#5979C4"/>
<path opacity="0.8" d="M130.527 3.72507C133.521 1.9846 137.521 1.02539 141.79 1.02539C146.059 1.02539 150.064 1.9846 153.058 3.72507C155.873 5.36138 157.427 7.47946 157.427 9.68434C157.427 10.3094 157.301 10.9257 157.058 11.529C156.446 10.0055 155.075 8.58624 153.058 7.41435C150.064 5.67388 146.064 4.71901 141.79 4.71901C137.517 4.71901 133.516 5.67822 130.527 7.41435C128.505 8.58624 127.139 10.0099 126.523 11.529C126.28 10.93 126.154 10.3094 126.154 9.68434C126.154 7.47946 127.707 5.36138 130.523 3.72507H130.527Z" fill="white"/>
<path opacity="0.15" d="M141.79 1.02539C146.064 1.02539 150.064 1.9846 153.058 3.72507C155.873 5.36138 157.427 7.47946 157.427 9.68434C157.427 10.3094 157.301 10.9257 157.058 11.529C156.446 10.0055 155.075 8.58624 153.058 7.41435C150.064 5.67388 146.064 4.71901 141.79 4.71901C141.526 4.71901 141.257 4.71901 140.992 4.73203C142.02 4.71901 144.185 4.19817 143.456 2.78322C142.693 1.30317 140.766 1.04709 139.348 1.13824C140.146 1.06879 140.962 1.02973 141.79 1.02973V1.02539Z" fill="#5979C4"/>
<path opacity="0.15" d="M126.158 9.68441C126.158 7.73561 127.369 5.85625 129.594 4.31543C128.549 5.53506 129.139 7.71391 131.395 6.94133C131.399 6.94133 131.408 6.94133 131.412 6.93699C131.109 7.0889 130.813 7.24515 130.527 7.41008C128.505 8.58197 127.139 10.0056 126.523 11.5247C126.28 10.9257 126.154 10.3051 126.154 9.68007L126.158 9.68441Z" fill="#5979C4"/>
<path d="M130.527 7.41019C133.521 5.66972 137.521 4.71484 141.79 4.71484C146.059 4.71484 150.064 5.67406 153.057 7.41019C155.075 8.58208 156.446 10.0057 157.058 11.5248C156.442 13.0483 155.075 14.4676 153.053 15.6394C150.059 17.3799 146.059 18.3348 141.79 18.3348C137.521 18.3348 133.516 17.3756 130.527 15.6394C128.505 14.4676 127.139 13.0439 126.522 11.5248C127.139 10.0014 128.505 8.58208 130.527 7.41019Z" fill="#37474F"/>
<path d="M143.738 4.78418C143.942 4.91005 144.12 5.07498 144.242 5.28332C144.45 5.65225 144.22 6.10798 144.437 6.47257C144.606 6.75903 144.897 7.07587 145.426 7.1974C145.986 7.32761 146.836 7.4231 147.491 7.983C147.647 8.11321 147.756 8.29985 147.799 8.4995C147.869 8.81634 147.725 9.14187 147.535 9.40229C147.339 9.66271 147.092 9.87538 146.905 10.1401C146.715 10.4006 146.589 10.7391 146.68 11.0516C146.762 11.3337 147.01 11.5377 147.257 11.6983C148.216 12.319 149.387 12.5751 150.307 13.2565C150.567 13.4475 150.81 13.6819 150.932 13.9857C151.118 14.4544 150.962 15.0057 150.645 15.3919C150.454 15.622 150.155 15.9432 149.201 16.2123C148.862 16.3077 148.532 16.4119 148.19 16.4857C147.201 16.694 146.012 17.6576 145.114 18.1437C148.116 17.7791 150.867 16.9241 153.066 15.6437C155.088 14.4718 156.455 13.0482 157.071 11.529C156.459 10.0056 155.088 8.58631 153.071 7.41442C150.537 5.94305 147.283 5.03158 143.751 4.78852L143.738 4.78418ZM153.231 12.1931C153.301 12.1541 153.409 12.1541 153.478 12.1931C153.548 12.2322 153.548 12.2973 153.478 12.3364C153.409 12.3754 153.296 12.3754 153.231 12.3364C153.162 12.2973 153.162 12.2322 153.231 12.1931ZM151.665 14.1636C151.878 14.0378 152.225 14.0378 152.437 14.1636C152.65 14.2895 152.65 14.4892 152.437 14.615C152.225 14.7409 151.878 14.7409 151.665 14.615C151.452 14.4892 151.452 14.2895 151.665 14.1636ZM151.331 13.4518C151.4 13.4128 151.513 13.4128 151.578 13.4518C151.648 13.4909 151.648 13.556 151.578 13.595C151.509 13.6341 151.396 13.6341 151.331 13.595C151.261 13.556 151.261 13.4909 151.331 13.4518ZM151.17 11.2339C151.509 11.0386 152.055 11.0386 152.394 11.2339C152.732 11.4292 152.732 11.7461 152.394 11.9457C152.055 12.141 151.509 12.141 151.17 11.9457C150.832 11.7504 150.832 11.4336 151.17 11.2339ZM148.585 8.14359C148.476 8.2087 148.298 8.2087 148.19 8.14359C148.081 8.07849 148.081 7.97866 148.19 7.91356C148.298 7.84845 148.476 7.84845 148.585 7.91356C148.693 7.97866 148.693 8.07849 148.585 8.14359ZM149.153 9.33718C148.814 9.14187 148.814 8.82502 149.153 8.62537C149.491 8.43005 150.038 8.43005 150.376 8.62537C150.715 8.82068 150.715 9.13753 150.376 9.33718C150.038 9.5325 149.491 9.5325 149.153 9.33718ZM149.565 11.7938C149.674 11.7287 149.851 11.7287 149.96 11.7938C150.068 11.8589 150.068 11.9587 149.96 12.0238C149.851 12.089 149.674 12.089 149.565 12.0238C149.457 11.9587 149.457 11.8589 149.565 11.7938ZM149.196 10.266C149.582 10.4917 149.582 10.852 149.196 11.0777C148.81 11.3034 148.185 11.3034 147.799 11.0777C147.413 10.852 147.413 10.4917 147.799 10.266C148.185 10.0403 148.81 10.0403 149.196 10.266ZM146.519 6.78507C146.589 6.74601 146.702 6.74601 146.767 6.78507C146.836 6.82413 146.836 6.88924 146.767 6.9283C146.697 6.96736 146.589 6.96736 146.519 6.9283C146.45 6.88924 146.45 6.82413 146.519 6.78507Z" fill="#455A64"/>
<path d="M126.527 11.529C127.143 13.0525 128.51 14.4718 130.531 15.6437C133.152 17.1671 136.549 18.0916 140.224 18.2956C140.094 18.2305 139.968 18.1611 139.838 18.0959C139.035 17.6923 138.193 17.3103 137.3 17.2626C136.605 17.2235 135.781 17.3407 135.33 16.8069C135.13 16.5725 135.052 16.2513 134.866 16.0083C134.653 15.7305 134.315 15.5786 133.981 15.4831C133.096 15.227 132.154 15.2834 131.239 15.1575C130.996 15.1228 130.714 15.049 130.614 14.819C130.514 14.589 130.653 14.3285 130.813 14.1376C130.974 13.9466 131.174 13.7643 131.221 13.5212C131.282 13.2001 131.061 12.8962 130.818 12.6792C130.575 12.4622 130.288 12.2712 130.15 11.9761C129.959 11.5724 130.106 11.0776 130.388 10.7304C130.67 10.3875 131.061 10.1575 131.438 9.92311C132.15 9.48474 132.84 9.00296 133.434 8.41702C133.829 8.02205 134.198 7.4144 133.898 6.94131C133.772 6.74599 133.56 6.6288 133.343 6.53765C133.148 6.45519 132.944 6.39442 132.735 6.34668C131.959 6.65918 131.221 7.01509 130.536 7.41006C128.514 8.58195 127.147 10.0056 126.531 11.5247L126.527 11.529ZM131.798 7.22343C132.137 7.02811 132.683 7.02811 133.022 7.22343C133.36 7.41874 133.36 7.73558 133.022 7.93524C132.683 8.13055 132.137 8.13055 131.798 7.93524C131.46 7.73993 131.46 7.42308 131.798 7.22343ZM130.779 8.55157C130.961 8.44306 131.26 8.44306 131.447 8.55157C131.629 8.66007 131.629 8.83369 131.447 8.93786C131.265 9.04636 130.965 9.04636 130.779 8.93786C130.596 8.82935 130.596 8.65573 130.779 8.55157ZM133.286 16.0169C133.495 15.8954 133.833 15.8954 134.041 16.0169C134.25 16.1385 134.25 16.3338 134.041 16.4553C133.833 16.5768 133.495 16.5768 133.286 16.4553C133.078 16.3338 133.078 16.1385 133.286 16.0169ZM132.375 15.7999C132.497 15.7305 132.688 15.7305 132.809 15.7999C132.931 15.8694 132.931 15.9822 132.809 16.0517C132.688 16.1211 132.497 16.1211 132.375 16.0517C132.254 15.9822 132.254 15.8694 132.375 15.7999ZM129.221 12.0716C129.121 12.128 128.965 12.128 128.865 12.0716C128.766 12.0151 128.766 11.9197 128.865 11.8632C128.965 11.8068 129.121 11.8068 129.221 11.8632C129.321 11.9197 129.321 12.0151 129.221 12.0716ZM128.701 12.9613C129.143 12.7053 129.855 12.7053 130.297 12.9613C130.74 13.2174 130.74 13.6341 130.297 13.8902C129.855 14.1463 129.143 14.1463 128.701 13.8902C128.258 13.6341 128.258 13.2174 128.701 12.9613ZM128.132 10.4092C128.375 10.2703 128.766 10.2703 129.009 10.4092C129.252 10.5481 129.252 10.7782 129.009 10.917C128.766 11.0559 128.375 11.0559 128.132 10.917C127.889 10.7782 127.889 10.5481 128.132 10.4092ZM127.221 10.9735C127.321 10.917 127.477 10.917 127.577 10.9735C127.677 11.0299 127.677 11.121 127.577 11.1818C127.477 11.2382 127.321 11.2382 127.221 11.1818C127.121 11.1254 127.121 11.0299 127.221 10.9735Z" fill="#455A64"/>
<path opacity="0.1" d="M143.994 4.8017C147.426 5.0708 150.589 5.97359 153.057 7.41024C155.075 8.58213 156.446 10.0058 157.058 11.5249C156.442 13.0483 155.075 14.4676 153.053 15.6395C152.307 16.0735 151.5 16.4555 150.641 16.7897C152.294 15.8348 153.96 14.3982 153.964 12.4797C153.977 8.67762 149.4 5.39633 143.985 4.79736L143.994 4.8017Z" fill="black"/>
<path d="M155.097 50.6267C162.277 46.4773 173.922 46.4773 181.102 50.6267C184.69 52.697 186.482 55.414 186.487 58.1311C186.487 58.6693 186.487 60.8221 186.487 61.369C186.474 64.0773 184.682 66.7857 181.102 68.8517C173.922 73.0011 162.277 73.0011 155.097 68.8517C151.504 66.777 149.712 64.0556 149.712 61.3386C149.712 60.8047 149.712 58.678 149.712 58.1485C149.712 55.4271 151.5 52.7057 155.097 50.631V50.6267Z" fill="#37474F"/>
<path d="M175.449 48.4043C177.501 48.9208 179.423 49.6587 181.098 50.6309C184.686 52.7012 186.478 55.4183 186.482 58.1353C186.482 58.6735 186.482 60.8263 186.482 61.3732C186.469 64.0816 184.677 66.7899 181.098 68.8559C179.419 69.8238 177.497 70.566 175.449 71.0825V48.4086V48.4043Z" fill="#263238"/>
<path d="M168.099 68.7562C178.254 68.7562 186.487 64.0011 186.487 58.1354C186.487 52.2697 178.254 47.5146 168.099 47.5146C157.945 47.5146 149.712 52.2697 149.712 58.1354C149.712 64.0011 157.945 68.7562 168.099 68.7562Z" fill="#455A64"/>
<path d="M151.656 56.9767L152.259 51.5382C152.485 49.4983 154.025 47.4887 156.875 45.9305C163.075 42.5407 173.123 42.5407 179.323 45.9305C182.174 47.4887 183.71 49.4983 183.94 51.5382L184.556 56.9767C184.82 59.429 183.245 61.929 179.822 63.7997C173.471 67.2763 162.746 67.2763 156.389 63.7997C152.966 61.929 151.391 59.429 151.656 56.9767Z" fill="#37474F"/>
<path d="M179.323 45.9349C182.174 47.493 183.709 49.5026 183.939 51.5426L184.556 56.981C184.82 59.4333 183.245 61.9333 179.822 63.804C178.525 64.5158 177.041 65.0757 175.453 65.4967L175.071 59.0296L174.312 44.0815C176.134 44.5069 177.839 45.1189 179.327 45.9349H179.323Z" fill="#263238"/>
<path d="M168.1 60.7572C176.865 60.7572 183.97 56.8688 183.97 52.0722C183.97 47.2756 176.865 43.3872 168.1 43.3872C159.335 43.3872 152.229 47.2756 152.229 52.0722C152.229 56.8688 159.335 60.7572 168.1 60.7572Z" fill="#455A64"/>
<path d="M168.1 58.8864C175.655 58.8864 181.779 55.8356 181.779 52.0721C181.779 48.3087 175.655 45.2578 168.1 45.2578C160.545 45.2578 154.42 48.3087 154.42 52.0721C154.42 55.8356 160.545 58.8864 168.1 58.8864Z" fill="#263238"/>
<path d="M158.424 50.7875C163.765 48.1268 172.429 48.1268 177.77 50.7875C179.532 51.6642 180.707 52.7232 181.306 53.8387C180.707 54.9585 179.527 56.0132 177.77 56.89C172.429 59.5506 163.765 59.5506 158.424 56.89C156.663 56.0132 155.487 54.9542 154.888 53.8387C155.487 52.7189 156.667 51.6642 158.424 50.7875Z" fill="#455A64"/>
<path d="M156.502 49.1944L172.625 58.5087C174.508 58.1789 176.274 57.6406 177.775 56.8941C180.256 55.6615 181.588 54.0642 181.762 52.4453C181.588 50.8263 180.256 49.2334 177.775 47.9964C172.434 45.3358 163.77 45.3358 158.429 47.9964C157.683 48.3654 157.04 48.7734 156.507 49.1944H156.502Z" fill="#455A64"/>
<path d="M155.491 52.9578L165.548 58.7695C167.9 58.9909 170.342 58.8997 172.62 58.5048L156.498 49.1904L155.487 52.9535L155.491 52.9578Z" fill="#37474F"/>
<path opacity="0.5" d="M155.856 57.0203L158.181 58.3614C158.402 58.4873 158.784 58.4743 159.04 58.3267C159.292 58.1791 159.322 57.9578 159.101 57.8319L156.775 56.4907C156.554 56.3649 156.172 56.3779 155.916 56.5255C155.665 56.673 155.634 56.8944 155.856 57.0203Z" fill="black"/>
<path d="M154.441 52.4713C154.945 55.414 158.22 56.8897 160.767 57.7317C166.39 59.4505 174.62 59.2205 179.532 55.7265C181.341 54.4027 182.469 52.2499 181.215 50.1318C182.534 52.2456 181.445 54.4722 179.618 55.8437C174.72 59.4549 166.364 59.7109 160.711 57.901C158.129 57.0069 154.888 55.4791 154.441 52.4713Z" fill="#37474F"/>
<path d="M72.5333 145.107C72.5333 145.107 76.2818 147.268 80.9111 149.938C83.4753 151.418 85.7704 151.617 87.3063 150.736L181.029 96.6342C179.493 97.5196 177.194 97.3199 174.625 95.8399C170 93.1749 166.252 91.0091 166.252 91.0091L97.3806 51.3081L3.69238 105.419L72.5333 145.107Z" fill="#E6E6E6" stroke="#E0E0E0" stroke-miterlimit="10"/>
<path d="M177.324 94.3292L97.3805 48.2393L3.69238 102.354L83.6358 148.444C84.6684 149.039 85.6099 149.095 86.291 148.7L179.975 94.5896C179.294 94.9802 178.357 94.9238 177.324 94.3292Z" fill="#EBEBEB" stroke="#E0E0E0" stroke-miterlimit="10"/>
<path d="M178.035 91.7553L97.3806 45.2573L3.69238 99.3682L84.3473 145.866C84.6163 146.022 84.9157 146.001 85.1543 145.866L178.847 91.7509C178.613 91.8855 178.309 91.9072 178.04 91.7509L178.035 91.7553Z" fill="#F0F0F0" stroke="#E0E0E0" stroke-miterlimit="10"/>
<path d="M85.15 145.866C85.3843 145.732 85.5535 145.48 85.5535 145.167V144.881C85.5535 143.57 84.855 142.363 83.7182 141.708L3.69238 95.5703L97.3806 41.4595L177.411 87.5972C178.543 88.2525 179.246 89.4592 179.246 90.7699V91.0564C179.246 91.3646 179.077 91.6163 178.842 91.7552" fill="#F5F5F5"/>
<path d="M85.15 145.866C85.3843 145.732 85.5535 145.48 85.5535 145.167V144.881C85.5535 143.57 84.855 142.363 83.7182 141.708L3.69238 95.5703L97.3806 41.4595L177.411 87.5972C178.543 88.2525 179.246 89.4592 179.246 90.7699V91.0564C179.246 91.3646 179.077 91.6163 178.842 91.7552" stroke="#E0E0E0" stroke-width="1.04" stroke-miterlimit="10"/>
<path d="M176.118 83.5523L97.3806 38.1611L3.69238 92.2763L82.4253 137.667C85.1587 139.243 87.393 143.115 87.393 146.27C87.393 147.464 86.9722 148.306 86.2867 148.701L179.971 94.5897C180.656 94.1991 181.081 93.3527 181.081 92.1592C181.081 89.0037 178.847 85.1322 176.113 83.5566L176.118 83.5523Z" fill="#F5F5F5" stroke="#E0E0E0" stroke-miterlimit="10"/>
<path d="M174.382 79.3899L165.77 74.4246L97.3806 34.9971L3.69238 89.1079L80.6682 133.488C85.4277 136.231 89.2803 142.103 89.2803 146.609C89.2803 148.618 88.5341 150.024 87.3019 150.732L181.025 96.6297C182.257 95.9179 182.999 94.5117 182.999 92.5108C182.999 88.0055 179.142 82.133 174.387 79.3899H174.382Z" fill="#FAFAFA" stroke="#E0E0E0" stroke-miterlimit="10"/>
<path d="M105.086 87.8926L142.732 66.1519C143.261 65.8481 144.012 65.783 144.411 66.013L164.477 77.606C164.876 77.8361 164.768 78.2701 164.238 78.5739L126.596 100.315C126.067 100.618 125.317 100.684 124.917 100.454L104.847 88.8648C104.448 88.6348 104.556 88.2008 105.086 87.8969V87.8926Z" fill="#5979C4"/>
<path opacity="0.8" d="M105.086 87.8926L142.732 66.1519C143.261 65.8481 144.012 65.783 144.411 66.013L164.477 77.606C164.876 77.8361 164.768 78.2701 164.238 78.5739L126.596 100.315C126.067 100.618 125.317 100.684 124.917 100.454L104.847 88.8648C104.448 88.6348 104.556 88.2008 105.086 87.8969V87.8926Z" fill="white"/>
<path d="M141.192 76.2823L139.873 82.2763L149.574 83.2833L121.321 83.8345L121.716 98.6003L124.918 100.449C125.317 100.679 126.067 100.619 126.597 100.31L164.238 78.5697C164.768 78.2659 164.876 77.8318 164.477 77.6018L161.865 76.0957L141.192 76.2867V76.2823Z" fill="#5979C4"/>
<path d="M140.537 70.8873C141.578 70.284 143.057 70.1625 143.838 70.6139C144.619 71.0653 144.407 71.9203 143.365 72.5193C142.324 73.1226 140.845 73.2441 140.064 72.7927C139.283 72.3413 139.495 71.4863 140.537 70.8873Z" fill="#5979C4"/>
<path d="M18.8767 91.0191C19.1965 90.9088 19.4105 90.8211 19.7024 90.7589C20.0725 90.6802 20.3517 90.7907 21.004 91.1954C21.3038 91.3815 21.8808 91.7619 22.6181 92.2452C23.3608 92.7319 24.2763 93.3224 25.2364 93.952C26.0984 94.5175 26.9772 95.1031 27.6836 95.5662C28.3828 96.0247 28.9082 96.3727 29.0448 96.4703C29.8527 97.0474 30.08 97.2787 29.8481 97.5508C29.7232 97.6975 29.5877 97.8463 29.4539 97.9962C29.4911 98.0713 30.0267 98.4153 30.1382 98.424C30.3837 98.283 30.9425 97.8919 31.9085 97.3392C33.0623 96.6793 33.7234 96.3733 33.9466 96.2498C33.9241 96.166 33.478 95.8131 33.3366 95.7778C33.0019 95.8705 32.6446 95.9758 32.3995 96.0205C31.968 96.0992 31.6007 95.8942 31.0307 95.5265C30.5818 95.237 30.019 94.8871 29.4241 94.4945C28.8365 94.1067 28.1973 93.6864 27.5794 93.2816C27.5578 93.2675 27.4976 93.211 27.4902 93.1889C27.4976 93.1361 27.6126 93.0585 29.0374 92.2232C29.5836 91.9029 30.2157 91.5588 30.4804 91.4248C30.5209 91.4043 30.6159 91.4402 30.6737 91.4777C31.3149 91.8943 31.9746 92.335 32.5928 92.7435C33.2092 93.1508 33.7793 93.534 34.2292 93.8418C34.8428 94.2616 35.0135 94.493 34.8838 94.6709C34.775 94.82 34.6532 94.9488 34.4597 95.1295C34.4969 95.2309 34.9879 95.5574 35.1292 95.5707C35.4044 95.4163 36.1403 94.921 36.9738 94.446C37.8733 93.9333 38.5731 93.5992 38.8929 93.4227C38.9004 93.3433 38.3946 92.9773 38.2904 92.942C37.74 93.1097 37.503 93.2078 37.2343 93.233C36.8929 93.265 36.5285 93.0814 35.9846 92.7346C35.5468 92.4555 34.9282 92.0732 34.2738 91.641C33.6193 91.2089 32.9141 90.7343 32.2581 90.3002C31.0547 89.504 30.2348 88.9771 29.5654 88.5317C28.8961 88.0863 28.3722 87.7228 27.7356 87.2791C27.1449 86.8673 27.0461 86.7044 27.1331 86.4897C27.1879 86.3543 27.3637 86.1854 27.5349 86.0133C27.4903 85.9163 27.0067 85.5899 26.8803 85.5679C26.5084 85.7795 26.1822 86.0463 25.1472 86.644C24.1666 87.2105 23.6892 87.4114 23.176 87.7069C23.1835 87.804 23.6892 88.1435 23.8306 88.1567C24.1951 88.02 24.4406 87.9222 24.7158 87.8832C24.9983 87.8432 25.3881 88.0246 25.6604 88.1919C26.2135 88.5317 26.8485 88.9539 27.4678 89.3607C28.0906 89.7697 28.6955 90.1719 29.1862 90.4943C29.2458 90.5335 29.2604 90.6001 29.2457 90.6265C29.1117 90.7323 28.68 90.979 27.9142 91.4203C26.5602 92.2005 26.4129 92.2904 26.2555 92.3289C26.1971 92.3432 26.1215 92.3068 26.0546 92.276C25.5117 91.9231 24.9399 91.5466 24.3884 91.1867C23.8317 90.8235 23.3121 90.4643 22.8488 90.1545C22.2634 89.7633 22.0678 89.5635 22.1644 89.3343C22.2164 89.2108 22.4099 89.0256 22.5735 88.8844C22.5735 88.8094 22.0603 88.4742 21.9189 88.439C21.5842 88.6286 21.1071 88.9797 20.1265 89.5459C19.099 90.1395 18.5049 90.4105 18.2222 90.5737C18.2297 90.6442 18.7726 91.0102 18.8768 91.0191L18.8767 91.0191ZM44.2781 90.7059C45.5877 89.9572 46.0427 88.7248 45.1559 87.1203C44.8826 86.6255 44.4388 86.0956 43.8915 85.5724C43.3456 85.0505 42.6867 84.5264 41.9649 84.0418C40.3216 82.9388 38.4539 82.1283 36.6764 81.7749C34.9061 81.4229 33.2174 81.5324 31.9085 82.291C30.5845 83.0582 30.2831 84.1412 30.6515 85.3076C30.8489 85.9329 31.2232 86.5878 31.8044 87.1952C32.3834 87.8006 33.1121 88.3795 33.8945 88.9021C34.6368 89.398 35.514 89.8906 36.4532 90.309C37.3956 90.7286 38.4079 91.0768 39.4285 91.2704C41.2193 91.6103 42.8806 91.5048 44.2782 90.7059H44.2781ZM43.7724 89.9033C43.2605 90.1961 42.5519 90.2468 41.7492 90.137C40.7149 89.9956 39.534 89.5868 38.4095 89.0653C37.2805 88.5417 36.1872 87.9069 35.3003 87.3188C34.3651 86.6985 33.5465 86.0774 32.9424 85.4974C32.3342 84.9134 31.9695 84.3671 31.9085 83.8963C31.8656 83.5645 32.0641 83.247 32.4142 83.0451C32.8972 82.7666 33.4939 82.7082 34.3185 82.8246C35.2416 82.9549 36.3202 83.3346 37.4053 83.8435C38.492 84.3532 39.6154 84.989 40.6037 85.6518C41.4302 86.2061 42.2386 86.8048 42.865 87.3718C43.4955 87.9425 43.9518 88.4897 44.0997 88.9374C44.2345 89.3454 44.1155 89.7069 43.7724 89.9033L43.7724 89.9033ZM37.8665 80.0416C38.0895 79.9358 38.4101 79.8302 38.7218 79.7903C39.0646 79.7465 39.3445 79.8129 39.8971 80.1607C40.4377 80.5009 40.998 80.8753 41.6674 81.3251C42.3368 81.7747 43.1247 82.301 44.122 82.9701C45.2146 83.7032 46.1355 84.332 46.8444 84.8092C47.5636 85.2933 48.0582 85.6326 48.2948 85.8104C48.8092 86.1969 48.9523 86.4037 48.8676 86.5778C48.7741 86.7697 48.6147 86.9395 48.3171 87.2085C48.3097 87.2835 48.8154 87.6055 48.9643 87.6672C49.8196 87.1777 51.9992 86.0486 52.5494 85.7354C53.2932 85.3122 53.9649 84.7128 54.1338 84.1256C54.2845 83.6015 54.222 83.0853 53.9255 82.582C53.6271 82.0756 53.1153 81.5623 52.3561 81.0472C50.6386 79.8821 49.0014 79.777 47.5213 80.1873C47.4765 80.1917 47.3875 80.1308 47.4023 80.1079C47.9086 79.3185 47.409 78.3708 46.3534 77.6556C44.1289 76.1482 42.396 76.588 41.2137 77.2719C40.8788 77.4655 40.0439 78.0186 39.0565 78.5906C38.1027 79.1431 37.502 79.4199 37.197 79.5918C37.2045 79.6404 37.7176 80.0019 37.8665 80.0416H37.8665ZM41.2063 78.3083C42.3156 77.6669 43.8262 78.0855 45.2526 79.0493C46.0129 79.5629 46.3864 80.0065 46.3758 80.4078C46.3718 80.5577 46.0852 80.7951 45.7064 81.0119C45.4306 81.1697 45.2285 81.2811 45.1038 81.3339C45.0721 81.3472 44.9996 81.3426 44.9403 81.3031C44.2932 80.8709 43.4899 80.328 42.7757 79.8475C42.0546 79.3623 41.441 78.9387 41.1765 78.7362C41.084 78.6655 40.9885 78.55 41.0054 78.5157C41.0407 78.4442 41.1184 78.359 41.2063 78.3083V78.3083ZM52.2446 84.968C52.1058 85.0474 51.5365 85.2252 50.9204 85.0915C50.7035 85.0445 50.3352 84.9072 50.1173 84.7695C49.6509 84.475 48.9714 84.0333 48.2353 83.5348C47.5062 83.041 46.7209 82.4982 46.0188 82.0264C45.9399 81.9734 45.9373 81.9294 45.9592 81.9117C46.0412 81.8459 46.1888 81.76 46.3311 81.6779C47.5202 80.9927 49.2108 81.3149 50.8685 82.4365C52.5875 83.5994 53.0131 84.5272 52.2446 84.968ZM61.6688 80.7693C62.9772 80.0234 63.4325 78.784 62.5538 77.1572C62.2798 76.6497 61.8461 76.1131 61.3043 75.5827C60.7603 75.0503 60.0984 74.5209 59.3777 74.026C57.748 72.9068 55.8818 72.072 54.1115 71.7061C52.3413 71.3401 50.6525 71.4414 49.3436 72.2C48.027 72.963 47.7232 74.0578 48.0865 75.2387C48.2814 75.8721 48.6529 76.5345 49.2246 77.1485C49.7983 77.7649 50.5348 78.3556 51.3148 78.8861C52.0519 79.3874 52.9198 79.895 53.8586 80.3239C54.8018 80.7549 55.8055 81.114 56.8265 81.3162C58.6096 81.6694 60.2625 81.5712 61.6688 80.7693L61.6688 80.7693ZM61.1629 79.9579C60.6492 80.2519 59.9419 80.3013 59.1397 80.1873C58.1121 80.0413 56.9395 79.6105 55.8149 79.0801C54.6859 78.5476 53.599 77.9013 52.7131 77.2985C51.7843 76.6666 50.9677 76.0301 50.3701 75.4461C49.7628 74.8526 49.4082 74.2933 49.3436 73.823C49.2967 73.4816 49.5004 73.1664 49.8495 72.9631C50.3259 72.6859 50.929 72.6303 51.7536 72.7513C52.6693 72.8858 53.7486 73.2774 54.833 73.801C55.913 74.3225 57.0352 74.9692 58.0165 75.6446C58.8425 76.2128 59.6456 76.8176 60.2704 77.3954C60.8951 77.973 61.3479 78.5317 61.4976 78.9921C61.6304 79.4005 61.5043 79.7627 61.1629 79.9579V79.9579ZM64.882 67.8029C65.0017 67.8692 65.3506 67.6044 65.2911 67.4942C64.7778 67.1369 64.1446 66.6619 63.5729 66.2196C62.9992 65.7755 62.5018 65.3639 62.2414 65.1302C61.639 65.43 60.3658 65.8208 59.3852 66.3872C58.3354 66.9939 57.8035 67.6815 57.6446 68.4335C57.4837 69.1944 57.7276 70.0251 58.2992 70.8504C58.8729 71.6788 59.7642 72.5007 60.8505 73.2497C62.9624 74.7056 64.9643 75.5537 66.7937 75.8431C68.6163 76.1313 70.283 75.8529 71.6806 75.0535C72.5961 74.5301 72.8781 74.026 73.1013 73.6511C73.079 73.2011 72.0226 71.8118 71.3905 71.1901C71.1524 71.1019 70.7359 71.0886 70.6021 71.1194C71.0705 71.7899 71.4851 72.5359 71.5987 73.0115C71.7378 73.5942 71.3456 73.9152 70.9813 74.1229C69.9696 74.7 68.564 74.617 67.0837 74.1495C65.6035 73.682 64.0435 72.8411 62.725 71.931C60.964 70.7154 59.9103 69.7052 59.4595 68.9011C59.0105 68.1 59.1839 67.4888 59.8539 67.1017C60.3516 66.8141 60.9622 66.5826 61.8249 66.6033C62.7994 66.6266 63.6252 67.1061 64.882 67.8029H64.882ZM80.0038 69.0907C79.4683 69.2716 79.2531 69.3741 78.9327 69.4083C78.5095 69.4534 78.1003 69.2131 77.7204 68.9629C77.0889 68.5472 75.557 67.4924 73.8524 66.299C72.143 65.1021 70.2467 63.7691 68.869 62.8104C68.7891 62.7548 68.7573 62.7 68.7573 62.6736C68.9209 62.5545 69.7029 62.0806 70.1035 61.9239C70.3797 61.816 70.6343 61.8078 71.1896 62.0606C71.7873 62.3325 72.4094 62.6692 73.1682 63.1234C73.2649 63.1411 73.6219 62.9118 73.5996 62.828C72.9971 62.3737 72.403 61.896 71.8665 61.4564C71.3321 61.0185 70.8664 60.605 70.5276 60.2876C70.4943 60.2564 70.3267 60.2037 70.2895 60.2259C70.1185 60.5213 69.7828 60.8153 69.0995 61.2093C67.6111 62.0678 66.1297 62.9261 64.644 63.785C64.3446 63.9581 63.8554 64.1951 63.2382 64.2834C63.1787 64.2919 63.1995 64.4 63.2382 64.4289C63.6607 64.744 64.2385 65.2101 64.8077 65.6594C65.3839 66.1141 65.9308 66.568 66.273 66.8767C66.4514 66.9473 66.9573 66.8062 66.9499 66.7355C66.4514 66.2063 66.0495 65.7214 65.7522 65.3242C65.4026 64.857 65.43 64.6564 65.6705 64.4819C65.9285 64.2947 66.61 63.8961 66.8829 63.7806C66.9225 63.7638 67.0613 63.8295 67.0987 63.8556C68.6082 64.9099 70.2651 66.0641 71.7773 67.1192C73.2923 68.1765 74.6765 69.1404 75.6228 69.8405C76.4468 70.4501 76.5384 70.6591 76.3443 70.9298C76.2405 71.0745 75.9947 71.3135 75.7343 71.5297C75.7492 71.6178 76.2328 71.9575 76.3964 71.9884C76.8054 71.7546 77.402 71.3379 78.5461 70.6873C79.4027 70.2001 80.1304 69.8581 80.6361 69.5626C80.6065 69.4832 80.1304 69.1128 80.0038 69.0907H80.0038ZM82.3395 67.7588C82.3469 67.8471 82.9048 68.1955 83.0015 68.213C83.3065 68.0411 83.8562 67.6515 84.8164 67.1016C85.8123 66.5314 86.319 66.321 86.795 66.0431C86.795 65.9461 86.3264 65.5977 86.1924 65.5536C85.7908 65.6771 85.5225 65.7316 85.2553 65.7654C84.8607 65.8151 84.5695 65.6615 83.9387 65.2317C83.7215 65.0839 83.5932 64.913 83.5222 64.7773C83.422 64.5859 82.8238 63.3567 82.2056 62.0695C81.5892 60.7856 80.9577 59.4398 80.7402 59.0571C80.7197 59.0209 80.7711 58.9899 80.8294 59.0307C81.4626 59.4748 82.8264 60.4418 84.1544 61.3815C85.4817 62.3205 86.7522 63.2357 87.1966 63.5646C87.8008 64.0118 87.9491 64.2101 87.814 64.3981C87.711 64.5413 87.5984 64.676 87.3826 64.87C87.3603 64.9583 87.8809 65.3243 88.0372 65.3331C88.2826 65.1963 88.8126 64.8246 89.8818 64.2129C90.9473 63.6031 91.4661 63.4013 91.8231 63.1984C91.838 63.1148 91.3323 62.7045 91.2057 62.6825C90.7373 62.8457 90.4252 62.9322 90.1495 62.9648C89.8301 63.0027 89.4428 62.8018 88.9074 62.4355C88.476 62.1403 87.7546 61.6502 87.0033 61.1169C86.2449 60.5786 85.4405 60.0063 84.8015 59.5555C83.5961 58.7053 82.9099 58.2267 82.3543 57.8355C81.8017 57.4462 81.4039 57.1319 80.7402 56.6447C80.1545 56.2147 80.0607 56.0582 80.1601 55.8332C80.2245 55.6873 80.3982 55.52 80.5989 55.3348C80.5841 55.2465 80.056 54.8717 79.9445 54.8584C79.4832 55.1274 79.177 55.3771 78.1815 55.9522C77.1466 56.55 76.6641 56.7549 76.2774 56.9842C76.2551 57.0681 76.7236 57.4209 76.9244 57.4562C77.2591 57.3107 77.4533 57.2561 77.7427 57.2313C78.0185 57.2077 78.4011 57.3448 78.7245 57.562C78.8475 57.6445 78.9696 57.739 79.089 57.8266C79.1257 57.8535 79.3033 58.0413 79.3345 58.1001C79.6849 58.7602 80.3379 60.0455 80.9262 61.2623C81.5129 62.4754 82.0419 63.6087 82.213 63.9174C82.1907 63.9349 82.1854 63.9919 82.1015 63.9349C81.5677 63.5727 80.2505 62.6365 78.9403 61.7166C77.625 60.7932 76.3248 59.8737 75.8683 59.5335C75.2834 59.0976 75.0812 58.9024 75.1914 58.6778C75.2534 58.5515 75.4295 58.3691 75.5931 58.228C75.5782 58.1398 75.1095 57.7869 74.9459 57.7561C74.6781 57.9104 74.1878 58.2692 73.1756 58.8542C72.1351 59.4554 71.6955 59.6348 71.2045 59.9172C71.2268 59.9788 71.7326 60.3626 71.8665 60.3803C72.2681 60.2215 72.446 60.1375 72.7591 60.0891C73.1005 60.0363 73.4761 60.2172 73.9864 60.5478C74.2793 60.7374 74.94 61.1943 75.7715 61.7783C76.5911 62.3539 77.5853 63.0503 78.5238 63.7101C79.3851 64.3159 80.1876 64.891 80.8147 65.3331C81.4446 65.7772 81.8867 66.0951 82.027 66.2019C82.8087 66.7962 83.0099 67.0118 82.771 67.2869C82.6305 67.4486 82.4808 67.6 82.3396 67.7588L82.3395 67.7588Z" fill="#455A64"/>
<path d="M119.737 52.684L35.0605 101.595L33.8848 100.918L118.562 52.0112L119.737 52.684Z" fill="#5979C4"/>
<path d="M117.867 51.6161L33.1906 100.523L32.7134 100.241L117.39 51.334L117.867 51.6161Z" fill="#5979C4"/>
<path d="M12.6514 88.6954L97.3282 39.7886L98.504 40.4657L13.8271 89.3725L12.6514 88.6954Z" fill="#5979C4"/>
<path d="M14.5215 89.7677L99.1983 40.8608L99.6799 41.143L15.0031 90.0498L14.5215 89.7677Z" fill="#5979C4"/>
<path d="M102.556 42.792L84.334 53.2348L95.9355 59.9363L114.175 49.4848L102.556 42.792Z" fill="#E0E0E0"/>
<path d="M88.3213 53.5604L103.003 45.1445" stroke="white" stroke-width="0.97" stroke-miterlimit="10" stroke-linecap="round"/>
<path d="M90.0264 54.5502L104.708 46.1343" stroke="white" stroke-width="0.97" stroke-miterlimit="10" stroke-linecap="round"/>
<path d="M100.352 50.6002L106.413 47.1279" stroke="white" stroke-width="0.97" stroke-miterlimit="10" stroke-linecap="round"/>
<path d="M93.4365 56.5292L108.118 48.1177" stroke="white" stroke-width="0.97" stroke-miterlimit="10" stroke-linecap="round"/>
<path d="M95.1416 57.519L109.823 49.1074" stroke="white" stroke-width="0.97" stroke-miterlimit="10" stroke-linecap="round"/>
<path d="M84.473 84.8716L45.3039 107.493L39.1431 103.939L78.3121 81.3125L84.473 84.8716Z" fill="#5979C4"/>
<path opacity="0.8" d="M84.473 84.8716L45.3039 107.493L39.1431 103.939L78.3121 81.3125L84.473 84.8716Z" fill="white"/>
<g opacity="0.8">
<path d="M49.0782 110.098C48.9264 110.098 48.7832 110.019 48.7008 109.881C48.5793 109.672 48.653 109.407 48.8613 109.286L88.0303 86.6642C88.2386 86.5426 88.5033 86.6164 88.6247 86.8248C88.7462 87.0331 88.6725 87.2979 88.4642 87.4194L49.2951 110.041C49.2257 110.08 49.152 110.098 49.0782 110.098Z" fill="#E0E0E0"/>
</g>
<g opacity="0.8">
<path d="M52.3497 111.998C52.1979 111.998 52.0547 111.92 51.9722 111.781C51.8508 111.573 51.9245 111.308 52.1328 111.187L91.3018 88.565C91.5101 88.4435 91.7747 88.5173 91.8962 88.7256C92.0177 88.934 91.944 89.1987 91.7357 89.3203L52.5666 111.942C52.4972 111.981 52.4235 111.998 52.3497 111.998Z" fill="#E0E0E0"/>
</g>
<g opacity="0.8">
<path d="M55.6207 113.899C55.4688 113.899 55.3257 113.821 55.2432 113.682C55.1218 113.474 55.1955 113.209 55.4038 113.088L94.5728 90.4659C94.7811 90.3444 95.0457 90.4182 95.1672 90.6265C95.2887 90.8348 95.2149 91.0996 95.0067 91.2211L55.8376 113.843C55.7682 113.882 55.6945 113.899 55.6207 113.899Z" fill="#E0E0E0"/>
</g>
<g opacity="0.8">
<path d="M58.8922 115.796C58.7403 115.796 58.5972 115.718 58.5147 115.579C58.3932 115.371 58.467 115.106 58.6753 114.985L97.8443 92.3629C98.0526 92.2414 98.3172 92.3151 98.4387 92.5235C98.5602 92.7318 98.4864 92.9966 98.2782 93.1181L59.1091 115.74C59.0397 115.779 58.9659 115.796 58.8922 115.796Z" fill="#E0E0E0"/>
</g>
<g opacity="0.8">
<path d="M62.1637 117.697C62.0118 117.697 61.8686 117.619 61.7862 117.48C61.6647 117.272 61.7385 117.007 61.9467 116.886L101.116 94.2638C101.324 94.1422 101.589 94.216 101.71 94.4244C101.832 94.6327 101.758 94.8975 101.55 95.019L62.3806 117.641C62.3112 117.68 62.2374 117.697 62.1637 117.697Z" fill="#E0E0E0"/>
</g>
<g opacity="0.8">
<path d="M65.4347 119.599C65.2828 119.599 65.1396 119.52 65.0572 119.382C64.9357 119.173 65.0095 118.908 65.2177 118.787L104.387 96.1651C104.595 96.0436 104.86 96.1174 104.981 96.3257C105.103 96.5341 105.029 96.7988 104.821 96.9204L65.6516 119.542C65.5822 119.581 65.5084 119.599 65.4347 119.599Z" fill="#E0E0E0"/>
</g>
<g opacity="0.8">
<path d="M68.7061 121.5C68.5543 121.5 68.4111 121.422 68.3287 121.283C68.2072 121.074 68.281 120.81 68.4892 120.688L89.063 108.804C89.2712 108.683 89.5359 108.757 89.6573 108.965C89.7788 109.173 89.7051 109.438 89.4968 109.56L68.9231 121.443C68.8537 121.482 68.7799 121.5 68.7061 121.5Z" fill="#E0E0E0"/>
</g>
<g opacity="0.8">
<path d="M71.982 123.401C71.8302 123.401 71.687 123.323 71.6046 123.184C71.4831 122.975 71.5568 122.711 71.7651 122.589L110.934 99.9674C111.142 99.8459 111.407 99.9196 111.529 100.128C111.65 100.336 111.576 100.601 111.368 100.723L72.199 123.344C72.1295 123.383 72.0558 123.401 71.982 123.401Z" fill="#E0E0E0"/>
</g>
<g opacity="0.8">
<path d="M75.253 125.302C75.1012 125.302 74.958 125.224 74.8756 125.085C74.7541 124.876 74.8278 124.612 75.0361 124.49L114.205 101.868C114.413 101.747 114.678 101.821 114.8 102.029C114.921 102.237 114.847 102.502 114.639 102.623L75.47 125.245C75.4005 125.284 75.3268 125.302 75.253 125.302Z" fill="#E0E0E0"/>
</g>
<g opacity="0.8">
<path d="M78.5245 127.203C78.3727 127.203 78.2295 127.124 78.147 126.986C78.0256 126.777 78.0993 126.512 78.3076 126.391L117.477 103.769C117.685 103.648 117.95 103.721 118.071 103.93C118.193 104.138 118.119 104.403 117.91 104.524L78.7414 127.146C78.672 127.185 78.5983 127.203 78.5245 127.203Z" fill="#E0E0E0"/>
</g>
<g opacity="0.8">
<path d="M81.796 129.104C81.6441 129.104 81.501 129.026 81.4185 128.887C81.2971 128.679 81.3708 128.414 81.5791 128.292L120.748 105.671C120.956 105.549 121.221 105.623 121.343 105.831C121.464 106.039 121.39 106.304 121.182 106.426L82.0129 129.048C81.9435 129.087 81.8697 129.104 81.796 129.104Z" fill="#E0E0E0"/>
</g>
<g opacity="0.8">
<path d="M85.067 131.005C84.9151 131.005 84.772 130.927 84.6895 130.788C84.568 130.58 84.6418 130.315 84.8501 130.193L116.145 112.116C116.353 111.994 116.617 112.068 116.739 112.276C116.86 112.485 116.787 112.75 116.578 112.871L85.2839 130.948C85.2145 130.988 85.1407 131.005 85.067 131.005Z" fill="#E0E0E0"/>
</g>
<g opacity="0.8">
<path d="M87.9781 133.119C87.8263 133.119 87.6831 133.04 87.6007 132.902C87.4792 132.693 87.5529 132.428 87.7612 132.307L126.93 109.685C127.139 109.564 127.403 109.637 127.525 109.846C127.646 110.054 127.572 110.319 127.364 110.44L88.195 133.062C88.1256 133.101 88.0519 133.119 87.9781 133.119Z" fill="#E0E0E0"/>
</g>
<g opacity="0.8">
<path d="M90.3473 135.554C90.1954 135.554 90.0522 135.476 89.9698 135.337C89.8483 135.128 89.9221 134.864 90.1303 134.742L129.299 112.12C129.508 111.999 129.772 112.072 129.894 112.281C130.015 112.489 129.942 112.754 129.733 112.875L90.5642 135.497C90.4948 135.536 90.421 135.554 90.3473 135.554Z" fill="#E0E0E0"/>
</g>
<g opacity="0.8">
<path d="M92.1607 138.266C92.0089 138.266 91.8657 138.188 91.7833 138.049C91.6618 137.841 91.7356 137.576 91.9438 137.454L131.113 114.833C131.321 114.711 131.586 114.785 131.707 114.993C131.829 115.202 131.755 115.466 131.547 115.588L92.3777 138.21C92.3082 138.249 92.2345 138.266 92.1607 138.266Z" fill="#E0E0E0"/>
</g>
<g opacity="0.8">
<path d="M93.4708 141.322C93.3189 141.322 93.1758 141.244 93.0933 141.105C92.9719 140.896 93.0456 140.632 93.2539 140.51L132.423 117.888C132.631 117.767 132.896 117.841 133.017 118.049C133.139 118.257 133.065 118.522 132.857 118.643L93.6877 141.265C93.6183 141.304 93.5446 141.322 93.4708 141.322Z" fill="#E0E0E0"/>
</g>
<g opacity="0.8">
<path d="M93.879 144.855C93.7272 144.855 93.584 144.777 93.5015 144.638C93.3801 144.43 93.4538 144.165 93.6621 144.043L132.831 121.421C133.039 121.3 133.304 121.374 133.426 121.582C133.547 121.79 133.473 122.055 133.265 122.177L94.0959 144.798C94.0265 144.838 93.9528 144.855 93.879 144.855Z" fill="#E0E0E0"/>
</g>
<g opacity="0.8">
<path d="M84.6334 77.6015C84.4815 77.6015 84.3384 77.5234 84.2559 77.3845C84.1345 77.1761 84.2082 76.9114 84.4165 76.7899L123.586 54.1681C123.794 54.0465 124.058 54.1203 124.18 54.3287C124.301 54.537 124.228 54.8018 124.019 54.9233L84.8503 77.5451C84.7809 77.5841 84.7072 77.6015 84.6334 77.6015Z" fill="#E0E0E0"/>
</g>
<g opacity="0.8">
<path d="M87.9049 79.5024C87.753 79.5024 87.6099 79.4243 87.5274 79.2854C87.4059 79.077 87.4797 78.8123 87.6879 78.6907L126.857 56.0689C127.065 55.9474 127.33 56.0212 127.451 56.2295C127.573 56.4379 127.499 56.7026 127.291 56.8242L88.1218 79.446C88.0524 79.485 87.9786 79.5024 87.9049 79.5024Z" fill="#E0E0E0"/>
</g>
<g opacity="0.8">
<path d="M91.1759 81.4037C91.024 81.4037 90.8808 81.3256 90.7984 81.1867C90.6769 80.9784 90.7507 80.7136 90.9589 80.5921L130.128 57.9703C130.336 57.8488 130.601 57.9226 130.722 58.1309C130.844 58.3392 130.77 58.604 130.562 58.7255L91.3928 81.3473C91.3234 81.3864 91.2496 81.4037 91.1759 81.4037Z" fill="#E0E0E0"/>
</g>
<g opacity="0.8">
<path d="M94.4518 83.3046C94.2999 83.3046 94.1567 83.2265 94.0743 83.0876C93.9528 82.8793 94.0266 82.6145 94.2348 82.493L133.404 59.8712C133.612 59.7497 133.877 59.8234 133.998 60.0318C134.12 60.2401 134.046 60.5049 133.838 60.6264L94.6687 83.2482C94.5993 83.2873 94.5255 83.3046 94.4518 83.3046Z" fill="#E0E0E0"/>
</g>
<g opacity="0.8">
<path d="M97.7228 85.206C97.5709 85.206 97.4277 85.1279 97.3453 84.989C97.2238 84.7806 97.2976 84.5159 97.5058 84.3944L136.675 61.7726C136.883 61.651 137.148 61.7248 137.269 61.9332C137.391 62.1415 137.317 62.4062 137.109 62.5278L97.9397 85.1496C97.8703 85.1886 97.7965 85.206 97.7228 85.206Z" fill="#E0E0E0"/>
</g>
<g opacity="0.8">
<path d="M100.994 87.1068C100.842 87.1068 100.699 87.0287 100.617 86.8898C100.495 86.6815 100.569 86.4167 100.777 86.2952L126.952 71.1778C127.16 71.0563 127.425 71.1301 127.547 71.3384C127.668 71.5468 127.594 71.8115 127.386 71.933L101.211 87.0504C101.142 87.0895 101.068 87.1068 100.994 87.1068Z" fill="#E0E0E0"/>
</g>
<path opacity="0.8" d="M167.045 79.9668L133.352 99.4158" stroke="#E0E0E0" stroke-linecap="round" stroke-linejoin="round"/>
<path opacity="0.8" d="M168.972 81.3125L152.446 90.8482" stroke="#E0E0E0" stroke-linecap="round" stroke-linejoin="round"/>
<g opacity="0.8">
<path d="M133.352 106.326C133.2 106.326 133.057 106.247 132.974 106.109C132.853 105.9 132.926 105.636 133.135 105.514L172.304 82.8922C172.512 82.7707 172.777 82.8444 172.898 83.0528C173.02 83.2611 172.946 83.5259 172.738 83.6474L133.569 106.269C133.499 106.308 133.425 106.326 133.352 106.326Z" fill="#E0E0E0"/>
</g>
<g opacity="0.8">
<path d="M135.721 108.761C135.569 108.761 135.426 108.683 135.343 108.544C135.222 108.335 135.296 108.071 135.504 107.949L174.673 85.3272C174.881 85.2057 175.146 85.2795 175.267 85.4878C175.389 85.6962 175.315 85.9609 175.107 86.0825L135.938 108.704C135.868 108.743 135.795 108.761 135.721 108.761Z" fill="#E0E0E0"/>
</g>
<g opacity="0.8">
<path d="M137.534 111.474C137.382 111.474 137.239 111.395 137.157 111.257C137.035 111.048 137.109 110.783 137.317 110.662L176.486 88.0401C176.695 87.9186 176.959 87.9924 177.081 88.2007C177.202 88.4091 177.129 88.6738 176.92 88.7954L137.751 111.417C137.682 111.456 137.608 111.474 137.534 111.474Z" fill="#E0E0E0"/>
</g>
<g opacity="0.8">
<path d="M138.844 114.534C138.692 114.534 138.549 114.455 138.467 114.317C138.345 114.108 138.419 113.844 138.627 113.722L177.796 91.1002C178.005 90.9787 178.269 91.0524 178.391 91.2608C178.512 91.4691 178.439 91.7339 178.23 91.8554L139.061 114.477C138.992 114.516 138.918 114.534 138.844 114.534Z" fill="#E0E0E0"/>
</g>
<g opacity="0.8">
<path d="M139.252 118.066C139.1 118.066 138.957 117.988 138.875 117.849C138.753 117.641 138.827 117.376 139.035 117.255L178.204 94.6329C178.412 94.5114 178.677 94.5852 178.799 94.7935C178.92 95.0018 178.846 95.2666 178.638 95.3881L139.469 118.01C139.4 118.049 139.326 118.066 139.252 118.066Z" fill="#E0E0E0"/>
</g>
<path d="M136.437 119.373C136.437 114.867 132.58 108.995 127.825 106.252L80.6812 79.0728" stroke="#455A64" stroke-miterlimit="10"/>
<path d="M56.4107 52.4411L51.43 49.5635C51.3302 49.5201 51.2521 49.455 51.1957 49.3551L50.2803 47.7535L53.2392 46.0435L53.1481 46.3039L56.4107 52.4368V52.4411Z" fill="#5979C4"/>
<path opacity="0.1" d="M56.4107 52.4411L51.43 49.5635C51.3302 49.5201 51.2521 49.455 51.1957 49.3551L50.2803 47.7535L53.2392 46.0435L53.1481 46.3039L56.4107 52.4368V52.4411Z" fill="black"/>
<path d="M52.7876 46.2907L56.2368 52.263C56.4581 52.645 57.0221 52.5886 57.1696 52.1762L60.814 41.6553L52.7919 46.2907H52.7876Z" fill="#5979C4"/>
<path opacity="0.2" d="M52.7876 46.2907L56.2368 52.263C56.4581 52.645 57.0221 52.5886 57.1696 52.1762L60.814 41.6553L52.7919 46.2907H52.7876Z" fill="white"/>
<path d="M69.1661 11.325C69.1661 9.7885 68.0858 7.91782 66.7582 7.14958L66.6497 7.08448C65.3178 6.31624 63.1615 6.31624 61.8339 7.08448L29.0339 26.0474C27.702 26.8156 26.626 28.6863 26.626 30.2228V52.9617C26.626 54.4982 27.7063 56.3689 29.0339 57.1371L29.1424 57.2066C30.4743 57.9748 32.6306 57.9748 33.9582 57.2066L66.9795 38.0788C69.1445 36.8461 69.1618 35.6048 69.1618 34.0683V11.325H69.1661Z" fill="#5979C4"/>
<path opacity="0.2" d="M69.1661 11.325C69.1661 9.7885 68.0858 7.91782 66.7582 7.14958L66.6497 7.08448C65.3178 6.31624 63.1615 6.31624 61.8339 7.08448L29.0339 26.0474C27.702 26.8156 26.626 28.6863 26.626 30.2228V52.9617C26.626 54.4982 27.7063 56.3689 29.0339 57.1371L29.1424 57.2066C30.4743 57.9748 32.6306 57.9748 33.9582 57.2066L66.9795 38.0788C69.1445 36.8461 69.1618 35.6048 69.1618 34.0683V11.325H69.1661Z" fill="white"/>
<path d="M26.626 52.9618C26.626 54.4983 27.7063 56.369 29.0339 57.1372L29.1424 57.2067C30.3442 57.9011 32.2141 57.9706 33.5504 57.4107C32.418 57.8404 31.5547 57.1936 31.5547 55.8178V33.0788C31.5547 32.3105 31.8236 31.4598 32.2618 30.7046L27.3332 27.853C26.8993 28.6082 26.626 29.4589 26.626 30.2272V52.9662V52.9618Z" fill="#5979C4"/>
<path opacity="0.4" d="M69.088 10.6394C68.806 9.61505 67.8732 9.28953 66.7625 9.9319L33.9625 28.8991C33.2987 29.2811 32.6913 29.9321 32.2661 30.696L27.3418 27.8488C27.78 27.0849 28.3744 26.4338 29.0382 26.0519L61.8251 7.08464C63.1614 6.32074 65.3221 6.32074 66.6454 7.08464L66.7625 7.15409C67.8992 7.80514 68.8537 9.26783 69.088 10.6394Z" fill="white"/>
<path d="M35.0256 23.2307L32.6307 21.8418L32.609 21.8287C31.5634 21.2428 30.1317 21.3296 28.5481 22.2454C25.3549 24.0901 22.769 28.5736 22.769 32.2629C22.769 34.1032 23.4155 35.3966 24.4568 36.0043H24.4611L26.6434 37.2586L27.1554 36.4036C27.6847 36.282 28.2314 36.0954 28.8127 35.7569C32.006 33.9122 34.5918 29.4287 34.5918 25.7394C34.5918 25.1925 34.518 24.7107 34.4096 24.2637L35.03 23.2307H35.0256Z" fill="#FF8409"/>
<path d="M22.9816 30.3228C22.8384 30.9825 22.7646 31.6335 22.7646 32.2672C22.7646 34.1075 23.4111 35.4009 24.4524 36.0086H24.4567L26.639 37.2629L27.151 36.4079C27.6803 36.2864 28.227 36.0997 28.8083 35.7612C29.355 35.4443 29.8843 35.0494 30.3833 34.598L22.9816 30.3228Z" fill="#DD7113"/>
<path d="M30.8215 23.5606C27.6283 25.4052 25.0425 29.8888 25.0425 33.5781C25.0425 37.2674 27.6283 38.7604 30.8215 36.9158C34.0147 35.0711 36.6006 30.5876 36.6006 26.8983C36.6006 23.209 34.0147 21.716 30.8215 23.5606Z" fill="#FFAC06"/>
<path d="M33.1035 28.6951V27.2802C33.1035 25.6656 32.123 24.919 30.9082 25.6222C29.6977 26.321 28.7128 28.2003 28.7128 29.8149V31.0823C28.7128 31.8766 28.4351 32.7837 27.9752 33.5563C27.9752 33.5563 27.9752 33.5563 27.9752 33.5606C27.8668 33.7603 27.7974 33.9947 27.7974 34.2073C27.7974 34.6153 28.0447 34.802 28.3484 34.624L33.4723 31.6639C33.776 31.486 34.0233 31.0129 34.0233 30.6092C34.0233 30.4052 33.9625 30.2576 33.8628 30.1795C33.8628 30.1795 33.8584 30.1795 33.8541 30.1752C33.4029 29.9712 33.1035 29.459 33.1035 28.6951Z" fill="white"/>
<path d="M31.9626 32.9746C31.9626 33.7515 31.4897 34.6543 30.9083 34.9885C30.3269 35.3227 29.854 34.9668 29.854 34.1899L31.9626 32.9746Z" fill="white"/>
<path d="M35.1777 36.7593L65.2834 19.3198" stroke="#FAFAFA" stroke-width="2" stroke-miterlimit="10" stroke-linecap="round"/>
<path d="M35.1777 42.5102L65.2834 25.0708" stroke="#FAFAFA" stroke-width="2" stroke-miterlimit="10" stroke-linecap="round"/>
<path d="M35.1777 48.2612L65.2834 30.8218" stroke="#FAFAFA" stroke-width="2" stroke-miterlimit="10" stroke-linecap="round"/>
</svg>
