<svg width="170" height="87" viewBox="0 0 170 87" fill="none" xmlns="http://www.w3.org/2000/svg">
<path d="M109.818 6.84327L107.261 4.28613L59.1816 52.3654L61.7388 54.9226L65.3557 51.3057H102.584C103.543 51.3042 104.462 50.9227 105.14 50.2447C105.818 49.5667 106.2 48.6476 106.201 47.6888V10.4602L109.818 6.84327ZM102.584 47.6888H68.9726L83.0658 33.5956L87.368 37.8979C88.0463 38.5759 88.9661 38.9568 89.9252 38.9568C90.8843 38.9568 91.8041 38.5759 92.4823 37.8979L95.3505 35.0297L102.584 42.258V47.6888ZM102.584 37.1419L97.9077 32.4653C97.2294 31.7872 96.3096 31.4063 95.3505 31.4063C94.3914 31.4063 93.4716 31.7872 92.7934 32.4653L89.9252 35.3335L85.6265 31.0348L102.584 14.077V37.1419ZM66.4154 40.455V35.0297L75.4576 25.9929L77.9406 28.4777L80.5014 25.9169L78.0148 23.4303C77.3365 22.7523 76.4167 22.3713 75.4576 22.3713C74.4986 22.3713 73.5788 22.7523 72.9005 23.4303L66.4154 29.9154V11.5199H95.3505V7.90302H66.4154C65.4565 7.90398 64.537 8.28535 63.8589 8.96344C63.1809 9.64153 62.7995 10.5609 62.7985 11.5199V40.455H66.4154Z" fill="#90A4AF"/>
<path d="M10.4895 79.3799V80.7598H3.56374V79.3799H10.4895ZM3.82741 73.8779V86.6748H2.13112V73.8779H3.82741ZM11.9661 73.8779V86.6748H10.2786V73.8779H11.9661ZM22.9126 85.2949V86.6748H16.1362V85.2949H22.9126ZM16.479 73.8779V86.6748H14.7827V73.8779H16.479ZM22.0161 79.3799V80.7598H16.1362V79.3799H22.0161ZM22.8247 73.8779V75.2666H16.1362V73.8779H22.8247ZM29.7195 73.8779V86.6748H28.0496V73.8779H29.7195ZM33.8328 73.8779V75.2666H23.9451V73.8779H33.8328ZM41.2151 83.7393L47.5169 73.8779H49.2131V86.6748H47.5169V76.8047L41.2151 86.6748H39.5276V73.8779H41.2151V83.7393ZM56.02 80.5312H54.4995V79.4502H55.9585C56.603 79.4502 57.1245 79.3594 57.523 79.1777C57.9214 78.9961 58.2114 78.7441 58.3931 78.4219C58.5747 78.0996 58.6655 77.7275 58.6655 77.3057C58.6655 76.9014 58.5659 76.5322 58.3667 76.1982C58.1675 75.8584 57.8599 75.5889 57.4439 75.3896C57.0278 75.1846 56.4917 75.082 55.8355 75.082C55.3433 75.082 54.898 75.1758 54.4995 75.3633C54.1011 75.5449 53.7847 75.7998 53.5503 76.1279C53.3159 76.4502 53.1987 76.8223 53.1987 77.2441H51.5024C51.5024 76.6992 51.6167 76.21 51.8452 75.7764C52.0737 75.3369 52.3872 74.9648 52.7856 74.6602C53.1841 74.3496 53.644 74.1123 54.1655 73.9482C54.6929 73.7842 55.2495 73.7021 55.8355 73.7021C56.521 73.7021 57.1421 73.7812 57.6987 73.9395C58.2554 74.0918 58.7329 74.3203 59.1314 74.625C59.5298 74.9297 59.8345 75.3076 60.0454 75.7588C60.2564 76.21 60.3618 76.7344 60.3618 77.332C60.3618 77.7715 60.2593 78.1846 60.0542 78.5713C59.8491 78.958 59.5562 79.2979 59.1753 79.5908C58.7944 79.8838 58.3374 80.1152 57.8042 80.2852C57.271 80.4492 56.6763 80.5312 56.02 80.5312ZM54.4995 79.7842H56.02C56.7407 79.7842 57.3823 79.8574 57.9448 80.0039C58.5073 80.1504 58.9819 80.3643 59.3687 80.6455C59.7554 80.9268 60.0483 81.2754 60.2476 81.6914C60.4526 82.1016 60.5552 82.5732 60.5552 83.1064C60.5552 83.7041 60.438 84.2344 60.2036 84.6973C59.9751 85.1602 59.6499 85.5527 59.228 85.875C58.8062 86.1973 58.3052 86.4404 57.7251 86.6045C57.1509 86.7686 56.521 86.8506 55.8355 86.8506C55.2847 86.8506 54.7397 86.7803 54.2007 86.6396C53.6675 86.4932 53.1841 86.2705 52.7505 85.9717C52.3169 85.667 51.9683 85.2803 51.7046 84.8115C51.4468 84.3428 51.3179 83.7803 51.3179 83.124H53.0142C53.0142 83.5518 53.1314 83.9443 53.3657 84.3018C53.606 84.6592 53.937 84.9463 54.3589 85.1631C54.7808 85.374 55.273 85.4795 55.8355 85.4795C56.48 85.4795 57.0249 85.3799 57.4702 85.1807C57.9214 84.9756 58.2642 84.6973 58.4985 84.3457C58.7388 83.9883 58.8589 83.5869 58.8589 83.1416C58.8589 82.749 58.7944 82.4092 58.6655 82.1221C58.5425 81.8291 58.3579 81.5889 58.1118 81.4014C57.8716 81.2139 57.5698 81.0762 57.2065 80.9883C56.8491 80.8945 56.4331 80.8477 55.9585 80.8477H54.4995V79.7842ZM72.4421 79.8721V80.6807C72.4421 81.6416 72.322 82.5029 72.0818 83.2646C71.8416 84.0264 71.4959 84.6738 71.0447 85.207C70.5935 85.7402 70.0515 86.1475 69.4187 86.4287C68.7918 86.71 68.0886 86.8506 67.3093 86.8506C66.5535 86.8506 65.8591 86.71 65.2263 86.4287C64.5994 86.1475 64.0544 85.7402 63.5916 85.207C63.1345 84.6738 62.78 84.0264 62.5281 83.2646C62.2761 82.5029 62.1502 81.6416 62.1502 80.6807V79.8721C62.1502 78.9111 62.2732 78.0527 62.5193 77.2969C62.7712 76.5352 63.1257 75.8877 63.5828 75.3545C64.0398 74.8154 64.5818 74.4053 65.2087 74.124C65.8416 73.8428 66.5359 73.7021 67.2918 73.7021C68.071 73.7021 68.7742 73.8428 69.4011 74.124C70.0339 74.4053 70.5759 74.8154 71.0271 75.3545C71.4841 75.8877 71.8328 76.5352 72.073 77.2969C72.3191 78.0527 72.4421 78.9111 72.4421 79.8721ZM70.7634 80.6807V79.8545C70.7634 79.0928 70.6843 78.4189 70.5261 77.833C70.3738 77.2471 70.1482 76.7549 69.8494 76.3564C69.5505 75.958 69.1843 75.6562 68.7507 75.4512C68.323 75.2461 67.8367 75.1436 67.2918 75.1436C66.7644 75.1436 66.2869 75.2461 65.8591 75.4512C65.4373 75.6562 65.074 75.958 64.7693 76.3564C64.4705 76.7549 64.239 77.2471 64.075 77.833C63.9109 78.4189 63.8289 79.0928 63.8289 79.8545V80.6807C63.8289 81.4482 63.9109 82.1279 64.075 82.7197C64.239 83.3057 64.4734 83.8008 64.7781 84.2051C65.0886 84.6035 65.4548 84.9053 65.8767 85.1104C66.3044 85.3154 66.782 85.418 67.3093 85.418C67.8601 85.418 68.3494 85.3154 68.7771 85.1104C69.2048 84.9053 69.5652 84.6035 69.8582 84.2051C70.157 83.8008 70.3826 83.3057 70.5349 82.7197C70.6873 82.1279 70.7634 81.4482 70.7634 80.6807ZM82.5889 73.8779V75.2666H76.4189V86.6748H74.7314V73.8779H82.5889ZM76.0234 79.0898H79.5127C80.4502 79.0898 81.2412 79.248 81.8857 79.5645C82.5303 79.875 83.0195 80.3115 83.3535 80.874C83.6875 81.4365 83.8545 82.0957 83.8545 82.8516C83.8545 83.4141 83.7607 83.9297 83.5732 84.3984C83.3857 84.8613 83.1074 85.2656 82.7383 85.6113C82.3691 85.9512 81.915 86.2148 81.376 86.4023C80.8369 86.584 80.2158 86.6748 79.5127 86.6748H74.7314V73.8779H76.4277V85.2949H79.5127C80.1396 85.2949 80.6465 85.1807 81.0332 84.9521C81.4258 84.7178 81.7129 84.4131 81.8945 84.0381C82.0762 83.6631 82.167 83.2617 82.167 82.834C82.167 82.4062 82.0762 82.0137 81.8945 81.6562C81.7129 81.2988 81.4258 81.0146 81.0332 80.8037C80.6465 80.5869 80.1396 80.4785 79.5127 80.4785H76.0234V79.0898ZM90.6614 81.6562H87.2424V80.2764H90.6614C91.3235 80.2764 91.8596 80.1709 92.2698 79.96C92.6799 79.749 92.9788 79.4561 93.1663 79.0811C93.3596 78.7061 93.4563 78.2783 93.4563 77.7979C93.4563 77.3584 93.3596 76.9453 93.1663 76.5586C92.9788 76.1719 92.6799 75.8613 92.2698 75.627C91.8596 75.3867 91.3235 75.2666 90.6614 75.2666H87.6379V86.6748H85.9417V73.8779H90.6614C91.6282 73.8779 92.4456 74.0449 93.1135 74.3789C93.7815 74.7129 94.2883 75.1758 94.634 75.7676C94.9797 76.3535 95.1526 77.0244 95.1526 77.7803C95.1526 78.6006 94.9797 79.3008 94.634 79.8809C94.2883 80.4609 93.7815 80.9033 93.1135 81.208C92.4456 81.5068 91.6282 81.6562 90.6614 81.6562ZM100.624 75.0117L96.3872 86.6748H94.6558L99.5337 73.8779H100.65L100.624 75.0117ZM104.174 86.6748L99.9292 75.0117L99.9028 73.8779H101.019L105.915 86.6748H104.174ZM103.955 81.9375V83.3262H96.7651V81.9375H103.955ZM111.095 80.8301L106.525 73.8779H108.511L111.913 79.4238H114.321L114.049 80.8301H111.095ZM112.01 80.6982L108.292 86.6748H106.182L110.937 79.2393L112.01 80.6982ZM115.051 73.8779V86.6748H113.372V73.8779H115.051ZM121.836 73.8779L117.248 80.8301H114.383L114.119 79.4238H116.439L119.841 73.8779H121.836ZM120.06 86.6748L116.351 80.6982L117.432 79.2393L122.17 86.6748H120.06ZM131.71 85.2949V86.6748H124.934V85.2949H131.71ZM125.276 73.8779V86.6748H123.58V73.8779H125.276ZM130.813 79.3799V80.7598H124.934V79.3799H130.813ZM131.622 73.8779V75.2666H124.934V73.8779H131.622ZM141.971 79.3799V80.7598H135.045V79.3799H141.971ZM135.309 73.8779V86.6748H133.613V73.8779H135.309ZM143.447 73.8779V86.6748H141.76V73.8779H143.447ZM148.031 83.7393L154.333 73.8779H156.029V86.6748H154.333V76.8047L148.031 86.6748H146.343V73.8779H148.031V83.7393ZM166.017 81.6914H162.423L161.588 81.3486C160.662 81.0557 159.95 80.6074 159.452 80.0039C158.954 79.3945 158.705 78.6387 158.705 77.7363C158.705 76.9102 158.886 76.21 159.25 75.6357C159.619 75.0615 160.14 74.625 160.814 74.3262C161.494 74.0273 162.297 73.8779 163.222 73.8779H167.318V86.6748H165.622V75.2666H163.222C162.285 75.2666 161.579 75.4893 161.104 75.9346C160.635 76.3799 160.401 76.9805 160.401 77.7363C160.401 78.2285 160.504 78.668 160.709 79.0547C160.92 79.4414 161.23 79.7461 161.64 79.9688C162.051 80.1914 162.56 80.3027 163.17 80.3027H166.026L166.017 81.6914ZM163.135 80.8125L160.023 86.6748H158.221L161.421 80.8125H163.135Z" fill="#90A4AF"/>
</svg>
