<svg width="210" height="70" viewBox="0 0 210 70" fill="none" xmlns="http://www.w3.org/2000/svg">
<g clip-path="url(#clip0_4058_12352)">
<path d="M70.8795 42.0824C73.0149 42.0824 74.6216 42.5409 75.717 43.4595C76.8106 44.3781 77.3582 45.7285 77.3582 47.5123C77.3582 49.282 76.7691 50.6434 75.5908 51.6044C74.4178 52.5654 72.78 53.0427 70.6895 53.0427H62.3242V35.3665H75.9122V38.8022H66.3013V42.0808H70.883L70.8795 42.0824ZM70.5513 49.6086C72.4223 49.6086 73.357 48.8941 73.357 47.4636C73.357 46.7539 73.1531 46.2341 72.7437 45.8965C72.3377 45.5589 71.6708 45.3909 70.7431 45.3909H66.2995V49.6086H70.5496H70.5513ZM82.593 37.6904C84.528 35.9412 86.9329 35.0634 89.8025 35.0634C92.6756 35.0634 95.0805 35.9412 97.0258 37.6904C98.9729 39.4397 99.9455 41.6113 99.9455 44.2038C99.9455 46.7947 98.9729 48.9695 97.0258 50.7203C95.0805 52.4696 92.6756 53.3458 89.8025 53.3458C86.9346 53.3458 84.528 52.4696 82.5947 50.7203C80.6563 48.9695 79.6923 46.7947 79.6923 44.2038C79.6923 41.6113 80.6546 39.4397 82.593 37.6904ZM94.1786 40.1149C93.0211 39.0377 91.5647 38.4975 89.8025 38.4975C88.0437 38.4975 86.5873 39.0377 85.4263 40.1149C84.2688 41.1889 83.6918 42.5566 83.6918 44.2038C83.6918 45.8541 84.2688 47.2171 85.4263 48.2943C86.5873 49.3731 88.0437 49.9116 89.8025 49.9116C91.5647 49.9116 93.0211 49.3731 94.1786 48.2943C95.3362 47.2171 95.9166 45.8541 95.9166 44.2038C95.9166 42.555 95.3362 41.1889 94.1786 40.1149ZM106.835 35.3665H119.418V53.0427H115.446V38.8022H110.197L108.641 47.616C107.972 51.4332 106.169 53.3473 103.223 53.3473C102.61 53.3473 101.962 53.2845 101.278 53.1683V49.9116C101.649 49.9603 102.017 49.987 102.388 49.987C103.095 49.987 103.612 49.7939 103.947 49.406C104.28 49.0198 104.539 48.3022 104.724 47.2579L106.835 35.3665ZM131.95 42.0086C134.08 42.0086 135.708 42.4797 136.839 43.4218C137.973 44.364 138.536 45.7301 138.536 47.5123C138.536 49.282 137.949 50.6434 136.769 51.6044C135.596 52.5654 133.959 53.0427 131.867 53.0427H123.644V35.3665H127.617V42.0086H131.95ZM131.729 49.6086C133.6 49.6086 134.535 48.8941 134.535 47.4636C134.535 46.0818 133.624 45.3909 131.812 45.3909H127.616V49.6086H131.729ZM162.039 35.3665H166.013V53.0427H141.929V35.3665H145.899V49.6086H151.984V35.3665H155.956V49.6086H162.041L162.039 35.3665ZM172.306 37.6904C174.241 35.9412 176.646 35.0634 179.514 35.0634C182.387 35.0634 184.794 35.9412 186.739 37.6904C188.685 39.4397 189.659 41.6113 189.659 44.2038C189.659 46.7947 188.685 48.9695 186.739 50.7203C184.794 52.4696 182.387 53.3458 179.514 53.3458C176.646 53.3458 174.241 52.4696 172.306 50.7203C170.37 48.9695 169.401 46.7947 169.401 44.2038C169.401 41.6113 170.368 39.4397 172.306 37.6904ZM183.892 40.1149C182.735 39.0377 181.276 38.4975 179.514 38.4975C177.757 38.4975 176.299 39.0377 175.138 40.1149C173.982 41.1889 173.402 42.5566 173.402 44.2038C173.402 45.8541 173.982 47.2171 175.138 48.2943C176.299 49.3731 177.757 49.9116 179.514 49.9116C181.276 49.9116 182.735 49.3731 183.892 48.2943C185.048 47.2171 185.628 45.8541 185.628 44.2038C185.628 42.555 185.048 41.1889 183.892 40.1149ZM204.467 32.4254C203.556 33.1587 202.466 33.523 201.188 33.523C199.911 33.523 198.812 33.1587 197.893 32.4254C196.979 31.6937 196.519 30.7107 196.519 29.4843V28.8013H199.66V29.3823C199.66 29.8031 199.797 30.1454 200.073 30.4029C200.353 30.6652 200.725 30.7971 201.188 30.7971C201.652 30.7971 202.019 30.6652 202.298 30.4029C202.575 30.1454 202.716 29.8031 202.716 29.3823V28.8013H205.828V29.4843C205.828 30.7091 205.372 31.6937 204.467 32.4254ZM204.964 35.3665H209.523V53.0427H205.548V45.6469L205.911 40.6692L197.433 53.0427H192.878V35.3665H196.853V42.7655L196.49 47.74L204.964 35.3665ZM67.6696 66.6615H66.918V61.5268H63.2209V66.6615H62.4711V60.8735H67.6696V66.6615ZM71.3115 61.5252V63.3624H74.3763V64.0156H71.3115V66.0082H74.594V66.6615H70.5547V60.8735H74.594V61.5252H71.3115ZM82.282 60.8735V66.6615H81.5253V63.9968H77.8333V66.6615H77.0732V60.8735H77.8333V63.3435H81.5253V60.8735H82.282ZM84.9081 63.7675C84.9081 62.0559 86.3109 60.7825 88.182 60.7825C89.6176 60.7825 90.7665 61.5519 91.2019 62.717H90.3951C90.2057 62.3275 89.8936 61.9978 89.4981 61.7695C89.1027 61.5412 88.6417 61.4245 88.1733 61.4341C86.7376 61.4341 85.6717 62.4359 85.6717 63.7691C85.6717 65.0975 86.7376 66.0993 88.1733 66.0993C89.1926 66.0993 90.0115 65.5937 90.3951 64.8164H91.2019C90.7665 65.9815 89.6176 66.7525 88.182 66.7525C86.3109 66.7525 84.9081 65.4744 84.9081 63.7675ZM98.8502 60.8735V66.6615H98.0952V64.2386L98.1626 61.789L94.5673 66.6599H93.6396V60.872H94.3963V63.2933L94.3324 65.7413L97.9259 60.872H98.8519L98.8502 60.8735ZM102.171 63.7675C102.171 65.0975 103.275 66.0993 104.693 66.0993C106.11 66.0993 107.212 65.1053 107.212 63.7691C107.212 62.4296 106.11 61.4341 104.693 61.4341C103.273 61.4341 102.171 62.4344 102.171 63.7675ZM107.976 63.7675C107.976 65.4696 106.549 66.751 104.693 66.751C102.845 66.751 101.407 65.4696 101.407 63.7675C101.407 62.0654 102.843 60.7825 104.702 60.7825C106.549 60.7825 107.976 62.0622 107.976 63.7675ZM115.785 60.8735V66.6615H115.03V63.9968H111.338V66.6615H110.581V60.8735H111.338V63.3435H115.03V60.8735H115.785ZM123.873 60.8735V66.6615H123.118V63.9968H119.421V66.6615H118.672V60.8735H119.423V63.3435H123.118V60.8735H123.873ZM133.103 66.6615H132.351V60.8735H133.103V66.6615ZM130.715 64.9075C130.715 64.27 130.306 63.8256 129.333 63.8256H127.512V66.0082H129.303C130.276 66.0082 130.715 65.545 130.715 64.9075ZM131.479 64.9153C131.479 65.9596 130.739 66.6615 129.333 66.6615H126.755V60.8735H127.512V63.1818H129.357C130.777 63.1818 131.479 63.8758 131.479 64.9153ZM136.986 58.9484V58.8008H137.608V58.9217C137.608 59.3771 137.943 59.6597 138.444 59.6597C138.954 59.6597 139.288 59.3771 139.288 58.9217V58.8008H139.91V58.9484C139.91 59.7273 139.241 60.2046 138.444 60.2046C137.643 60.2046 136.986 59.7273 136.986 58.9484ZM141.055 60.8735V66.6615H140.298V64.2386L140.36 61.789L136.769 66.6599H135.843V60.8704H136.598V63.2933L136.535 65.7413L140.127 60.8704H141.055V60.8735ZM154.107 63.7078C154.107 62.7091 153.32 62.1784 152.309 62.1784H151.682V65.2373H152.309C153.32 65.2373 154.107 64.7096 154.107 63.7078ZM150.927 65.2373V62.1784H150.291C149.289 62.1784 148.494 62.7107 148.494 63.7078C148.494 64.7096 149.28 65.2373 150.291 65.2373H150.927ZM154.864 63.7078C154.864 65.0739 153.745 65.8905 152.307 65.8905H151.682V66.6599H150.927V65.8905H150.291C148.85 65.8905 147.734 65.0739 147.734 63.7078C147.734 62.3464 148.871 61.5252 150.291 61.5252H150.927V60.8735H151.682V61.5252H152.309C153.729 61.5252 154.864 62.3464 154.864 63.7078ZM157.963 63.7675C157.963 65.0975 159.066 66.0993 160.486 66.0993C161.901 66.0993 163.003 65.1053 163.003 63.7691C163.003 62.4296 161.901 61.4341 160.484 61.4341C159.066 61.4341 157.962 62.4359 157.962 63.7691L157.963 63.7675ZM163.768 63.7675C163.768 65.4696 162.34 66.751 160.486 66.751C158.639 66.751 157.198 65.4696 157.198 63.7675C157.198 62.0654 158.639 60.7825 160.493 60.7825C162.34 60.7825 163.767 62.0638 163.767 63.7691L163.768 63.7675ZM171.581 60.8735V66.6615H170.824V63.9968H167.134V66.6615H166.377V60.8735H167.134V63.3435H170.824V60.8735H171.581ZM175.736 66.0082H179.127V61.5252H176.717L176.111 64.8918C176.007 65.4272 175.898 65.7837 175.736 66.0082ZM180.793 66.0082V67.8768H180.029V66.6615H174.725V67.8753H173.974V66.0082H174.879C175.109 65.8559 175.235 65.5183 175.364 64.851L176.083 60.8735H179.882V66.0082H180.793Z" fill="black"/>
<path d="M37.5063 0.00732422H34.5036V37.6932H37.5063V0.00732422ZM31.501 40.46H0.477539V43.1922H31.501V40.46ZM33.8972 38.0088L10.5912 16.9204L8.47483 18.8518L31.7636 39.9245L33.8972 38.0088ZM34.5036 66.3769H37.5063V45.9637H34.5036V66.3769ZM31.805 43.7135L8.78754 64.6339L10.9091 66.5653L33.9318 45.6402L31.8067 43.7135H31.805ZM78.4187 1.3436L38.0868 38.001L40.2118 39.9292L80.0894 3.68641L80.5386 3.27186L78.4205 1.3436H78.4187ZM38.104 45.6606L44.4929 51.4376L46.6092 49.5093L40.2239 43.7308L38.104 45.6606Z" fill="#006955"/>
</g>
<defs>
<clipPath id="clip0_4058_12352">
<rect width="209.046" height="69.0908" fill="white" transform="translate(0.477539)"/>
</clipPath>
</defs>
</svg>
