<svg width="199" height="38" viewBox="0 0 199 38" fill="none" xmlns="http://www.w3.org/2000/svg">
<g clip-path="url(#clip0_4058_12375)">
<path d="M19.0264 12.2134H29.2577C34.1938 12.2134 37.2453 14.434 37.2453 18.2275C37.2453 20.8183 35.8991 22.2062 34.1041 23.409C36.1683 24.2417 38.2325 26.1847 38.2325 29.4231C38.2325 34.142 34.2836 36.8252 29.6166 36.8252H19.0264V12.2134ZM24.501 21.466H29.0782C30.9629 21.466 32.0399 20.5407 32.0399 18.9677C32.0399 17.4873 31.0527 16.5621 29.0782 16.5621H24.501V21.466ZM24.501 32.1064H29.3475C31.7706 32.1064 32.8476 30.9035 32.8476 29.1455C32.8476 27.3875 31.8604 26.0922 29.3475 26.0922H24.501V32.1064Z" fill="#2D40EC"/>
<path d="M53.0413 25.5366C45.7717 25.5366 40.4766 19.8925 40.4766 12.768C40.4766 5.64358 45.7717 -0.000488281 53.0413 -0.000488281C60.3111 -0.000488281 65.6062 5.64358 65.6062 12.768C65.6062 19.8 60.3111 25.5366 53.0413 25.5366ZM60.1315 12.6755C60.1315 7.95671 56.9006 5.18094 53.1311 5.18094C49.2719 5.18094 46.1308 7.95671 46.1308 12.6755C46.1308 17.3944 49.3617 20.1701 53.1311 20.1701C56.9006 20.2626 60.1315 17.3944 60.1315 12.6755Z" fill="#2D40EC"/>
<path d="M53.0417 27.2021C46.8491 27.2021 42.0924 31.2733 40.8359 36.9174H46.5798C47.6568 34.0491 50.1698 32.4761 53.0417 32.4761C55.9137 32.4761 58.4267 34.0491 59.5036 36.9174H65.2476C63.9911 31.3659 59.2345 27.2021 53.0417 27.2021Z" fill="#2D40EC"/>
<path d="M112.095 37.2871C105.723 37.2871 100.877 33.0309 99.7999 27.2018H98.0947V36.8245H92.5303V12.2126H98.0947V21.9279H99.7999C100.877 16.0987 105.723 11.75 112.095 11.75C119.365 11.75 124.66 17.3941 124.66 24.5186C124.66 31.6431 119.365 37.2871 112.095 37.2871ZM119.096 24.5186C119.096 19.7998 115.864 17.0239 112.095 17.0239C108.236 17.0239 105.095 19.7998 105.095 24.5186C105.095 29.2374 108.326 32.0132 112.095 32.0132C115.955 32.0132 119.096 29.2374 119.096 24.5186Z" fill="#2D40EC"/>
<path d="M174.472 36.8252H169.086V20.8183C168.997 21.0959 168.727 21.5585 168.548 22.0211C168.369 22.2987 168.279 22.5763 168.099 22.7613L159.394 36.8252H153.829V12.2134H159.215V28.1278C159.304 27.8502 159.574 27.3876 159.753 26.9249C159.932 26.6474 160.022 26.3698 160.202 26.1847L168.907 12.2134H174.472V36.8252Z" fill="#2D40EC"/>
<path d="M183.715 36.8252H177.791L183.356 26.6474C180.215 25.2595 178.15 23.1314 178.15 19.4303C178.15 14.8041 181.202 12.2134 186.946 12.2134H197.536V36.8252H191.972V27.11H189.01L183.715 36.8252ZM191.972 16.8396H186.586C184.433 16.8396 183.536 18.135 183.536 19.6154C183.536 21.1884 184.433 22.3912 186.586 22.3912H191.972V16.8396Z" fill="#2D40EC"/>
<path d="M148.265 37.0102L151.047 31.8289H147.546V12.2134H141.982V31.8289H133.546V12.2134H128.071V36.8252L148.265 37.0102Z" fill="#2D40EC"/>
<path d="M72.3373 12.2134L70.2732 30.2558C70.0937 31.4588 69.7346 31.7363 68.7474 31.7363C68.2089 31.7363 67.5806 31.7363 67.2217 31.7363V31.8289V37.0102C68.0294 37.0102 68.8372 37.0102 69.8244 37.0102C73.5041 37.0102 74.9401 35.0672 75.3888 31.5513L77.0042 17.0247H83.0174V36.8252H88.3126V12.2134H72.3373Z" fill="#2D40EC"/>
<path d="M3.05145 11.6587C1.97446 11.6587 0.98724 11.7512 0.0897541 12.0288V17.5803C0.98724 17.2102 1.97446 16.9326 3.05145 16.9326C6.1029 16.9326 8.79537 18.7832 9.7826 21.9291H2.33347V26.6478H9.69287C8.88513 29.9788 6.10292 31.9218 2.96172 31.9218C1.88473 31.9218 0.897486 31.7368 0 31.2742V36.8257C0.987235 37.0107 1.97448 37.1958 2.96172 37.1958C10.2314 37.1958 15.5265 31.5517 15.5265 24.4272C15.6163 17.3027 10.3211 11.6587 3.05145 11.6587Z" fill="#2D40EC"/>
</g>
<defs>
<clipPath id="clip0_4058_12375">
<rect width="198.091" height="37.4274" fill="white"/>
</clipPath>
</defs>
</svg>
