<svg width="220" height="80" viewBox="0 0 220 80" fill="none" xmlns="http://www.w3.org/2000/svg">
<g clip-path="url(#clip0_4058_9710)">
<path d="M67.0257 49.2634C67.0257 53.0232 64.1739 55.3011 60.6378 55.3011H59.4971V57.2378H56.3031V55.3011H55.2746C51.6244 55.3011 48.8867 53.0232 48.8867 49.2616C48.8867 45.5018 51.7385 43.224 55.2746 43.224H56.3031V41.5146H59.3812V43.224H60.5219C64.0599 43.224 67.0257 45.5018 67.0257 49.2634ZM56.1872 52.2236V46.2996H55.1606C53.3355 46.2996 51.9666 47.2112 51.9666 49.2634C51.9666 51.3139 53.3355 52.2236 55.1606 52.2236H56.1872ZM63.7177 49.2634C63.7177 47.2112 62.3488 46.2996 60.5237 46.2996H59.383V52.2254H60.5237C62.3488 52.2254 63.7177 51.202 63.7177 49.2634ZM72.9591 44.5903V47.6678H79.6893V50.7435H72.9591V54.1621H80.3737V57.2378H69.6511V41.5146H80.2614V44.5903H72.9591ZM99.313 54.1621V60.3153H96.1172V57.236H85.3928V60.3135H82.1988V54.1585H84.4802C84.8242 53.8192 85.0506 53.1351 85.2787 52.1099L86.9916 41.5146H97.0298V54.1621H99.313ZM87.9041 54.1621H93.8358V44.4748H89.6152L88.3604 52.3373C88.2463 53.1351 88.1323 53.7055 87.9041 54.1621ZM104.902 44.5903V47.6678H111.634V50.7435H104.902V54.1621H112.319V57.2378H101.708V41.5146H112.319V44.5903H104.902ZM127.034 46.7563C127.034 50.0594 124.752 52.1117 121.444 52.1117H118.022V57.2378H114.828V41.5146H121.444C124.866 41.5146 127.034 43.4514 127.034 46.7563ZM123.84 46.87C123.84 45.5018 123.043 44.5903 121.33 44.5903H118.022V49.1479H121.33C122.927 49.0342 123.84 48.2364 123.84 46.87ZM137.53 53.4781H131.144L129.775 57.2378H126.353L132.281 41.5146H136.388L142.321 57.2378H138.899L137.53 53.4781ZM136.389 50.4024L134.336 44.704L132.283 50.4024H136.389ZM159.777 54.1621V60.3153H156.582V57.236H144.718V41.5146H147.912V54.1621H154.186V41.5146H157.38V54.1621H159.777ZM175.521 41.5146V57.2378H172.327V50.6316L172.669 46.1859L165.825 57.2378H162.059V41.5146H165.253V48.1227L164.911 52.5665L171.757 41.5146H175.521ZM190.808 41.5146V57.2378H187.614V51.7687H185.561L181.681 57.2378H177.688L181.909 51.5413C179.856 50.8572 178.601 49.1479 178.601 46.6426C178.601 43.4514 180.54 41.5146 183.962 41.5146H190.808ZM187.614 48.9205V44.5903H184.418C182.707 44.5903 181.909 45.5018 181.909 46.7563C181.909 48.009 182.707 48.9223 184.418 48.9223L187.614 48.9205Z" fill="black"/>
<path d="M24.6701 47.0019L4.48694 26.9395L3.40599 27.9286L23.5892 48.0848L24.6701 47.0055V47.0019ZM26.9226 10.8301H25.4813V46.6445H26.9226V10.8301ZM28.7241 47.9946L63.4123 13.348L62.4201 12.2686L27.6432 47.0019L28.7241 47.991V47.9946ZM23.5874 51.0522L3.67759 70.9395L4.75854 71.9286L24.6701 52.0432L23.5874 51.0522ZM27.7337 52.1334L33.4083 57.8011L34.491 56.7217L28.7241 51.054L27.7337 52.1334ZM25.4813 72.1994H26.9226V52.4024H25.4813V72.1994ZM-3.62109 50.2436H23.3176V48.8032H-3.62109V50.2436Z" fill="#710D36"/>
<path d="M56.1337 70.0331V77.614H54.906V71.2027H51.0059V77.614H49.7783V70.0331H56.1337ZM63.3038 71.2027H59.5666V73.1629H63.0322V74.3326H59.5666V76.4444H63.3038V77.614H58.339V70.0331H63.3038V71.2027ZM70.2023 70.0331H71.4317V77.614H70.2041V74.3001H66.304V77.614H65.0764V70.0331H66.304V73.1304H70.2041L70.2023 70.0331ZM77.2656 77.744C75.0059 77.744 73.3438 76.0653 73.3438 73.8236C73.3438 71.5818 75.0059 69.9031 77.2656 69.9031C79.0255 69.9031 80.427 70.9645 80.905 72.5348H79.5905C79.1885 71.6468 78.3303 71.0728 77.2547 71.0728C75.7012 71.0728 74.5822 72.2424 74.5822 73.8236C74.5822 75.4047 75.7012 76.5743 77.2547 76.5743C78.3303 76.5743 79.1885 76.0004 79.5905 75.1123H80.905C80.427 76.6826 79.0255 77.744 77.2656 77.744ZM87.5428 70.0331H88.9877V77.614H87.7601V74.4409L87.8796 71.7551L84.0664 77.614H82.6215V70.0331H83.8491V73.2063L83.7404 75.8812L87.5428 70.0331ZM94.769 69.9031C96.9961 69.9031 98.7017 71.5926 98.7126 73.8236C98.7017 76.0545 96.9961 77.744 94.769 77.744C92.542 77.744 90.8255 76.0545 90.8255 73.8236C90.8255 71.5926 92.542 69.9031 94.769 69.9031ZM94.769 71.0728C93.2264 71.0728 92.0639 72.2424 92.0639 73.8236C92.0639 75.4047 93.2264 76.5743 94.769 76.5743C96.3008 76.5743 97.4633 75.4047 97.4633 73.8236C97.4633 72.2424 96.3008 71.0728 94.769 71.0728ZM105.722 70.0331H106.949V77.614H105.722V74.3001H101.821V77.614H100.594V70.0331H101.821V73.1304H105.722V70.0331ZM114.282 70.0331H115.51V77.614H114.282V74.3001H110.382V77.614H109.155V70.0331H110.382V73.1304H114.282V70.0331ZM120.889 72.968C122.573 72.968 123.453 73.8344 123.453 75.2856C123.453 76.726 122.519 77.614 120.857 77.614H117.717V70.0331H118.945V72.968H120.889ZM124.42 70.0331H125.648V77.614H124.42V70.0331ZM120.813 76.4444C121.758 76.4444 122.204 75.9895 122.204 75.2748C122.204 74.5492 121.791 74.116 120.846 74.116H118.945V76.4444H120.813ZM130.817 69.1992C129.861 69.1992 129.035 68.5602 129.035 67.5097V67.2715H130.013V67.4772C130.013 67.9538 130.328 68.257 130.817 68.257C131.295 68.257 131.61 67.9538 131.61 67.4772V67.2715H132.588V67.5097C132.588 68.5602 131.762 69.1992 130.817 69.1992ZM132.555 70.0331H134V77.614H132.773V74.4409L132.892 71.7551L129.081 77.614H127.636V70.0331H128.863V73.2063L128.755 75.8812L132.555 70.0331ZM145.309 70.867C147.026 70.867 148.395 71.9608 148.395 73.7478C148.395 75.5347 147.048 76.6285 145.309 76.6285H144.679V77.614H143.452V76.6285H142.811C141.072 76.6285 139.725 75.5347 139.725 73.7478C139.725 71.9608 141.094 70.867 142.811 70.867H143.452V70.0331H144.679V70.867H145.309ZM142.811 75.4697H143.452V72.0366H142.811C141.768 72.0366 140.964 72.6106 140.964 73.7478C140.964 74.8957 141.768 75.4697 142.811 75.4697ZM145.309 75.4697C146.352 75.4697 147.156 74.8957 147.156 73.7478C147.156 72.6106 146.352 72.0366 145.309 72.0366H144.679V75.4697H145.309ZM153.904 69.9031C156.132 69.9031 157.837 71.5926 157.848 73.8236C157.837 76.0545 156.132 77.744 153.904 77.744C151.677 77.744 149.961 76.0545 149.961 73.8236C149.961 71.5926 151.677 69.9031 153.904 69.9031ZM153.904 71.0728C152.362 71.0728 151.199 72.2424 151.199 73.8236C151.199 75.4047 152.362 76.5743 153.904 76.5743C155.436 76.5743 156.599 75.4047 156.599 73.8236C156.599 72.2424 155.436 71.0728 153.904 71.0728ZM164.857 70.0331H166.083V77.614H164.857V74.3001H160.957V77.614H159.729V70.0331H160.957V73.1304H164.855V70.0331H164.857ZM174.852 76.4444H175.938V79.1627H174.71V77.614H168.964V79.1627H167.736V76.4444H168.811C169.04 76.2603 169.17 75.8921 169.289 75.1881L170.126 70.0331H174.852V76.4444ZM170.495 75.2964C170.408 75.8163 170.311 76.1845 170.169 76.4444H173.624V71.2027H171.158L170.495 75.2964Z" fill="black"/>
</g>
<defs>
<clipPath id="clip0_4058_9710">
<rect width="219.087" height="79.4191" fill="white"/>
</clipPath>
</defs>
</svg>
