<svg width="207" height="79" viewBox="0 0 207 79" fill="none" xmlns="http://www.w3.org/2000/svg">
<path d="M80.9178 48.7766C80.9178 52.5402 78.4088 54.625 74.2363 54.625H65.8633V35.875H79.466V39.5031H69.8525V42.9824H74.4337C78.6625 42.9824 80.9178 44.9318 80.9178 48.7225V48.7766ZM76.9146 48.7225C76.9146 47.2333 76.1534 46.5293 74.2928 46.5293H69.8525V50.9969H74.0813C75.9561 50.9969 76.9005 50.2252 76.9005 48.7225" fill="#1F2E43"/>
<path d="M92.7829 54.625H88.0745L91.7814 48.1487L84.6816 35.875H89.4048L94.1431 43.9941L98.7766 35.875H103.5L92.7829 54.625Z" fill="#1F2E43"/>
<path d="M122.315 51.0069V58.3755H118.421V54.6504H105.509V58.3755H101.615V51.0069H104.377C104.926 50.2793 105.247 49.41 105.302 48.5054L107.346 35.8755H119.664V51.0069H122.315ZM108.506 51.0069H115.659V39.519H110.522L108.989 48.886C108.872 49.6043 108.701 50.3132 108.478 51.0069" fill="#1F2E43"/>
<path d="M132.319 54.6255H127.596L131.318 48.1492L124.203 35.8755H128.926L133.679 43.9946L138.298 35.8755H143.021L132.319 54.6255Z" fill="#1F2E43"/>
<path d="M173.126 51.0069V58.3755H168.978V54.6504H144.898V51.0069V35.8755H149.046V51.0069H155.401V35.8755H159.549V51.0069H165.903V35.8755H170.051V51.0069H173.126Z" fill="#1F2E43"/>
<path d="M180.896 39.5141V43.3022H189.308V46.9408H180.896V50.9868H190.061V54.6255H176.889V35.8755H190.061V39.5141H180.896Z" fill="#1F2E43"/>
<path d="M197.835 39.5141V43.3022H206.248V46.9408H197.835V50.9868H207.001V54.6255H193.828V35.8755H207.001V39.5141H197.835Z" fill="#1F2E43"/>
<path d="M71.5087 73.375H70.6867V66.7158H66.6852V73.375H65.8633V65.875H66.6852H71.5087V73.375Z" fill="#1F2E43"/>
<path d="M75.9665 66.7158V69.1037H78.836V69.9445H75.9665V72.5174H79.0361V73.375H75.2725V65.875H79.0361V66.7158H75.9665Z" fill="#1F2E43"/>
<path d="M88.4423 65.8745V73.3745H87.6204V69.9272H83.6189V73.3745H82.7969V65.8745H83.6189V69.0864H87.6204V65.8745H88.4423Z" fill="#1F2E43"/>
<path d="M90.3295 69.6491C90.3155 69.1513 90.4068 68.6559 90.598 68.1931C90.7893 67.7302 91.0764 67.3096 91.4418 66.9567C91.8073 66.6038 92.2436 66.3259 92.7242 66.1401C93.2047 65.9542 93.7196 65.8642 94.2375 65.8755C95.0332 65.8573 95.8141 66.0849 96.4653 66.5249C97.1165 66.965 97.6037 67.5942 97.8554 68.3201H96.8826C96.6599 67.8258 96.2898 67.4061 95.819 67.1141C95.3481 66.822 94.7978 66.6708 94.2375 66.6794C93.4646 66.735 92.7421 67.0693 92.2148 67.6155C91.6876 68.1617 91.3946 68.8793 91.3946 69.6245C91.3946 70.3697 91.6876 71.0873 92.2148 71.6335C92.7421 72.1797 93.4646 72.514 94.2375 72.5695C94.7982 72.5804 95.3496 72.4301 95.8208 72.1378C96.2921 71.8455 96.6618 71.4245 96.8826 70.9288H97.8554C97.6037 71.6548 97.1165 72.284 96.4653 72.724C95.8141 73.1641 95.0332 73.3917 94.2375 73.3735C93.7196 73.3848 93.2047 73.2948 92.7242 73.1089C92.2436 72.9231 91.8073 72.6453 91.4418 72.2923C91.0764 71.9394 90.7893 71.5188 90.598 71.0559C90.4068 70.5931 90.3155 70.0977 90.3295 69.5999" fill="#1F2E43"/>
<path d="M105.383 65.8745V73.3745H104.563V70.2299L104.64 67.0685L100.743 73.3745H99.7373V65.8745H100.557V69.0192L100.495 72.1806L104.377 65.8745H105.383Z" fill="#1F2E43"/>
<path d="M114.789 69.6247C114.789 70.367 114.568 71.0926 114.154 71.7097C113.74 72.3267 113.151 72.8073 112.462 73.0906C111.774 73.3739 111.016 73.4473 110.286 73.3013C109.555 73.1553 108.885 72.7965 108.359 72.2704C107.834 71.7443 107.476 71.0747 107.333 70.3462C107.19 69.6178 107.267 68.8633 107.554 68.1783C107.841 67.4934 108.326 66.9089 108.947 66.4989C109.568 66.0888 110.297 65.8716 111.042 65.8748C111.538 65.8682 112.029 65.9608 112.488 66.1471C112.947 66.3334 113.363 66.6096 113.713 66.9594C114.062 67.3092 114.337 67.7253 114.522 68.1831C114.707 68.641 114.798 69.1312 114.789 69.6247ZM108.146 69.6247C108.159 70.1892 108.339 70.7375 108.663 71.2007C108.987 71.6639 109.441 72.0215 109.969 72.2288C110.496 72.436 111.073 72.4836 111.627 72.3656C112.181 72.2477 112.688 71.9693 113.084 71.5656C113.481 71.1618 113.749 70.6505 113.854 70.0957C113.96 69.5409 113.9 68.9674 113.68 68.4468C113.46 67.9263 113.091 67.482 112.619 67.1695C112.147 66.857 111.593 66.6902 111.026 66.69C110.641 66.6854 110.259 66.7586 109.903 66.9053C109.547 67.0519 109.225 67.269 108.956 67.5434C108.687 67.8177 108.476 68.1436 108.337 68.5014C108.198 68.8591 108.133 69.2412 108.146 69.6247Z" fill="#1F2E43"/>
<path d="M122.317 65.8745V73.3745H121.511V69.9272H117.494V73.3745H116.672V65.8745H117.494V69.0864H121.511V65.8745H122.317Z" fill="#1F2E43"/>
<path d="M131.726 65.8745V73.3745H130.919V69.9272H126.902V73.3745H126.08V65.8745H126.902V69.0864H130.919V65.8745H131.726Z" fill="#1F2E43"/>
<path d="M141.101 71.1044C141.101 72.4665 140.219 73.3745 138.541 73.3745H135.489V65.8745H136.388V68.8678H138.575C140.27 68.8678 141.101 69.7591 141.101 71.1044ZM140.185 71.1044C140.185 70.2804 139.694 69.6918 138.49 69.6918H136.337V72.5338H138.473C139.626 72.5338 140.168 71.9284 140.168 71.1044H140.185ZM143.017 73.3745H142.118V65.8745H143.017V73.3745Z" fill="#1F2E43"/>
<path d="M148.666 66.4758V73.3755H147.846V70.4826L147.924 67.5741L144.026 73.3755H143.021V66.4758H143.84V69.3687V72.2772L147.722 66.4758H148.666ZM144.258 64.1861V64.0005H144.938V64.1552C144.967 64.3749 145.075 64.5765 145.241 64.7226C145.408 64.8688 145.622 64.9494 145.843 64.9494C146.065 64.9494 146.279 64.8688 146.445 64.7226C146.612 64.5765 146.719 64.3749 146.748 64.1552V64.0005H147.429V64.1861C147.429 64.5964 147.266 64.9899 146.976 65.28C146.686 65.5701 146.292 65.7332 145.882 65.7332C145.472 65.7332 145.078 65.5701 144.788 65.28C144.498 64.9899 144.335 64.5964 144.335 64.1861" fill="#1F2E43"/>
<path d="M163.719 69.5573C163.724 69.9458 163.657 70.3313 163.522 70.6891C163.387 71.0468 163.187 71.369 162.935 71.6349C162.683 71.9009 162.384 72.1047 162.058 72.2334C161.732 72.3621 161.385 72.4129 161.041 72.3824H160.382V73.3745H159.589V72.3824H158.916C158.568 72.4125 158.219 72.3616 157.89 72.2328C157.561 72.1041 157.259 71.9003 157.003 71.6342C156.748 71.3682 156.544 71.0456 156.404 70.6867C156.264 70.3279 156.192 69.9405 156.192 69.5489C156.192 69.1572 156.264 68.7698 156.404 68.411C156.544 68.0521 156.748 67.7295 157.003 67.4635C157.259 67.1974 157.561 66.9936 157.89 66.8649C158.219 66.7361 158.568 66.6852 158.916 66.7153H159.589V65.8745H160.382V66.7153H161.041C161.387 66.6847 161.734 66.7359 162.062 66.8656C162.389 66.9953 162.689 67.2007 162.941 67.4684C163.193 67.7362 163.393 68.0604 163.527 68.4202C163.661 68.78 163.726 69.1673 163.719 69.5573ZM159.589 71.5248V67.5729H158.916C158.671 67.5475 158.425 67.5798 158.192 67.6676C157.959 67.7553 157.745 67.8967 157.564 68.0826C157.382 68.2686 157.237 68.495 157.138 68.7475C157.039 68.9999 156.988 69.2729 156.988 69.5489C156.988 69.8248 157.039 70.0978 157.138 70.3502C157.237 70.6027 157.382 70.8291 157.564 71.0151C157.745 71.201 157.959 71.3424 158.192 71.4302C158.425 71.5179 158.671 71.5501 158.916 71.5248H159.589ZM162.926 69.5573C162.936 69.282 162.893 69.0075 162.8 68.7526C162.707 68.4977 162.567 68.2682 162.388 68.0799C162.209 67.8916 161.996 67.7488 161.763 67.6613C161.531 67.5739 161.284 67.5437 161.041 67.5729H160.382V71.5248H161.041C161.283 71.5537 161.528 71.524 161.76 71.4375C161.991 71.351 162.203 71.2097 162.382 71.0233C162.56 70.8368 162.701 70.6095 162.795 70.3566C162.889 70.1037 162.934 69.8312 162.926 69.5573Z" fill="#1F2E43"/>
<path d="M173.128 69.6247C173.128 70.367 172.907 71.0926 172.493 71.7097C172.079 72.3267 171.49 72.8073 170.801 73.0906C170.113 73.3739 169.355 73.4473 168.625 73.3013C167.894 73.1553 167.224 72.7965 166.698 72.2704C166.172 71.7443 165.815 71.0747 165.672 70.3462C165.529 69.6178 165.605 68.8633 165.893 68.1783C166.18 67.4934 166.665 66.9089 167.286 66.4989C167.907 66.0888 168.636 65.8716 169.381 65.8748C169.877 65.8682 170.368 65.9608 170.827 66.1471C171.285 66.3334 171.702 66.6096 172.051 66.9594C172.401 67.3092 172.676 67.7253 172.861 68.1831C173.046 68.641 173.137 69.1312 173.128 69.6247ZM166.485 69.6247C166.498 70.1892 166.678 70.7375 167.002 71.2007C167.326 71.6639 167.78 72.0215 168.307 72.2288C168.835 72.436 169.412 72.4836 169.966 72.3656C170.52 72.2477 171.027 71.9693 171.423 71.5656C171.819 71.1618 172.087 70.6505 172.193 70.0957C172.299 69.5409 172.238 68.9674 172.019 68.4468C171.799 67.9263 171.43 67.482 170.958 67.1695C170.486 66.857 169.932 66.6902 169.365 66.69C168.98 66.6854 168.598 66.7586 168.242 66.9053C167.886 67.0519 167.564 67.269 167.295 67.5434C167.026 67.8177 166.815 68.1436 166.676 68.5014C166.537 68.8591 166.472 69.2412 166.485 69.6247Z" fill="#1F2E43"/>
<path d="M180.656 65.8745V73.3745H179.85V69.9272H175.833V73.3745H175.011V65.8745H175.833V69.0864H179.85V65.8745H180.656Z" fill="#1F2E43"/>
<path d="M191.947 72.7448V75.2495H191.107V73.6318H185.228V75.2495H184.42V72.7448H185.434C185.688 72.5535 185.814 72.1013 185.957 71.1968L186.765 65.8745H190.981V72.7448H191.947ZM186.337 72.7448H190.109V66.7442H187.431L186.765 71.2664C186.71 71.7847 186.565 72.2867 186.337 72.7448Z" fill="#1F2E43"/>
<path d="M37.428 0.25H34.3893V40.5955H37.428V0.25Z" fill="#0085FF"/>
<path d="M31.351 43.5336H0V46.4572H31.351V43.5336Z" fill="#0085FF"/>
<path d="M33.7818 40.9093L10.2131 18.3335L8.07857 20.4014L31.6177 42.9487L33.7818 40.9093Z" fill="#0085FF"/>
<path d="M37.428 49.4233H34.3893V71.5H37.428V49.4233Z" fill="#0085FF"/>
<path d="M31.6584 47.0008L8.38935 69.3881L10.5381 71.4554L33.8071 49.0681L31.6584 47.0008Z" fill="#0085FF"/>
<path d="M78.7836 1.67612L38.0052 40.8951L40.1545 42.9629L80.9182 3.744L78.7836 1.67612Z" fill="#0085FF"/>
<path d="M40.1772 47.1302L38.0443 49.1924L44.4956 55.3691L46.6286 53.3069L40.1772 47.1302Z" fill="#0085FF"/>
</svg>
