<svg width="208" height="59" viewBox="0 0 208 59" fill="none" xmlns="http://www.w3.org/2000/svg">
<g clip-path="url(#clip0_4058_2404)">
<path d="M28.031 9.89111L9.34082 28.4029L15.5716 34.5775L34.2571 16.061L28.031 9.89111ZM40.4884 22.2341L21.7992 40.7459L28.031 46.9189L46.716 28.4071L40.4884 22.2341Z" fill="#C5D644"/>
<path d="M56.0607 56.177H0V0.633789H56.0607V56.177ZM46.7166 9.89125H9.3409V46.9185H46.7161L46.7166 9.89125Z" fill="#C5D644"/>
<path d="M89.1545 9.65357L87.1997 6.21715L85.267 9.65357H83.1816L86.0391 4.97295L83.4559 0.632324H85.5402L87.2765 3.69694L88.9866 0.632324H91.0072L88.4361 4.92185L91.2804 9.65357H89.1545Z" fill="#253238"/>
<path d="M96.432 9.65366L96.302 9.02113C95.702 9.5624 95.0483 9.83513 94.1882 9.83513C92.8198 9.83513 91.8955 9.15149 91.8955 7.80404C91.8955 6.29181 93.1329 5.65094 95.2456 5.65094H96.0567V5.3C96.0567 4.47296 95.7409 4.073 94.6604 4.073C93.9855 4.08261 93.318 4.21335 92.6903 4.45888L92.405 3.25953C93.2055 2.9819 94.047 2.83793 94.8951 2.8335C96.9036 2.8335 97.7 3.68556 97.7 5.14512V9.65627H96.4367M96.0567 6.72045H95.2199C94.0724 6.72045 93.5645 7.05627 93.5645 7.71696C93.5645 8.27023 93.9024 8.63421 94.5783 8.63421C95.1662 8.63421 95.6251 8.36253 96.052 7.97352L96.0567 6.72045Z" fill="#253238"/>
<path d="M103.972 9.65364V6.86071H101.192V9.65364H99.5225V3.01025H101.192V5.50648H103.972V3.01025H105.643V9.65364H103.972Z" fill="#253238"/>
<path d="M109.996 4.2774V9.65364H108.328V4.2774H106.685V3.01025H111.641V4.2774H109.996Z" fill="#253238"/>
<path d="M112.671 3.01025H114.339V5.15658C114.625 5.12842 114.971 5.11643 115.266 5.11643C117.59 5.11643 118.343 6.08582 118.343 7.35297C118.343 8.99608 116.922 9.76889 115.086 9.76889C114.369 9.76889 113.534 9.71674 112.671 9.63956V3.01025M115.136 6.34759C114.873 6.34759 114.615 6.36063 114.34 6.37471V8.49288C114.643 8.52708 114.948 8.54449 115.254 8.54502C116.127 8.54502 116.638 8.17218 116.638 7.46039C116.636 6.7585 116.195 6.34551 115.135 6.34551L115.136 6.34759ZM120.979 9.65573H119.31V3.01025H120.979V9.65573Z" fill="#253238"/>
<path d="M122.39 5.50684H125.803V6.84907H122.39V5.50684Z" fill="#253238"/>
<path d="M135.47 9.65367C135.441 7.1856 135.327 4.67842 135.076 2.45753H135.067L132.728 9.65367H131.087L128.795 2.45597H128.767C128.562 4.65339 128.416 7.20124 128.403 9.6521H126.784C126.821 6.63555 127.032 3.62356 127.416 0.630859H129.942L132.002 7.0933H132.031L134.111 0.632424H136.644C137.005 3.62667 137.201 6.63824 137.23 9.65367H135.469" fill="#253238"/>
<path d="M143.191 9.65366L143.059 9.02113C142.462 9.5624 141.809 9.83513 140.948 9.83513C139.58 9.83513 138.65 9.15149 138.65 7.80404C138.65 6.29181 139.888 5.65094 142.002 5.65094H142.81V5.3C142.81 4.47296 142.494 4.073 141.416 4.073C140.742 4.08225 140.075 4.21301 139.448 4.45888L139.159 3.25953C139.96 2.98224 140.802 2.83828 141.651 2.8335C143.657 2.8335 144.455 3.68556 144.455 5.14512V9.65627H143.191M142.812 6.72306H141.978C140.83 6.72306 140.323 7.05888 140.323 7.71957C140.323 8.27284 140.662 8.63681 141.338 8.63681C141.925 8.63681 142.382 8.36513 142.812 7.97613V6.72306Z" fill="#253238"/>
<path d="M150.728 9.65364V6.86071H147.953V9.65364H146.28V3.01025H147.953V5.50648H150.728V3.01025H152.401V9.65364H150.728Z" fill="#253238"/>
<path d="M158.921 9.40709C158.306 9.67206 157.643 9.80908 156.973 9.80965C154.847 9.80965 153.845 8.51644 153.845 6.46137C153.845 4.13566 155.187 2.86747 157.161 2.86747C157.753 2.86058 158.341 2.97991 158.883 3.21737L158.514 4.44645C158.126 4.28 157.708 4.19241 157.285 4.18885C156.114 4.18885 155.593 5.02787 155.593 6.32005C155.593 7.72799 156.14 8.43717 157.314 8.43717C157.767 8.44187 158.216 8.34992 158.63 8.16758L158.919 9.40657" fill="#253238"/>
<path d="M164.624 9.65364V6.78457L164.649 5.48145L163.862 6.59007L161.597 9.65364H160.172V3.01025H161.845V5.87828L161.827 7.18558L162.599 6.08582L164.871 3.01025H166.293V9.65364H164.624Z" fill="#253238"/>
<path d="M172.579 9.65377V6.78575L172.603 5.4821L171.819 6.59072L169.549 9.65429H168.128V3.01038H169.797V5.87841L169.784 7.18571L170.555 6.08595L172.823 3.00934H174.244V9.65273H172.576M173.686 0C173.723 1.30365 172.839 2.21151 171.181 2.21151C169.484 2.21151 168.666 1.28018 168.703 0H170.177C170.162 0.737865 170.475 1.15086 171.206 1.15086C171.897 1.15086 172.221 0.737865 172.211 0H173.686Z" fill="#253238"/>
<path d="M180.767 9.4071C180.154 9.67146 179.493 9.80847 178.824 9.80967C176.699 9.80967 175.692 8.51645 175.692 6.46138C175.692 4.13567 177.038 2.86749 179.004 2.86749C179.598 2.86039 180.186 2.97972 180.729 3.21739L180.364 4.44646C179.977 4.28077 179.56 4.19319 179.139 4.18886C177.962 4.18886 177.441 5.02789 177.441 6.32007C177.441 7.72801 177.987 8.43719 179.164 8.43719C179.617 8.44128 180.066 8.34936 180.48 8.1676L180.766 9.40658" fill="#253238"/>
<path d="M186.09 9.65364L184.238 6.51394L183.689 7.05626V9.65364H182.019V3.01025H183.689V5.37611C184.419 4.60331 185.163 3.79922 185.869 3.01025H187.943L185.45 5.40323L188.101 9.65364H186.09Z" fill="#253238"/>
<path d="M193.604 9.65364V6.78457L193.63 5.48145L192.846 6.59007L190.577 9.65364H189.153V3.01025H190.825V5.87828L190.808 7.18558L191.58 6.08582L193.848 3.01025H195.274V9.65364H193.604Z" fill="#253238"/>
<path d="M201.559 9.65377V6.78575L201.583 5.4821L200.804 6.59072L198.531 9.65429H197.11V3.01038H198.782V5.87841L198.769 7.18571L199.54 6.08595L201.809 3.00934H203.231V9.65273H201.562M202.666 0C202.708 1.30365 201.82 2.21151 200.164 2.21151C198.466 2.21151 197.646 1.28018 197.69 0H199.164C199.148 0.737865 199.46 1.15086 200.194 1.15086C200.882 1.15086 201.208 0.737865 201.196 0H202.666Z" fill="#253238"/>
<path d="M89.4411 25.1613V21.2316H85.8431V25.1613H84.0967V16.1411H85.8431V19.746H89.4411V16.1411H91.1885V25.1613H89.4411Z" fill="#253238"/>
<path d="M98.91 22.2011H94.4746C94.4746 23.3629 94.9572 24.0497 96.3404 24.0497C97.0851 24.0496 97.8265 23.9539 98.5463 23.765L98.7163 24.9643C97.8609 25.2164 96.9728 25.3427 96.0804 25.3393C93.824 25.3393 92.7529 24.2275 92.7529 21.9018C92.7529 19.7033 93.9298 18.334 96.0552 18.334C98.0505 18.334 98.9369 19.5229 98.9369 21.4231C98.9369 21.5895 98.9237 21.9383 98.9105 22.198M97.2789 21.1243C97.3205 20.144 96.8873 19.5104 95.9631 19.5104C94.9572 19.5104 94.5041 20.3244 94.4746 21.1243H97.2789Z" fill="#253238"/>
<path d="M104.439 18.519V19.8743H102.108V25.1614H100.436V18.519H104.439Z" fill="#253238"/>
<path d="M108.536 25.3427C106.307 25.3427 105.133 24.039 105.133 21.9574C105.133 19.7719 106.382 18.3374 108.666 18.3374C110.885 18.3374 112.059 19.6687 112.059 21.7754C112.059 23.9066 110.82 25.3422 108.536 25.3422M108.562 19.6421C107.412 19.6421 106.88 20.5463 106.88 21.7874C106.88 23.1432 107.399 24.0229 108.629 24.0229C109.777 24.0229 110.313 23.1567 110.313 21.9177C110.313 20.5327 109.802 19.6416 108.562 19.6416V19.6421Z" fill="#253238"/>
<path d="M118.175 24.9146C117.561 25.177 116.899 25.3134 116.23 25.3156C114.104 25.3156 113.102 24.0224 113.102 21.9683C113.102 19.6416 114.446 18.3755 116.412 18.3755C117.001 18.3755 117.602 18.4798 118.138 18.7243L117.769 19.9524C117.383 19.7848 116.966 19.6961 116.545 19.6917C115.37 19.6917 114.85 20.5317 114.85 21.826C114.85 23.2339 115.395 23.9431 116.57 23.9431C117.025 23.9478 117.476 23.8547 117.891 23.6704L118.175 24.9135" fill="#253238"/>
<path d="M125.01 18.519C124.278 21.5023 123.577 23.6596 122.846 25.1614C121.79 27.3567 120.877 27.9642 119.766 27.9642C119.46 27.9577 119.156 27.9049 118.866 27.8078L118.909 26.5949H119.69C120.171 26.5949 120.508 26.2601 121.074 25.1614C120.236 23.3269 119.337 20.8698 118.763 18.519H120.508C120.864 19.9666 121.279 21.3349 121.75 22.6662C121.842 22.9368 121.934 23.2487 122.022 23.5172H122.051C122.141 23.2356 122.231 22.9368 122.323 22.6542C122.763 21.2982 123.119 19.9173 123.392 18.519H125.011" fill="#253238"/>
<path d="M126.641 25.1614V27.4089H125.22V23.816H125.911C126.511 23.0281 126.901 22.2516 127.385 18.519H132.093V23.816H133.186V27.4089H131.756V25.1614H126.642M128.795 19.8482C128.416 22.3825 128.101 23.1063 127.566 23.816H130.425V19.8482H128.795Z" fill="#253238"/>
<path d="M138.352 25.1616L138.221 24.5259C137.622 25.0703 136.968 25.343 136.111 25.343C134.743 25.343 133.817 24.6573 133.817 23.314C133.817 21.8018 135.055 21.1557 137.166 21.1557H137.977V20.8063C137.977 19.9793 137.666 19.5762 136.582 19.5762C135.907 19.5863 135.24 19.7188 134.614 19.9673L134.324 18.768C135.125 18.4906 135.966 18.3459 136.814 18.3398C138.824 18.3398 139.619 19.193 139.619 20.653V25.1642H138.356M137.979 22.231H137.143C135.995 22.231 135.487 22.5657 135.487 23.2217C135.487 23.7802 135.826 24.1411 136.502 24.1411C137.093 24.1411 137.548 23.8704 137.976 23.4835L137.979 22.231Z" fill="#253238"/>
<path d="M144.407 25.2755C143.973 25.2734 143.539 25.2304 143.113 25.1472V27.7967H141.443V18.5189H142.723L142.852 19.384C143.468 18.7374 144.145 18.3364 145.137 18.3364C147.027 18.3364 147.865 19.771 147.865 21.5695C147.865 23.6376 146.791 25.2776 144.407 25.2776M144.796 19.6839C144.18 19.6839 143.701 19.9926 143.112 20.6663V23.7028C143.508 23.8866 143.941 23.9788 144.379 23.9724C145.526 23.9724 146.112 23.1844 146.112 21.765C146.112 20.585 145.787 19.6818 144.796 19.6818V19.6839Z" fill="#253238"/>
<path d="M154.002 24.9149C153.389 25.1776 152.728 25.314 152.059 25.3159C149.932 25.3159 148.93 24.0227 148.93 21.9687C148.93 19.6419 150.276 18.3758 152.242 18.3758C152.835 18.3686 153.423 18.4875 153.966 18.7247L153.6 19.9527C153.213 19.7854 152.796 19.6967 152.373 19.692C151.197 19.692 150.677 20.532 150.677 21.8263C150.677 23.2342 151.226 23.9434 152.4 23.9434C152.854 23.9487 153.303 23.8556 153.716 23.6707L154.004 24.9139" fill="#253238"/>
<path d="M157.773 19.7841V25.1614H156.104V19.7841H154.46V18.519H159.416V19.7841H157.773Z" fill="#253238"/>
<path d="M163.112 25.2639C162.287 25.2639 161.375 25.2258 160.45 25.1596V18.5193C161.335 18.4531 162.199 18.415 163.047 18.415C164.911 18.415 165.926 19.0366 165.926 20.1604C165.926 20.833 165.419 21.3383 164.793 21.5568C165.654 21.7133 166.319 22.2556 166.319 23.1348C166.319 24.5683 164.856 25.266 163.109 25.266M162.908 19.5164C162.638 19.5164 162.376 19.5284 162.103 19.5544V21.2346H163.079C163.89 21.2346 164.229 20.8727 164.229 20.3434C164.23 19.7714 163.796 19.5138 162.909 19.5138L162.908 19.5164ZM163.079 22.2441H162.103V24.1036C162.509 24.1417 162.899 24.1558 163.261 24.1558C164.043 24.1558 164.566 23.832 164.566 23.2125C164.57 22.6024 164.112 22.2415 163.08 22.2415L163.079 22.2441Z" fill="#253238"/>
<path d="M173.529 22.2011H169.097C169.097 23.3629 169.579 24.0497 170.962 24.0497C171.705 24.0491 172.445 23.9534 173.164 23.765L173.332 24.9643C172.477 25.2165 171.589 25.3428 170.697 25.3393C168.444 25.3393 167.373 24.2275 167.373 21.9018C167.373 19.7033 168.548 18.334 170.673 18.334C172.668 18.334 173.553 19.5229 173.553 21.4231C173.553 21.5895 173.541 21.9383 173.529 22.198M171.902 21.1274C171.938 20.1471 171.507 19.5135 170.581 19.5135C169.578 19.5135 169.121 20.3275 169.097 21.1274H171.902Z" fill="#253238"/>
<path d="M179.501 25.1614V22.3695H176.725V25.1614H175.057V18.519H176.725V21.0111H179.501V18.519H181.173V25.1614H179.501Z" fill="#253238"/>
<path d="M187.462 25.1614V22.3695H184.682V25.1614H183.014V18.519H184.682V21.0111H187.462V18.519H189.127V25.1614H187.462Z" fill="#253238"/>
<path d="M190.967 18.519H192.636V20.6643C192.923 20.6383 193.263 20.6252 193.562 20.6252C195.885 20.6252 196.64 21.5925 196.64 22.8618C196.64 24.5007 195.219 25.2756 193.377 25.2756C192.663 25.2756 191.826 25.2234 190.965 25.1473V18.519M193.431 21.8522C193.168 21.8522 192.904 21.8652 192.634 21.8772V23.9975C192.938 24.0322 193.243 24.0496 193.548 24.0496C194.42 24.0496 194.932 23.6716 194.932 22.964C194.934 22.2662 194.492 21.8522 193.433 21.8522H193.431ZM199.273 25.1609H197.602V18.519H199.273V25.1609Z" fill="#253238"/>
<path d="M205.55 25.1616V22.2935L205.575 20.9862L204.794 22.099L202.523 25.1626H201.102V18.5192H202.772V21.3872L202.76 22.6909L203.526 21.5901L205.798 18.5192H207.219V25.1616H205.55M206.655 15.5083C206.697 16.8119 205.807 17.7177 204.152 17.7177C202.458 17.7177 201.633 16.7874 201.675 15.5083H203.148C203.138 16.2451 203.449 16.6555 204.179 16.6555C204.872 16.6555 205.199 16.2436 205.185 15.5083H206.655Z" fill="#253238"/>
<path d="M89.4411 40.6661V33.1347H85.8431V40.6661H84.0967V31.647H91.1885V40.6661H89.4411Z" fill="#253238"/>
<path d="M98.91 37.7058H94.4746C94.4746 38.8697 94.9572 39.5564 96.3404 39.5564C97.0851 39.5567 97.8266 39.461 98.5463 39.2717L98.7163 40.4747C97.8605 40.7243 96.9726 40.8492 96.0804 40.8455C93.824 40.8455 92.7529 39.7369 92.7529 37.4112C92.7529 35.2148 93.9298 33.8423 96.0552 33.8423C98.0505 33.8423 98.9369 35.0312 98.9369 36.9319C98.9369 37.0993 98.9237 37.4503 98.9105 37.7058M97.2789 36.6363C97.3205 35.6528 96.8873 35.0197 95.9631 35.0197C94.9572 35.0197 94.5041 35.8358 94.4746 36.6363H97.2789Z" fill="#253238"/>
<path d="M104.885 40.6662V37.8754H102.108V40.6662H100.436V34.0249H102.108V36.519H104.885V34.0249H106.553V40.6662H104.885Z" fill="#253238"/>
<path d="M113.077 40.4214C112.461 40.6837 111.799 40.8197 111.129 40.8214C109.004 40.8214 107.998 39.5292 107.998 37.4752C107.998 35.1474 109.342 33.8823 111.31 33.8823C111.9 33.8823 112.5 33.9866 113.033 34.2312L112.671 35.4592C112.285 35.2925 111.868 35.2049 111.446 35.2016C110.272 35.2016 109.749 36.0396 109.749 37.3339C109.749 38.7418 110.298 39.452 111.471 39.452C111.924 39.4556 112.373 39.3633 112.787 39.1814L113.076 40.4214" fill="#253238"/>
<path d="M118.774 40.6662V37.7982L118.802 36.493L118.02 37.6037L115.748 40.6662H114.327V34.0249H115.997V36.8961L115.982 38.2013L116.75 37.0994L119.023 34.0249H120.448V40.6662H118.774Z" fill="#253238"/>
<path d="M125.295 40.8455C123.068 40.8455 121.892 39.5418 121.892 37.4633C121.892 35.2779 123.145 33.8423 125.425 33.8423C127.644 33.8423 128.818 35.1736 128.818 37.2808C128.818 39.4141 127.581 40.8455 125.295 40.8455ZM125.325 35.1475C124.176 35.1475 123.641 36.0528 123.641 37.2949C123.641 38.6507 124.167 39.5293 125.392 39.5293C126.534 39.5293 127.072 38.6642 127.072 37.4231C127.07 36.0397 126.561 35.1465 125.325 35.1465V35.1475Z" fill="#253238"/>
<path d="M134.699 40.6662V37.8754H131.923V40.6662H130.253V34.0249H131.923V36.519H134.699V34.0249H136.369V40.6662H134.699Z" fill="#253238"/>
<path d="M142.658 40.6662V37.8754H139.876V40.6662H138.209V34.0249H139.876V36.519H142.658V34.0249H144.326V40.6662H142.658Z" fill="#253238"/>
<path d="M146.167 34.0249H147.836V36.1702C148.12 36.1441 148.46 36.1321 148.76 36.1321C151.08 36.1321 151.84 37.0994 151.84 38.3676C151.84 40.0086 150.419 40.7835 148.577 40.7835C147.86 40.7835 147.025 40.7314 146.166 40.6532V34.0249M148.63 37.3591C148.367 37.3591 148.107 37.3711 147.835 37.3841V39.5023C148.137 39.5383 148.442 39.5558 148.747 39.5545C149.62 39.5545 150.129 39.1795 150.129 38.4667C150.131 37.7721 149.691 37.3591 148.631 37.3591H148.63ZM154.472 40.6662H152.802V34.0249H154.472V40.6662Z" fill="#253238"/>
<path d="M160.747 40.6659V37.7979L160.773 36.4942L159.991 37.605L157.722 40.6675H156.301V34.0246H157.97V36.8958L157.957 38.1994L158.725 37.0981L160.997 34.0215H162.418V40.6659H160.747ZM161.853 31.0132C161.895 32.3168 161.01 33.2226 159.351 33.2226C157.656 33.2226 156.835 32.2934 156.873 31.0132H158.347C158.335 31.751 158.646 32.164 159.378 32.164C160.068 32.164 160.395 31.751 160.384 31.0132H161.853Z" fill="#253238"/>
<path d="M89.2075 56.1737H87.4601V54.9858C84.6674 54.8424 83.4805 53.6404 83.4805 51.5353C83.4805 49.3363 84.9016 48.1223 87.4601 47.9685V46.8057H89.2075V47.9529C91.8119 48.0822 93.1993 49.1267 93.1993 51.4023C93.1993 53.5737 91.804 54.8017 89.2075 54.9691V56.1685M87.4854 49.2821C85.8421 49.3702 85.2958 50.1972 85.2958 51.4002C85.2958 52.756 85.829 53.5194 87.4854 53.6357V49.2821ZM89.1823 53.6488C90.8387 53.5445 91.385 52.7315 91.385 51.5306C91.385 50.1748 90.8639 49.3973 89.1823 49.2821V53.6488Z" fill="#253238"/>
<path d="M97.5432 56.355C95.3121 56.355 94.1357 55.0513 94.1357 52.9655C94.1357 50.7842 95.3884 49.3486 97.6727 49.3486C99.8897 49.3486 101.062 50.682 101.062 52.785C101.062 54.9183 99.8239 56.3539 97.5432 56.3539M97.5685 50.6549C96.419 50.6549 95.8842 51.5601 95.8842 52.7991C95.8842 54.1549 96.4053 55.0325 97.6296 55.0325C98.778 55.0325 99.3138 54.1695 99.3138 52.9285C99.317 51.5492 98.8059 50.6559 97.5685 50.6559V50.6549Z" fill="#253238"/>
<path d="M106.944 56.1737V53.3807H104.168V56.1737H102.496V49.5303H104.168V52.0244H106.944V49.5303H108.616V56.1737H106.944Z" fill="#253238"/>
<path d="M110.961 56.1737V58.4232H109.544V54.8283H110.232C110.831 54.0425 111.225 53.2639 111.706 49.5303H116.413V54.8283H117.508V58.4232H116.075V56.1737H110.961M113.114 50.8621C112.738 53.3964 112.423 54.1191 111.887 54.8288H114.745V50.8616L113.114 50.8621Z" fill="#253238"/>
</g>
<defs>
<clipPath id="clip0_4058_2404">
<rect width="207.22" height="58.4232" fill="white"/>
</clipPath>
</defs>
</svg>
