<svg width="201" height="74" viewBox="0 0 201 74" fill="none" xmlns="http://www.w3.org/2000/svg">
<g clip-path="url(#clip0_4058_13499)">
<path d="M24.3581 45.4393L24.1573 5.57759C24.1573 2.53472 26.6829 0 29.7166 0L29.8171 39.8617C29.8171 43.0065 27.3904 45.4393 24.3581 45.4393ZM32.4415 10.9544L32.5435 50.816C33.2752 50.8167 33.9998 50.6727 34.6756 50.3923C35.3515 50.112 35.9653 49.7009 36.4818 49.1826C36.9983 48.6642 37.4072 48.049 37.6851 47.3721C37.9631 46.6953 38.1045 45.9701 38.1013 45.2384L38.0009 5.37676C34.9686 5.37676 32.4415 7.91148 32.4415 10.9544ZM16.1698 56.1913L16.0693 16.2277C16.0693 13.1848 18.5949 10.6501 21.6272 10.6501L21.7291 50.5118C21.7291 53.6551 19.202 56.1913 16.1698 56.1913Z" fill="#006D68"/>
<path d="M40.7304 29.4154V22.6191C48.7149 27.2839 53.97 36.0078 53.97 45.9474C53.97 60.8575 41.8426 73.029 26.9858 73.029C12.1289 73.029 0 60.8575 0 45.9474C0 36.0078 5.35546 27.2839 13.2396 22.6191V29.4139C8.59004 33.3696 5.55934 39.355 5.55934 45.9474C5.55934 57.8146 15.1596 67.4498 27.0862 67.4498C38.9108 67.4498 48.5126 57.8146 48.5126 45.9474C48.5126 39.253 45.4804 33.3696 40.7304 29.4154Z" fill="#006D68"/>
<path fill-rule="evenodd" clip-rule="evenodd" d="M200.822 47.6713V47.1646C200.62 39.7598 196.072 35.1955 188.695 34.9931H185.865L185.763 31.0374C185.763 31.0374 183.54 30.4288 181.62 31.646C180.81 32.1526 180.508 33.4717 180.508 34.1822V35.0951H177.071C170.603 35.3994 166.055 39.6594 165.651 45.8456C165.448 47.9756 165.448 50.2075 165.651 52.6418C165.954 58.2194 169.693 62.2771 175.151 63.19C176.392 63.368 177.71 63.4684 178.903 63.5582L179.395 63.5962C179.598 63.5962 179.8 63.6221 180.003 63.6464C180.205 63.6723 180.407 63.6981 180.608 63.6981V67.45H183.338C184.247 67.45 184.853 67.1457 185.258 66.741C185.792 66.2039 185.776 65.4326 185.766 64.8407L185.763 64.611V63.5962H188.39C195.162 63.2919 199.407 59.8428 200.417 53.757C200.852 51.9298 200.839 50.1756 200.826 48.4974L200.823 48.0638L200.822 47.7991V47.6713ZM194.757 54.9742C194.152 56.698 192.535 57.8147 190.109 58.2194C189.353 58.3579 188.597 58.402 187.809 58.4476C187.439 58.4705 187.06 58.4933 186.673 58.5237H185.865V39.8617C189.705 39.0508 193.747 40.5723 194.757 43.4113C196.172 47.0627 196.172 51.1204 194.757 54.9742ZM180.508 39.7598V58.5252C177.981 58.7276 175.96 58.4233 174.241 57.6124C171.715 56.3952 171.008 54.1633 170.906 52.5399C170.703 49.599 170.805 47.2666 171.108 45.1366C171.613 42.0937 173.331 40.4703 176.668 40.0641C177.678 39.9637 178.79 39.8617 179.901 39.8617C180.103 39.7598 180.305 39.7598 180.508 39.7598Z" fill="#006D68"/>
<path d="M93.6904 32.2543L91.1648 32.1523C91.1648 32.1523 89.6479 32.3547 89.1428 32.8629C88.5373 33.4714 88.4353 34.3843 88.5373 35.0933V46.4539H73.1738V34.9929C73.1738 34.2824 73.0734 33.4714 72.5683 32.8629C72.1636 32.4566 71.5565 32.2543 70.7486 32.1523H68.1211V66.2326H70.6467C71.2553 66.2326 72.0616 66.1306 72.6702 65.5221C73.2757 64.9135 73.2757 64.1026 73.2757 63.392V51.5248H88.6377V63.494C88.6377 64.1026 88.6377 64.8131 89.0424 65.3197C89.6479 66.1306 91.0629 66.1306 91.0629 66.1306H93.59L93.6904 32.2543ZM123.809 32.1523L126.336 32.2543L126.235 66.1306H123.708C123.708 66.1306 122.293 66.1306 121.686 65.3197C121.283 64.8131 121.283 64.1026 121.283 63.494V51.5248H105.921V63.392C105.921 64.1026 105.921 64.9135 105.313 65.5221C104.707 66.1306 103.898 66.2326 103.292 66.2326H100.767V32.1523H103.394C104.202 32.2543 104.809 32.4566 105.212 32.8629C105.719 33.4714 105.819 34.2824 105.819 34.9929V46.4539H121.181V35.0933C121.081 34.3843 121.181 33.4714 121.788 32.8629C122.293 32.3547 123.809 32.1523 123.809 32.1523ZM158.476 34.5866C158.476 33.7757 158.274 33.1671 157.871 32.7609C157.466 32.3547 156.859 32.1523 156.051 32.1523H135.635C135.13 32.1523 134.322 32.2543 133.817 32.7609C133.412 33.1671 133.21 33.7757 133.21 34.5866C133.21 44.4258 133.31 66.333 133.31 66.333H135.939C136.545 66.333 137.152 66.2326 137.757 65.7244C138.465 65.1158 138.465 64.1026 138.465 63.392V37.2233H153.424V63.6963C153.424 64.3049 153.524 65.1174 154.029 65.624C154.636 66.2326 156.051 66.2326 156.051 66.2326H158.577C158.476 66.1322 158.476 45.3919 158.476 34.5897V34.5866Z" fill="#006D68"/>
<path fill-rule="evenodd" clip-rule="evenodd" d="M171.598 13.4451C172.093 13.6109 172.642 13.6931 173.243 13.6931C174.019 13.6931 174.722 13.5714 175.35 13.331C175.98 13.0769 176.515 12.6767 176.957 12.129C177.412 11.5691 177.76 10.851 178 9.97467C178.241 9.0968 178.361 8.02875 178.361 6.77052V5.77854C178.361 4.80026 178.241 3.94825 178 3.22253C177.772 2.49832 177.437 1.9004 176.996 1.43027C176.562 0.951498 176.018 0.585041 175.411 0.362224C174.751 0.112568 174.049 -0.0102813 173.343 0.00012116C172.621 0.00012116 171.959 0.108143 171.356 0.324188C170.792 0.525413 170.274 0.836752 169.832 1.24009C169.415 1.63681 169.086 2.11752 168.869 2.65047C168.64 3.19818 168.526 3.79459 168.526 4.44424V4.67246C168.526 6.07218 168.934 7.16458 169.751 7.95268C170.567 8.72861 171.699 9.11658 173.142 9.11658C173.705 9.11658 174.233 9.02073 174.729 8.83055C174.965 8.73278 175.191 8.61308 175.405 8.47301C175.638 8.32087 175.986 8.48214 175.951 8.75904C175.916 9.06662 175.857 9.37089 175.773 9.66886C175.662 10.068 175.478 10.443 175.23 10.7749C175.014 11.047 174.73 11.2574 174.407 11.385C174.065 11.503 173.705 11.5612 173.343 11.557C172.809 11.557 172.386 11.4429 172.079 11.2131C171.841 11.031 171.64 10.8048 171.487 10.5467C171.459 10.4958 171.418 10.4531 171.368 10.423C171.318 10.3928 171.261 10.3762 171.203 10.3748H169.298C169.106 10.3748 168.961 10.5498 169.013 10.7339C169.111 11.0808 169.251 11.4063 169.43 11.7091C169.67 12.1047 169.972 12.4546 170.334 12.7589C170.694 13.051 171.116 13.2792 171.598 13.4451ZM175.17 6.37038C174.741 6.77661 174.133 6.97896 173.343 6.97896C172.662 6.97896 172.106 6.77661 171.677 6.37038C171.263 5.96264 171.055 5.39666 171.055 4.67246V4.44424C171.055 3.71852 171.263 3.15254 171.677 2.74632C172.106 2.34009 172.662 2.13622 173.343 2.13622C174.133 2.13622 174.741 2.34009 175.17 2.74632C175.612 3.15254 175.832 3.72004 175.832 4.44424V4.67246C175.832 5.39666 175.612 5.96264 175.17 6.37038Z" fill="#006D68"/>
<path d="M160.708 2.12997C160.708 2.02651 160.76 1.93066 160.848 1.87437L163.442 0.219042C163.491 0.18802 163.548 0.171659 163.607 0.171877H165.621C165.661 0.171877 165.701 0.179748 165.737 0.19504C165.774 0.210332 165.808 0.232745 165.836 0.261001C165.864 0.289257 165.887 0.322801 165.902 0.359719C165.917 0.396637 165.925 0.436205 165.925 0.476165V13.2167C165.925 13.2974 165.893 13.3748 165.836 13.4319C165.779 13.4889 165.702 13.521 165.621 13.521H163.821C163.74 13.521 163.663 13.4889 163.606 13.4319C163.549 13.3748 163.517 13.2974 163.517 13.2167V3.08847C163.517 3.03411 163.502 2.9807 163.475 2.93382C163.447 2.88693 163.408 2.84827 163.36 2.82187C163.313 2.79547 163.259 2.78228 163.205 2.78368C163.15 2.78508 163.097 2.80101 163.051 2.82983L161.174 4.01655C161.128 4.04537 161.075 4.0613 161.02 4.0627C160.966 4.0641 160.912 4.05092 160.865 4.02451C160.817 3.99811 160.778 3.95945 160.75 3.91257C160.723 3.86568 160.708 3.81228 160.708 3.75791V2.12997ZM150.775 13.6929C150.107 13.7018 149.442 13.599 148.808 13.3886C148.256 13.1868 147.751 12.8753 147.323 12.4727C146.912 12.052 146.591 11.5526 146.379 11.0045C146.156 10.3804 146.048 9.72125 146.058 9.0586V8.4485C146.058 7.73647 146.165 7.09442 146.379 6.52236C146.608 5.9503 146.927 5.46648 147.342 5.07243C147.758 4.66621 148.252 4.35431 148.829 4.13827C149.454 3.916 150.113 3.80628 150.776 3.8142C152.047 3.8142 153.03 4.1124 153.725 4.71185C154.343 5.22914 154.767 5.88336 154.998 6.6745C155.01 6.71757 155.012 6.76282 155.003 6.80663C154.994 6.85044 154.975 6.8916 154.948 6.9268C154.92 6.962 154.885 6.99027 154.845 7.00934C154.804 7.02841 154.76 7.03774 154.715 7.03661H152.826C152.76 7.03416 152.697 7.01349 152.643 6.97693C152.588 6.94038 152.545 6.88938 152.518 6.82969C152.388 6.56969 152.188 6.35108 151.94 6.19829C151.605 5.98225 151.183 5.87423 150.674 5.87423C150.381 5.87423 150.099 5.92444 149.831 6.02637C149.57 6.12007 149.336 6.27686 149.15 6.4828C148.934 6.71251 148.769 6.98593 148.668 7.2846C148.552 7.66149 148.498 8.05442 148.506 8.4485V9.0586C148.506 9.50438 148.567 9.89083 148.689 10.2225C148.808 10.5405 148.969 10.8067 149.17 11.0228C149.37 11.2266 149.597 11.3788 149.851 11.4807C150.119 11.5827 150.393 11.6329 150.674 11.6329C151.249 11.6329 151.685 11.5112 151.98 11.2708C152.223 11.0791 152.404 10.8509 152.523 10.5861C152.548 10.5251 152.59 10.4725 152.644 10.4348C152.698 10.397 152.761 10.3756 152.827 10.3731H154.718C154.763 10.3721 154.807 10.3815 154.848 10.4006C154.888 10.4197 154.924 10.4478 154.952 10.4829C154.979 10.518 154.998 10.5591 155.008 10.6029C155.017 10.6466 155.016 10.692 155.004 10.7352C154.797 11.5363 154.351 12.2554 153.725 12.7968C153.03 13.3947 152.047 13.6929 150.775 13.6929Z" fill="#006D68"/>
<path fill-rule="evenodd" clip-rule="evenodd" d="M185.18 13.6928C184.578 13.6928 184.03 13.6107 183.534 13.4448C183.076 13.2919 182.648 13.0596 182.27 12.7587C181.914 12.4598 181.609 12.1053 181.366 11.7089C181.186 11.4032 181.046 11.0754 180.951 10.7336C180.897 10.5495 181.042 10.3746 181.234 10.3746H183.139C183.197 10.376 183.254 10.3926 183.304 10.4227C183.354 10.4529 183.395 10.4955 183.423 10.5465C183.568 10.7945 183.765 11.0181 184.016 11.2129C184.324 11.4411 184.745 11.5567 185.281 11.5567C185.669 11.5567 186.023 11.5004 186.344 11.3848C186.665 11.2585 186.939 11.0547 187.167 10.7762C187.414 10.4434 187.598 10.0679 187.709 9.66863C187.787 9.40238 187.847 9.09809 187.888 8.75881C187.922 8.48191 187.574 8.31912 187.342 8.47278C187.129 8.61374 186.902 8.73349 186.665 8.83032C186.159 9.02306 185.622 9.12005 185.08 9.11635C183.635 9.11635 182.504 8.72838 181.689 7.95245C180.872 7.16435 180.464 6.07043 180.464 4.67223V4.44401C180.464 3.79436 180.578 3.19643 180.805 2.65024C181.033 2.10404 181.354 1.63392 181.768 1.23986C182.197 0.84429 182.705 0.540002 183.294 0.323958C183.932 0.101831 184.605 -0.00781738 185.281 -0.000108307C186.043 -0.000108307 186.732 0.121607 187.348 0.361994C187.963 0.59021 188.493 0.947748 188.934 1.43004C189.375 1.90169 189.71 2.49809 189.936 3.2223C190.178 3.94802 190.298 4.80003 190.298 5.77832V6.77029C190.298 8.02852 190.178 9.09809 189.936 9.97444C189.696 10.8508 189.348 11.5689 188.893 12.1288C188.471 12.6617 187.918 13.0758 187.288 13.3307C186.613 13.5802 185.899 13.703 185.18 13.6928ZM185.281 6.98025C186.07 6.98025 186.679 6.77638 187.106 6.37015C187.549 5.96241 187.77 5.39643 187.77 4.67223V4.44401C187.77 3.71829 187.549 3.15231 187.106 2.74609C186.679 2.33986 186.07 2.13599 185.281 2.13599C184.598 2.13599 184.042 2.33986 183.615 2.74609C183.199 3.15231 182.993 3.71981 182.993 4.44401V4.67223C182.993 5.39643 183.199 5.96241 183.615 6.37015C184.042 6.77638 184.598 6.98025 185.281 6.98025Z" fill="#006D68"/>
<path d="M191.902 0.171875C191.862 0.171875 191.822 0.179746 191.786 0.195038C191.749 0.210329 191.715 0.232743 191.687 0.260999C191.659 0.289255 191.636 0.322799 191.621 0.359717C191.606 0.396635 191.598 0.436203 191.598 0.476163V1.88958C191.598 2.05694 191.733 2.19387 191.902 2.19387H197.738C197.788 2.19405 197.838 2.2067 197.882 2.23067C197.926 2.25465 197.964 2.28921 197.992 2.33126C198.019 2.37331 198.036 2.42155 198.04 2.47164C198.045 2.52174 198.036 2.57215 198.017 2.61835L193.487 13.0965C193.467 13.1428 193.459 13.1933 193.463 13.2436C193.467 13.294 193.484 13.3424 193.511 13.3847C193.539 13.4269 193.577 13.4617 193.621 13.4857C193.666 13.5098 193.715 13.5224 193.766 13.5225H195.792C195.852 13.5224 195.91 13.5048 195.96 13.4718C196.01 13.4388 196.049 13.3919 196.072 13.3369L200.805 2.25016C200.822 2.21272 200.83 2.17231 200.83 2.13149V0.476163C200.83 0.395461 200.798 0.318064 200.741 0.260999C200.684 0.203934 200.606 0.171875 200.525 0.171875H191.902Z" fill="#006D68"/>
</g>
<defs>
<clipPath id="clip0_4058_13499">
<rect width="200.83" height="73.029" fill="white"/>
</clipPath>
</defs>
</svg>
