<svg width="127" height="127" viewBox="0 0 127 127" fill="none" xmlns="http://www.w3.org/2000/svg">
<g clip-path="url(#clip0_4094_12129)">
<path d="M58.7966 127C91.2692 127 117.592 100.676 117.592 68.2039C117.592 35.7313 91.2692 9.40723 58.7966 9.40723C26.324 9.40723 0 35.7313 0 68.2039C0 100.676 26.324 127 58.7966 127Z" fill="#CBD8F7"/>
<path d="M89.3698 118.768C101.061 118.768 110.536 109.291 110.536 97.6012C110.536 85.9114 101.061 76.4346 89.3698 76.4346C77.68 76.4346 68.2031 85.9114 68.2031 97.6012C68.2031 109.291 77.68 118.768 89.3698 118.768Z" fill="#FF8409"/>
<path d="M85.5633 108.023C85.3598 108.023 85.1629 107.951 85.0086 107.818C84.9377 107.751 84.8819 107.669 84.8449 107.579C84.8079 107.488 84.7906 107.391 84.794 107.293V104.344H82.5167C82.3121 104.352 82.1126 104.279 81.962 104.14C81.8932 104.077 81.8384 104 81.8014 103.915C81.7644 103.829 81.746 103.737 81.7474 103.643V102.622C81.7474 102.427 81.8204 102.261 81.9635 102.125C82.1141 101.986 82.3135 101.913 82.5182 101.921H84.7955V100.403H82.5182C82.3135 100.411 82.1141 100.337 81.9635 100.198C81.8923 100.131 81.8363 100.049 81.799 99.9588C81.7618 99.8682 81.7442 99.7707 81.7474 99.6728V97.7751C81.7474 97.581 81.8204 97.4146 81.9635 97.2788C82.1141 97.14 82.3135 97.0665 82.5182 97.0744H84.7955V88.3158C84.7955 88.1012 84.8655 87.9261 85.01 87.7903C85.1644 87.6578 85.3613 87.5852 85.5647 87.5859H93.9978C95.6591 87.5859 97.0955 87.8297 98.3056 88.3158C99.5377 88.8019 100.491 89.542 101.168 90.5347C101.846 91.5083 102.184 92.7243 102.184 94.1841C102.184 95.6045 101.846 96.7723 101.168 97.6876C100.491 98.6028 99.5377 99.2831 98.3071 99.7312C97.0955 100.179 95.6591 100.403 93.9978 100.403H89.8419V101.921H94.4591C94.6635 101.921 94.8387 101.989 94.9817 102.125C95.0509 102.188 95.1059 102.265 95.1431 102.35C95.1804 102.436 95.199 102.528 95.1978 102.622V103.643C95.1978 103.838 95.1248 104.004 94.9817 104.14C94.9123 104.206 94.8304 104.259 94.7408 104.294C94.6511 104.329 94.5554 104.346 94.4591 104.344H89.8419V107.293C89.8419 107.507 89.7703 107.683 89.6273 107.818C89.4767 107.957 89.2772 108.031 89.0726 108.023H85.5633ZM89.7806 97.0744H93.8431C94.8693 97.0744 95.6693 96.8307 96.2444 96.3446C96.8386 95.8585 97.1363 95.1286 97.1363 94.1549C97.1363 93.298 96.8692 92.5973 96.3364 92.0528C95.824 91.5083 94.9934 91.2354 93.8431 91.2354H89.7806V97.0744Z" fill="white"/>
<path d="M76.4347 32.9252V112.888C76.4347 114.76 75.6914 116.554 74.3684 117.878C73.0454 119.201 71.2509 119.945 69.3796 119.945H30.868C22.7906 115.572 15.8449 109.375 10.583 101.847V32.9252C10.583 31.0541 11.3263 29.2596 12.6494 27.9365C13.9725 26.6134 15.767 25.8701 17.6381 25.8701H69.3796C71.2506 25.8705 73.0449 26.6139 74.3679 27.9369C75.6909 29.2599 76.4343 31.0542 76.4347 32.9252Z" fill="#90A4AF"/>
<path d="M69.3796 32.9268H17.638C17.3263 32.9268 17.0275 33.0506 16.8071 33.2709C16.5867 33.4913 16.4629 33.7902 16.4629 34.1019V55.2685C16.4629 55.9181 16.9884 56.4451 17.638 56.4451H69.3796C70.0277 56.4451 70.5547 55.9196 70.5547 55.2685V34.1019C70.5547 33.7902 70.4309 33.4913 70.2105 33.2709C69.9901 33.0506 69.6912 32.9268 69.3796 32.9268Z" fill="white"/>
<path d="M24.6947 61.1484H19.9899C18.6907 61.1484 17.6396 62.2009 17.6396 63.5001V68.2035C17.6396 69.5027 18.6907 70.5552 19.9899 70.5552H24.6947C25.9939 70.5552 27.0449 69.5027 27.0449 68.205V63.5001C27.0449 62.2009 25.9939 61.1484 24.6947 61.1484ZM38.8049 61.1484H34.1015C32.8023 61.1484 31.7498 62.2009 31.7498 63.5001V68.2035C31.7498 69.5027 32.8023 70.5552 34.1015 70.5552H38.8049C40.104 70.5552 41.1565 69.5027 41.1565 68.205V63.5001C41.1565 62.2009 40.104 61.1484 38.8049 61.1484ZM52.9165 61.1484H48.2131C46.9139 61.1484 45.8614 62.2009 45.8614 63.5001V68.2035C45.8614 69.5027 46.9139 70.5552 48.2116 70.5552H52.9165C54.2156 70.5552 55.2681 69.5027 55.2681 68.205V63.5001C55.2681 62.2009 54.2142 61.1484 52.9165 61.1484ZM67.028 61.1484H62.3232C61.024 61.1484 59.973 62.2009 59.973 63.5001V68.2035C59.973 69.5027 61.024 70.5552 62.3232 70.5552H67.028C68.3272 70.5552 69.3783 69.5027 69.3783 68.205V63.5001C69.3783 62.2009 68.3272 61.1484 67.028 61.1484ZM24.6947 75.2586H19.9899C18.6907 75.2586 17.6396 76.3125 17.6396 77.6103V82.3151C17.6396 83.6143 18.6907 84.6653 19.9899 84.6653H24.6947C25.9939 84.6653 27.0449 83.6143 27.0449 82.3151V77.6103C27.0449 76.3111 25.9939 75.2586 24.6947 75.2586ZM38.8049 75.2586H34.1015C32.8023 75.2586 31.7498 76.3125 31.7498 77.6103V82.3151C31.7498 83.6143 32.8023 84.6653 34.1015 84.6653H38.8049C40.104 84.6653 41.1565 83.6143 41.1565 82.3151V77.6103C41.1565 76.3111 40.1055 75.26 38.8063 75.26L38.8049 75.2586ZM52.9165 75.2586H48.2131C46.9139 75.2586 45.8614 76.3125 45.8614 77.6103V82.3151C45.8614 83.6143 46.9139 84.6653 48.2116 84.6653H52.9165C54.2156 84.6653 55.2681 83.6143 55.2681 82.3151V77.6103C55.2681 76.3111 54.2156 75.26 52.9179 75.26L52.9165 75.2586ZM67.028 75.2586H62.3232C61.024 75.2586 59.973 76.3125 59.973 77.6103V82.3151C59.973 83.6143 61.024 84.6653 62.3232 84.6653H67.028C68.3272 84.6653 69.3783 83.6143 69.3783 82.3151V77.6103C69.3783 76.3111 68.3272 75.2586 67.028 75.2586ZM24.6947 89.3702H19.9899C18.6907 89.3702 17.6396 90.4227 17.6396 91.7219V96.4252C17.6396 97.7244 18.6907 98.7784 19.9899 98.7784H24.6947C25.9939 98.7784 27.0449 97.7244 27.0449 96.4252V91.7219C27.0449 90.4227 25.9939 89.3702 24.6947 89.3702ZM38.8049 89.3702H34.1015C32.8023 89.3702 31.7498 90.4227 31.7498 91.7219V96.4252C31.7498 97.7244 32.8023 98.7784 34.1015 98.7784H38.8049C40.104 98.7784 41.1565 97.7244 41.1565 96.4252V91.7219C41.1565 90.4227 40.1055 89.3716 38.8063 89.3716L38.8049 89.3702ZM52.9165 89.3702H48.2131C46.9139 89.3702 45.8614 90.4227 45.8614 91.7219V96.4252C45.8614 97.7244 46.9139 98.7784 48.2116 98.7784H52.9165C54.2156 98.7784 55.2681 97.7244 55.2681 96.4252V91.7219C55.2681 90.4227 54.2156 89.3716 52.9179 89.3716L52.9165 89.3702Z" fill="#F3F4F8"/>
<path d="M67.0287 89.3701H62.3239C61.0247 89.3701 59.9736 90.4226 59.9736 91.7218V110.538C59.9736 111.836 61.0247 112.888 62.3239 112.888H67.0287C68.3279 112.888 69.3789 111.836 69.3789 110.538V91.7218C69.3789 90.4226 68.3279 89.3701 67.0287 89.3701Z" fill="#F3F4F8"/>
<path d="M27.0459 105.834V110.537C27.0459 111.161 26.7981 111.759 26.3571 112.2C25.9161 112.641 25.3179 112.889 24.6942 112.889H20.601C19.5782 112.023 18.5896 111.117 17.6377 110.174V105.834C17.6377 105.525 17.6985 105.219 17.8167 104.934C17.9349 104.649 18.1081 104.39 18.3265 104.171C18.5449 103.953 18.8041 103.78 19.0894 103.661C19.3748 103.543 19.6806 103.482 19.9894 103.482H24.6942C25.3177 103.483 25.9155 103.731 26.3562 104.172C26.7969 104.613 27.0459 105.211 27.0459 105.834ZM38.8044 103.482H34.101C32.8018 103.482 31.7493 104.535 31.7493 105.834V110.537C31.7493 111.837 32.8018 112.889 34.101 112.889H38.8044C40.1036 112.889 41.156 111.837 41.156 110.539V105.834C41.156 104.535 40.1036 103.482 38.8044 103.482ZM52.916 103.482H48.2126C46.9134 103.482 45.8609 104.535 45.8609 105.834V110.537C45.8609 111.837 46.9134 112.889 48.2111 112.889H52.916C54.2152 112.889 55.2676 111.837 55.2676 110.539V105.834C55.2676 104.535 54.2137 103.482 52.916 103.482Z" fill="#F3F4F8"/>
<path d="M87.0182 55.2683C100.657 55.2683 111.713 44.212 111.713 30.5748C111.713 16.9362 100.657 5.87988 87.0182 5.87988C73.3795 5.87988 62.3232 16.9362 62.3232 30.5748C62.3232 44.212 73.3795 55.2683 87.0182 55.2683Z" fill="#5979C4"/>
<path d="M76.4332 43.5103C75.9692 43.5089 75.516 43.3702 75.1308 43.1117C74.7455 42.8531 74.4453 42.4864 74.2682 42.0576C74.091 41.6287 74.0447 41.1571 74.1351 40.702C74.2256 40.2469 74.4487 39.8288 74.7763 39.5003L95.943 18.3336C96.3916 17.9403 96.9731 17.7322 97.5695 17.7518C98.1659 17.7713 98.7325 18.017 99.1544 18.4389C99.5763 18.8608 99.822 19.4274 99.8415 20.0238C99.861 20.6201 99.653 21.2016 99.2596 21.6502L78.0929 42.8169C77.6536 43.2578 77.055 43.5074 76.4332 43.5103ZM77.6112 29.4002C76.6845 29.4002 75.7669 29.2176 74.9108 28.863C74.0547 28.5084 73.2768 27.9886 72.6215 27.3334C71.9662 26.6781 71.4465 25.9002 71.0918 25.0441C70.7372 24.1879 70.5547 23.2703 70.5547 22.3436C70.5547 21.417 70.7372 20.4994 71.0918 19.6432C71.4465 18.7871 71.9662 18.0092 72.6215 17.3539C73.2768 16.6987 74.0547 16.1789 74.9108 15.8243C75.7669 15.4696 76.6845 15.2871 77.6112 15.2871C79.4825 15.2871 81.2772 16.0305 82.6004 17.3537C83.9236 18.6769 84.667 20.4716 84.667 22.3429C84.667 24.2142 83.9236 26.0089 82.6004 27.3321C81.2772 28.6553 79.4825 29.4002 77.6112 29.4002ZM77.6112 19.9919C76.9877 19.9919 76.3897 20.2396 75.9488 20.6805C75.5079 21.1214 75.2603 21.7194 75.2603 22.3429C75.2603 22.9664 75.5079 23.5644 75.9488 24.0053C76.3897 24.4462 76.9877 24.6939 77.6112 24.6939C78.2347 24.6939 78.8327 24.4462 79.2736 24.0053C79.7145 23.5644 79.9622 22.9664 79.9622 22.3429C79.9622 21.7194 79.7145 21.1214 79.2736 20.6805C78.8327 20.2396 78.2347 19.9919 77.6112 19.9919ZM96.4247 45.862C95.4981 45.862 94.5805 45.6795 93.7243 45.3249C92.8682 44.9702 92.0903 44.4504 91.435 43.7952C90.7798 43.1399 90.26 42.362 89.9053 41.5059C89.5507 40.6497 89.3682 39.7321 89.3682 38.8055C89.3682 37.8788 89.5507 36.9612 89.9053 36.1051C90.26 35.2489 90.7798 34.471 91.435 33.8157C92.0903 33.1605 92.8682 32.6407 93.7243 32.2861C94.5805 31.9315 95.4981 31.7489 96.4247 31.7489C98.2962 31.7489 100.091 32.4924 101.414 33.8157C102.738 35.1391 103.481 36.934 103.481 38.8055C103.481 40.677 102.738 42.4718 101.414 43.7952C100.091 45.1185 98.2962 45.862 96.4247 45.862ZM96.4247 36.4538C96.1109 36.446 95.7986 36.501 95.5064 36.6157C95.2141 36.7304 94.9478 36.9025 94.7231 37.1217C94.4983 37.3409 94.3197 37.6029 94.1977 37.8922C94.0758 38.1815 94.013 38.4922 94.013 38.8062C94.013 39.1201 94.0758 39.4309 94.1977 39.7202C94.3197 40.0095 94.4983 40.2715 94.7231 40.4907C94.9478 40.7099 95.2141 40.882 95.5064 40.9967C95.7986 41.1114 96.1109 41.1664 96.4247 41.1586C97.0385 41.1433 97.622 40.8888 98.0506 40.4493C98.4793 40.0098 98.7193 39.4201 98.7193 38.8062C98.7193 38.1923 98.4793 37.6026 98.0506 37.1631C97.622 36.7236 97.0385 36.4691 96.4247 36.4538Z" fill="white"/>
<path d="M25.8698 52.9171H21.1664C20.8617 52.9064 20.5731 52.7778 20.3613 52.5585C20.1496 52.3391 20.0312 52.0461 20.0312 51.7413C20.0312 51.4364 20.1496 51.1434 20.3613 50.9241C20.5731 50.7048 20.8617 50.5762 21.1664 50.5654H25.8698C26.1814 50.5654 26.4803 50.6892 26.7007 50.9096C26.9211 51.13 27.0449 51.4289 27.0449 51.7405C27.0449 52.0522 26.9211 52.3511 26.7007 52.5715C26.4803 52.7919 26.1814 52.9171 25.8698 52.9171ZM35.278 52.9171H30.5731C30.2613 52.9171 29.9622 52.7932 29.7417 52.5727C29.5212 52.3522 29.3973 52.0531 29.3973 51.7413C29.3973 51.4294 29.5212 51.1303 29.7417 50.9098C29.9622 50.6893 30.2613 50.5654 30.5731 50.5654H35.278C35.5896 50.5654 35.8885 50.6892 36.1089 50.9096C36.3293 51.13 36.4531 51.4289 36.4531 51.7405C36.4531 52.0522 36.3293 52.3511 36.1089 52.5715C35.8885 52.7919 35.5896 52.9171 35.278 52.9171ZM44.6847 52.9171H39.9814C39.6767 52.9064 39.3881 52.7778 39.1763 52.5585C38.9646 52.3391 38.8462 52.0461 38.8462 51.7413C38.8462 51.4364 38.9646 51.1434 39.1763 50.9241C39.3881 50.7048 39.6767 50.5762 39.9814 50.5654H44.6847C44.9964 50.5654 45.2953 50.6892 45.5157 50.9096C45.7361 51.13 45.8599 51.4289 45.8599 51.7405C45.8599 52.0522 45.7361 52.3511 45.5157 52.5715C45.2953 52.7919 44.9964 52.9171 44.6847 52.9171Z" fill="#879FD6"/>
</g>
<defs>
<clipPath id="clip0_4094_12129">
<rect width="127" height="127" fill="white"/>
</clipPath>
</defs>
</svg>
