<svg width="128" height="127" viewBox="0 0 128 127" fill="none" xmlns="http://www.w3.org/2000/svg">
<path d="M107.25 30.3964C113.962 39.2811 117.947 50.2882 118.151 62.1993H127.872C127.667 48.0268 122.922 34.9248 114.905 24.3848L107.25 30.3964Z" fill="#005AAA"/>
<path d="M118.113 64.106C117.88 75.8963 113.86 86.7434 107.239 95.5298L107.34 95.6058C107.327 95.6204 107.318 95.633 107.305 95.6446L114.97 101.613C114.98 101.603 114.987 101.596 114.995 101.583L115.022 101.608C115.644 100.786 116.196 99.944 116.775 99.11C116.849 99.0012 116.925 98.8981 116.999 98.7899C124.091 88.4048 127.765 76.8682 127.96 64.106H118.114H118.113Z" fill="#ED2D62"/>
<path d="M72.5022 9.66028C86.1858 11.8135 97.9197 18.8766 106.069 28.8947L113.726 22.8825C104.104 10.9891 90.2193 2.60724 74.0155 0.0579111C71.3841 -0.351289 68.8735 1.45111 68.4576 4.10361C68.0388 6.7541 69.8511 9.24202 72.5017 9.66028H72.5022Z" fill="#27BCBD"/>
<path d="M106.115 97.1431C96.3661 109.194 81.5674 116.988 64.9624 117.276V126.997C84.6791 126.704 102.246 117.436 113.776 103.106L106.115 97.1436V97.1431Z" fill="#F5821F"/>
<path d="M63.0533 117.279C33.6265 116.768 9.8472 92.6896 9.8472 63.1532C9.8472 58.6203 10.4282 54.1926 11.511 49.9425L2.12514 47.4053C0.823283 52.4697 0.124023 57.749 0.124023 63.1532C0.124023 98.0495 28.2681 126.483 63.0533 127V117.279Z" fill="#00A664"/>
<path d="M12.0127 48.1016C17.4975 29.3413 32.9476 14.3669 52.7232 10.1753C53.5796 9.99559 54.444 9.83301 55.3124 9.69359C57.9659 9.26728 59.7652 6.7698 59.3373 4.12182C58.9114 1.47133 56.4179 -0.335091 53.7643 0.0977657C52.7353 0.262855 51.7164 0.455124 50.7075 0.668532C27.3188 5.62021 9.06207 23.3613 2.63281 45.5638L12.0127 48.1016Z" fill="#AAB2B5"/>
<path fill-rule="evenodd" clip-rule="evenodd" d="M64.7564 56.5271C66.406 56.5271 67.613 55.3419 67.613 53.5313C67.613 51.7656 66.3813 50.5588 64.7564 50.5588C63.1763 50.5588 61.9215 51.7193 61.9215 53.5313C61.9215 55.2743 63.1299 56.5271 64.7564 56.5271ZM64.7564 48.0498C68.2178 48.0498 70.4477 50.3946 70.4477 53.5313C70.4477 56.6666 68.2178 59.0128 64.7564 59.0128C61.2948 59.0128 59.0635 56.6666 59.0635 53.5313C59.0635 50.3946 61.2951 48.0498 64.7564 48.0498ZM54.3922 48.3044L51.023 52.6715L47.4678 48.3044H45.0518V58.7565H47.7241V52.3689L50.9062 56.2705H50.9766L54.0665 52.3689V58.7565H56.7389V48.3044H54.3922ZM72.7731 48.3044V58.7565H75.445L80.3242 52.1367V58.7565H82.9963V48.3044H80.3242L75.445 54.9253V48.3044H72.7731Z" fill="#353838"/>
<path fill-rule="evenodd" clip-rule="evenodd" d="M26.4119 70.7739V76.7422H26.5043C28.4315 76.7422 29.3623 75.5121 29.3623 73.7464C29.3623 72.1898 28.4792 70.7739 26.598 70.7739H26.4122H26.4119ZM23.6704 76.7422H23.7398V70.7739H23.5536C21.5776 70.7739 20.7894 72.1435 20.7894 73.7464C20.7894 75.4893 21.7418 76.7422 23.6704 76.7422ZM23.7398 79.2279H23.6011C19.9522 79.2279 17.9312 76.8587 17.9312 73.7464C17.9312 70.912 19.9294 68.2649 23.5767 68.2649H23.7398V62.7129H26.4119V68.2649H26.5978C30.1976 68.2649 32.22 70.6801 32.22 73.7464C32.22 76.8587 30.3848 79.2279 26.5978 79.2279H26.4119V83.618H23.7398V79.2279ZM34.5438 78.9724V68.5202H37.2157V75.1412L42.0949 68.5202H44.7668V78.9724H42.0949V72.3526L37.2157 78.9724H34.5438ZM50.4124 74.977H54.989V78.9724H57.6611V68.5202H54.989V72.4693H50.4124V68.5202H47.74V78.9724H50.4124V74.977ZM66.1435 75.9062V74.8378C65.6796 74.4891 65.0746 74.3263 64.3069 74.3263C63.4253 74.3263 62.6344 74.744 62.6344 75.6269C62.6344 76.4174 63.2869 76.8581 64.1213 76.8581C65.2363 76.8581 65.8178 76.3699 66.1435 75.9062ZM60.7762 69.2625C61.6823 68.7297 63.0996 68.2657 64.4701 68.2657C67.5597 68.2657 68.6519 69.843 68.6519 72.6081V78.9724H66.3282V77.7637C65.7709 78.5533 64.6559 79.1105 63.24 79.1105C61.3338 79.1105 59.9642 77.9268 59.9642 75.9062C59.9642 73.606 61.6598 72.5143 63.7746 72.5143C64.7023 72.5143 65.6325 72.8166 66.144 73.1883C66.2134 71.4454 65.7492 70.4951 64.1924 70.4951C63.0269 70.4951 62.2726 70.8391 61.5332 71.1762L61.4509 71.2138L60.7768 69.2622L60.7762 69.2625ZM74.0679 74.977H78.6448V78.9724H81.3169V68.5202H78.6448V72.4693H74.0679V68.5202H71.3947V78.9724H74.0679V74.977ZM93.4659 77.4148C92.5815 78.6 91.0027 79.2265 89.3057 79.2265C85.9132 79.2265 83.6375 77.0431 83.6375 73.745C83.6375 70.7032 85.8674 68.2635 89.0511 68.2635C90.7708 68.2635 92.2805 68.7045 93.2556 69.6791L92.0025 71.7949C91.213 71.0271 90.3516 70.7725 89.3992 70.7725C87.9142 70.7725 86.4952 71.9102 86.4952 73.745C86.4952 75.6033 87.9361 76.7408 89.5157 76.7408C90.6554 76.7408 91.537 76.2077 92.2112 75.4633L93.4656 77.4148H93.4659ZM108.337 68.5205H105.663V78.9735H108.337V68.5205ZM98.2765 76.6506V73.5139H99.3451C100.786 73.5139 101.343 74.1418 101.343 75.0951C101.343 76.0456 100.761 76.6506 99.3224 76.6506H98.2765ZM95.6047 68.5205H95.6044L95.6047 68.5202V68.5205ZM98.2765 68.5205H95.6047V78.9738H99.3684C102.924 78.9738 104.177 76.9992 104.177 75C104.177 73.1439 103.132 71.3779 99.5773 71.3779H98.2765V68.5205Z" fill="#353838"/>
</svg>
