<svg width="112" height="112" viewBox="0 0 112 112" fill="none" xmlns="http://www.w3.org/2000/svg">
<path d="M55.9999 110.164C85.9138 110.164 110.164 85.9138 110.164 55.9999C110.164 26.086 85.9138 1.83594 55.9999 1.83594C26.086 1.83594 1.83594 26.086 1.83594 55.9999C1.83594 85.9138 26.086 110.164 55.9999 110.164Z" fill="#FAC91B" stroke="black" stroke-width="1.3" stroke-miterlimit="10"/>
<path fill-rule="evenodd" clip-rule="evenodd" d="M50.5838 5.14841L50.7479 9.74414L52.3883 9.68557L52.2241 5.08984L50.5838 5.14841ZM67.5121 6.23324L66.3631 10.829L67.9555 11.227L69.1044 6.63131L67.5121 6.23324ZM80.8056 16.9095L83.76 13.2986L85.0304 14.338L82.076 17.9489L80.8056 16.9095ZM95.5134 24.0277L92.0666 26.9821L93.1348 28.2283L96.5816 25.2738L95.5134 24.0277ZM99.1046 40.2754L103.7 38.9623L104.151 40.5405L99.5553 41.8535L99.1046 40.2754ZM106.553 54.5235H101.629V56.1647H106.553V54.5235ZM99.8282 69.2017L104.26 71.1714L103.593 72.6713L99.1617 70.7016L99.8282 69.2017ZM96.929 85.595L93.1541 82.1482L92.0473 83.3602L95.8224 86.807L96.929 85.595ZM82.9514 93.1444L85.5775 97.2476L84.1952 98.1324L81.569 94.0292L82.9514 93.1444ZM70.8971 104.497L69.42 99.9009L67.8573 100.403L69.3344 104.999L70.8971 104.497ZM54.3567 101.846L54.0284 106.934L52.3906 106.829L52.7188 101.741L54.3567 101.846ZM37.0474 103.288L39.1811 98.6924L37.6924 98.0013L35.5587 102.597L37.0474 103.288ZM26.0514 90.8844L22.4404 94.4953L21.2798 93.3348L24.8908 89.7238L26.0514 90.8844ZM12.093 81.9877L16.3605 79.5255L15.5403 78.1039L11.2728 80.5658L12.093 81.9877ZM10.6948 65.3399L5.77085 66.3248L5.44895 64.7153L10.3729 63.7306L10.6948 65.3399ZM5.39844 48.9148L10.3224 50.228L10.7453 48.642L5.82136 47.329L5.39844 48.9148ZM14.7008 35.8543L10.4334 33.2282L11.2936 31.8304L15.561 34.4566L14.7008 35.8543ZM20.4723 19.6641L24.0833 23.111L25.2165 21.9236L21.6055 18.4769L20.4723 19.6641ZM36.713 14.5026L34.5792 10.071L36.0581 9.35894L38.1918 13.7905L36.713 14.5026ZM46.4794 39.4227V38.6022H47.3002H60.4308C63.5493 38.6022 66.3396 39.5869 68.3092 41.5564C70.443 43.5262 71.4277 46.1523 71.4277 49.2709C71.4277 52.3892 70.2789 55.0153 68.3092 56.9851C66.3396 58.9546 63.7135 59.9395 60.4308 59.9395H52.2241V62.7298H62.8928H63.7135V63.5503V66.6689V67.4896H62.8928H52.2241V72.0853V72.906H51.4036H47.3002H46.4794V72.0853V67.4896H41.063H40.2425V66.6689V63.5503V62.7298H41.063H46.4794V59.9395H41.063H40.2425V59.1188V55.5078V54.6872H41.063H46.4794V39.4227ZM59.7742 43.8545H52.06V54.6872H59.7742C61.4156 54.6872 62.8928 54.1948 63.8776 53.2099C65.0266 52.2253 65.5189 50.9121 65.5189 49.2709C65.5189 47.6294 64.8625 46.3164 63.8776 45.3316C62.8928 44.3467 61.4156 43.8545 59.7742 43.8545Z" fill="black"/>
</svg>
